<?xml version="1.0" encoding="utf-8" standalone="no"?>
<!DOCTYPE svg PUBLIC "-//W3C//DTD SVG 1.1//EN"
  "http://www.w3.org/Graphics/SVG/1.1/DTD/svg11.dtd">
<svg xmlns:xlink="http://www.w3.org/1999/xlink" width="1330.56pt" height="360pt" viewBox="0 0 1330.56 360" xmlns="http://www.w3.org/2000/svg" version="1.1">
 <metadata>
  <rdf:RDF xmlns:dc="http://purl.org/dc/elements/1.1/" xmlns:cc="http://creativecommons.org/ns#" xmlns:rdf="http://www.w3.org/1999/02/22-rdf-syntax-ns#">
   <cc:Work>
    <dc:type rdf:resource="http://purl.org/dc/dcmitype/StillImage"/>
    <dc:date>2022-05-05T20:38:42.129640</dc:date>
    <dc:format>image/svg+xml</dc:format>
    <dc:creator>
     <cc:Agent>
      <dc:title>Matplotlib v3.5.1, https://matplotlib.org/</dc:title>
     </cc:Agent>
    </dc:creator>
   </cc:Work>
  </rdf:RDF>
 </metadata>
 <defs>
  <style type="text/css">*{stroke-linejoin: round; stroke-linecap: butt}</style>
 </defs>
 <g id="figure_1">
  <g id="patch_1">
   <path d="M 0 360 
L 1330.56 360 
L 1330.56 0 
L 0 0 
z
" style="fill: #ffffff"/>
  </g>
  <g id="axes_1">
   <g id="patch_2">
    <path d="M 166.32 320.4 
L 469.609412 320.4 
L 469.609412 43.2 
L 166.32 43.2 
z
" style="fill: #ffffff"/>
   </g>
   <g id="matplotlib.axis_1">
    <g id="xtick_1">
     <g id="line2d_1">
      <defs>
       <path id="m9b07d9641a" d="M 0 0 
L 0 3.5 
" style="stroke: #000000; stroke-width: 0.8"/>
      </defs>
      <g>
       <use xlink:href="#m9b07d9641a" x="166.32" y="320.4" style="stroke: #000000; stroke-width: 0.8"/>
      </g>
     </g>
     <g id="text_1">
      <!-- −0.6 -->
      <g transform="translate(154.178594 334.998438)scale(0.1 -0.1)">
       <defs>
        <path id="DejaVuSans-2212" d="M 678 2272 
L 4684 2272 
L 4684 1741 
L 678 1741 
L 678 2272 
z
" transform="scale(0.015625)"/>
        <path id="DejaVuSans-30" d="M 2034 4250 
Q 1547 4250 1301 3770 
Q 1056 3291 1056 2328 
Q 1056 1369 1301 889 
Q 1547 409 2034 409 
Q 2525 409 2770 889 
Q 3016 1369 3016 2328 
Q 3016 3291 2770 3770 
Q 2525 4250 2034 4250 
z
M 2034 4750 
Q 2819 4750 3233 4129 
Q 3647 3509 3647 2328 
Q 3647 1150 3233 529 
Q 2819 -91 2034 -91 
Q 1250 -91 836 529 
Q 422 1150 422 2328 
Q 422 3509 836 4129 
Q 1250 4750 2034 4750 
z
" transform="scale(0.015625)"/>
        <path id="DejaVuSans-2e" d="M 684 794 
L 1344 794 
L 1344 0 
L 684 0 
L 684 794 
z
" transform="scale(0.015625)"/>
        <path id="DejaVuSans-36" d="M 2113 2584 
Q 1688 2584 1439 2293 
Q 1191 2003 1191 1497 
Q 1191 994 1439 701 
Q 1688 409 2113 409 
Q 2538 409 2786 701 
Q 3034 994 3034 1497 
Q 3034 2003 2786 2293 
Q 2538 2584 2113 2584 
z
M 3366 4563 
L 3366 3988 
Q 3128 4100 2886 4159 
Q 2644 4219 2406 4219 
Q 1781 4219 1451 3797 
Q 1122 3375 1075 2522 
Q 1259 2794 1537 2939 
Q 1816 3084 2150 3084 
Q 2853 3084 3261 2657 
Q 3669 2231 3669 1497 
Q 3669 778 3244 343 
Q 2819 -91 2113 -91 
Q 1303 -91 875 529 
Q 447 1150 447 2328 
Q 447 3434 972 4092 
Q 1497 4750 2381 4750 
Q 2619 4750 2861 4703 
Q 3103 4656 3366 4563 
z
" transform="scale(0.015625)"/>
       </defs>
       <use xlink:href="#DejaVuSans-2212"/>
       <use xlink:href="#DejaVuSans-30" x="83.789062"/>
       <use xlink:href="#DejaVuSans-2e" x="147.412109"/>
       <use xlink:href="#DejaVuSans-36" x="179.199219"/>
      </g>
     </g>
    </g>
    <g id="xtick_2">
     <g id="line2d_2">
      <g>
       <use xlink:href="#m9b07d9641a" x="216.868235" y="320.4" style="stroke: #000000; stroke-width: 0.8"/>
      </g>
     </g>
     <g id="text_2">
      <!-- −0.4 -->
      <g transform="translate(204.726829 334.998438)scale(0.1 -0.1)">
       <defs>
        <path id="DejaVuSans-34" d="M 2419 4116 
L 825 1625 
L 2419 1625 
L 2419 4116 
z
M 2253 4666 
L 3047 4666 
L 3047 1625 
L 3713 1625 
L 3713 1100 
L 3047 1100 
L 3047 0 
L 2419 0 
L 2419 1100 
L 313 1100 
L 313 1709 
L 2253 4666 
z
" transform="scale(0.015625)"/>
       </defs>
       <use xlink:href="#DejaVuSans-2212"/>
       <use xlink:href="#DejaVuSans-30" x="83.789062"/>
       <use xlink:href="#DejaVuSans-2e" x="147.412109"/>
       <use xlink:href="#DejaVuSans-34" x="179.199219"/>
      </g>
     </g>
    </g>
    <g id="xtick_3">
     <g id="line2d_3">
      <g>
       <use xlink:href="#m9b07d9641a" x="267.416471" y="320.4" style="stroke: #000000; stroke-width: 0.8"/>
      </g>
     </g>
     <g id="text_3">
      <!-- −0.2 -->
      <g transform="translate(255.275064 334.998438)scale(0.1 -0.1)">
       <defs>
        <path id="DejaVuSans-32" d="M 1228 531 
L 3431 531 
L 3431 0 
L 469 0 
L 469 531 
Q 828 903 1448 1529 
Q 2069 2156 2228 2338 
Q 2531 2678 2651 2914 
Q 2772 3150 2772 3378 
Q 2772 3750 2511 3984 
Q 2250 4219 1831 4219 
Q 1534 4219 1204 4116 
Q 875 4013 500 3803 
L 500 4441 
Q 881 4594 1212 4672 
Q 1544 4750 1819 4750 
Q 2544 4750 2975 4387 
Q 3406 4025 3406 3419 
Q 3406 3131 3298 2873 
Q 3191 2616 2906 2266 
Q 2828 2175 2409 1742 
Q 1991 1309 1228 531 
z
" transform="scale(0.015625)"/>
       </defs>
       <use xlink:href="#DejaVuSans-2212"/>
       <use xlink:href="#DejaVuSans-30" x="83.789062"/>
       <use xlink:href="#DejaVuSans-2e" x="147.412109"/>
       <use xlink:href="#DejaVuSans-32" x="179.199219"/>
      </g>
     </g>
    </g>
    <g id="xtick_4">
     <g id="line2d_4">
      <g>
       <use xlink:href="#m9b07d9641a" x="317.964706" y="320.4" style="stroke: #000000; stroke-width: 0.8"/>
      </g>
     </g>
     <g id="text_4">
      <!-- 0.0 -->
      <g transform="translate(310.013143 334.998438)scale(0.1 -0.1)">
       <use xlink:href="#DejaVuSans-30"/>
       <use xlink:href="#DejaVuSans-2e" x="63.623047"/>
       <use xlink:href="#DejaVuSans-30" x="95.410156"/>
      </g>
     </g>
    </g>
    <g id="xtick_5">
     <g id="line2d_5">
      <g>
       <use xlink:href="#m9b07d9641a" x="368.512941" y="320.4" style="stroke: #000000; stroke-width: 0.8"/>
      </g>
     </g>
     <g id="text_5">
      <!-- 0.2 -->
      <g transform="translate(360.561379 334.998438)scale(0.1 -0.1)">
       <use xlink:href="#DejaVuSans-30"/>
       <use xlink:href="#DejaVuSans-2e" x="63.623047"/>
       <use xlink:href="#DejaVuSans-32" x="95.410156"/>
      </g>
     </g>
    </g>
    <g id="xtick_6">
     <g id="line2d_6">
      <g>
       <use xlink:href="#m9b07d9641a" x="419.061176" y="320.4" style="stroke: #000000; stroke-width: 0.8"/>
      </g>
     </g>
     <g id="text_6">
      <!-- 0.4 -->
      <g transform="translate(411.109614 334.998438)scale(0.1 -0.1)">
       <use xlink:href="#DejaVuSans-30"/>
       <use xlink:href="#DejaVuSans-2e" x="63.623047"/>
       <use xlink:href="#DejaVuSans-34" x="95.410156"/>
      </g>
     </g>
    </g>
    <g id="xtick_7">
     <g id="line2d_7">
      <g>
       <use xlink:href="#m9b07d9641a" x="469.609412" y="320.4" style="stroke: #000000; stroke-width: 0.8"/>
      </g>
     </g>
     <g id="text_7">
      <!-- 0.6 -->
      <g transform="translate(461.657849 334.998438)scale(0.1 -0.1)">
       <use xlink:href="#DejaVuSans-30"/>
       <use xlink:href="#DejaVuSans-2e" x="63.623047"/>
       <use xlink:href="#DejaVuSans-36" x="95.410156"/>
      </g>
     </g>
    </g>
    <g id="text_8">
     <!-- Error -->
     <g transform="translate(305.77955 348.676562)scale(0.1 -0.1)">
      <defs>
       <path id="DejaVuSans-45" d="M 628 4666 
L 3578 4666 
L 3578 4134 
L 1259 4134 
L 1259 2753 
L 3481 2753 
L 3481 2222 
L 1259 2222 
L 1259 531 
L 3634 531 
L 3634 0 
L 628 0 
L 628 4666 
z
" transform="scale(0.015625)"/>
       <path id="DejaVuSans-72" d="M 2631 2963 
Q 2534 3019 2420 3045 
Q 2306 3072 2169 3072 
Q 1681 3072 1420 2755 
Q 1159 2438 1159 1844 
L 1159 0 
L 581 0 
L 581 3500 
L 1159 3500 
L 1159 2956 
Q 1341 3275 1631 3429 
Q 1922 3584 2338 3584 
Q 2397 3584 2469 3576 
Q 2541 3569 2628 3553 
L 2631 2963 
z
" transform="scale(0.015625)"/>
       <path id="DejaVuSans-6f" d="M 1959 3097 
Q 1497 3097 1228 2736 
Q 959 2375 959 1747 
Q 959 1119 1226 758 
Q 1494 397 1959 397 
Q 2419 397 2687 759 
Q 2956 1122 2956 1747 
Q 2956 2369 2687 2733 
Q 2419 3097 1959 3097 
z
M 1959 3584 
Q 2709 3584 3137 3096 
Q 3566 2609 3566 1747 
Q 3566 888 3137 398 
Q 2709 -91 1959 -91 
Q 1206 -91 779 398 
Q 353 888 353 1747 
Q 353 2609 779 3096 
Q 1206 3584 1959 3584 
z
" transform="scale(0.015625)"/>
      </defs>
      <use xlink:href="#DejaVuSans-45"/>
      <use xlink:href="#DejaVuSans-72" x="63.183594"/>
      <use xlink:href="#DejaVuSans-72" x="102.546875"/>
      <use xlink:href="#DejaVuSans-6f" x="141.410156"/>
      <use xlink:href="#DejaVuSans-72" x="202.591797"/>
     </g>
    </g>
   </g>
   <g id="matplotlib.axis_2">
    <g id="ytick_1">
     <g id="line2d_8">
      <defs>
       <path id="mae79e430c3" d="M 0 0 
L -3.5 0 
" style="stroke: #000000; stroke-width: 0.8"/>
      </defs>
      <g>
       <use xlink:href="#mae79e430c3" x="166.32" y="320.4" style="stroke: #000000; stroke-width: 0.8"/>
      </g>
     </g>
     <g id="text_9">
      <!-- 0 -->
      <g transform="translate(152.9575 324.199219)scale(0.1 -0.1)">
       <use xlink:href="#DejaVuSans-30"/>
      </g>
     </g>
    </g>
    <g id="ytick_2">
     <g id="line2d_9">
      <g>
       <use xlink:href="#mae79e430c3" x="166.32" y="262.328367" style="stroke: #000000; stroke-width: 0.8"/>
      </g>
     </g>
     <g id="text_10">
      <!-- 2 -->
      <g transform="translate(152.9575 266.127586)scale(0.1 -0.1)">
       <use xlink:href="#DejaVuSans-32"/>
      </g>
     </g>
    </g>
    <g id="ytick_3">
     <g id="line2d_10">
      <g>
       <use xlink:href="#mae79e430c3" x="166.32" y="204.256734" style="stroke: #000000; stroke-width: 0.8"/>
      </g>
     </g>
     <g id="text_11">
      <!-- 4 -->
      <g transform="translate(152.9575 208.055952)scale(0.1 -0.1)">
       <use xlink:href="#DejaVuSans-34"/>
      </g>
     </g>
    </g>
    <g id="ytick_4">
     <g id="line2d_11">
      <g>
       <use xlink:href="#mae79e430c3" x="166.32" y="146.1851" style="stroke: #000000; stroke-width: 0.8"/>
      </g>
     </g>
     <g id="text_12">
      <!-- 6 -->
      <g transform="translate(152.9575 149.984319)scale(0.1 -0.1)">
       <use xlink:href="#DejaVuSans-36"/>
      </g>
     </g>
    </g>
    <g id="ytick_5">
     <g id="line2d_12">
      <g>
       <use xlink:href="#mae79e430c3" x="166.32" y="88.113467" style="stroke: #000000; stroke-width: 0.8"/>
      </g>
     </g>
     <g id="text_13">
      <!-- 8 -->
      <g transform="translate(152.9575 91.912686)scale(0.1 -0.1)">
       <defs>
        <path id="DejaVuSans-38" d="M 2034 2216 
Q 1584 2216 1326 1975 
Q 1069 1734 1069 1313 
Q 1069 891 1326 650 
Q 1584 409 2034 409 
Q 2484 409 2743 651 
Q 3003 894 3003 1313 
Q 3003 1734 2745 1975 
Q 2488 2216 2034 2216 
z
M 1403 2484 
Q 997 2584 770 2862 
Q 544 3141 544 3541 
Q 544 4100 942 4425 
Q 1341 4750 2034 4750 
Q 2731 4750 3128 4425 
Q 3525 4100 3525 3541 
Q 3525 3141 3298 2862 
Q 3072 2584 2669 2484 
Q 3125 2378 3379 2068 
Q 3634 1759 3634 1313 
Q 3634 634 3220 271 
Q 2806 -91 2034 -91 
Q 1263 -91 848 271 
Q 434 634 434 1313 
Q 434 1759 690 2068 
Q 947 2378 1403 2484 
z
M 1172 3481 
Q 1172 3119 1398 2916 
Q 1625 2713 2034 2713 
Q 2441 2713 2670 2916 
Q 2900 3119 2900 3481 
Q 2900 3844 2670 4047 
Q 2441 4250 2034 4250 
Q 1625 4250 1398 4047 
Q 1172 3844 1172 3481 
z
" transform="scale(0.015625)"/>
       </defs>
       <use xlink:href="#DejaVuSans-38"/>
      </g>
     </g>
    </g>
    <g id="text_14">
     <!-- Density -->
     <g transform="translate(146.877812 200.808594)rotate(-90)scale(0.1 -0.1)">
      <defs>
       <path id="DejaVuSans-44" d="M 1259 4147 
L 1259 519 
L 2022 519 
Q 2988 519 3436 956 
Q 3884 1394 3884 2338 
Q 3884 3275 3436 3711 
Q 2988 4147 2022 4147 
L 1259 4147 
z
M 628 4666 
L 1925 4666 
Q 3281 4666 3915 4102 
Q 4550 3538 4550 2338 
Q 4550 1131 3912 565 
Q 3275 0 1925 0 
L 628 0 
L 628 4666 
z
" transform="scale(0.015625)"/>
       <path id="DejaVuSans-65" d="M 3597 1894 
L 3597 1613 
L 953 1613 
Q 991 1019 1311 708 
Q 1631 397 2203 397 
Q 2534 397 2845 478 
Q 3156 559 3463 722 
L 3463 178 
Q 3153 47 2828 -22 
Q 2503 -91 2169 -91 
Q 1331 -91 842 396 
Q 353 884 353 1716 
Q 353 2575 817 3079 
Q 1281 3584 2069 3584 
Q 2775 3584 3186 3129 
Q 3597 2675 3597 1894 
z
M 3022 2063 
Q 3016 2534 2758 2815 
Q 2500 3097 2075 3097 
Q 1594 3097 1305 2825 
Q 1016 2553 972 2059 
L 3022 2063 
z
" transform="scale(0.015625)"/>
       <path id="DejaVuSans-6e" d="M 3513 2113 
L 3513 0 
L 2938 0 
L 2938 2094 
Q 2938 2591 2744 2837 
Q 2550 3084 2163 3084 
Q 1697 3084 1428 2787 
Q 1159 2491 1159 1978 
L 1159 0 
L 581 0 
L 581 3500 
L 1159 3500 
L 1159 2956 
Q 1366 3272 1645 3428 
Q 1925 3584 2291 3584 
Q 2894 3584 3203 3211 
Q 3513 2838 3513 2113 
z
" transform="scale(0.015625)"/>
       <path id="DejaVuSans-73" d="M 2834 3397 
L 2834 2853 
Q 2591 2978 2328 3040 
Q 2066 3103 1784 3103 
Q 1356 3103 1142 2972 
Q 928 2841 928 2578 
Q 928 2378 1081 2264 
Q 1234 2150 1697 2047 
L 1894 2003 
Q 2506 1872 2764 1633 
Q 3022 1394 3022 966 
Q 3022 478 2636 193 
Q 2250 -91 1575 -91 
Q 1294 -91 989 -36 
Q 684 19 347 128 
L 347 722 
Q 666 556 975 473 
Q 1284 391 1588 391 
Q 1994 391 2212 530 
Q 2431 669 2431 922 
Q 2431 1156 2273 1281 
Q 2116 1406 1581 1522 
L 1381 1569 
Q 847 1681 609 1914 
Q 372 2147 372 2553 
Q 372 3047 722 3315 
Q 1072 3584 1716 3584 
Q 2034 3584 2315 3537 
Q 2597 3491 2834 3397 
z
" transform="scale(0.015625)"/>
       <path id="DejaVuSans-69" d="M 603 3500 
L 1178 3500 
L 1178 0 
L 603 0 
L 603 3500 
z
M 603 4863 
L 1178 4863 
L 1178 4134 
L 603 4134 
L 603 4863 
z
" transform="scale(0.015625)"/>
       <path id="DejaVuSans-74" d="M 1172 4494 
L 1172 3500 
L 2356 3500 
L 2356 3053 
L 1172 3053 
L 1172 1153 
Q 1172 725 1289 603 
Q 1406 481 1766 481 
L 2356 481 
L 2356 0 
L 1766 0 
Q 1100 0 847 248 
Q 594 497 594 1153 
L 594 3053 
L 172 3053 
L 172 3500 
L 594 3500 
L 594 4494 
L 1172 4494 
z
" transform="scale(0.015625)"/>
       <path id="DejaVuSans-79" d="M 2059 -325 
Q 1816 -950 1584 -1140 
Q 1353 -1331 966 -1331 
L 506 -1331 
L 506 -850 
L 844 -850 
Q 1081 -850 1212 -737 
Q 1344 -625 1503 -206 
L 1606 56 
L 191 3500 
L 800 3500 
L 1894 763 
L 2988 3500 
L 3597 3500 
L 2059 -325 
z
" transform="scale(0.015625)"/>
      </defs>
      <use xlink:href="#DejaVuSans-44"/>
      <use xlink:href="#DejaVuSans-65" x="77.001953"/>
      <use xlink:href="#DejaVuSans-6e" x="138.525391"/>
      <use xlink:href="#DejaVuSans-73" x="201.904297"/>
      <use xlink:href="#DejaVuSans-69" x="254.003906"/>
      <use xlink:href="#DejaVuSans-74" x="281.787109"/>
      <use xlink:href="#DejaVuSans-79" x="320.996094"/>
     </g>
    </g>
   </g>
   <g id="line2d_13">
    <path d="M 317.964706 320.4 
L 317.964706 43.2 
" clip-path="url(#pa6d08b32ba)" style="fill: none; stroke-dasharray: 5.55,2.4; stroke-dashoffset: 0; stroke: #1f77b4; stroke-width: 1.5"/>
   </g>
   <g id="line2d_14">
    <path d="M 232.611113 320.399995 
L 256.315208 320.296865 
L 260.43766 320.11209 
L 263.529498 319.849692 
L 267.65195 319.164995 
L 269.713175 318.529456 
L 271.774401 317.691694 
L 273.835627 316.442435 
L 275.896852 314.835697 
L 277.958078 312.659964 
L 278.988691 311.361342 
L 280.019304 309.801254 
L 282.080529 305.98924 
L 283.111142 303.865566 
L 284.141755 301.435282 
L 286.202981 295.576252 
L 288.264207 288.478603 
L 290.325432 279.888114 
L 292.386658 270.299179 
L 294.447884 259.45795 
L 297.539722 240.337818 
L 301.662174 212.298896 
L 306.815238 176.475329 
L 308.876464 163.870278 
L 310.937689 152.878095 
L 312.998915 144.450662 
L 314.029528 140.825235 
L 315.060141 138.297394 
L 316.090753 136.405288 
L 317.121366 135.194069 
L 318.151979 134.832593 
L 319.182592 135.509104 
L 320.213205 136.926687 
L 321.243818 139.207617 
L 322.274431 141.972025 
L 323.305043 145.288513 
L 324.335656 149.343268 
L 325.366269 153.920298 
L 327.427495 165.050138 
L 331.549946 192.110361 
L 335.672398 221.354862 
L 338.764236 242.538712 
L 340.825462 255.335188 
L 343.9173 272.316512 
L 344.947913 277.500791 
L 347.009139 286.377172 
L 348.039752 290.38864 
L 350.100978 297.056325 
L 352.162203 302.699357 
L 353.192816 305.147933 
L 354.223429 307.298169 
L 356.284655 310.656234 
L 358.34588 313.321467 
L 360.407106 315.309591 
L 361.437719 316.2042 
L 363.498945 317.473036 
L 365.56017 318.399062 
L 367.621396 319.050859 
L 371.743847 319.810484 
L 374.835686 320.09257 
L 383.080589 320.34216 
L 404.723459 320.398661 
L 437.70307 320.399995 
L 437.70307 320.399995 
" clip-path="url(#pa6d08b32ba)" style="fill: none; stroke: #1f77b4; stroke-width: 1.5; stroke-linecap: square"/>
   </g>
   <g id="line2d_15">
    <path d="M 256.678368 320.399993 
L 273.133532 320.301711 
L 277.247323 320.037906 
L 279.98985 319.528288 
L 281.361114 319.106906 
L 283.41801 318.109562 
L 284.789273 317.145041 
L 285.474905 316.538734 
L 286.846169 314.882895 
L 288.217433 312.833037 
L 289.588696 309.929788 
L 290.274328 308.276896 
L 291.645592 304.102561 
L 293.016856 299.045192 
L 294.388119 292.44085 
L 295.759383 284.485453 
L 297.130647 275.049968 
L 298.50191 263.907001 
L 299.873174 250.948248 
L 301.93007 227.884009 
L 304.672597 192.819941 
L 311.528916 98.504498 
L 312.900179 83.804785 
L 314.271443 71.165783 
L 314.957075 66.439655 
L 316.328338 59.622698 
L 317.01397 57.497134 
L 317.699602 56.473339 
L 318.385234 56.4 
L 319.070866 57.296506 
L 319.756498 59.357944 
L 321.127761 65.859148 
L 322.499025 75.829163 
L 323.870289 90.058232 
L 325.241552 106.463499 
L 327.298448 134.350857 
L 330.040975 173.648572 
L 332.783503 211.91098 
L 334.154767 229.346223 
L 336.211662 251.935979 
L 338.268558 271.270809 
L 339.639821 281.628683 
L 341.011085 290.3266 
L 342.382349 297.360784 
L 343.753612 303.165656 
L 345.124876 307.480323 
L 346.49614 311.081778 
L 347.867404 313.719188 
L 349.238667 315.583946 
L 350.609931 317.011113 
L 351.981195 318.061424 
L 353.352458 318.844427 
L 355.409354 319.551164 
L 357.466249 319.956229 
L 360.894409 320.2408 
L 365.693832 320.363031 
L 393.119106 320.399992 
L 393.119106 320.399992 
" clip-path="url(#pa6d08b32ba)" style="fill: none; stroke: #ff7f0e; stroke-width: 1.5; stroke-linecap: square"/>
   </g>
   <g id="line2d_16">
    <path d="M 192.924563 320.399997 
L 234.882014 320.288568 
L 240.295879 320.122132 
L 245.709744 319.776665 
L 248.416676 319.481743 
L 252.477075 318.71318 
L 255.184007 318.05413 
L 257.890939 317.15358 
L 261.951338 315.255269 
L 264.65827 313.480987 
L 267.365203 311.275424 
L 270.072135 308.54671 
L 272.779067 305.406954 
L 274.132533 303.635777 
L 275.486 301.663627 
L 279.546398 294.885831 
L 282.25333 289.699166 
L 286.313729 280.908811 
L 289.020661 274.488063 
L 291.727594 267.586733 
L 298.494924 249.597867 
L 299.848391 246.021484 
L 305.262255 233.101786 
L 307.969188 227.456126 
L 310.67612 221.964588 
L 312.029586 219.69949 
L 316.089985 214.175132 
L 317.443451 212.78121 
L 318.796917 211.708015 
L 321.503849 210.166488 
L 322.857315 209.739868 
L 324.210782 209.807055 
L 325.564248 210.159757 
L 328.27118 211.408683 
L 329.624646 212.370296 
L 332.331579 214.77578 
L 333.685045 216.355494 
L 336.391977 220.397513 
L 339.098909 225.165245 
L 343.159308 233.736196 
L 345.86624 240.060561 
L 349.926639 250.012175 
L 352.633571 256.630119 
L 356.69397 266.680016 
L 359.400902 273.267799 
L 363.461301 282.458732 
L 366.168233 288.08188 
L 367.521699 290.709048 
L 372.935564 299.922259 
L 375.642496 303.73974 
L 378.349428 307.016584 
L 381.056361 309.719906 
L 382.409827 310.938409 
L 385.116759 312.98923 
L 387.823692 314.749336 
L 390.530624 316.15086 
L 393.237556 317.250803 
L 395.944489 318.092282 
L 400.004887 318.978958 
L 404.065286 319.522589 
L 408.125684 319.888842 
L 413.539549 320.17519 
L 421.660346 320.334352 
L 444.669271 320.398836 
L 462.264331 320.399996 
L 462.264331 320.399996 
" clip-path="url(#pa6d08b32ba)" style="fill: none; stroke: #2ca02c; stroke-width: 1.5; stroke-linecap: square"/>
   </g>
   <g id="line2d_17">
    <path d="M 207.474179 320.399997 
L 228.957263 320.305721 
L 235.275817 320.068897 
L 239.066949 319.777135 
L 242.858082 319.262153 
L 246.649214 318.495999 
L 249.176635 317.82391 
L 251.704057 317.004978 
L 254.231479 315.987604 
L 260.550033 312.791539 
L 264.341165 310.290257 
L 266.868587 308.376256 
L 270.659719 305.309805 
L 273.18714 302.749309 
L 275.714562 299.82799 
L 278.241984 296.483024 
L 280.769405 292.481085 
L 283.296827 288.090089 
L 285.824248 283.260199 
L 292.142802 269.826488 
L 294.670224 264.247512 
L 297.197645 259.152047 
L 302.252489 249.799387 
L 306.043621 244.023002 
L 307.307332 242.25707 
L 312.362175 236.453555 
L 314.889597 233.822807 
L 318.680729 230.574633 
L 321.20815 228.624187 
L 323.735572 227.282059 
L 324.999283 226.686774 
L 326.262994 226.297474 
L 327.526704 226.237839 
L 330.054126 226.378542 
L 331.317837 226.669008 
L 332.581548 227.247533 
L 335.108969 228.83736 
L 336.37268 229.780948 
L 337.636391 230.88531 
L 340.163812 233.80213 
L 342.691234 237.005689 
L 345.218655 240.112043 
L 347.746077 243.674585 
L 354.064631 253.505785 
L 356.592053 257.448471 
L 360.383185 264.051073 
L 367.96545 277.308751 
L 373.020293 285.766015 
L 378.075136 293.582925 
L 380.602558 297.035308 
L 384.39369 301.779033 
L 386.921112 304.565232 
L 390.712244 308.131738 
L 393.239665 310.194686 
L 395.767087 311.970547 
L 398.294509 313.52884 
L 400.82193 314.834381 
L 403.349352 315.972239 
L 405.876773 316.929843 
L 408.404195 317.720694 
L 412.195327 318.62731 
L 415.98646 319.321098 
L 419.777592 319.751451 
L 424.832435 320.111677 
L 433.678411 320.343074 
L 448.84294 320.398102 
L 458.952627 320.399997 
L 458.952627 320.399997 
" clip-path="url(#pa6d08b32ba)" style="fill: none; stroke: #d62728; stroke-width: 1.5; stroke-linecap: square"/>
   </g>
   <g id="patch_3">
    <path d="M 166.32 320.4 
L 166.32 43.2 
" style="fill: none; stroke: #000000; stroke-width: 0.8; stroke-linejoin: miter; stroke-linecap: square"/>
   </g>
   <g id="patch_4">
    <path d="M 469.609412 320.4 
L 469.609412 43.2 
" style="fill: none; stroke: #000000; stroke-width: 0.8; stroke-linejoin: miter; stroke-linecap: square"/>
   </g>
   <g id="patch_5">
    <path d="M 166.32 320.4 
L 469.609412 320.4 
" style="fill: none; stroke: #000000; stroke-width: 0.8; stroke-linejoin: miter; stroke-linecap: square"/>
   </g>
   <g id="patch_6">
    <path d="M 166.32 43.2 
L 469.609412 43.2 
" style="fill: none; stroke: #000000; stroke-width: 0.8; stroke-linejoin: miter; stroke-linecap: square"/>
   </g>
   <g id="text_15">
    <!-- glove-100-angular -->
    <g transform="translate(262.891268 37.2)scale(0.12 -0.12)">
     <defs>
      <path id="DejaVuSans-67" d="M 2906 1791 
Q 2906 2416 2648 2759 
Q 2391 3103 1925 3103 
Q 1463 3103 1205 2759 
Q 947 2416 947 1791 
Q 947 1169 1205 825 
Q 1463 481 1925 481 
Q 2391 481 2648 825 
Q 2906 1169 2906 1791 
z
M 3481 434 
Q 3481 -459 3084 -895 
Q 2688 -1331 1869 -1331 
Q 1566 -1331 1297 -1286 
Q 1028 -1241 775 -1147 
L 775 -588 
Q 1028 -725 1275 -790 
Q 1522 -856 1778 -856 
Q 2344 -856 2625 -561 
Q 2906 -266 2906 331 
L 2906 616 
Q 2728 306 2450 153 
Q 2172 0 1784 0 
Q 1141 0 747 490 
Q 353 981 353 1791 
Q 353 2603 747 3093 
Q 1141 3584 1784 3584 
Q 2172 3584 2450 3431 
Q 2728 3278 2906 2969 
L 2906 3500 
L 3481 3500 
L 3481 434 
z
" transform="scale(0.015625)"/>
      <path id="DejaVuSans-6c" d="M 603 4863 
L 1178 4863 
L 1178 0 
L 603 0 
L 603 4863 
z
" transform="scale(0.015625)"/>
      <path id="DejaVuSans-76" d="M 191 3500 
L 800 3500 
L 1894 563 
L 2988 3500 
L 3597 3500 
L 2284 0 
L 1503 0 
L 191 3500 
z
" transform="scale(0.015625)"/>
      <path id="DejaVuSans-2d" d="M 313 2009 
L 1997 2009 
L 1997 1497 
L 313 1497 
L 313 2009 
z
" transform="scale(0.015625)"/>
      <path id="DejaVuSans-31" d="M 794 531 
L 1825 531 
L 1825 4091 
L 703 3866 
L 703 4441 
L 1819 4666 
L 2450 4666 
L 2450 531 
L 3481 531 
L 3481 0 
L 794 0 
L 794 531 
z
" transform="scale(0.015625)"/>
      <path id="DejaVuSans-61" d="M 2194 1759 
Q 1497 1759 1228 1600 
Q 959 1441 959 1056 
Q 959 750 1161 570 
Q 1363 391 1709 391 
Q 2188 391 2477 730 
Q 2766 1069 2766 1631 
L 2766 1759 
L 2194 1759 
z
M 3341 1997 
L 3341 0 
L 2766 0 
L 2766 531 
Q 2569 213 2275 61 
Q 1981 -91 1556 -91 
Q 1019 -91 701 211 
Q 384 513 384 1019 
Q 384 1609 779 1909 
Q 1175 2209 1959 2209 
L 2766 2209 
L 2766 2266 
Q 2766 2663 2505 2880 
Q 2244 3097 1772 3097 
Q 1472 3097 1187 3025 
Q 903 2953 641 2809 
L 641 3341 
Q 956 3463 1253 3523 
Q 1550 3584 1831 3584 
Q 2591 3584 2966 3190 
Q 3341 2797 3341 1997 
z
" transform="scale(0.015625)"/>
      <path id="DejaVuSans-75" d="M 544 1381 
L 544 3500 
L 1119 3500 
L 1119 1403 
Q 1119 906 1312 657 
Q 1506 409 1894 409 
Q 2359 409 2629 706 
Q 2900 1003 2900 1516 
L 2900 3500 
L 3475 3500 
L 3475 0 
L 2900 0 
L 2900 538 
Q 2691 219 2414 64 
Q 2138 -91 1772 -91 
Q 1169 -91 856 284 
Q 544 659 544 1381 
z
M 1991 3584 
L 1991 3584 
z
" transform="scale(0.015625)"/>
     </defs>
     <use xlink:href="#DejaVuSans-67"/>
     <use xlink:href="#DejaVuSans-6c" x="63.476562"/>
     <use xlink:href="#DejaVuSans-6f" x="91.259766"/>
     <use xlink:href="#DejaVuSans-76" x="152.441406"/>
     <use xlink:href="#DejaVuSans-65" x="211.621094"/>
     <use xlink:href="#DejaVuSans-2d" x="273.144531"/>
     <use xlink:href="#DejaVuSans-31" x="309.228516"/>
     <use xlink:href="#DejaVuSans-30" x="372.851562"/>
     <use xlink:href="#DejaVuSans-30" x="436.474609"/>
     <use xlink:href="#DejaVuSans-2d" x="500.097656"/>
     <use xlink:href="#DejaVuSans-61" x="536.181641"/>
     <use xlink:href="#DejaVuSans-6e" x="597.460938"/>
     <use xlink:href="#DejaVuSans-67" x="660.839844"/>
     <use xlink:href="#DejaVuSans-75" x="724.316406"/>
     <use xlink:href="#DejaVuSans-6c" x="787.695312"/>
     <use xlink:href="#DejaVuSans-61" x="815.478516"/>
     <use xlink:href="#DejaVuSans-72" x="876.757812"/>
    </g>
   </g>
   <g id="legend_1">
    <g id="patch_7">
     <path d="M 395.745349 109.9125 
L 462.609412 109.9125 
Q 464.609412 109.9125 464.609412 107.9125 
L 464.609412 50.2 
Q 464.609412 48.2 462.609412 48.2 
L 395.745349 48.2 
Q 393.745349 48.2 393.745349 50.2 
L 393.745349 107.9125 
Q 393.745349 109.9125 395.745349 109.9125 
z
" style="fill: #ffffff; opacity: 0.8; stroke: #cccccc; stroke-linejoin: miter"/>
    </g>
    <g id="line2d_18">
     <path d="M 397.745349 56.298437 
L 407.745349 56.298437 
L 417.745349 56.298437 
" style="fill: none; stroke: #1f77b4; stroke-width: 1.5; stroke-linecap: square"/>
    </g>
    <g id="text_16">
     <!-- M8P -->
     <g transform="translate(425.745349 59.798437)scale(0.1 -0.1)">
      <defs>
       <path id="DejaVuSans-4d" d="M 628 4666 
L 1569 4666 
L 2759 1491 
L 3956 4666 
L 4897 4666 
L 4897 0 
L 4281 0 
L 4281 4097 
L 3078 897 
L 2444 897 
L 1241 4097 
L 1241 0 
L 628 0 
L 628 4666 
z
" transform="scale(0.015625)"/>
       <path id="DejaVuSans-50" d="M 1259 4147 
L 1259 2394 
L 2053 2394 
Q 2494 2394 2734 2622 
Q 2975 2850 2975 3272 
Q 2975 3691 2734 3919 
Q 2494 4147 2053 4147 
L 1259 4147 
z
M 628 4666 
L 2053 4666 
Q 2838 4666 3239 4311 
Q 3641 3956 3641 3272 
Q 3641 2581 3239 2228 
Q 2838 1875 2053 1875 
L 1259 1875 
L 1259 0 
L 628 0 
L 628 4666 
z
" transform="scale(0.015625)"/>
      </defs>
      <use xlink:href="#DejaVuSans-4d"/>
      <use xlink:href="#DejaVuSans-38" x="86.279297"/>
      <use xlink:href="#DejaVuSans-50" x="149.902344"/>
     </g>
    </g>
    <g id="line2d_19">
     <path d="M 397.745349 70.976562 
L 407.745349 70.976562 
L 417.745349 70.976562 
" style="fill: none; stroke: #ff7f0e; stroke-width: 1.5; stroke-linecap: square"/>
    </g>
    <g id="text_17">
     <!-- M16P -->
     <g transform="translate(425.745349 74.476562)scale(0.1 -0.1)">
      <use xlink:href="#DejaVuSans-4d"/>
      <use xlink:href="#DejaVuSans-31" x="86.279297"/>
      <use xlink:href="#DejaVuSans-36" x="149.902344"/>
      <use xlink:href="#DejaVuSans-50" x="213.525391"/>
     </g>
    </g>
    <g id="line2d_20">
     <path d="M 397.745349 85.654687 
L 407.745349 85.654687 
L 417.745349 85.654687 
" style="fill: none; stroke: #2ca02c; stroke-width: 1.5; stroke-linecap: square"/>
    </g>
    <g id="text_18">
     <!-- M8NP -->
     <g transform="translate(425.745349 89.154687)scale(0.1 -0.1)">
      <defs>
       <path id="DejaVuSans-4e" d="M 628 4666 
L 1478 4666 
L 3547 763 
L 3547 4666 
L 4159 4666 
L 4159 0 
L 3309 0 
L 1241 3903 
L 1241 0 
L 628 0 
L 628 4666 
z
" transform="scale(0.015625)"/>
      </defs>
      <use xlink:href="#DejaVuSans-4d"/>
      <use xlink:href="#DejaVuSans-38" x="86.279297"/>
      <use xlink:href="#DejaVuSans-4e" x="149.902344"/>
      <use xlink:href="#DejaVuSans-50" x="224.707031"/>
     </g>
    </g>
    <g id="line2d_21">
     <path d="M 397.745349 100.332812 
L 407.745349 100.332812 
L 417.745349 100.332812 
" style="fill: none; stroke: #d62728; stroke-width: 1.5; stroke-linecap: square"/>
    </g>
    <g id="text_19">
     <!-- M16NP -->
     <g transform="translate(425.745349 103.832812)scale(0.1 -0.1)">
      <use xlink:href="#DejaVuSans-4d"/>
      <use xlink:href="#DejaVuSans-31" x="86.279297"/>
      <use xlink:href="#DejaVuSans-36" x="149.902344"/>
      <use xlink:href="#DejaVuSans-4e" x="213.525391"/>
      <use xlink:href="#DejaVuSans-50" x="288.330078"/>
     </g>
    </g>
   </g>
  </g>
  <g id="axes_2">
   <g id="patch_8">
    <path d="M 530.267294 320.4 
L 833.556706 320.4 
L 833.556706 43.2 
L 530.267294 43.2 
z
" style="fill: #ffffff"/>
   </g>
   <g id="matplotlib.axis_3">
    <g id="xtick_8">
     <g id="line2d_22">
      <g>
       <use xlink:href="#m9b07d9641a" x="530.267294" y="320.4" style="stroke: #000000; stroke-width: 0.8"/>
      </g>
     </g>
     <g id="text_20">
      <!-- −0.6 -->
      <g transform="translate(518.125888 334.998438)scale(0.1 -0.1)">
       <use xlink:href="#DejaVuSans-2212"/>
       <use xlink:href="#DejaVuSans-30" x="83.789062"/>
       <use xlink:href="#DejaVuSans-2e" x="147.412109"/>
       <use xlink:href="#DejaVuSans-36" x="179.199219"/>
      </g>
     </g>
    </g>
    <g id="xtick_9">
     <g id="line2d_23">
      <g>
       <use xlink:href="#m9b07d9641a" x="580.815529" y="320.4" style="stroke: #000000; stroke-width: 0.8"/>
      </g>
     </g>
     <g id="text_21">
      <!-- −0.4 -->
      <g transform="translate(568.674123 334.998438)scale(0.1 -0.1)">
       <use xlink:href="#DejaVuSans-2212"/>
       <use xlink:href="#DejaVuSans-30" x="83.789062"/>
       <use xlink:href="#DejaVuSans-2e" x="147.412109"/>
       <use xlink:href="#DejaVuSans-34" x="179.199219"/>
      </g>
     </g>
    </g>
    <g id="xtick_10">
     <g id="line2d_24">
      <g>
       <use xlink:href="#m9b07d9641a" x="631.363765" y="320.4" style="stroke: #000000; stroke-width: 0.8"/>
      </g>
     </g>
     <g id="text_22">
      <!-- −0.2 -->
      <g transform="translate(619.222358 334.998438)scale(0.1 -0.1)">
       <use xlink:href="#DejaVuSans-2212"/>
       <use xlink:href="#DejaVuSans-30" x="83.789062"/>
       <use xlink:href="#DejaVuSans-2e" x="147.412109"/>
       <use xlink:href="#DejaVuSans-32" x="179.199219"/>
      </g>
     </g>
    </g>
    <g id="xtick_11">
     <g id="line2d_25">
      <g>
       <use xlink:href="#m9b07d9641a" x="681.912" y="320.4" style="stroke: #000000; stroke-width: 0.8"/>
      </g>
     </g>
     <g id="text_23">
      <!-- 0.0 -->
      <g transform="translate(673.960438 334.998438)scale(0.1 -0.1)">
       <use xlink:href="#DejaVuSans-30"/>
       <use xlink:href="#DejaVuSans-2e" x="63.623047"/>
       <use xlink:href="#DejaVuSans-30" x="95.410156"/>
      </g>
     </g>
    </g>
    <g id="xtick_12">
     <g id="line2d_26">
      <g>
       <use xlink:href="#m9b07d9641a" x="732.460235" y="320.4" style="stroke: #000000; stroke-width: 0.8"/>
      </g>
     </g>
     <g id="text_24">
      <!-- 0.2 -->
      <g transform="translate(724.508673 334.998438)scale(0.1 -0.1)">
       <use xlink:href="#DejaVuSans-30"/>
       <use xlink:href="#DejaVuSans-2e" x="63.623047"/>
       <use xlink:href="#DejaVuSans-32" x="95.410156"/>
      </g>
     </g>
    </g>
    <g id="xtick_13">
     <g id="line2d_27">
      <g>
       <use xlink:href="#m9b07d9641a" x="783.008471" y="320.4" style="stroke: #000000; stroke-width: 0.8"/>
      </g>
     </g>
     <g id="text_25">
      <!-- 0.4 -->
      <g transform="translate(775.056908 334.998438)scale(0.1 -0.1)">
       <use xlink:href="#DejaVuSans-30"/>
       <use xlink:href="#DejaVuSans-2e" x="63.623047"/>
       <use xlink:href="#DejaVuSans-34" x="95.410156"/>
      </g>
     </g>
    </g>
    <g id="xtick_14">
     <g id="line2d_28">
      <g>
       <use xlink:href="#m9b07d9641a" x="833.556706" y="320.4" style="stroke: #000000; stroke-width: 0.8"/>
      </g>
     </g>
     <g id="text_26">
      <!-- 0.6 -->
      <g transform="translate(825.605143 334.998438)scale(0.1 -0.1)">
       <use xlink:href="#DejaVuSans-30"/>
       <use xlink:href="#DejaVuSans-2e" x="63.623047"/>
       <use xlink:href="#DejaVuSans-36" x="95.410156"/>
      </g>
     </g>
    </g>
    <g id="text_27">
     <!-- Error -->
     <g transform="translate(669.726844 348.676562)scale(0.1 -0.1)">
      <use xlink:href="#DejaVuSans-45"/>
      <use xlink:href="#DejaVuSans-72" x="63.183594"/>
      <use xlink:href="#DejaVuSans-72" x="102.546875"/>
      <use xlink:href="#DejaVuSans-6f" x="141.410156"/>
      <use xlink:href="#DejaVuSans-72" x="202.591797"/>
     </g>
    </g>
   </g>
   <g id="matplotlib.axis_4">
    <g id="ytick_6">
     <g id="line2d_29">
      <g>
       <use xlink:href="#mae79e430c3" x="530.267294" y="320.4" style="stroke: #000000; stroke-width: 0.8"/>
      </g>
     </g>
     <g id="text_28">
      <!-- 0 -->
      <g transform="translate(516.904794 324.199219)scale(0.1 -0.1)">
       <use xlink:href="#DejaVuSans-30"/>
      </g>
     </g>
    </g>
    <g id="ytick_7">
     <g id="line2d_30">
      <g>
       <use xlink:href="#mae79e430c3" x="530.267294" y="259.354149" style="stroke: #000000; stroke-width: 0.8"/>
      </g>
     </g>
     <g id="text_29">
      <!-- 1 -->
      <g transform="translate(516.904794 263.153368)scale(0.1 -0.1)">
       <use xlink:href="#DejaVuSans-31"/>
      </g>
     </g>
    </g>
    <g id="ytick_8">
     <g id="line2d_31">
      <g>
       <use xlink:href="#mae79e430c3" x="530.267294" y="198.308298" style="stroke: #000000; stroke-width: 0.8"/>
      </g>
     </g>
     <g id="text_30">
      <!-- 2 -->
      <g transform="translate(516.904794 202.107517)scale(0.1 -0.1)">
       <use xlink:href="#DejaVuSans-32"/>
      </g>
     </g>
    </g>
    <g id="ytick_9">
     <g id="line2d_32">
      <g>
       <use xlink:href="#mae79e430c3" x="530.267294" y="137.262447" style="stroke: #000000; stroke-width: 0.8"/>
      </g>
     </g>
     <g id="text_31">
      <!-- 3 -->
      <g transform="translate(516.904794 141.061666)scale(0.1 -0.1)">
       <defs>
        <path id="DejaVuSans-33" d="M 2597 2516 
Q 3050 2419 3304 2112 
Q 3559 1806 3559 1356 
Q 3559 666 3084 287 
Q 2609 -91 1734 -91 
Q 1441 -91 1130 -33 
Q 819 25 488 141 
L 488 750 
Q 750 597 1062 519 
Q 1375 441 1716 441 
Q 2309 441 2620 675 
Q 2931 909 2931 1356 
Q 2931 1769 2642 2001 
Q 2353 2234 1838 2234 
L 1294 2234 
L 1294 2753 
L 1863 2753 
Q 2328 2753 2575 2939 
Q 2822 3125 2822 3475 
Q 2822 3834 2567 4026 
Q 2313 4219 1838 4219 
Q 1578 4219 1281 4162 
Q 984 4106 628 3988 
L 628 4550 
Q 988 4650 1302 4700 
Q 1616 4750 1894 4750 
Q 2613 4750 3031 4423 
Q 3450 4097 3450 3541 
Q 3450 3153 3228 2886 
Q 3006 2619 2597 2516 
z
" transform="scale(0.015625)"/>
       </defs>
       <use xlink:href="#DejaVuSans-33"/>
      </g>
     </g>
    </g>
    <g id="ytick_10">
     <g id="line2d_33">
      <g>
       <use xlink:href="#mae79e430c3" x="530.267294" y="76.216596" style="stroke: #000000; stroke-width: 0.8"/>
      </g>
     </g>
     <g id="text_32">
      <!-- 4 -->
      <g transform="translate(516.904794 80.015815)scale(0.1 -0.1)">
       <use xlink:href="#DejaVuSans-34"/>
      </g>
     </g>
    </g>
    <g id="text_33">
     <!-- Density -->
     <g transform="translate(510.825107 200.808594)rotate(-90)scale(0.1 -0.1)">
      <use xlink:href="#DejaVuSans-44"/>
      <use xlink:href="#DejaVuSans-65" x="77.001953"/>
      <use xlink:href="#DejaVuSans-6e" x="138.525391"/>
      <use xlink:href="#DejaVuSans-73" x="201.904297"/>
      <use xlink:href="#DejaVuSans-69" x="254.003906"/>
      <use xlink:href="#DejaVuSans-74" x="281.787109"/>
      <use xlink:href="#DejaVuSans-79" x="320.996094"/>
     </g>
    </g>
   </g>
   <g id="line2d_34">
    <path d="M 681.912 320.4 
L 681.912 43.2 
" clip-path="url(#pd1ef9586c3)" style="fill: none; stroke-dasharray: 5.55,2.4; stroke-dashoffset: 0; stroke: #1f77b4; stroke-width: 1.5"/>
   </g>
   <g id="line2d_35">
    <path d="M 350.275547 320.399993 
L 593.014577 320.306974 
L 600.92998 319.986986 
L 606.206915 319.452777 
L 611.483851 318.330788 
L 614.122318 317.44287 
L 616.760786 316.23507 
L 619.399254 314.663605 
L 622.037722 312.686398 
L 624.676189 309.742625 
L 627.314657 306.340566 
L 629.953125 302.054461 
L 632.591592 296.719204 
L 635.23006 289.792161 
L 637.868528 281.906469 
L 640.506996 272.831474 
L 643.145463 262.069886 
L 645.783931 249.885231 
L 648.422399 236.035763 
L 651.060866 220.708098 
L 656.337802 186.830323 
L 664.253205 133.199566 
L 666.891673 116.380565 
L 669.53014 100.348292 
L 672.168608 85.664179 
L 674.807076 73.817687 
L 677.445543 64.277217 
L 680.084011 58.068116 
L 682.722479 56.4 
L 685.360947 56.751081 
L 687.999414 59.789129 
L 690.637882 67.079829 
L 693.27635 76.725896 
L 698.553285 105.775128 
L 701.191753 121.983819 
L 703.830221 140.535993 
L 714.384091 210.80511 
L 719.661027 240.79077 
L 724.937962 265.779486 
L 727.57643 275.725167 
L 730.214898 284.470411 
L 732.853365 292.047933 
L 735.491833 298.44098 
L 738.130301 303.194211 
L 740.768768 307.387405 
L 743.407236 310.572581 
L 746.045704 313.201286 
L 748.684172 315.108769 
L 751.322639 316.625018 
L 753.961107 317.672577 
L 756.599575 318.488903 
L 759.238042 319.068192 
L 761.87651 319.531591 
L 767.153446 319.973245 
L 772.430381 320.205002 
L 780.345784 320.336314 
L 806.730461 320.393724 
L 875.330622 320.399993 
L 875.330622 320.399993 
" clip-path="url(#pd1ef9586c3)" style="fill: none; stroke: #1f77b4; stroke-width: 1.5; stroke-linecap: square"/>
   </g>
   <g id="line2d_36">
    <path d="M 307.563303 320.399993 
L 595.683757 320.238299 
L 601.019321 320.043472 
L 603.687103 319.879862 
L 609.022667 319.228344 
L 611.690449 318.647681 
L 614.358231 317.884041 
L 617.026013 316.820519 
L 619.693795 315.303279 
L 622.361577 313.554846 
L 625.029359 311.19357 
L 627.697141 308.190166 
L 630.364923 304.242137 
L 633.032705 299.27907 
L 635.700487 293.213812 
L 638.368269 286.236518 
L 641.036051 277.439461 
L 643.703833 267.420998 
L 646.371615 255.965341 
L 649.039397 243.009777 
L 651.707179 228.307763 
L 657.042743 195.291623 
L 667.713871 123.530336 
L 670.381653 107.010004 
L 673.049435 92.433657 
L 675.717217 79.008933 
L 678.384999 68.293609 
L 681.052781 62.10271 
L 683.720563 57.859423 
L 686.388345 57.220364 
L 689.056127 59.206389 
L 691.723909 65.101838 
L 694.391691 75.042307 
L 697.059473 87.18229 
L 699.727255 101.457706 
L 702.395036 116.850268 
L 707.7306 152.31221 
L 710.398382 170.672464 
L 718.401728 221.867306 
L 721.06951 237.096057 
L 723.737292 250.877251 
L 726.405074 263.432124 
L 729.072856 273.796231 
L 731.740638 283.517302 
L 734.40842 290.953385 
L 737.076202 297.790459 
L 739.743984 302.989407 
L 742.411766 307.351126 
L 745.079548 310.459148 
L 747.74733 313.317363 
L 750.415112 315.181755 
L 753.082894 316.82513 
L 755.750676 317.810847 
L 758.418458 318.600288 
L 761.08624 319.1639 
L 766.421804 319.879383 
L 771.757368 320.174308 
L 779.760714 320.338713 
L 825.113008 320.399066 
L 838.451918 320.399985 
L 838.451918 320.399985 
" clip-path="url(#pd1ef9586c3)" style="fill: none; stroke: #ff7f0e; stroke-width: 1.5; stroke-linecap: square"/>
   </g>
   <g id="line2d_37">
    <path d="M 364.599025 320.399991 
L 594.241111 320.201787 
L 599.401607 319.927173 
L 604.562103 319.404903 
L 607.142351 319.002032 
L 609.7226 318.421211 
L 612.302848 317.581135 
L 614.883096 316.530142 
L 617.463344 315.063613 
L 620.043592 313.360037 
L 622.62384 311.07104 
L 625.204089 308.280347 
L 627.784337 304.606245 
L 630.364585 300.33265 
L 632.944833 295.129027 
L 635.525081 289.071219 
L 638.105329 281.706696 
L 640.685577 273.290156 
L 643.265826 264.015388 
L 645.846074 253.144503 
L 648.426322 241.259462 
L 651.00657 228.813918 
L 653.586818 214.940742 
L 661.327563 170.80447 
L 666.488059 140.795663 
L 669.068307 126.898007 
L 671.648555 113.945418 
L 674.228804 102.174475 
L 676.809052 91.955597 
L 679.3893 85.729691 
L 681.969548 79.909316 
L 684.549796 76.932313 
L 687.130044 76.310141 
L 689.710292 78.219562 
L 692.290541 83.060189 
L 694.870789 89.947762 
L 697.451037 99.06753 
L 700.031285 109.380875 
L 702.611533 121.693754 
L 707.77203 149.855146 
L 718.093022 209.345603 
L 723.253519 236.119837 
L 725.833767 248.235128 
L 728.414015 259.561701 
L 730.994263 269.138436 
L 733.574511 277.939627 
L 736.154759 285.881558 
L 738.735007 292.332749 
L 741.315256 298.134133 
L 743.895504 302.623529 
L 746.475752 306.568663 
L 749.056 309.736181 
L 751.636248 312.237953 
L 754.216496 314.235854 
L 756.796745 315.858615 
L 759.376993 317.024466 
L 761.957241 317.904988 
L 767.117737 319.056399 
L 772.278234 319.727772 
L 777.43873 320.078634 
L 785.179474 320.300913 
L 800.660963 320.384409 
L 841.944934 320.398659 
L 878.068408 320.399993 
L 878.068408 320.399993 
" clip-path="url(#pd1ef9586c3)" style="fill: none; stroke: #2ca02c; stroke-width: 1.5; stroke-linecap: square"/>
   </g>
   <g id="line2d_38">
    <path d="M 336.879091 320.399987 
L 583.724493 320.206661 
L 588.976523 319.942127 
L 594.228552 319.490667 
L 599.480582 318.622141 
L 602.106597 318.028945 
L 604.732612 317.199478 
L 607.358627 316.212921 
L 609.984642 314.918686 
L 612.610657 313.361579 
L 615.236672 311.565335 
L 617.862687 309.433556 
L 620.488702 306.786533 
L 623.114717 303.58803 
L 625.740731 299.921929 
L 628.366746 295.582002 
L 630.992761 290.749168 
L 633.618776 284.925478 
L 636.244791 278.266578 
L 638.870806 270.682904 
L 641.496821 262.277813 
L 644.122836 253.33692 
L 649.374866 231.748793 
L 652.000881 220.058604 
L 667.75697 145.278018 
L 670.382985 134.66288 
L 673.009 125.457583 
L 675.635015 117.166841 
L 678.26103 110.227274 
L 680.887045 106.236159 
L 683.51306 104.069919 
L 686.139074 103.216285 
L 688.765089 104.046297 
L 691.391104 106.289117 
L 694.017119 110.657318 
L 696.643134 116.513669 
L 699.269149 123.627395 
L 704.521179 142.338137 
L 709.773209 164.295517 
L 715.025238 187.867945 
L 717.651253 198.827929 
L 720.277268 210.860139 
L 725.529298 233.081462 
L 730.781328 253.01389 
L 736.033358 270.521749 
L 741.285388 284.506757 
L 743.911403 290.512069 
L 746.537417 295.99995 
L 749.163432 300.542082 
L 751.789447 304.555168 
L 754.415462 307.845677 
L 757.041477 310.640118 
L 759.667492 312.886022 
L 762.293507 314.723635 
L 764.919522 316.037809 
L 767.545537 317.18148 
L 770.171552 318.097332 
L 772.797567 318.71857 
L 775.423581 319.177528 
L 780.675611 319.776895 
L 785.927641 320.112347 
L 796.431701 320.337735 
L 814.813805 320.397106 
L 859.456059 320.399994 
L 859.456059 320.399994 
" clip-path="url(#pd1ef9586c3)" style="fill: none; stroke: #d62728; stroke-width: 1.5; stroke-linecap: square"/>
   </g>
   <g id="patch_9">
    <path d="M 530.267294 320.4 
L 530.267294 43.2 
" style="fill: none; stroke: #000000; stroke-width: 0.8; stroke-linejoin: miter; stroke-linecap: square"/>
   </g>
   <g id="patch_10">
    <path d="M 833.556706 320.4 
L 833.556706 43.2 
" style="fill: none; stroke: #000000; stroke-width: 0.8; stroke-linejoin: miter; stroke-linecap: square"/>
   </g>
   <g id="patch_11">
    <path d="M 530.267294 320.4 
L 833.556706 320.4 
" style="fill: none; stroke: #000000; stroke-width: 0.8; stroke-linejoin: miter; stroke-linecap: square"/>
   </g>
   <g id="patch_12">
    <path d="M 530.267294 43.2 
L 833.556706 43.2 
" style="fill: none; stroke: #000000; stroke-width: 0.8; stroke-linejoin: miter; stroke-linecap: square"/>
   </g>
   <g id="text_34">
    <!-- nytimes-256-angular -->
    <g transform="translate(619.194187 37.2)scale(0.12 -0.12)">
     <defs>
      <path id="DejaVuSans-6d" d="M 3328 2828 
Q 3544 3216 3844 3400 
Q 4144 3584 4550 3584 
Q 5097 3584 5394 3201 
Q 5691 2819 5691 2113 
L 5691 0 
L 5113 0 
L 5113 2094 
Q 5113 2597 4934 2840 
Q 4756 3084 4391 3084 
Q 3944 3084 3684 2787 
Q 3425 2491 3425 1978 
L 3425 0 
L 2847 0 
L 2847 2094 
Q 2847 2600 2669 2842 
Q 2491 3084 2119 3084 
Q 1678 3084 1418 2786 
Q 1159 2488 1159 1978 
L 1159 0 
L 581 0 
L 581 3500 
L 1159 3500 
L 1159 2956 
Q 1356 3278 1631 3431 
Q 1906 3584 2284 3584 
Q 2666 3584 2933 3390 
Q 3200 3197 3328 2828 
z
" transform="scale(0.015625)"/>
      <path id="DejaVuSans-35" d="M 691 4666 
L 3169 4666 
L 3169 4134 
L 1269 4134 
L 1269 2991 
Q 1406 3038 1543 3061 
Q 1681 3084 1819 3084 
Q 2600 3084 3056 2656 
Q 3513 2228 3513 1497 
Q 3513 744 3044 326 
Q 2575 -91 1722 -91 
Q 1428 -91 1123 -41 
Q 819 9 494 109 
L 494 744 
Q 775 591 1075 516 
Q 1375 441 1709 441 
Q 2250 441 2565 725 
Q 2881 1009 2881 1497 
Q 2881 1984 2565 2268 
Q 2250 2553 1709 2553 
Q 1456 2553 1204 2497 
Q 953 2441 691 2322 
L 691 4666 
z
" transform="scale(0.015625)"/>
     </defs>
     <use xlink:href="#DejaVuSans-6e"/>
     <use xlink:href="#DejaVuSans-79" x="63.378906"/>
     <use xlink:href="#DejaVuSans-74" x="122.558594"/>
     <use xlink:href="#DejaVuSans-69" x="161.767578"/>
     <use xlink:href="#DejaVuSans-6d" x="189.550781"/>
     <use xlink:href="#DejaVuSans-65" x="286.962891"/>
     <use xlink:href="#DejaVuSans-73" x="348.486328"/>
     <use xlink:href="#DejaVuSans-2d" x="400.585938"/>
     <use xlink:href="#DejaVuSans-32" x="436.669922"/>
     <use xlink:href="#DejaVuSans-35" x="500.292969"/>
     <use xlink:href="#DejaVuSans-36" x="563.916016"/>
     <use xlink:href="#DejaVuSans-2d" x="627.539062"/>
     <use xlink:href="#DejaVuSans-61" x="663.623047"/>
     <use xlink:href="#DejaVuSans-6e" x="724.902344"/>
     <use xlink:href="#DejaVuSans-67" x="788.28125"/>
     <use xlink:href="#DejaVuSans-75" x="851.757812"/>
     <use xlink:href="#DejaVuSans-6c" x="915.136719"/>
     <use xlink:href="#DejaVuSans-61" x="942.919922"/>
     <use xlink:href="#DejaVuSans-72" x="1004.199219"/>
    </g>
   </g>
   <g id="legend_2">
    <g id="patch_13">
     <path d="M 759.692643 109.9125 
L 826.556706 109.9125 
Q 828.556706 109.9125 828.556706 107.9125 
L 828.556706 50.2 
Q 828.556706 48.2 826.556706 48.2 
L 759.692643 48.2 
Q 757.692643 48.2 757.692643 50.2 
L 757.692643 107.9125 
Q 757.692643 109.9125 759.692643 109.9125 
z
" style="fill: #ffffff; opacity: 0.8; stroke: #cccccc; stroke-linejoin: miter"/>
    </g>
    <g id="line2d_39">
     <path d="M 761.692643 56.298437 
L 771.692643 56.298437 
L 781.692643 56.298437 
" style="fill: none; stroke: #1f77b4; stroke-width: 1.5; stroke-linecap: square"/>
    </g>
    <g id="text_35">
     <!-- M8P -->
     <g transform="translate(789.692643 59.798437)scale(0.1 -0.1)">
      <use xlink:href="#DejaVuSans-4d"/>
      <use xlink:href="#DejaVuSans-38" x="86.279297"/>
      <use xlink:href="#DejaVuSans-50" x="149.902344"/>
     </g>
    </g>
    <g id="line2d_40">
     <path d="M 761.692643 70.976562 
L 771.692643 70.976562 
L 781.692643 70.976562 
" style="fill: none; stroke: #ff7f0e; stroke-width: 1.5; stroke-linecap: square"/>
    </g>
    <g id="text_36">
     <!-- M16P -->
     <g transform="translate(789.692643 74.476562)scale(0.1 -0.1)">
      <use xlink:href="#DejaVuSans-4d"/>
      <use xlink:href="#DejaVuSans-31" x="86.279297"/>
      <use xlink:href="#DejaVuSans-36" x="149.902344"/>
      <use xlink:href="#DejaVuSans-50" x="213.525391"/>
     </g>
    </g>
    <g id="line2d_41">
     <path d="M 761.692643 85.654687 
L 771.692643 85.654687 
L 781.692643 85.654687 
" style="fill: none; stroke: #2ca02c; stroke-width: 1.5; stroke-linecap: square"/>
    </g>
    <g id="text_37">
     <!-- M8NP -->
     <g transform="translate(789.692643 89.154687)scale(0.1 -0.1)">
      <use xlink:href="#DejaVuSans-4d"/>
      <use xlink:href="#DejaVuSans-38" x="86.279297"/>
      <use xlink:href="#DejaVuSans-4e" x="149.902344"/>
      <use xlink:href="#DejaVuSans-50" x="224.707031"/>
     </g>
    </g>
    <g id="line2d_42">
     <path d="M 761.692643 100.332812 
L 771.692643 100.332812 
L 781.692643 100.332812 
" style="fill: none; stroke: #d62728; stroke-width: 1.5; stroke-linecap: square"/>
    </g>
    <g id="text_38">
     <!-- M16NP -->
     <g transform="translate(789.692643 103.832812)scale(0.1 -0.1)">
      <use xlink:href="#DejaVuSans-4d"/>
      <use xlink:href="#DejaVuSans-31" x="86.279297"/>
      <use xlink:href="#DejaVuSans-36" x="149.902344"/>
      <use xlink:href="#DejaVuSans-4e" x="213.525391"/>
      <use xlink:href="#DejaVuSans-50" x="288.330078"/>
     </g>
    </g>
   </g>
  </g>
  <g id="axes_3">
   <g id="patch_14">
    <path d="M 894.214588 320.4 
L 1197.504 320.4 
L 1197.504 43.2 
L 894.214588 43.2 
z
" style="fill: #ffffff"/>
   </g>
   <g id="matplotlib.axis_5">
    <g id="xtick_15">
     <g id="line2d_43">
      <g>
       <use xlink:href="#m9b07d9641a" x="894.214588" y="320.4" style="stroke: #000000; stroke-width: 0.8"/>
      </g>
     </g>
     <g id="text_39">
      <!-- −0.6 -->
      <g transform="translate(882.073182 334.998438)scale(0.1 -0.1)">
       <use xlink:href="#DejaVuSans-2212"/>
       <use xlink:href="#DejaVuSans-30" x="83.789062"/>
       <use xlink:href="#DejaVuSans-2e" x="147.412109"/>
       <use xlink:href="#DejaVuSans-36" x="179.199219"/>
      </g>
     </g>
    </g>
    <g id="xtick_16">
     <g id="line2d_44">
      <g>
       <use xlink:href="#m9b07d9641a" x="944.762824" y="320.4" style="stroke: #000000; stroke-width: 0.8"/>
      </g>
     </g>
     <g id="text_40">
      <!-- −0.4 -->
      <g transform="translate(932.621417 334.998438)scale(0.1 -0.1)">
       <use xlink:href="#DejaVuSans-2212"/>
       <use xlink:href="#DejaVuSans-30" x="83.789062"/>
       <use xlink:href="#DejaVuSans-2e" x="147.412109"/>
       <use xlink:href="#DejaVuSans-34" x="179.199219"/>
      </g>
     </g>
    </g>
    <g id="xtick_17">
     <g id="line2d_45">
      <g>
       <use xlink:href="#m9b07d9641a" x="995.311059" y="320.4" style="stroke: #000000; stroke-width: 0.8"/>
      </g>
     </g>
     <g id="text_41">
      <!-- −0.2 -->
      <g transform="translate(983.169653 334.998438)scale(0.1 -0.1)">
       <use xlink:href="#DejaVuSans-2212"/>
       <use xlink:href="#DejaVuSans-30" x="83.789062"/>
       <use xlink:href="#DejaVuSans-2e" x="147.412109"/>
       <use xlink:href="#DejaVuSans-32" x="179.199219"/>
      </g>
     </g>
    </g>
    <g id="xtick_18">
     <g id="line2d_46">
      <g>
       <use xlink:href="#m9b07d9641a" x="1045.859294" y="320.4" style="stroke: #000000; stroke-width: 0.8"/>
      </g>
     </g>
     <g id="text_42">
      <!-- 0.0 -->
      <g transform="translate(1037.907732 334.998438)scale(0.1 -0.1)">
       <use xlink:href="#DejaVuSans-30"/>
       <use xlink:href="#DejaVuSans-2e" x="63.623047"/>
       <use xlink:href="#DejaVuSans-30" x="95.410156"/>
      </g>
     </g>
    </g>
    <g id="xtick_19">
     <g id="line2d_47">
      <g>
       <use xlink:href="#m9b07d9641a" x="1096.407529" y="320.4" style="stroke: #000000; stroke-width: 0.8"/>
      </g>
     </g>
     <g id="text_43">
      <!-- 0.2 -->
      <g transform="translate(1088.455967 334.998438)scale(0.1 -0.1)">
       <use xlink:href="#DejaVuSans-30"/>
       <use xlink:href="#DejaVuSans-2e" x="63.623047"/>
       <use xlink:href="#DejaVuSans-32" x="95.410156"/>
      </g>
     </g>
    </g>
    <g id="xtick_20">
     <g id="line2d_48">
      <g>
       <use xlink:href="#m9b07d9641a" x="1146.955765" y="320.4" style="stroke: #000000; stroke-width: 0.8"/>
      </g>
     </g>
     <g id="text_44">
      <!-- 0.4 -->
      <g transform="translate(1139.004202 334.998438)scale(0.1 -0.1)">
       <use xlink:href="#DejaVuSans-30"/>
       <use xlink:href="#DejaVuSans-2e" x="63.623047"/>
       <use xlink:href="#DejaVuSans-34" x="95.410156"/>
      </g>
     </g>
    </g>
    <g id="xtick_21">
     <g id="line2d_49">
      <g>
       <use xlink:href="#m9b07d9641a" x="1197.504" y="320.4" style="stroke: #000000; stroke-width: 0.8"/>
      </g>
     </g>
     <g id="text_45">
      <!-- 0.6 -->
      <g transform="translate(1189.552437 334.998438)scale(0.1 -0.1)">
       <use xlink:href="#DejaVuSans-30"/>
       <use xlink:href="#DejaVuSans-2e" x="63.623047"/>
       <use xlink:href="#DejaVuSans-36" x="95.410156"/>
      </g>
     </g>
    </g>
    <g id="text_46">
     <!-- Error -->
     <g transform="translate(1033.674138 348.676562)scale(0.1 -0.1)">
      <use xlink:href="#DejaVuSans-45"/>
      <use xlink:href="#DejaVuSans-72" x="63.183594"/>
      <use xlink:href="#DejaVuSans-72" x="102.546875"/>
      <use xlink:href="#DejaVuSans-6f" x="141.410156"/>
      <use xlink:href="#DejaVuSans-72" x="202.591797"/>
     </g>
    </g>
   </g>
   <g id="matplotlib.axis_6">
    <g id="ytick_11">
     <g id="line2d_50">
      <g>
       <use xlink:href="#mae79e430c3" x="894.214588" y="320.4" style="stroke: #000000; stroke-width: 0.8"/>
      </g>
     </g>
     <g id="text_47">
      <!-- 0.0 -->
      <g transform="translate(871.311463 324.199219)scale(0.1 -0.1)">
       <use xlink:href="#DejaVuSans-30"/>
       <use xlink:href="#DejaVuSans-2e" x="63.623047"/>
       <use xlink:href="#DejaVuSans-30" x="95.410156"/>
      </g>
     </g>
    </g>
    <g id="ytick_12">
     <g id="line2d_51">
      <g>
       <use xlink:href="#mae79e430c3" x="894.214588" y="283.464306" style="stroke: #000000; stroke-width: 0.8"/>
      </g>
     </g>
     <g id="text_48">
      <!-- 0.5 -->
      <g transform="translate(871.311463 287.263525)scale(0.1 -0.1)">
       <use xlink:href="#DejaVuSans-30"/>
       <use xlink:href="#DejaVuSans-2e" x="63.623047"/>
       <use xlink:href="#DejaVuSans-35" x="95.410156"/>
      </g>
     </g>
    </g>
    <g id="ytick_13">
     <g id="line2d_52">
      <g>
       <use xlink:href="#mae79e430c3" x="894.214588" y="246.528612" style="stroke: #000000; stroke-width: 0.8"/>
      </g>
     </g>
     <g id="text_49">
      <!-- 1.0 -->
      <g transform="translate(871.311463 250.327831)scale(0.1 -0.1)">
       <use xlink:href="#DejaVuSans-31"/>
       <use xlink:href="#DejaVuSans-2e" x="63.623047"/>
       <use xlink:href="#DejaVuSans-30" x="95.410156"/>
      </g>
     </g>
    </g>
    <g id="ytick_14">
     <g id="line2d_53">
      <g>
       <use xlink:href="#mae79e430c3" x="894.214588" y="209.592918" style="stroke: #000000; stroke-width: 0.8"/>
      </g>
     </g>
     <g id="text_50">
      <!-- 1.5 -->
      <g transform="translate(871.311463 213.392137)scale(0.1 -0.1)">
       <use xlink:href="#DejaVuSans-31"/>
       <use xlink:href="#DejaVuSans-2e" x="63.623047"/>
       <use xlink:href="#DejaVuSans-35" x="95.410156"/>
      </g>
     </g>
    </g>
    <g id="ytick_15">
     <g id="line2d_54">
      <g>
       <use xlink:href="#mae79e430c3" x="894.214588" y="172.657224" style="stroke: #000000; stroke-width: 0.8"/>
      </g>
     </g>
     <g id="text_51">
      <!-- 2.0 -->
      <g transform="translate(871.311463 176.456442)scale(0.1 -0.1)">
       <use xlink:href="#DejaVuSans-32"/>
       <use xlink:href="#DejaVuSans-2e" x="63.623047"/>
       <use xlink:href="#DejaVuSans-30" x="95.410156"/>
      </g>
     </g>
    </g>
    <g id="ytick_16">
     <g id="line2d_55">
      <g>
       <use xlink:href="#mae79e430c3" x="894.214588" y="135.72153" style="stroke: #000000; stroke-width: 0.8"/>
      </g>
     </g>
     <g id="text_52">
      <!-- 2.5 -->
      <g transform="translate(871.311463 139.520748)scale(0.1 -0.1)">
       <use xlink:href="#DejaVuSans-32"/>
       <use xlink:href="#DejaVuSans-2e" x="63.623047"/>
       <use xlink:href="#DejaVuSans-35" x="95.410156"/>
      </g>
     </g>
    </g>
    <g id="ytick_17">
     <g id="line2d_56">
      <g>
       <use xlink:href="#mae79e430c3" x="894.214588" y="98.785836" style="stroke: #000000; stroke-width: 0.8"/>
      </g>
     </g>
     <g id="text_53">
      <!-- 3.0 -->
      <g transform="translate(871.311463 102.585054)scale(0.1 -0.1)">
       <use xlink:href="#DejaVuSans-33"/>
       <use xlink:href="#DejaVuSans-2e" x="63.623047"/>
       <use xlink:href="#DejaVuSans-30" x="95.410156"/>
      </g>
     </g>
    </g>
    <g id="ytick_18">
     <g id="line2d_57">
      <g>
       <use xlink:href="#mae79e430c3" x="894.214588" y="61.850141" style="stroke: #000000; stroke-width: 0.8"/>
      </g>
     </g>
     <g id="text_54">
      <!-- 3.5 -->
      <g transform="translate(871.311463 65.64936)scale(0.1 -0.1)">
       <use xlink:href="#DejaVuSans-33"/>
       <use xlink:href="#DejaVuSans-2e" x="63.623047"/>
       <use xlink:href="#DejaVuSans-35" x="95.410156"/>
      </g>
     </g>
    </g>
    <g id="text_55">
     <!-- Density -->
     <g transform="translate(865.231776 200.808594)rotate(-90)scale(0.1 -0.1)">
      <use xlink:href="#DejaVuSans-44"/>
      <use xlink:href="#DejaVuSans-65" x="77.001953"/>
      <use xlink:href="#DejaVuSans-6e" x="138.525391"/>
      <use xlink:href="#DejaVuSans-73" x="201.904297"/>
      <use xlink:href="#DejaVuSans-69" x="254.003906"/>
      <use xlink:href="#DejaVuSans-74" x="281.787109"/>
      <use xlink:href="#DejaVuSans-79" x="320.996094"/>
     </g>
    </g>
   </g>
   <g id="line2d_58">
    <path d="M 1045.859294 320.4 
L 1045.859294 43.2 
" clip-path="url(#pb4e7ee4c4c)" style="fill: none; stroke-dasharray: 5.55,2.4; stroke-dashoffset: 0; stroke: #1f77b4; stroke-width: 1.5"/>
   </g>
   <g id="line2d_59">
    <path d="M 547.370536 320.399983 
L 750.196797 320.4 
L 864.517053 320.31644 
L 875.580304 320.119883 
L 882.955804 319.838233 
L 890.331304 319.29528 
L 894.019055 318.814379 
L 897.706805 318.212373 
L 901.394555 317.477371 
L 905.082305 316.543765 
L 908.770055 315.331654 
L 912.457806 313.76779 
L 916.145556 311.876388 
L 919.833306 309.640516 
L 923.521056 306.814146 
L 927.208806 303.593583 
L 930.896557 299.618336 
L 934.584307 295.288519 
L 938.272057 290.12195 
L 941.959807 284.54632 
L 945.647557 278.020773 
L 949.335308 271.172565 
L 953.023058 264.010701 
L 960.398558 247.794363 
L 971.461809 222.118441 
L 975.149559 213.440379 
L 978.837309 205.051215 
L 982.525059 197.037418 
L 986.21281 189.524434 
L 989.90056 182.598096 
L 993.58831 176.385282 
L 997.27606 171.017563 
L 1000.96381 166.3189 
L 1008.339311 159.795815 
L 1012.027061 157.919071 
L 1015.714811 157.48972 
L 1019.402561 157.704066 
L 1023.090312 158.959187 
L 1026.778062 161.018829 
L 1030.465812 163.633448 
L 1034.153562 167.267823 
L 1037.841312 171.407585 
L 1041.529063 176.464237 
L 1045.216813 182.271099 
L 1059.967814 211.620316 
L 1063.655564 219.72409 
L 1067.343314 227.356934 
L 1071.031064 235.501132 
L 1078.406565 249.929854 
L 1085.782065 263.066534 
L 1089.469815 269.057906 
L 1093.157565 274.707375 
L 1096.845316 280.006612 
L 1100.533066 284.87606 
L 1104.220816 289.471656 
L 1111.596316 297.347631 
L 1118.971817 303.57403 
L 1122.659567 306.450237 
L 1130.035067 310.710606 
L 1133.722818 312.508336 
L 1137.410568 313.950435 
L 1141.098318 315.18886 
L 1144.786068 316.297752 
L 1148.473818 317.112076 
L 1152.161569 317.794929 
L 1159.537069 318.809001 
L 1166.912569 319.463385 
L 1174.28807 319.87007 
L 1185.35132 320.177688 
L 1200.102321 320.340178 
L 1229.604323 320.396961 
L 1281.232826 320.399995 
L 1281.232826 320.399995 
" clip-path="url(#pb4e7ee4c4c)" style="fill: none; stroke: #1f77b4; stroke-width: 1.5; stroke-linecap: square"/>
   </g>
   <g id="line2d_60">
    <path d="M 524.547741 320.399995 
L 894.195524 320.260455 
L 901.104828 320.038216 
L 908.014133 319.514835 
L 911.468785 319.085545 
L 914.923437 318.476808 
L 918.378089 317.597102 
L 921.832742 316.463446 
L 925.287394 314.89733 
L 928.742046 312.923147 
L 932.196698 310.496065 
L 935.65135 307.520892 
L 939.106002 303.667783 
L 942.560655 299.346227 
L 946.015307 294.106614 
L 949.469959 288.255675 
L 952.924611 281.405984 
L 956.379263 273.788825 
L 959.833915 265.332471 
L 963.288568 256.201051 
L 966.74322 246.362014 
L 977.107176 215.093484 
L 987.471133 185.395838 
L 990.925785 176.875216 
L 994.380437 169.060044 
L 997.835089 161.729932 
L 1001.289742 154.849815 
L 1004.744394 148.311653 
L 1008.199046 142.099293 
L 1011.653698 136.144086 
L 1015.10835 132.436878 
L 1018.563003 129.951631 
L 1022.017655 128.487142 
L 1025.472307 128.969209 
L 1028.926959 131.350014 
L 1032.381611 135.212286 
L 1035.836263 141.384579 
L 1039.290916 149.212589 
L 1042.745568 157.735641 
L 1046.20022 167.476842 
L 1053.109524 188.960597 
L 1060.018829 210.516796 
L 1063.473481 220.519733 
L 1066.928133 229.261812 
L 1070.382785 237.558076 
L 1073.837437 245.504019 
L 1077.29209 252.655233 
L 1080.746742 259.258387 
L 1087.656046 271.772007 
L 1091.110698 277.191615 
L 1098.020003 286.895508 
L 1101.474655 291.219819 
L 1104.929307 295.259841 
L 1108.383959 298.879584 
L 1111.838611 302.327466 
L 1115.293264 305.377274 
L 1118.747916 307.957116 
L 1122.202568 310.233247 
L 1125.65722 312.29892 
L 1129.111872 314.042126 
L 1132.566524 315.500896 
L 1139.475829 317.559813 
L 1142.930481 318.324019 
L 1146.385133 318.872218 
L 1153.294438 319.609314 
L 1160.203742 320.009771 
L 1167.113046 320.234428 
L 1177.477003 320.347633 
L 1205.11422 320.39881 
L 1212.023525 320.399994 
L 1212.023525 320.399994 
" clip-path="url(#pb4e7ee4c4c)" style="fill: none; stroke: #ff7f0e; stroke-width: 1.5; stroke-linecap: square"/>
   </g>
   <g id="line2d_61">
    <path d="M 543.019457 320.399995 
L 876.220714 320.256602 
L 883.46422 320.096287 
L 890.707726 319.782924 
L 897.951231 319.204205 
L 901.572984 318.737643 
L 905.194737 318.156715 
L 908.81649 317.356672 
L 912.438242 316.362426 
L 916.059995 315.172936 
L 919.681748 313.656647 
L 923.303501 311.648694 
L 926.925254 309.386256 
L 930.547006 306.537857 
L 934.168759 303.223865 
L 937.790512 299.345716 
L 941.412265 294.951409 
L 945.034018 289.804321 
L 948.65577 283.80831 
L 952.277523 277.446001 
L 955.899276 270.180691 
L 959.521029 262.283044 
L 963.142782 253.922955 
L 966.764534 245.114515 
L 970.386287 235.841224 
L 984.873298 197.459691 
L 988.495051 188.378952 
L 992.116804 179.901308 
L 995.738557 171.840442 
L 999.36031 164.297998 
L 1002.982062 158.071161 
L 1006.603815 152.594765 
L 1010.225568 148.007915 
L 1013.847321 144.890211 
L 1017.469074 143.427985 
L 1021.090826 142.999629 
L 1024.712579 143.807297 
L 1028.334332 145.966941 
L 1031.956085 149.084139 
L 1035.577838 153.671032 
L 1039.19959 159.022287 
L 1042.821343 166.048865 
L 1050.064849 181.083814 
L 1060.930107 208.279782 
L 1068.173613 225.299505 
L 1071.795366 234.169657 
L 1082.660624 257.364332 
L 1086.282377 264.211124 
L 1089.90413 270.550639 
L 1093.525882 276.623743 
L 1097.147635 282.13073 
L 1100.769388 287.265368 
L 1104.391141 291.959705 
L 1108.012894 295.99591 
L 1111.634646 299.535635 
L 1115.256399 302.801002 
L 1118.878152 305.696922 
L 1126.121658 310.325909 
L 1129.74341 312.095747 
L 1133.365163 313.677003 
L 1136.986916 314.955946 
L 1140.608669 316.102767 
L 1144.230422 316.984531 
L 1151.473927 318.242831 
L 1158.717433 319.07014 
L 1162.339186 319.421906 
L 1173.204444 319.983589 
L 1180.44795 320.193759 
L 1202.178466 320.371025 
L 1242.017747 320.39926 
L 1263.748264 320.399995 
L 1263.748264 320.399995 
" clip-path="url(#pb4e7ee4c4c)" style="fill: none; stroke: #2ca02c; stroke-width: 1.5; stroke-linecap: square"/>
   </g>
   <g id="line2d_62">
    <path d="M 532.458595 320.399993 
L 934.109933 320.245772 
L 940.640849 319.946119 
L 943.906307 319.722893 
L 947.171765 319.332571 
L 950.437223 318.795873 
L 953.702681 318.006279 
L 956.968139 316.878128 
L 960.233597 315.434216 
L 963.499055 313.377857 
L 966.764513 310.670106 
L 970.029971 307.131106 
L 973.295429 302.498544 
L 976.560887 296.882515 
L 979.826345 289.637148 
L 983.091803 281.079407 
L 986.357261 270.908391 
L 989.622719 259.300548 
L 992.888177 246.092776 
L 996.153635 231.630459 
L 999.419093 216.25401 
L 1002.684552 199.650958 
L 1009.215468 164.164338 
L 1012.480926 147.305308 
L 1015.746384 129.112963 
L 1022.2773 96.491365 
L 1025.542758 83.241849 
L 1028.808216 71.876983 
L 1032.073674 63.652574 
L 1035.339132 58.519042 
L 1038.60459 56.4 
L 1041.870048 57.747029 
L 1045.135506 62.538262 
L 1048.400964 70.566809 
L 1051.666422 81.796145 
L 1058.197338 112.570709 
L 1064.728254 148.06237 
L 1067.993712 167.253919 
L 1077.790086 220.562829 
L 1084.321002 250.653258 
L 1087.58646 263.722435 
L 1090.851918 274.833868 
L 1094.117376 284.22343 
L 1097.382835 292.487311 
L 1100.648293 299.380331 
L 1103.913751 304.936656 
L 1107.179209 309.009745 
L 1110.444667 312.221578 
L 1113.710125 314.63845 
L 1116.975583 316.415111 
L 1120.241041 317.596335 
L 1123.506499 318.432241 
L 1126.771957 319.077594 
L 1130.037415 319.500264 
L 1136.568331 320.034779 
L 1143.099247 320.25368 
L 1159.426537 320.379316 
L 1182.284743 320.399992 
L 1182.284743 320.399992 
" clip-path="url(#pb4e7ee4c4c)" style="fill: none; stroke: #d62728; stroke-width: 1.5; stroke-linecap: square"/>
   </g>
   <g id="patch_15">
    <path d="M 894.214588 320.4 
L 894.214588 43.2 
" style="fill: none; stroke: #000000; stroke-width: 0.8; stroke-linejoin: miter; stroke-linecap: square"/>
   </g>
   <g id="patch_16">
    <path d="M 1197.504 320.4 
L 1197.504 43.2 
" style="fill: none; stroke: #000000; stroke-width: 0.8; stroke-linejoin: miter; stroke-linecap: square"/>
   </g>
   <g id="patch_17">
    <path d="M 894.214588 320.4 
L 1197.504 320.4 
" style="fill: none; stroke: #000000; stroke-width: 0.8; stroke-linejoin: miter; stroke-linecap: square"/>
   </g>
   <g id="patch_18">
    <path d="M 894.214588 43.2 
L 1197.504 43.2 
" style="fill: none; stroke: #000000; stroke-width: 0.8; stroke-linejoin: miter; stroke-linecap: square"/>
   </g>
   <g id="text_56">
    <!-- deep-image-96-angular -->
    <g transform="translate(975.138044 37.2)scale(0.12 -0.12)">
     <defs>
      <path id="DejaVuSans-64" d="M 2906 2969 
L 2906 4863 
L 3481 4863 
L 3481 0 
L 2906 0 
L 2906 525 
Q 2725 213 2448 61 
Q 2172 -91 1784 -91 
Q 1150 -91 751 415 
Q 353 922 353 1747 
Q 353 2572 751 3078 
Q 1150 3584 1784 3584 
Q 2172 3584 2448 3432 
Q 2725 3281 2906 2969 
z
M 947 1747 
Q 947 1113 1208 752 
Q 1469 391 1925 391 
Q 2381 391 2643 752 
Q 2906 1113 2906 1747 
Q 2906 2381 2643 2742 
Q 2381 3103 1925 3103 
Q 1469 3103 1208 2742 
Q 947 2381 947 1747 
z
" transform="scale(0.015625)"/>
      <path id="DejaVuSans-70" d="M 1159 525 
L 1159 -1331 
L 581 -1331 
L 581 3500 
L 1159 3500 
L 1159 2969 
Q 1341 3281 1617 3432 
Q 1894 3584 2278 3584 
Q 2916 3584 3314 3078 
Q 3713 2572 3713 1747 
Q 3713 922 3314 415 
Q 2916 -91 2278 -91 
Q 1894 -91 1617 61 
Q 1341 213 1159 525 
z
M 3116 1747 
Q 3116 2381 2855 2742 
Q 2594 3103 2138 3103 
Q 1681 3103 1420 2742 
Q 1159 2381 1159 1747 
Q 1159 1113 1420 752 
Q 1681 391 2138 391 
Q 2594 391 2855 752 
Q 3116 1113 3116 1747 
z
" transform="scale(0.015625)"/>
      <path id="DejaVuSans-39" d="M 703 97 
L 703 672 
Q 941 559 1184 500 
Q 1428 441 1663 441 
Q 2288 441 2617 861 
Q 2947 1281 2994 2138 
Q 2813 1869 2534 1725 
Q 2256 1581 1919 1581 
Q 1219 1581 811 2004 
Q 403 2428 403 3163 
Q 403 3881 828 4315 
Q 1253 4750 1959 4750 
Q 2769 4750 3195 4129 
Q 3622 3509 3622 2328 
Q 3622 1225 3098 567 
Q 2575 -91 1691 -91 
Q 1453 -91 1209 -44 
Q 966 3 703 97 
z
M 1959 2075 
Q 2384 2075 2632 2365 
Q 2881 2656 2881 3163 
Q 2881 3666 2632 3958 
Q 2384 4250 1959 4250 
Q 1534 4250 1286 3958 
Q 1038 3666 1038 3163 
Q 1038 2656 1286 2365 
Q 1534 2075 1959 2075 
z
" transform="scale(0.015625)"/>
     </defs>
     <use xlink:href="#DejaVuSans-64"/>
     <use xlink:href="#DejaVuSans-65" x="63.476562"/>
     <use xlink:href="#DejaVuSans-65" x="125"/>
     <use xlink:href="#DejaVuSans-70" x="186.523438"/>
     <use xlink:href="#DejaVuSans-2d" x="250"/>
     <use xlink:href="#DejaVuSans-69" x="286.083984"/>
     <use xlink:href="#DejaVuSans-6d" x="313.867188"/>
     <use xlink:href="#DejaVuSans-61" x="411.279297"/>
     <use xlink:href="#DejaVuSans-67" x="472.558594"/>
     <use xlink:href="#DejaVuSans-65" x="536.035156"/>
     <use xlink:href="#DejaVuSans-2d" x="597.558594"/>
     <use xlink:href="#DejaVuSans-39" x="633.642578"/>
     <use xlink:href="#DejaVuSans-36" x="697.265625"/>
     <use xlink:href="#DejaVuSans-2d" x="760.888672"/>
     <use xlink:href="#DejaVuSans-61" x="796.972656"/>
     <use xlink:href="#DejaVuSans-6e" x="858.251953"/>
     <use xlink:href="#DejaVuSans-67" x="921.630859"/>
     <use xlink:href="#DejaVuSans-75" x="985.107422"/>
     <use xlink:href="#DejaVuSans-6c" x="1048.486328"/>
     <use xlink:href="#DejaVuSans-61" x="1076.269531"/>
     <use xlink:href="#DejaVuSans-72" x="1137.548828"/>
    </g>
   </g>
   <g id="legend_3">
    <g id="patch_19">
     <path d="M 1123.639937 109.9125 
L 1190.504 109.9125 
Q 1192.504 109.9125 1192.504 107.9125 
L 1192.504 50.2 
Q 1192.504 48.2 1190.504 48.2 
L 1123.639937 48.2 
Q 1121.639937 48.2 1121.639937 50.2 
L 1121.639937 107.9125 
Q 1121.639937 109.9125 1123.639937 109.9125 
z
" style="fill: #ffffff; opacity: 0.8; stroke: #cccccc; stroke-linejoin: miter"/>
    </g>
    <g id="line2d_63">
     <path d="M 1125.639937 56.298437 
L 1135.639937 56.298437 
L 1145.639937 56.298437 
" style="fill: none; stroke: #1f77b4; stroke-width: 1.5; stroke-linecap: square"/>
    </g>
    <g id="text_57">
     <!-- M8P -->
     <g transform="translate(1153.639937 59.798437)scale(0.1 -0.1)">
      <use xlink:href="#DejaVuSans-4d"/>
      <use xlink:href="#DejaVuSans-38" x="86.279297"/>
      <use xlink:href="#DejaVuSans-50" x="149.902344"/>
     </g>
    </g>
    <g id="line2d_64">
     <path d="M 1125.639937 70.976562 
L 1135.639937 70.976562 
L 1145.639937 70.976562 
" style="fill: none; stroke: #ff7f0e; stroke-width: 1.5; stroke-linecap: square"/>
    </g>
    <g id="text_58">
     <!-- M16P -->
     <g transform="translate(1153.639937 74.476562)scale(0.1 -0.1)">
      <use xlink:href="#DejaVuSans-4d"/>
      <use xlink:href="#DejaVuSans-31" x="86.279297"/>
      <use xlink:href="#DejaVuSans-36" x="149.902344"/>
      <use xlink:href="#DejaVuSans-50" x="213.525391"/>
     </g>
    </g>
    <g id="line2d_65">
     <path d="M 1125.639937 85.654687 
L 1135.639937 85.654687 
L 1145.639937 85.654687 
" style="fill: none; stroke: #2ca02c; stroke-width: 1.5; stroke-linecap: square"/>
    </g>
    <g id="text_59">
     <!-- M8NP -->
     <g transform="translate(1153.639937 89.154687)scale(0.1 -0.1)">
      <use xlink:href="#DejaVuSans-4d"/>
      <use xlink:href="#DejaVuSans-38" x="86.279297"/>
      <use xlink:href="#DejaVuSans-4e" x="149.902344"/>
      <use xlink:href="#DejaVuSans-50" x="224.707031"/>
     </g>
    </g>
    <g id="line2d_66">
     <path d="M 1125.639937 100.332812 
L 1135.639937 100.332812 
L 1145.639937 100.332812 
" style="fill: none; stroke: #d62728; stroke-width: 1.5; stroke-linecap: square"/>
    </g>
    <g id="text_60">
     <!-- M16NP -->
     <g transform="translate(1153.639937 103.832812)scale(0.1 -0.1)">
      <use xlink:href="#DejaVuSans-4d"/>
      <use xlink:href="#DejaVuSans-31" x="86.279297"/>
      <use xlink:href="#DejaVuSans-36" x="149.902344"/>
      <use xlink:href="#DejaVuSans-4e" x="213.525391"/>
      <use xlink:href="#DejaVuSans-50" x="288.330078"/>
     </g>
    </g>
   </g>
  </g>
  <g id="text_61">
   <!-- Estimation errors -->
   <g transform="translate(613.774688 16.318125)scale(0.12 -0.12)">
    <defs>
     <path id="DejaVuSans-20" transform="scale(0.015625)"/>
    </defs>
    <use xlink:href="#DejaVuSans-45"/>
    <use xlink:href="#DejaVuSans-73" x="63.183594"/>
    <use xlink:href="#DejaVuSans-74" x="115.283203"/>
    <use xlink:href="#DejaVuSans-69" x="154.492188"/>
    <use xlink:href="#DejaVuSans-6d" x="182.275391"/>
    <use xlink:href="#DejaVuSans-61" x="279.6875"/>
    <use xlink:href="#DejaVuSans-74" x="340.966797"/>
    <use xlink:href="#DejaVuSans-69" x="380.175781"/>
    <use xlink:href="#DejaVuSans-6f" x="407.958984"/>
    <use xlink:href="#DejaVuSans-6e" x="469.140625"/>
    <use xlink:href="#DejaVuSans-20" x="532.519531"/>
    <use xlink:href="#DejaVuSans-65" x="564.306641"/>
    <use xlink:href="#DejaVuSans-72" x="625.830078"/>
    <use xlink:href="#DejaVuSans-72" x="665.193359"/>
    <use xlink:href="#DejaVuSans-6f" x="704.056641"/>
    <use xlink:href="#DejaVuSans-72" x="765.238281"/>
    <use xlink:href="#DejaVuSans-73" x="806.351562"/>
   </g>
  </g>
 </g>
 <defs>
  <clipPath id="pa6d08b32ba">
   <rect x="166.32" y="43.2" width="303.289412" height="277.2"/>
  </clipPath>
  <clipPath id="pd1ef9586c3">
   <rect x="530.267294" y="43.2" width="303.289412" height="277.2"/>
  </clipPath>
  <clipPath id="pb4e7ee4c4c">
   <rect x="894.214588" y="43.2" width="303.289412" height="277.2"/>
  </clipPath>
 </defs>
</svg>
