<?xml version="1.0" encoding="utf-8" standalone="no"?>
<!DOCTYPE svg PUBLIC "-//W3C//DTD SVG 1.1//EN"
  "http://www.w3.org/Graphics/SVG/1.1/DTD/svg11.dtd">
<svg xmlns:xlink="http://www.w3.org/1999/xlink" width="720pt" height="360pt" viewBox="0 0 720 360" xmlns="http://www.w3.org/2000/svg" version="1.1">
 <metadata>
  <rdf:RDF xmlns:dc="http://purl.org/dc/elements/1.1/" xmlns:cc="http://creativecommons.org/ns#" xmlns:rdf="http://www.w3.org/1999/02/22-rdf-syntax-ns#">
   <cc:Work>
    <dc:type rdf:resource="http://purl.org/dc/dcmitype/StillImage"/>
    <dc:date>2022-05-09T13:48:44.894152</dc:date>
    <dc:format>image/svg+xml</dc:format>
    <dc:creator>
     <cc:Agent>
      <dc:title>Matplotlib v3.5.1, https://matplotlib.org/</dc:title>
     </cc:Agent>
    </dc:creator>
   </cc:Work>
  </rdf:RDF>
 </metadata>
 <defs>
  <style type="text/css">*{stroke-linejoin: round; stroke-linecap: butt}</style>
 </defs>
 <g id="figure_1">
  <g id="patch_1">
   <path d="M 0 360 
L 720 360 
L 720 0 
L 0 0 
z
" style="fill: #ffffff"/>
  </g>
  <g id="axes_1">
   <g id="patch_2">
    <path d="M 57.6 316.8 
L 369.6 316.8 
L 369.6 28.8 
L 57.6 28.8 
z
" style="fill: #ffffff"/>
   </g>
   <g id="matplotlib.axis_1">
    <g id="xtick_1">
     <g id="line2d_1">
      <defs>
       <path id="mbcabd85945" d="M 0 0 
L 0 3.5 
" style="stroke: #000000; stroke-width: 0.8"/>
      </defs>
      <g>
       <use xlink:href="#mbcabd85945" x="57.6" y="316.8" style="stroke: #000000; stroke-width: 0.8"/>
      </g>
     </g>
     <g id="text_1">
      <!-- −1.0 -->
      <g transform="translate(45.458594 331.398438)scale(0.1 -0.1)">
       <defs>
        <path id="DejaVuSans-2212" d="M 678 2272 
L 4684 2272 
L 4684 1741 
L 678 1741 
L 678 2272 
z
" transform="scale(0.015625)"/>
        <path id="DejaVuSans-31" d="M 794 531 
L 1825 531 
L 1825 4091 
L 703 3866 
L 703 4441 
L 1819 4666 
L 2450 4666 
L 2450 531 
L 3481 531 
L 3481 0 
L 794 0 
L 794 531 
z
" transform="scale(0.015625)"/>
        <path id="DejaVuSans-2e" d="M 684 794 
L 1344 794 
L 1344 0 
L 684 0 
L 684 794 
z
" transform="scale(0.015625)"/>
        <path id="DejaVuSans-30" d="M 2034 4250 
Q 1547 4250 1301 3770 
Q 1056 3291 1056 2328 
Q 1056 1369 1301 889 
Q 1547 409 2034 409 
Q 2525 409 2770 889 
Q 3016 1369 3016 2328 
Q 3016 3291 2770 3770 
Q 2525 4250 2034 4250 
z
M 2034 4750 
Q 2819 4750 3233 4129 
Q 3647 3509 3647 2328 
Q 3647 1150 3233 529 
Q 2819 -91 2034 -91 
Q 1250 -91 836 529 
Q 422 1150 422 2328 
Q 422 3509 836 4129 
Q 1250 4750 2034 4750 
z
" transform="scale(0.015625)"/>
       </defs>
       <use xlink:href="#DejaVuSans-2212"/>
       <use xlink:href="#DejaVuSans-31" x="83.789062"/>
       <use xlink:href="#DejaVuSans-2e" x="147.412109"/>
       <use xlink:href="#DejaVuSans-30" x="179.199219"/>
      </g>
     </g>
    </g>
    <g id="xtick_2">
     <g id="line2d_2">
      <g>
       <use xlink:href="#mbcabd85945" x="114.327273" y="316.8" style="stroke: #000000; stroke-width: 0.8"/>
      </g>
     </g>
     <g id="text_2">
      <!-- −0.8 -->
      <g transform="translate(102.185866 331.398438)scale(0.1 -0.1)">
       <defs>
        <path id="DejaVuSans-38" d="M 2034 2216 
Q 1584 2216 1326 1975 
Q 1069 1734 1069 1313 
Q 1069 891 1326 650 
Q 1584 409 2034 409 
Q 2484 409 2743 651 
Q 3003 894 3003 1313 
Q 3003 1734 2745 1975 
Q 2488 2216 2034 2216 
z
M 1403 2484 
Q 997 2584 770 2862 
Q 544 3141 544 3541 
Q 544 4100 942 4425 
Q 1341 4750 2034 4750 
Q 2731 4750 3128 4425 
Q 3525 4100 3525 3541 
Q 3525 3141 3298 2862 
Q 3072 2584 2669 2484 
Q 3125 2378 3379 2068 
Q 3634 1759 3634 1313 
Q 3634 634 3220 271 
Q 2806 -91 2034 -91 
Q 1263 -91 848 271 
Q 434 634 434 1313 
Q 434 1759 690 2068 
Q 947 2378 1403 2484 
z
M 1172 3481 
Q 1172 3119 1398 2916 
Q 1625 2713 2034 2713 
Q 2441 2713 2670 2916 
Q 2900 3119 2900 3481 
Q 2900 3844 2670 4047 
Q 2441 4250 2034 4250 
Q 1625 4250 1398 4047 
Q 1172 3844 1172 3481 
z
" transform="scale(0.015625)"/>
       </defs>
       <use xlink:href="#DejaVuSans-2212"/>
       <use xlink:href="#DejaVuSans-30" x="83.789062"/>
       <use xlink:href="#DejaVuSans-2e" x="147.412109"/>
       <use xlink:href="#DejaVuSans-38" x="179.199219"/>
      </g>
     </g>
    </g>
    <g id="xtick_3">
     <g id="line2d_3">
      <g>
       <use xlink:href="#mbcabd85945" x="171.054545" y="316.8" style="stroke: #000000; stroke-width: 0.8"/>
      </g>
     </g>
     <g id="text_3">
      <!-- −0.6 -->
      <g transform="translate(158.913139 331.398438)scale(0.1 -0.1)">
       <defs>
        <path id="DejaVuSans-36" d="M 2113 2584 
Q 1688 2584 1439 2293 
Q 1191 2003 1191 1497 
Q 1191 994 1439 701 
Q 1688 409 2113 409 
Q 2538 409 2786 701 
Q 3034 994 3034 1497 
Q 3034 2003 2786 2293 
Q 2538 2584 2113 2584 
z
M 3366 4563 
L 3366 3988 
Q 3128 4100 2886 4159 
Q 2644 4219 2406 4219 
Q 1781 4219 1451 3797 
Q 1122 3375 1075 2522 
Q 1259 2794 1537 2939 
Q 1816 3084 2150 3084 
Q 2853 3084 3261 2657 
Q 3669 2231 3669 1497 
Q 3669 778 3244 343 
Q 2819 -91 2113 -91 
Q 1303 -91 875 529 
Q 447 1150 447 2328 
Q 447 3434 972 4092 
Q 1497 4750 2381 4750 
Q 2619 4750 2861 4703 
Q 3103 4656 3366 4563 
z
" transform="scale(0.015625)"/>
       </defs>
       <use xlink:href="#DejaVuSans-2212"/>
       <use xlink:href="#DejaVuSans-30" x="83.789062"/>
       <use xlink:href="#DejaVuSans-2e" x="147.412109"/>
       <use xlink:href="#DejaVuSans-36" x="179.199219"/>
      </g>
     </g>
    </g>
    <g id="xtick_4">
     <g id="line2d_4">
      <g>
       <use xlink:href="#mbcabd85945" x="227.781818" y="316.8" style="stroke: #000000; stroke-width: 0.8"/>
      </g>
     </g>
     <g id="text_4">
      <!-- −0.4 -->
      <g transform="translate(215.640412 331.398438)scale(0.1 -0.1)">
       <defs>
        <path id="DejaVuSans-34" d="M 2419 4116 
L 825 1625 
L 2419 1625 
L 2419 4116 
z
M 2253 4666 
L 3047 4666 
L 3047 1625 
L 3713 1625 
L 3713 1100 
L 3047 1100 
L 3047 0 
L 2419 0 
L 2419 1100 
L 313 1100 
L 313 1709 
L 2253 4666 
z
" transform="scale(0.015625)"/>
       </defs>
       <use xlink:href="#DejaVuSans-2212"/>
       <use xlink:href="#DejaVuSans-30" x="83.789062"/>
       <use xlink:href="#DejaVuSans-2e" x="147.412109"/>
       <use xlink:href="#DejaVuSans-34" x="179.199219"/>
      </g>
     </g>
    </g>
    <g id="xtick_5">
     <g id="line2d_5">
      <g>
       <use xlink:href="#mbcabd85945" x="284.509091" y="316.8" style="stroke: #000000; stroke-width: 0.8"/>
      </g>
     </g>
     <g id="text_5">
      <!-- −0.2 -->
      <g transform="translate(272.367685 331.398438)scale(0.1 -0.1)">
       <defs>
        <path id="DejaVuSans-32" d="M 1228 531 
L 3431 531 
L 3431 0 
L 469 0 
L 469 531 
Q 828 903 1448 1529 
Q 2069 2156 2228 2338 
Q 2531 2678 2651 2914 
Q 2772 3150 2772 3378 
Q 2772 3750 2511 3984 
Q 2250 4219 1831 4219 
Q 1534 4219 1204 4116 
Q 875 4013 500 3803 
L 500 4441 
Q 881 4594 1212 4672 
Q 1544 4750 1819 4750 
Q 2544 4750 2975 4387 
Q 3406 4025 3406 3419 
Q 3406 3131 3298 2873 
Q 3191 2616 2906 2266 
Q 2828 2175 2409 1742 
Q 1991 1309 1228 531 
z
" transform="scale(0.015625)"/>
       </defs>
       <use xlink:href="#DejaVuSans-2212"/>
       <use xlink:href="#DejaVuSans-30" x="83.789062"/>
       <use xlink:href="#DejaVuSans-2e" x="147.412109"/>
       <use xlink:href="#DejaVuSans-32" x="179.199219"/>
      </g>
     </g>
    </g>
    <g id="xtick_6">
     <g id="line2d_6">
      <g>
       <use xlink:href="#mbcabd85945" x="341.236364" y="316.8" style="stroke: #000000; stroke-width: 0.8"/>
      </g>
     </g>
     <g id="text_6">
      <!-- 0.0 -->
      <g transform="translate(333.284801 331.398438)scale(0.1 -0.1)">
       <use xlink:href="#DejaVuSans-30"/>
       <use xlink:href="#DejaVuSans-2e" x="63.623047"/>
       <use xlink:href="#DejaVuSans-30" x="95.410156"/>
      </g>
     </g>
    </g>
   </g>
   <g id="matplotlib.axis_2">
    <g id="ytick_1">
     <g id="line2d_7">
      <defs>
       <path id="m02157e45e5" d="M 0 0 
L -3.5 0 
" style="stroke: #000000; stroke-width: 0.8"/>
      </defs>
      <g>
       <use xlink:href="#m02157e45e5" x="57.6" y="316.8" style="stroke: #000000; stroke-width: 0.8"/>
      </g>
     </g>
     <g id="text_7">
      <!-- 0 -->
      <g transform="translate(44.2375 320.599219)scale(0.1 -0.1)">
       <use xlink:href="#DejaVuSans-30"/>
      </g>
     </g>
    </g>
    <g id="ytick_2">
     <g id="line2d_8">
      <g>
       <use xlink:href="#m02157e45e5" x="57.6" y="259.2" style="stroke: #000000; stroke-width: 0.8"/>
      </g>
     </g>
     <g id="text_8">
      <!-- 2 -->
      <g transform="translate(44.2375 262.999219)scale(0.1 -0.1)">
       <use xlink:href="#DejaVuSans-32"/>
      </g>
     </g>
    </g>
    <g id="ytick_3">
     <g id="line2d_9">
      <g>
       <use xlink:href="#m02157e45e5" x="57.6" y="201.6" style="stroke: #000000; stroke-width: 0.8"/>
      </g>
     </g>
     <g id="text_9">
      <!-- 4 -->
      <g transform="translate(44.2375 205.399219)scale(0.1 -0.1)">
       <use xlink:href="#DejaVuSans-34"/>
      </g>
     </g>
    </g>
    <g id="ytick_4">
     <g id="line2d_10">
      <g>
       <use xlink:href="#m02157e45e5" x="57.6" y="144" style="stroke: #000000; stroke-width: 0.8"/>
      </g>
     </g>
     <g id="text_10">
      <!-- 6 -->
      <g transform="translate(44.2375 147.799219)scale(0.1 -0.1)">
       <use xlink:href="#DejaVuSans-36"/>
      </g>
     </g>
    </g>
    <g id="ytick_5">
     <g id="line2d_11">
      <g>
       <use xlink:href="#m02157e45e5" x="57.6" y="86.4" style="stroke: #000000; stroke-width: 0.8"/>
      </g>
     </g>
     <g id="text_11">
      <!-- 8 -->
      <g transform="translate(44.2375 90.199219)scale(0.1 -0.1)">
       <use xlink:href="#DejaVuSans-38"/>
      </g>
     </g>
    </g>
    <g id="ytick_6">
     <g id="line2d_12">
      <g>
       <use xlink:href="#m02157e45e5" x="57.6" y="28.8" style="stroke: #000000; stroke-width: 0.8"/>
      </g>
     </g>
     <g id="text_12">
      <!-- 10 -->
      <g transform="translate(37.875 32.599219)scale(0.1 -0.1)">
       <use xlink:href="#DejaVuSans-31"/>
       <use xlink:href="#DejaVuSans-30" x="63.623047"/>
      </g>
     </g>
    </g>
   </g>
   <g id="line2d_13">
    <path d="M 341.236364 316.8 
L 341.236364 28.8 
" clip-path="url(#p503450ca77)" style="fill: none; stroke-dasharray: 5.55,2.4; stroke-dashoffset: 0; stroke: #1f77b4; stroke-width: 1.5"/>
   </g>
   <g id="line2d_14">
    <path d="M 115.059396 316.799054 
L 125.066861 316.688787 
L 133.962385 316.368019 
L 140.634029 315.896161 
L 145.081791 315.407243 
L 147.305672 314.978394 
L 149.529553 314.330736 
L 151.753434 313.463503 
L 155.089255 311.869671 
L 157.313136 310.5906 
L 158.425077 309.811959 
L 159.537017 308.882883 
L 160.648958 307.765603 
L 161.760899 306.445224 
L 163.98478 303.311245 
L 167.320601 298.462598 
L 172.880304 291.362515 
L 175.104185 287.582838 
L 177.328066 283.112584 
L 179.551947 278.205727 
L 181.775828 272.74768 
L 182.887768 269.65047 
L 183.999709 266.211311 
L 186.22359 258.245574 
L 190.671352 241.125061 
L 191.783293 237.591197 
L 192.895233 234.533365 
L 195.119114 229.497928 
L 197.342995 224.855583 
L 199.566876 219.687412 
L 204.014638 208.681804 
L 208.462401 198.675296 
L 210.686282 194.047427 
L 211.798222 192.014065 
L 212.910163 190.239154 
L 214.022103 188.745346 
L 215.134044 187.54615 
L 216.245984 186.665327 
L 217.357925 186.142267 
L 218.469865 186.017037 
L 219.581806 186.304277 
L 220.693746 186.973976 
L 221.805687 187.953727 
L 224.029568 190.505737 
L 226.253449 193.6284 
L 227.365389 195.49553 
L 228.47733 197.64945 
L 229.589271 200.11643 
L 231.813152 205.860538 
L 235.148973 215.522461 
L 239.596735 229.169665 
L 242.932557 239.200939 
L 245.156438 245.125336 
L 254.051962 267.310591 
L 260.723605 285.506702 
L 262.947486 290.563499 
L 265.171367 294.853308 
L 267.395248 298.414289 
L 269.619129 301.272429 
L 271.84301 303.554413 
L 274.066892 305.473605 
L 278.514654 308.901863 
L 280.738535 310.452107 
L 282.962416 311.750009 
L 285.186297 312.758412 
L 288.522118 313.926519 
L 291.85794 314.850352 
L 294.081821 315.285336 
L 297.417643 315.677974 
L 305.201226 316.178954 
L 312.98481 316.589236 
L 319.656453 316.736461 
L 336.335561 316.799084 
L 336.335561 316.799084 
" clip-path="url(#p503450ca77)" style="fill: none; stroke: #1f77b4; stroke-width: 1.5; stroke-linecap: square"/>
   </g>
   <g id="line2d_15">
    <path d="M 182.275324 316.798889 
L 189.804462 316.703854 
L 193.569031 316.467942 
L 197.3336 316.00089 
L 200.157027 315.421573 
L 202.980454 314.559433 
L 206.745023 313.06897 
L 211.450734 311.018214 
L 213.333019 309.992566 
L 215.215304 308.707502 
L 217.097588 307.110333 
L 218.979873 305.191814 
L 220.862157 302.954965 
L 222.744442 300.370122 
L 224.626726 297.37058 
L 226.509011 293.929913 
L 229.332438 288.140355 
L 232.155865 281.781493 
L 234.038149 277.017974 
L 235.920434 271.70158 
L 238.743861 262.934302 
L 241.567287 253.461391 
L 244.390714 243.172382 
L 250.037568 222.167111 
L 253.802137 209.075842 
L 256.625564 199.945964 
L 258.507849 194.808779 
L 259.448991 192.766242 
L 260.390133 191.158961 
L 261.331275 190.000133 
L 262.272418 189.25136 
L 263.21356 188.828934 
L 265.095845 188.524483 
L 269.801556 188.170808 
L 270.742698 188.311924 
L 271.683841 188.632661 
L 272.624983 189.15059 
L 273.566125 189.860654 
L 275.44841 191.754683 
L 278.271837 195.237385 
L 282.036406 200.180514 
L 283.91869 202.977103 
L 285.800975 206.304108 
L 287.683259 210.342222 
L 289.565544 215.135245 
L 291.447829 220.577447 
L 294.271255 229.525007 
L 301.800394 253.969292 
L 304.62382 262.54838 
L 307.447247 270.391939 
L 311.211816 280.086189 
L 313.094101 284.583762 
L 314.976386 288.561104 
L 316.85867 291.906675 
L 318.740955 294.752712 
L 321.564382 298.517513 
L 324.387808 301.833511 
L 326.270093 303.756777 
L 329.09352 306.235348 
L 332.858089 309.08222 
L 336.622658 311.779102 
L 338.504943 312.941998 
L 340.387227 313.860753 
L 342.269512 314.52687 
L 345.092939 315.202655 
L 349.79865 316.036263 
L 353.563219 316.469179 
L 357.327788 316.643085 
L 367.680353 316.796292 
L 369.562638 316.799049 
L 369.562638 316.799049 
" clip-path="url(#p503450ca77)" style="fill: none; stroke: #ff7f0e; stroke-width: 1.5; stroke-linecap: square"/>
   </g>
   <g id="line2d_16">
    <path d="M 168.39621 316.798104 
L 174.69643 316.680758 
L 180.096619 316.262888 
L 183.696745 316.056494 
L 189.096934 315.972114 
L 190.896997 315.607118 
L 192.69706 314.950201 
L 195.397154 313.584452 
L 198.097249 311.956223 
L 206.197532 306.516886 
L 207.997595 304.864152 
L 209.797658 302.644802 
L 211.597721 299.858816 
L 213.397784 296.524319 
L 215.197847 292.54356 
L 216.99791 287.853722 
L 227.798288 256.854041 
L 229.598351 251.000359 
L 231.398414 244.371434 
L 233.198477 236.940127 
L 235.898572 224.66885 
L 239.498697 208.140114 
L 241.29876 201.308701 
L 242.198792 198.552714 
L 243.098823 196.264006 
L 243.998855 194.3919 
L 245.798918 191.441528 
L 247.598981 188.587681 
L 249.399044 184.989942 
L 251.199107 180.583195 
L 253.899201 173.631246 
L 255.699264 169.643028 
L 256.599296 168.018964 
L 257.499327 166.701292 
L 258.399359 165.723787 
L 259.29939 165.10843 
L 260.199422 164.863882 
L 261.099453 164.987256 
L 261.999485 165.469971 
L 262.899516 166.30608 
L 263.799548 167.499425 
L 264.699579 169.065654 
L 265.599611 171.027133 
L 266.499642 173.402127 
L 267.399674 176.192544 
L 269.199737 182.900602 
L 270.9998 190.686029 
L 279.100083 227.076048 
L 282.700209 241.886649 
L 289.900461 270.518388 
L 291.700524 275.920818 
L 293.500587 280.407551 
L 296.200681 286.284377 
L 303.400933 301.25698 
L 305.200996 304.235222 
L 307.001059 306.635062 
L 308.801122 308.641499 
L 311.501217 311.234013 
L 313.30128 312.632586 
L 315.101343 313.666487 
L 316.901406 314.364093 
L 319.6015 315.050873 
L 324.101658 315.895648 
L 327.701784 316.359658 
L 331.30191 316.627516 
L 335.802067 316.697307 
L 347.502476 316.798937 
L 347.502476 316.798937 
" clip-path="url(#p503450ca77)" style="fill: none; stroke: #2ca02c; stroke-width: 1.5; stroke-linecap: square"/>
   </g>
   <g id="line2d_17">
    <path d="M 174.436112 316.797764 
L 180.19892 316.711836 
L 183.080324 316.503117 
L 185.961727 316.101236 
L 195.566407 314.312194 
L 197.487343 313.771917 
L 199.408279 312.969555 
L 201.329215 311.839679 
L 203.250151 310.393424 
L 206.131555 307.786696 
L 209.012959 304.853005 
L 217.657171 295.712159 
L 219.578107 293.699024 
L 221.499043 291.360267 
L 223.419979 288.530194 
L 225.340915 285.172435 
L 227.261851 281.341763 
L 230.143255 274.886723 
L 233.985127 265.478128 
L 237.826999 255.651321 
L 239.747935 250.184655 
L 241.668871 244.09976 
L 246.471211 227.572735 
L 252.234019 207.524232 
L 253.194487 204.662286 
L 254.154955 202.165658 
L 255.115423 200.070392 
L 256.075891 198.358818 
L 257.036359 196.966715 
L 258.957295 194.784751 
L 260.878231 192.977425 
L 261.838699 192.198229 
L 262.799167 191.565481 
L 263.759635 191.14218 
L 264.720103 190.977404 
L 265.680571 191.090729 
L 266.641039 191.467241 
L 267.601507 192.063366 
L 269.522443 193.679085 
L 273.364315 197.483213 
L 276.245719 200.633646 
L 279.127123 204.185858 
L 281.048059 206.974139 
L 282.968995 210.433044 
L 284.889931 214.810108 
L 286.810867 220.07516 
L 289.69227 229.008411 
L 298.336482 256.732502 
L 301.217886 264.604877 
L 304.09929 271.798858 
L 306.980694 278.470574 
L 308.90163 282.479853 
L 310.822566 286.045265 
L 312.743502 289.131994 
L 314.664438 291.707912 
L 316.585374 293.794617 
L 322.348182 299.338392 
L 325.229586 302.83614 
L 328.11099 306.363385 
L 330.031926 308.434458 
L 331.952862 310.20229 
L 333.873798 311.665716 
L 335.794734 312.832378 
L 337.71567 313.716391 
L 339.636606 314.357532 
L 342.51801 315.005712 
L 348.280818 315.907988 
L 353.083158 316.486882 
L 356.92503 316.704683 
L 363.648306 316.796376 
L 365.569242 316.799051 
L 365.569242 316.799051 
" clip-path="url(#p503450ca77)" style="fill: none; stroke: #d62728; stroke-width: 1.5; stroke-linecap: square"/>
   </g>
   <g id="patch_3">
    <path d="M 57.6 316.8 
L 57.6 28.8 
" style="fill: none; stroke: #000000; stroke-width: 0.8; stroke-linejoin: miter; stroke-linecap: square"/>
   </g>
   <g id="patch_4">
    <path d="M 369.6 316.8 
L 369.6 28.8 
" style="fill: none; stroke: #000000; stroke-width: 0.8; stroke-linejoin: miter; stroke-linecap: square"/>
   </g>
   <g id="patch_5">
    <path d="M 57.6 316.8 
L 369.6 316.8 
" style="fill: none; stroke: #000000; stroke-width: 0.8; stroke-linejoin: miter; stroke-linecap: square"/>
   </g>
   <g id="patch_6">
    <path d="M 57.6 28.8 
L 369.6 28.8 
" style="fill: none; stroke: #000000; stroke-width: 0.8; stroke-linejoin: miter; stroke-linecap: square"/>
   </g>
   <g id="text_13">
    <!-- No Permutation -->
    <g transform="translate(160.183125 22.8)scale(0.12 -0.12)">
     <defs>
      <path id="DejaVuSans-Bold-4e" d="M 588 4666 
L 1931 4666 
L 3628 1466 
L 3628 4666 
L 4769 4666 
L 4769 0 
L 3425 0 
L 1728 3200 
L 1728 0 
L 588 0 
L 588 4666 
z
" transform="scale(0.015625)"/>
      <path id="DejaVuSans-Bold-6f" d="M 2203 2784 
Q 1831 2784 1636 2517 
Q 1441 2250 1441 1747 
Q 1441 1244 1636 976 
Q 1831 709 2203 709 
Q 2569 709 2762 976 
Q 2956 1244 2956 1747 
Q 2956 2250 2762 2517 
Q 2569 2784 2203 2784 
z
M 2203 3584 
Q 3106 3584 3614 3096 
Q 4122 2609 4122 1747 
Q 4122 884 3614 396 
Q 3106 -91 2203 -91 
Q 1297 -91 786 396 
Q 275 884 275 1747 
Q 275 2609 786 3096 
Q 1297 3584 2203 3584 
z
" transform="scale(0.015625)"/>
      <path id="DejaVuSans-Bold-20" transform="scale(0.015625)"/>
      <path id="DejaVuSans-Bold-50" d="M 588 4666 
L 2584 4666 
Q 3475 4666 3951 4270 
Q 4428 3875 4428 3144 
Q 4428 2409 3951 2014 
Q 3475 1619 2584 1619 
L 1791 1619 
L 1791 0 
L 588 0 
L 588 4666 
z
M 1791 3794 
L 1791 2491 
L 2456 2491 
Q 2806 2491 2997 2661 
Q 3188 2831 3188 3144 
Q 3188 3456 2997 3625 
Q 2806 3794 2456 3794 
L 1791 3794 
z
" transform="scale(0.015625)"/>
      <path id="DejaVuSans-Bold-65" d="M 4031 1759 
L 4031 1441 
L 1416 1441 
Q 1456 1047 1700 850 
Q 1944 653 2381 653 
Q 2734 653 3104 758 
Q 3475 863 3866 1075 
L 3866 213 
Q 3469 63 3072 -14 
Q 2675 -91 2278 -91 
Q 1328 -91 801 392 
Q 275 875 275 1747 
Q 275 2603 792 3093 
Q 1309 3584 2216 3584 
Q 3041 3584 3536 3087 
Q 4031 2591 4031 1759 
z
M 2881 2131 
Q 2881 2450 2695 2645 
Q 2509 2841 2209 2841 
Q 1884 2841 1681 2658 
Q 1478 2475 1428 2131 
L 2881 2131 
z
" transform="scale(0.015625)"/>
      <path id="DejaVuSans-Bold-72" d="M 3138 2547 
Q 2991 2616 2845 2648 
Q 2700 2681 2553 2681 
Q 2122 2681 1889 2404 
Q 1656 2128 1656 1613 
L 1656 0 
L 538 0 
L 538 3500 
L 1656 3500 
L 1656 2925 
Q 1872 3269 2151 3426 
Q 2431 3584 2822 3584 
Q 2878 3584 2943 3579 
Q 3009 3575 3134 3559 
L 3138 2547 
z
" transform="scale(0.015625)"/>
      <path id="DejaVuSans-Bold-6d" d="M 3781 2919 
Q 3994 3244 4286 3414 
Q 4578 3584 4928 3584 
Q 5531 3584 5847 3212 
Q 6163 2841 6163 2131 
L 6163 0 
L 5038 0 
L 5038 1825 
Q 5041 1866 5042 1909 
Q 5044 1953 5044 2034 
Q 5044 2406 4934 2573 
Q 4825 2741 4581 2741 
Q 4263 2741 4089 2478 
Q 3916 2216 3909 1719 
L 3909 0 
L 2784 0 
L 2784 1825 
Q 2784 2406 2684 2573 
Q 2584 2741 2328 2741 
Q 2006 2741 1831 2477 
Q 1656 2213 1656 1722 
L 1656 0 
L 531 0 
L 531 3500 
L 1656 3500 
L 1656 2988 
Q 1863 3284 2130 3434 
Q 2397 3584 2719 3584 
Q 3081 3584 3359 3409 
Q 3638 3234 3781 2919 
z
" transform="scale(0.015625)"/>
      <path id="DejaVuSans-Bold-75" d="M 500 1363 
L 500 3500 
L 1625 3500 
L 1625 3150 
Q 1625 2866 1622 2436 
Q 1619 2006 1619 1863 
Q 1619 1441 1641 1255 
Q 1663 1069 1716 984 
Q 1784 875 1895 815 
Q 2006 756 2150 756 
Q 2500 756 2700 1025 
Q 2900 1294 2900 1772 
L 2900 3500 
L 4019 3500 
L 4019 0 
L 2900 0 
L 2900 506 
Q 2647 200 2364 54 
Q 2081 -91 1741 -91 
Q 1134 -91 817 281 
Q 500 653 500 1363 
z
" transform="scale(0.015625)"/>
      <path id="DejaVuSans-Bold-74" d="M 1759 4494 
L 1759 3500 
L 2913 3500 
L 2913 2700 
L 1759 2700 
L 1759 1216 
Q 1759 972 1856 886 
Q 1953 800 2241 800 
L 2816 800 
L 2816 0 
L 1856 0 
Q 1194 0 917 276 
Q 641 553 641 1216 
L 641 2700 
L 84 2700 
L 84 3500 
L 641 3500 
L 641 4494 
L 1759 4494 
z
" transform="scale(0.015625)"/>
      <path id="DejaVuSans-Bold-61" d="M 2106 1575 
Q 1756 1575 1579 1456 
Q 1403 1338 1403 1106 
Q 1403 894 1545 773 
Q 1688 653 1941 653 
Q 2256 653 2472 879 
Q 2688 1106 2688 1447 
L 2688 1575 
L 2106 1575 
z
M 3816 1997 
L 3816 0 
L 2688 0 
L 2688 519 
Q 2463 200 2181 54 
Q 1900 -91 1497 -91 
Q 953 -91 614 226 
Q 275 544 275 1050 
Q 275 1666 698 1953 
Q 1122 2241 2028 2241 
L 2688 2241 
L 2688 2328 
Q 2688 2594 2478 2717 
Q 2269 2841 1825 2841 
Q 1466 2841 1156 2769 
Q 847 2697 581 2553 
L 581 3406 
Q 941 3494 1303 3539 
Q 1666 3584 2028 3584 
Q 2975 3584 3395 3211 
Q 3816 2838 3816 1997 
z
" transform="scale(0.015625)"/>
      <path id="DejaVuSans-Bold-69" d="M 538 3500 
L 1656 3500 
L 1656 0 
L 538 0 
L 538 3500 
z
M 538 4863 
L 1656 4863 
L 1656 3950 
L 538 3950 
L 538 4863 
z
" transform="scale(0.015625)"/>
      <path id="DejaVuSans-Bold-6e" d="M 4056 2131 
L 4056 0 
L 2931 0 
L 2931 347 
L 2931 1631 
Q 2931 2084 2911 2256 
Q 2891 2428 2841 2509 
Q 2775 2619 2662 2680 
Q 2550 2741 2406 2741 
Q 2056 2741 1856 2470 
Q 1656 2200 1656 1722 
L 1656 0 
L 538 0 
L 538 3500 
L 1656 3500 
L 1656 2988 
Q 1909 3294 2193 3439 
Q 2478 3584 2822 3584 
Q 3428 3584 3742 3212 
Q 4056 2841 4056 2131 
z
" transform="scale(0.015625)"/>
     </defs>
     <use xlink:href="#DejaVuSans-Bold-4e"/>
     <use xlink:href="#DejaVuSans-Bold-6f" x="83.691406"/>
     <use xlink:href="#DejaVuSans-Bold-20" x="152.392578"/>
     <use xlink:href="#DejaVuSans-Bold-50" x="187.207031"/>
     <use xlink:href="#DejaVuSans-Bold-65" x="260.498047"/>
     <use xlink:href="#DejaVuSans-Bold-72" x="328.320312"/>
     <use xlink:href="#DejaVuSans-Bold-6d" x="377.636719"/>
     <use xlink:href="#DejaVuSans-Bold-75" x="481.835938"/>
     <use xlink:href="#DejaVuSans-Bold-74" x="553.027344"/>
     <use xlink:href="#DejaVuSans-Bold-61" x="600.830078"/>
     <use xlink:href="#DejaVuSans-Bold-74" x="668.310547"/>
     <use xlink:href="#DejaVuSans-Bold-69" x="716.113281"/>
     <use xlink:href="#DejaVuSans-Bold-6f" x="750.390625"/>
     <use xlink:href="#DejaVuSans-Bold-6e" x="819.091797"/>
    </g>
   </g>
  </g>
  <g id="axes_2">
   <g id="patch_7">
    <path d="M 400.8 316.8 
L 712.8 316.8 
L 712.8 28.8 
L 400.8 28.8 
z
" style="fill: #ffffff"/>
   </g>
   <g id="matplotlib.axis_3">
    <g id="xtick_7">
     <g id="line2d_18">
      <g>
       <use xlink:href="#mbcabd85945" x="400.8" y="316.8" style="stroke: #000000; stroke-width: 0.8"/>
      </g>
     </g>
     <g id="text_14">
      <!-- −1.0 -->
      <g transform="translate(388.658594 331.398438)scale(0.1 -0.1)">
       <use xlink:href="#DejaVuSans-2212"/>
       <use xlink:href="#DejaVuSans-31" x="83.789062"/>
       <use xlink:href="#DejaVuSans-2e" x="147.412109"/>
       <use xlink:href="#DejaVuSans-30" x="179.199219"/>
      </g>
     </g>
    </g>
    <g id="xtick_8">
     <g id="line2d_19">
      <g>
       <use xlink:href="#mbcabd85945" x="457.527273" y="316.8" style="stroke: #000000; stroke-width: 0.8"/>
      </g>
     </g>
     <g id="text_15">
      <!-- −0.8 -->
      <g transform="translate(445.385866 331.398438)scale(0.1 -0.1)">
       <use xlink:href="#DejaVuSans-2212"/>
       <use xlink:href="#DejaVuSans-30" x="83.789062"/>
       <use xlink:href="#DejaVuSans-2e" x="147.412109"/>
       <use xlink:href="#DejaVuSans-38" x="179.199219"/>
      </g>
     </g>
    </g>
    <g id="xtick_9">
     <g id="line2d_20">
      <g>
       <use xlink:href="#mbcabd85945" x="514.254545" y="316.8" style="stroke: #000000; stroke-width: 0.8"/>
      </g>
     </g>
     <g id="text_16">
      <!-- −0.6 -->
      <g transform="translate(502.113139 331.398438)scale(0.1 -0.1)">
       <use xlink:href="#DejaVuSans-2212"/>
       <use xlink:href="#DejaVuSans-30" x="83.789062"/>
       <use xlink:href="#DejaVuSans-2e" x="147.412109"/>
       <use xlink:href="#DejaVuSans-36" x="179.199219"/>
      </g>
     </g>
    </g>
    <g id="xtick_10">
     <g id="line2d_21">
      <g>
       <use xlink:href="#mbcabd85945" x="570.981818" y="316.8" style="stroke: #000000; stroke-width: 0.8"/>
      </g>
     </g>
     <g id="text_17">
      <!-- −0.4 -->
      <g transform="translate(558.840412 331.398438)scale(0.1 -0.1)">
       <use xlink:href="#DejaVuSans-2212"/>
       <use xlink:href="#DejaVuSans-30" x="83.789062"/>
       <use xlink:href="#DejaVuSans-2e" x="147.412109"/>
       <use xlink:href="#DejaVuSans-34" x="179.199219"/>
      </g>
     </g>
    </g>
    <g id="xtick_11">
     <g id="line2d_22">
      <g>
       <use xlink:href="#mbcabd85945" x="627.709091" y="316.8" style="stroke: #000000; stroke-width: 0.8"/>
      </g>
     </g>
     <g id="text_18">
      <!-- −0.2 -->
      <g transform="translate(615.567685 331.398438)scale(0.1 -0.1)">
       <use xlink:href="#DejaVuSans-2212"/>
       <use xlink:href="#DejaVuSans-30" x="83.789062"/>
       <use xlink:href="#DejaVuSans-2e" x="147.412109"/>
       <use xlink:href="#DejaVuSans-32" x="179.199219"/>
      </g>
     </g>
    </g>
    <g id="xtick_12">
     <g id="line2d_23">
      <g>
       <use xlink:href="#mbcabd85945" x="684.436364" y="316.8" style="stroke: #000000; stroke-width: 0.8"/>
      </g>
     </g>
     <g id="text_19">
      <!-- 0.0 -->
      <g transform="translate(676.484801 331.398438)scale(0.1 -0.1)">
       <use xlink:href="#DejaVuSans-30"/>
       <use xlink:href="#DejaVuSans-2e" x="63.623047"/>
       <use xlink:href="#DejaVuSans-30" x="95.410156"/>
      </g>
     </g>
    </g>
   </g>
   <g id="matplotlib.axis_4">
    <g id="ytick_7">
     <g id="line2d_24">
      <g>
       <use xlink:href="#m02157e45e5" x="400.8" y="316.8" style="stroke: #000000; stroke-width: 0.8"/>
      </g>
     </g>
    </g>
    <g id="ytick_8">
     <g id="line2d_25">
      <g>
       <use xlink:href="#m02157e45e5" x="400.8" y="259.2" style="stroke: #000000; stroke-width: 0.8"/>
      </g>
     </g>
    </g>
    <g id="ytick_9">
     <g id="line2d_26">
      <g>
       <use xlink:href="#m02157e45e5" x="400.8" y="201.6" style="stroke: #000000; stroke-width: 0.8"/>
      </g>
     </g>
    </g>
    <g id="ytick_10">
     <g id="line2d_27">
      <g>
       <use xlink:href="#m02157e45e5" x="400.8" y="144" style="stroke: #000000; stroke-width: 0.8"/>
      </g>
     </g>
    </g>
    <g id="ytick_11">
     <g id="line2d_28">
      <g>
       <use xlink:href="#m02157e45e5" x="400.8" y="86.4" style="stroke: #000000; stroke-width: 0.8"/>
      </g>
     </g>
    </g>
    <g id="ytick_12">
     <g id="line2d_29">
      <g>
       <use xlink:href="#m02157e45e5" x="400.8" y="28.8" style="stroke: #000000; stroke-width: 0.8"/>
      </g>
     </g>
    </g>
   </g>
   <g id="line2d_30">
    <path d="M 684.436364 316.8 
L 684.436364 28.8 
" clip-path="url(#p20d5a23aab)" style="fill: none; stroke-dasharray: 5.55,2.4; stroke-dashoffset: 0; stroke: #1f77b4; stroke-width: 1.5"/>
   </g>
   <g id="line2d_31">
    <path d="M 448.816057 316.798688 
L 456.72239 316.699478 
L 472.535056 315.953463 
L 475.170501 315.610758 
L 480.44139 314.602765 
L 489.665445 312.571627 
L 492.30089 311.842523 
L 494.936334 310.903834 
L 498.889501 309.171949 
L 501.524945 307.767542 
L 504.16039 306.090023 
L 510.749001 301.394996 
L 512.066723 300.296693 
L 513.384445 298.940064 
L 514.702167 297.197743 
L 516.019889 294.988823 
L 517.337612 292.317671 
L 519.973056 286.071007 
L 522.608501 279.791757 
L 526.561667 271.378742 
L 529.197112 265.458948 
L 531.832556 258.616997 
L 534.468 250.640937 
L 539.738889 233.34986 
L 541.056611 229.737283 
L 542.374334 226.606778 
L 545.009778 221.322574 
L 547.645223 216.120411 
L 550.280667 210.199759 
L 552.916111 204.164336 
L 554.233834 201.531117 
L 555.551556 199.351969 
L 556.869278 197.685649 
L 558.187 196.502498 
L 559.504722 195.702711 
L 560.822445 195.156269 
L 563.457889 194.425538 
L 564.775611 194.193146 
L 566.093334 194.1206 
L 567.411056 194.300115 
L 568.728778 194.810579 
L 570.0465 195.69215 
L 571.364222 196.944513 
L 572.681945 198.54641 
L 573.999667 200.481444 
L 575.317389 202.752184 
L 576.635111 205.373606 
L 577.952833 208.351387 
L 580.588278 215.23665 
L 588.494611 238.064524 
L 592.447778 249.730306 
L 596.400944 261.509995 
L 599.036389 268.655061 
L 601.671833 274.998639 
L 605.625 283.58686 
L 608.260444 288.845081 
L 610.895889 293.610697 
L 613.531333 297.893874 
L 614.849055 299.815679 
L 616.166778 301.528575 
L 617.4845 302.989905 
L 618.802222 304.191937 
L 620.119944 305.171984 
L 622.755389 306.757074 
L 631.979444 311.865941 
L 634.614889 312.965175 
L 637.250333 313.847536 
L 639.885777 314.495008 
L 643.838944 315.151059 
L 647.792111 315.627605 
L 651.745277 315.891288 
L 658.333888 316.21995 
L 663.604777 316.525539 
L 667.557944 316.467173 
L 672.828833 316.304458 
L 676.781999 316.481112 
L 682.052888 316.742915 
L 688.641499 316.793085 
L 711.042777 316.79915 
L 711.042777 316.79915 
" clip-path="url(#p20d5a23aab)" style="fill: none; stroke: #1f77b4; stroke-width: 1.5; stroke-linecap: square"/>
   </g>
   <g id="line2d_32">
    <path d="M 597.07637 316.797157 
L 600.00069 316.698514 
L 602.340145 316.340361 
L 604.679601 315.997335 
L 607.019056 315.645519 
L 608.773648 315.324114 
L 614.622287 314.725581 
L 615.792014 314.303537 
L 616.961742 313.546745 
L 618.716334 311.881724 
L 619.886061 310.827853 
L 621.055789 310.09932 
L 622.810381 309.128535 
L 623.980109 307.986148 
L 625.149836 306.359836 
L 626.904428 303.416248 
L 629.243883 299.001886 
L 630.413611 296.515408 
L 631.583339 293.405621 
L 632.753067 289.154155 
L 633.922794 283.733477 
L 639.186569 256.829356 
L 640.356297 249.365142 
L 641.526025 239.845044 
L 642.695753 228.18151 
L 645.035208 201.47686 
L 650.298983 138.148708 
L 652.053575 114.148288 
L 654.39303 80.408587 
L 655.562758 66.625489 
L 656.147622 61.361616 
L 656.732486 57.44557 
L 657.317349 54.951664 
L 657.902213 53.795974 
L 658.487077 53.727945 
L 659.071941 54.383787 
L 661.99626 59.494048 
L 662.581124 60.689121 
L 663.165988 62.155956 
L 663.750852 64.006276 
L 664.335716 66.370691 
L 664.92058 69.388612 
L 665.505444 73.171341 
L 666.675171 83.11685 
L 667.844899 95.647471 
L 669.599491 117.123581 
L 674.863266 183.78686 
L 680.711904 252.577721 
L 681.881632 263.176273 
L 683.05136 271.816152 
L 684.221088 278.884672 
L 685.975679 288.082482 
L 687.730271 296.230843 
L 688.899999 300.694648 
L 690.069726 304.329494 
L 691.239454 307.256018 
L 692.409182 309.631666 
L 693.57891 311.598433 
L 694.748637 313.158572 
L 695.918365 314.250949 
L 697.088093 314.963858 
L 698.842684 315.735588 
L 700.597276 316.310583 
L 702.351868 316.607796 
L 704.106459 316.64721 
L 708.200506 316.527261 
L 712.294554 316.787781 
L 713.464281 316.797587 
L 713.464281 316.797587 
" clip-path="url(#p20d5a23aab)" style="fill: none; stroke: #ff7f0e; stroke-width: 1.5; stroke-linecap: square"/>
   </g>
   <g id="line2d_33">
    <path d="M 518.238124 316.797767 
L 523.337491 316.707405 
L 526.737068 316.448362 
L 530.98654 315.92343 
L 534.386118 315.309331 
L 536.085907 314.836259 
L 537.785696 314.159525 
L 540.335379 312.79139 
L 543.734957 310.639909 
L 545.434746 309.283352 
L 547.134534 307.528762 
L 548.834323 305.335572 
L 551.384006 301.455312 
L 555.633479 294.355621 
L 557.333267 291.267118 
L 559.033056 287.660334 
L 560.732845 283.183572 
L 562.432634 277.8314 
L 566.682106 263.760713 
L 569.231789 255.489611 
L 570.931578 249.164309 
L 572.631367 241.948506 
L 578.580628 214.997716 
L 582.8301 197.429651 
L 585.379783 185.691686 
L 589.629255 165.561993 
L 590.47915 162.248001 
L 591.329044 159.498523 
L 592.178939 157.431958 
L 593.028833 156.112856 
L 593.878728 155.533998 
L 594.728622 155.612714 
L 595.578516 156.205868 
L 596.428411 157.141543 
L 598.978094 160.623437 
L 601.527777 164.378912 
L 603.227566 167.500339 
L 604.927355 171.330876 
L 607.477038 178.044928 
L 610.026722 185.52279 
L 611.72651 191.479013 
L 613.426299 198.688785 
L 615.975982 211.200913 
L 620.225455 232.328092 
L 622.775138 244.062588 
L 625.324821 254.797691 
L 629.574293 271.484922 
L 632.123976 280.746949 
L 633.823765 286.058929 
L 635.523554 290.459876 
L 637.223343 294.089124 
L 638.923132 297.229761 
L 641.472815 301.38699 
L 643.172604 303.810661 
L 644.872393 305.934181 
L 646.572182 307.762104 
L 648.27197 309.316982 
L 649.971759 310.632463 
L 651.671548 311.72464 
L 653.371337 312.583971 
L 655.071126 313.226157 
L 657.620809 313.914831 
L 660.170492 314.358492 
L 666.119753 315.048988 
L 672.069014 316.356847 
L 674.618698 316.538134 
L 687.367114 316.798602 
L 687.367114 316.798602 
" clip-path="url(#p20d5a23aab)" style="fill: none; stroke: #2ca02c; stroke-width: 1.5; stroke-linecap: square"/>
   </g>
   <g id="line2d_34">
    <path d="M 545.09602 316.798922 
L 555.561117 316.67765 
L 559.921574 316.537285 
L 566.898305 315.996516 
L 568.642488 315.650334 
L 570.38667 315.060105 
L 572.130853 314.20071 
L 573.875036 313.089883 
L 575.619219 311.761639 
L 579.107584 308.71984 
L 581.723859 306.307493 
L 583.468041 304.413201 
L 585.212224 301.968597 
L 586.956407 298.827817 
L 588.70059 295.110125 
L 591.316864 288.972143 
L 593.061047 284.48073 
L 594.80523 279.279197 
L 596.549412 273.212023 
L 600.909869 257.389005 
L 605.270326 242.733485 
L 607.8866 232.601675 
L 611.374966 219.13706 
L 613.99124 210.217726 
L 617.479606 198.619741 
L 621.840063 183.019411 
L 622.712154 180.573013 
L 623.584246 178.51505 
L 624.456337 176.810197 
L 626.20052 174.154531 
L 627.944703 172.023246 
L 629.688885 170.184333 
L 631.433068 168.77372 
L 632.30516 168.318776 
L 633.177251 168.082899 
L 634.049342 168.101678 
L 634.921434 168.402805 
L 635.793525 169.000791 
L 636.665617 169.893074 
L 637.537708 171.060971 
L 638.409799 172.477634 
L 640.153982 175.987824 
L 641.898165 180.467473 
L 643.642348 186.048548 
L 648.874896 205.149908 
L 650.619079 211.771212 
L 652.363262 219.203745 
L 656.723719 238.732496 
L 659.339993 249.173397 
L 663.70045 265.534424 
L 666.316724 274.756478 
L 668.060907 280.313727 
L 670.677181 287.772501 
L 673.293455 294.683628 
L 675.037638 298.803724 
L 676.781821 302.083488 
L 677.653912 303.348814 
L 679.398095 305.27396 
L 682.886461 308.251868 
L 686.374826 311.077091 
L 688.119009 312.256601 
L 689.863192 313.25388 
L 691.607375 314.068043 
L 693.351558 314.702076 
L 695.967832 315.368629 
L 698.584106 315.787981 
L 703.816654 316.310308 
L 709.049203 316.63009 
L 716.025934 316.79139 
L 718.642208 316.798903 
L 718.642208 316.798903 
" clip-path="url(#p20d5a23aab)" style="fill: none; stroke: #d62728; stroke-width: 1.5; stroke-linecap: square"/>
   </g>
   <g id="patch_8">
    <path d="M 400.8 316.8 
L 400.8 28.8 
" style="fill: none; stroke: #000000; stroke-width: 0.8; stroke-linejoin: miter; stroke-linecap: square"/>
   </g>
   <g id="patch_9">
    <path d="M 712.8 316.8 
L 712.8 28.8 
" style="fill: none; stroke: #000000; stroke-width: 0.8; stroke-linejoin: miter; stroke-linecap: square"/>
   </g>
   <g id="patch_10">
    <path d="M 400.8 316.8 
L 712.8 316.8 
" style="fill: none; stroke: #000000; stroke-width: 0.8; stroke-linejoin: miter; stroke-linecap: square"/>
   </g>
   <g id="patch_11">
    <path d="M 400.8 28.8 
L 712.8 28.8 
" style="fill: none; stroke: #000000; stroke-width: 0.8; stroke-linejoin: miter; stroke-linecap: square"/>
   </g>
   <g id="text_20">
    <!-- Permuted Vectors -->
    <g transform="translate(496.069687 22.8)scale(0.12 -0.12)">
     <defs>
      <path id="DejaVuSans-Bold-64" d="M 2919 2988 
L 2919 4863 
L 4044 4863 
L 4044 0 
L 2919 0 
L 2919 506 
Q 2688 197 2409 53 
Q 2131 -91 1766 -91 
Q 1119 -91 703 423 
Q 288 938 288 1747 
Q 288 2556 703 3070 
Q 1119 3584 1766 3584 
Q 2128 3584 2408 3439 
Q 2688 3294 2919 2988 
z
M 2181 722 
Q 2541 722 2730 984 
Q 2919 1247 2919 1747 
Q 2919 2247 2730 2509 
Q 2541 2772 2181 2772 
Q 1825 2772 1636 2509 
Q 1447 2247 1447 1747 
Q 1447 1247 1636 984 
Q 1825 722 2181 722 
z
" transform="scale(0.015625)"/>
      <path id="DejaVuSans-Bold-56" d="M 31 4666 
L 1241 4666 
L 2478 1222 
L 3713 4666 
L 4922 4666 
L 3194 0 
L 1759 0 
L 31 4666 
z
" transform="scale(0.015625)"/>
      <path id="DejaVuSans-Bold-63" d="M 3366 3391 
L 3366 2478 
Q 3138 2634 2908 2709 
Q 2678 2784 2431 2784 
Q 1963 2784 1702 2511 
Q 1441 2238 1441 1747 
Q 1441 1256 1702 982 
Q 1963 709 2431 709 
Q 2694 709 2930 787 
Q 3166 866 3366 1019 
L 3366 103 
Q 3103 6 2833 -42 
Q 2563 -91 2291 -91 
Q 1344 -91 809 395 
Q 275 881 275 1747 
Q 275 2613 809 3098 
Q 1344 3584 2291 3584 
Q 2566 3584 2833 3536 
Q 3100 3488 3366 3391 
z
" transform="scale(0.015625)"/>
      <path id="DejaVuSans-Bold-73" d="M 3272 3391 
L 3272 2541 
Q 2913 2691 2578 2766 
Q 2244 2841 1947 2841 
Q 1628 2841 1473 2761 
Q 1319 2681 1319 2516 
Q 1319 2381 1436 2309 
Q 1553 2238 1856 2203 
L 2053 2175 
Q 2913 2066 3209 1816 
Q 3506 1566 3506 1031 
Q 3506 472 3093 190 
Q 2681 -91 1863 -91 
Q 1516 -91 1145 -36 
Q 775 19 384 128 
L 384 978 
Q 719 816 1070 734 
Q 1422 653 1784 653 
Q 2113 653 2278 743 
Q 2444 834 2444 1013 
Q 2444 1163 2330 1236 
Q 2216 1309 1875 1350 
L 1678 1375 
Q 931 1469 631 1722 
Q 331 1975 331 2491 
Q 331 3047 712 3315 
Q 1094 3584 1881 3584 
Q 2191 3584 2531 3537 
Q 2872 3491 3272 3391 
z
" transform="scale(0.015625)"/>
     </defs>
     <use xlink:href="#DejaVuSans-Bold-50"/>
     <use xlink:href="#DejaVuSans-Bold-65" x="73.291016"/>
     <use xlink:href="#DejaVuSans-Bold-72" x="141.113281"/>
     <use xlink:href="#DejaVuSans-Bold-6d" x="190.429688"/>
     <use xlink:href="#DejaVuSans-Bold-75" x="294.628906"/>
     <use xlink:href="#DejaVuSans-Bold-74" x="365.820312"/>
     <use xlink:href="#DejaVuSans-Bold-65" x="413.623047"/>
     <use xlink:href="#DejaVuSans-Bold-64" x="481.445312"/>
     <use xlink:href="#DejaVuSans-Bold-20" x="553.027344"/>
     <use xlink:href="#DejaVuSans-Bold-56" x="587.841797"/>
     <use xlink:href="#DejaVuSans-Bold-65" x="659.734375"/>
     <use xlink:href="#DejaVuSans-Bold-63" x="727.556641"/>
     <use xlink:href="#DejaVuSans-Bold-74" x="786.833984"/>
     <use xlink:href="#DejaVuSans-Bold-6f" x="834.636719"/>
     <use xlink:href="#DejaVuSans-Bold-72" x="903.337891"/>
     <use xlink:href="#DejaVuSans-Bold-73" x="952.654297"/>
    </g>
   </g>
  </g>
  <g id="text_21">
   <!-- Density -->
   <g transform="translate(25.797656 208.512891)rotate(-90)scale(0.15 -0.15)">
    <defs>
     <path id="DejaVuSans-44" d="M 1259 4147 
L 1259 519 
L 2022 519 
Q 2988 519 3436 956 
Q 3884 1394 3884 2338 
Q 3884 3275 3436 3711 
Q 2988 4147 2022 4147 
L 1259 4147 
z
M 628 4666 
L 1925 4666 
Q 3281 4666 3915 4102 
Q 4550 3538 4550 2338 
Q 4550 1131 3912 565 
Q 3275 0 1925 0 
L 628 0 
L 628 4666 
z
" transform="scale(0.015625)"/>
     <path id="DejaVuSans-65" d="M 3597 1894 
L 3597 1613 
L 953 1613 
Q 991 1019 1311 708 
Q 1631 397 2203 397 
Q 2534 397 2845 478 
Q 3156 559 3463 722 
L 3463 178 
Q 3153 47 2828 -22 
Q 2503 -91 2169 -91 
Q 1331 -91 842 396 
Q 353 884 353 1716 
Q 353 2575 817 3079 
Q 1281 3584 2069 3584 
Q 2775 3584 3186 3129 
Q 3597 2675 3597 1894 
z
M 3022 2063 
Q 3016 2534 2758 2815 
Q 2500 3097 2075 3097 
Q 1594 3097 1305 2825 
Q 1016 2553 972 2059 
L 3022 2063 
z
" transform="scale(0.015625)"/>
     <path id="DejaVuSans-6e" d="M 3513 2113 
L 3513 0 
L 2938 0 
L 2938 2094 
Q 2938 2591 2744 2837 
Q 2550 3084 2163 3084 
Q 1697 3084 1428 2787 
Q 1159 2491 1159 1978 
L 1159 0 
L 581 0 
L 581 3500 
L 1159 3500 
L 1159 2956 
Q 1366 3272 1645 3428 
Q 1925 3584 2291 3584 
Q 2894 3584 3203 3211 
Q 3513 2838 3513 2113 
z
" transform="scale(0.015625)"/>
     <path id="DejaVuSans-73" d="M 2834 3397 
L 2834 2853 
Q 2591 2978 2328 3040 
Q 2066 3103 1784 3103 
Q 1356 3103 1142 2972 
Q 928 2841 928 2578 
Q 928 2378 1081 2264 
Q 1234 2150 1697 2047 
L 1894 2003 
Q 2506 1872 2764 1633 
Q 3022 1394 3022 966 
Q 3022 478 2636 193 
Q 2250 -91 1575 -91 
Q 1294 -91 989 -36 
Q 684 19 347 128 
L 347 722 
Q 666 556 975 473 
Q 1284 391 1588 391 
Q 1994 391 2212 530 
Q 2431 669 2431 922 
Q 2431 1156 2273 1281 
Q 2116 1406 1581 1522 
L 1381 1569 
Q 847 1681 609 1914 
Q 372 2147 372 2553 
Q 372 3047 722 3315 
Q 1072 3584 1716 3584 
Q 2034 3584 2315 3537 
Q 2597 3491 2834 3397 
z
" transform="scale(0.015625)"/>
     <path id="DejaVuSans-69" d="M 603 3500 
L 1178 3500 
L 1178 0 
L 603 0 
L 603 3500 
z
M 603 4863 
L 1178 4863 
L 1178 4134 
L 603 4134 
L 603 4863 
z
" transform="scale(0.015625)"/>
     <path id="DejaVuSans-74" d="M 1172 4494 
L 1172 3500 
L 2356 3500 
L 2356 3053 
L 1172 3053 
L 1172 1153 
Q 1172 725 1289 603 
Q 1406 481 1766 481 
L 2356 481 
L 2356 0 
L 1766 0 
Q 1100 0 847 248 
Q 594 497 594 1153 
L 594 3053 
L 172 3053 
L 172 3500 
L 594 3500 
L 594 4494 
L 1172 4494 
z
" transform="scale(0.015625)"/>
     <path id="DejaVuSans-79" d="M 2059 -325 
Q 1816 -950 1584 -1140 
Q 1353 -1331 966 -1331 
L 506 -1331 
L 506 -850 
L 844 -850 
Q 1081 -850 1212 -737 
Q 1344 -625 1503 -206 
L 1606 56 
L 191 3500 
L 800 3500 
L 1894 763 
L 2988 3500 
L 3597 3500 
L 2059 -325 
z
" transform="scale(0.015625)"/>
    </defs>
    <use xlink:href="#DejaVuSans-44"/>
    <use xlink:href="#DejaVuSans-65" x="77.001953"/>
    <use xlink:href="#DejaVuSans-6e" x="138.525391"/>
    <use xlink:href="#DejaVuSans-73" x="201.904297"/>
    <use xlink:href="#DejaVuSans-69" x="254.003906"/>
    <use xlink:href="#DejaVuSans-74" x="281.787109"/>
    <use xlink:href="#DejaVuSans-79" x="320.996094"/>
   </g>
  </g>
  <g id="text_22">
   <!-- GloVe1M -->
   <g transform="translate(345.6 18)scale(0.2 -0.2)">
    <defs>
     <path id="DejaVuSans-Bold-47" d="M 4781 347 
Q 4331 128 3847 18 
Q 3363 -91 2847 -91 
Q 1681 -91 1000 561 
Q 319 1213 319 2328 
Q 319 3456 1012 4103 
Q 1706 4750 2913 4750 
Q 3378 4750 3804 4662 
Q 4231 4575 4609 4403 
L 4609 3438 
Q 4219 3659 3833 3768 
Q 3447 3878 3059 3878 
Q 2341 3878 1952 3476 
Q 1563 3075 1563 2328 
Q 1563 1588 1938 1184 
Q 2313 781 3003 781 
Q 3191 781 3352 804 
Q 3513 828 3641 878 
L 3641 1784 
L 2906 1784 
L 2906 2591 
L 4781 2591 
L 4781 347 
z
" transform="scale(0.015625)"/>
     <path id="DejaVuSans-Bold-6c" d="M 538 4863 
L 1656 4863 
L 1656 0 
L 538 0 
L 538 4863 
z
" transform="scale(0.015625)"/>
     <path id="DejaVuSans-Bold-31" d="M 750 831 
L 1813 831 
L 1813 3847 
L 722 3622 
L 722 4441 
L 1806 4666 
L 2950 4666 
L 2950 831 
L 4013 831 
L 4013 0 
L 750 0 
L 750 831 
z
" transform="scale(0.015625)"/>
     <path id="DejaVuSans-Bold-4d" d="M 588 4666 
L 2119 4666 
L 3181 2169 
L 4250 4666 
L 5778 4666 
L 5778 0 
L 4641 0 
L 4641 3413 
L 3566 897 
L 2803 897 
L 1728 3413 
L 1728 0 
L 588 0 
L 588 4666 
z
" transform="scale(0.015625)"/>
    </defs>
    <use xlink:href="#DejaVuSans-Bold-47"/>
    <use xlink:href="#DejaVuSans-Bold-6c" x="82.080078"/>
    <use xlink:href="#DejaVuSans-Bold-6f" x="116.357422"/>
    <use xlink:href="#DejaVuSans-Bold-56" x="185.058594"/>
    <use xlink:href="#DejaVuSans-Bold-65" x="256.951172"/>
    <use xlink:href="#DejaVuSans-Bold-31" x="324.773438"/>
    <use xlink:href="#DejaVuSans-Bold-4d" x="394.353516"/>
   </g>
  </g>
  <g id="text_23">
   <!-- Estimation Error -->
   <g transform="translate(313.801172 352.8)scale(0.15 -0.15)">
    <defs>
     <path id="DejaVuSans-45" d="M 628 4666 
L 3578 4666 
L 3578 4134 
L 1259 4134 
L 1259 2753 
L 3481 2753 
L 3481 2222 
L 1259 2222 
L 1259 531 
L 3634 531 
L 3634 0 
L 628 0 
L 628 4666 
z
" transform="scale(0.015625)"/>
     <path id="DejaVuSans-6d" d="M 3328 2828 
Q 3544 3216 3844 3400 
Q 4144 3584 4550 3584 
Q 5097 3584 5394 3201 
Q 5691 2819 5691 2113 
L 5691 0 
L 5113 0 
L 5113 2094 
Q 5113 2597 4934 2840 
Q 4756 3084 4391 3084 
Q 3944 3084 3684 2787 
Q 3425 2491 3425 1978 
L 3425 0 
L 2847 0 
L 2847 2094 
Q 2847 2600 2669 2842 
Q 2491 3084 2119 3084 
Q 1678 3084 1418 2786 
Q 1159 2488 1159 1978 
L 1159 0 
L 581 0 
L 581 3500 
L 1159 3500 
L 1159 2956 
Q 1356 3278 1631 3431 
Q 1906 3584 2284 3584 
Q 2666 3584 2933 3390 
Q 3200 3197 3328 2828 
z
" transform="scale(0.015625)"/>
     <path id="DejaVuSans-61" d="M 2194 1759 
Q 1497 1759 1228 1600 
Q 959 1441 959 1056 
Q 959 750 1161 570 
Q 1363 391 1709 391 
Q 2188 391 2477 730 
Q 2766 1069 2766 1631 
L 2766 1759 
L 2194 1759 
z
M 3341 1997 
L 3341 0 
L 2766 0 
L 2766 531 
Q 2569 213 2275 61 
Q 1981 -91 1556 -91 
Q 1019 -91 701 211 
Q 384 513 384 1019 
Q 384 1609 779 1909 
Q 1175 2209 1959 2209 
L 2766 2209 
L 2766 2266 
Q 2766 2663 2505 2880 
Q 2244 3097 1772 3097 
Q 1472 3097 1187 3025 
Q 903 2953 641 2809 
L 641 3341 
Q 956 3463 1253 3523 
Q 1550 3584 1831 3584 
Q 2591 3584 2966 3190 
Q 3341 2797 3341 1997 
z
" transform="scale(0.015625)"/>
     <path id="DejaVuSans-6f" d="M 1959 3097 
Q 1497 3097 1228 2736 
Q 959 2375 959 1747 
Q 959 1119 1226 758 
Q 1494 397 1959 397 
Q 2419 397 2687 759 
Q 2956 1122 2956 1747 
Q 2956 2369 2687 2733 
Q 2419 3097 1959 3097 
z
M 1959 3584 
Q 2709 3584 3137 3096 
Q 3566 2609 3566 1747 
Q 3566 888 3137 398 
Q 2709 -91 1959 -91 
Q 1206 -91 779 398 
Q 353 888 353 1747 
Q 353 2609 779 3096 
Q 1206 3584 1959 3584 
z
" transform="scale(0.015625)"/>
     <path id="DejaVuSans-20" transform="scale(0.015625)"/>
     <path id="DejaVuSans-72" d="M 2631 2963 
Q 2534 3019 2420 3045 
Q 2306 3072 2169 3072 
Q 1681 3072 1420 2755 
Q 1159 2438 1159 1844 
L 1159 0 
L 581 0 
L 581 3500 
L 1159 3500 
L 1159 2956 
Q 1341 3275 1631 3429 
Q 1922 3584 2338 3584 
Q 2397 3584 2469 3576 
Q 2541 3569 2628 3553 
L 2631 2963 
z
" transform="scale(0.015625)"/>
    </defs>
    <use xlink:href="#DejaVuSans-45"/>
    <use xlink:href="#DejaVuSans-73" x="63.183594"/>
    <use xlink:href="#DejaVuSans-74" x="115.283203"/>
    <use xlink:href="#DejaVuSans-69" x="154.492188"/>
    <use xlink:href="#DejaVuSans-6d" x="182.275391"/>
    <use xlink:href="#DejaVuSans-61" x="279.6875"/>
    <use xlink:href="#DejaVuSans-74" x="340.966797"/>
    <use xlink:href="#DejaVuSans-69" x="380.175781"/>
    <use xlink:href="#DejaVuSans-6f" x="407.958984"/>
    <use xlink:href="#DejaVuSans-6e" x="469.140625"/>
    <use xlink:href="#DejaVuSans-20" x="532.519531"/>
    <use xlink:href="#DejaVuSans-45" x="564.306641"/>
    <use xlink:href="#DejaVuSans-72" x="627.490234"/>
    <use xlink:href="#DejaVuSans-72" x="666.853516"/>
    <use xlink:href="#DejaVuSans-6f" x="705.716797"/>
    <use xlink:href="#DejaVuSans-72" x="766.898438"/>
   </g>
  </g>
  <g id="legend_1">
   <g id="patch_12">
    <path d="M 9.1 88.1725 
L 120.3475 88.1725 
Q 122.9475 88.1725 122.9475 85.5725 
L 122.9475 9.1 
Q 122.9475 6.5 120.3475 6.5 
L 9.1 6.5 
Q 6.5 6.5 6.5 9.1 
L 6.5 85.5725 
Q 6.5 88.1725 9.1 88.1725 
z
" style="fill: #ffffff; opacity: 0.8; stroke: #cccccc; stroke-linejoin: miter"/>
   </g>
   <g id="line2d_35">
    <path d="M 11.7 17.027969 
L 24.7 17.027969 
L 37.7 17.027969 
" style="fill: none; stroke: #1f77b4; stroke-width: 1.5; stroke-linecap: square"/>
   </g>
   <g id="text_24">
    <!-- Maha_M8 -->
    <g transform="translate(48.1 21.577969)scale(0.13 -0.13)">
     <defs>
      <path id="DejaVuSans-4d" d="M 628 4666 
L 1569 4666 
L 2759 1491 
L 3956 4666 
L 4897 4666 
L 4897 0 
L 4281 0 
L 4281 4097 
L 3078 897 
L 2444 897 
L 1241 4097 
L 1241 0 
L 628 0 
L 628 4666 
z
" transform="scale(0.015625)"/>
      <path id="DejaVuSans-68" d="M 3513 2113 
L 3513 0 
L 2938 0 
L 2938 2094 
Q 2938 2591 2744 2837 
Q 2550 3084 2163 3084 
Q 1697 3084 1428 2787 
Q 1159 2491 1159 1978 
L 1159 0 
L 581 0 
L 581 4863 
L 1159 4863 
L 1159 2956 
Q 1366 3272 1645 3428 
Q 1925 3584 2291 3584 
Q 2894 3584 3203 3211 
Q 3513 2838 3513 2113 
z
" transform="scale(0.015625)"/>
      <path id="DejaVuSans-5f" d="M 3263 -1063 
L 3263 -1509 
L -63 -1509 
L -63 -1063 
L 3263 -1063 
z
" transform="scale(0.015625)"/>
     </defs>
     <use xlink:href="#DejaVuSans-4d"/>
     <use xlink:href="#DejaVuSans-61" x="86.279297"/>
     <use xlink:href="#DejaVuSans-68" x="147.558594"/>
     <use xlink:href="#DejaVuSans-61" x="210.9375"/>
     <use xlink:href="#DejaVuSans-5f" x="272.216797"/>
     <use xlink:href="#DejaVuSans-4d" x="322.216797"/>
     <use xlink:href="#DejaVuSans-38" x="408.496094"/>
    </g>
   </g>
   <g id="line2d_36">
    <path d="M 11.7 36.471094 
L 24.7 36.471094 
L 37.7 36.471094 
" style="fill: none; stroke: #ff7f0e; stroke-width: 1.5; stroke-linecap: square"/>
   </g>
   <g id="text_25">
    <!-- Maha_M16 -->
    <g transform="translate(48.1 41.021094)scale(0.13 -0.13)">
     <use xlink:href="#DejaVuSans-4d"/>
     <use xlink:href="#DejaVuSans-61" x="86.279297"/>
     <use xlink:href="#DejaVuSans-68" x="147.558594"/>
     <use xlink:href="#DejaVuSans-61" x="210.9375"/>
     <use xlink:href="#DejaVuSans-5f" x="272.216797"/>
     <use xlink:href="#DejaVuSans-4d" x="322.216797"/>
     <use xlink:href="#DejaVuSans-31" x="408.496094"/>
     <use xlink:href="#DejaVuSans-36" x="472.119141"/>
    </g>
   </g>
   <g id="line2d_37">
    <path d="M 11.7 55.914219 
L 24.7 55.914219 
L 37.7 55.914219 
" style="fill: none; stroke: #2ca02c; stroke-width: 1.5; stroke-linecap: square"/>
   </g>
   <g id="text_26">
    <!-- Euc_M8 -->
    <g transform="translate(48.1 60.464219)scale(0.13 -0.13)">
     <defs>
      <path id="DejaVuSans-75" d="M 544 1381 
L 544 3500 
L 1119 3500 
L 1119 1403 
Q 1119 906 1312 657 
Q 1506 409 1894 409 
Q 2359 409 2629 706 
Q 2900 1003 2900 1516 
L 2900 3500 
L 3475 3500 
L 3475 0 
L 2900 0 
L 2900 538 
Q 2691 219 2414 64 
Q 2138 -91 1772 -91 
Q 1169 -91 856 284 
Q 544 659 544 1381 
z
M 1991 3584 
L 1991 3584 
z
" transform="scale(0.015625)"/>
      <path id="DejaVuSans-63" d="M 3122 3366 
L 3122 2828 
Q 2878 2963 2633 3030 
Q 2388 3097 2138 3097 
Q 1578 3097 1268 2742 
Q 959 2388 959 1747 
Q 959 1106 1268 751 
Q 1578 397 2138 397 
Q 2388 397 2633 464 
Q 2878 531 3122 666 
L 3122 134 
Q 2881 22 2623 -34 
Q 2366 -91 2075 -91 
Q 1284 -91 818 406 
Q 353 903 353 1747 
Q 353 2603 823 3093 
Q 1294 3584 2113 3584 
Q 2378 3584 2631 3529 
Q 2884 3475 3122 3366 
z
" transform="scale(0.015625)"/>
     </defs>
     <use xlink:href="#DejaVuSans-45"/>
     <use xlink:href="#DejaVuSans-75" x="63.183594"/>
     <use xlink:href="#DejaVuSans-63" x="126.5625"/>
     <use xlink:href="#DejaVuSans-5f" x="181.542969"/>
     <use xlink:href="#DejaVuSans-4d" x="231.542969"/>
     <use xlink:href="#DejaVuSans-38" x="317.822266"/>
    </g>
   </g>
   <g id="line2d_38">
    <path d="M 11.7 75.357344 
L 24.7 75.357344 
L 37.7 75.357344 
" style="fill: none; stroke: #d62728; stroke-width: 1.5; stroke-linecap: square"/>
   </g>
   <g id="text_27">
    <!-- Euc_M16 -->
    <g transform="translate(48.1 79.907344)scale(0.13 -0.13)">
     <use xlink:href="#DejaVuSans-45"/>
     <use xlink:href="#DejaVuSans-75" x="63.183594"/>
     <use xlink:href="#DejaVuSans-63" x="126.5625"/>
     <use xlink:href="#DejaVuSans-5f" x="181.542969"/>
     <use xlink:href="#DejaVuSans-4d" x="231.542969"/>
     <use xlink:href="#DejaVuSans-31" x="317.822266"/>
     <use xlink:href="#DejaVuSans-36" x="381.445312"/>
    </g>
   </g>
  </g>
 </g>
 <defs>
  <clipPath id="p503450ca77">
   <rect x="57.6" y="28.8" width="312" height="288"/>
  </clipPath>
  <clipPath id="p20d5a23aab">
   <rect x="400.8" y="28.8" width="312" height="288"/>
  </clipPath>
 </defs>
</svg>
