<?xml version="1.0" encoding="utf-8" standalone="no"?>
<!DOCTYPE svg PUBLIC "-//W3C//DTD SVG 1.1//EN"
  "http://www.w3.org/Graphics/SVG/1.1/DTD/svg11.dtd">
<svg xmlns:xlink="http://www.w3.org/1999/xlink" width="1330.56pt" height="360pt" viewBox="0 0 1330.56 360" xmlns="http://www.w3.org/2000/svg" version="1.1">
 <metadata>
  <rdf:RDF xmlns:dc="http://purl.org/dc/elements/1.1/" xmlns:cc="http://creativecommons.org/ns#" xmlns:rdf="http://www.w3.org/1999/02/22-rdf-syntax-ns#">
   <cc:Work>
    <dc:type rdf:resource="http://purl.org/dc/dcmitype/StillImage"/>
    <dc:date>2022-05-08T13:10:40.759277</dc:date>
    <dc:format>image/svg+xml</dc:format>
    <dc:creator>
     <cc:Agent>
      <dc:title>Matplotlib v3.5.1, https://matplotlib.org/</dc:title>
     </cc:Agent>
    </dc:creator>
   </cc:Work>
  </rdf:RDF>
 </metadata>
 <defs>
  <style type="text/css">*{stroke-linejoin: round; stroke-linecap: butt}</style>
 </defs>
 <g id="figure_1">
  <g id="patch_1">
   <path d="M 0 360 
L 1330.56 360 
L 1330.56 0 
L 0 0 
z
" style="fill: #ffffff"/>
  </g>
  <g id="axes_1">
   <g id="patch_2">
    <path d="M 166.32 320.4 
L 469.609412 320.4 
L 469.609412 43.2 
L 166.32 43.2 
z
" style="fill: #ffffff"/>
   </g>
   <g id="matplotlib.axis_1">
    <g id="xtick_1">
     <g id="line2d_1">
      <defs>
       <path id="m13546d4dbe" d="M 0 0 
L 0 3.5 
" style="stroke: #000000; stroke-width: 0.8"/>
      </defs>
      <g>
       <use xlink:href="#m13546d4dbe" x="166.32" y="320.4" style="stroke: #000000; stroke-width: 0.8"/>
      </g>
     </g>
     <g id="text_1">
      <!-- −0.6 -->
      <g transform="translate(154.178594 334.998438)scale(0.1 -0.1)">
       <defs>
        <path id="DejaVuSans-2212" d="M 678 2272 
L 4684 2272 
L 4684 1741 
L 678 1741 
L 678 2272 
z
" transform="scale(0.015625)"/>
        <path id="DejaVuSans-30" d="M 2034 4250 
Q 1547 4250 1301 3770 
Q 1056 3291 1056 2328 
Q 1056 1369 1301 889 
Q 1547 409 2034 409 
Q 2525 409 2770 889 
Q 3016 1369 3016 2328 
Q 3016 3291 2770 3770 
Q 2525 4250 2034 4250 
z
M 2034 4750 
Q 2819 4750 3233 4129 
Q 3647 3509 3647 2328 
Q 3647 1150 3233 529 
Q 2819 -91 2034 -91 
Q 1250 -91 836 529 
Q 422 1150 422 2328 
Q 422 3509 836 4129 
Q 1250 4750 2034 4750 
z
" transform="scale(0.015625)"/>
        <path id="DejaVuSans-2e" d="M 684 794 
L 1344 794 
L 1344 0 
L 684 0 
L 684 794 
z
" transform="scale(0.015625)"/>
        <path id="DejaVuSans-36" d="M 2113 2584 
Q 1688 2584 1439 2293 
Q 1191 2003 1191 1497 
Q 1191 994 1439 701 
Q 1688 409 2113 409 
Q 2538 409 2786 701 
Q 3034 994 3034 1497 
Q 3034 2003 2786 2293 
Q 2538 2584 2113 2584 
z
M 3366 4563 
L 3366 3988 
Q 3128 4100 2886 4159 
Q 2644 4219 2406 4219 
Q 1781 4219 1451 3797 
Q 1122 3375 1075 2522 
Q 1259 2794 1537 2939 
Q 1816 3084 2150 3084 
Q 2853 3084 3261 2657 
Q 3669 2231 3669 1497 
Q 3669 778 3244 343 
Q 2819 -91 2113 -91 
Q 1303 -91 875 529 
Q 447 1150 447 2328 
Q 447 3434 972 4092 
Q 1497 4750 2381 4750 
Q 2619 4750 2861 4703 
Q 3103 4656 3366 4563 
z
" transform="scale(0.015625)"/>
       </defs>
       <use xlink:href="#DejaVuSans-2212"/>
       <use xlink:href="#DejaVuSans-30" x="83.789062"/>
       <use xlink:href="#DejaVuSans-2e" x="147.412109"/>
       <use xlink:href="#DejaVuSans-36" x="179.199219"/>
      </g>
     </g>
    </g>
    <g id="xtick_2">
     <g id="line2d_2">
      <g>
       <use xlink:href="#m13546d4dbe" x="216.868235" y="320.4" style="stroke: #000000; stroke-width: 0.8"/>
      </g>
     </g>
     <g id="text_2">
      <!-- −0.4 -->
      <g transform="translate(204.726829 334.998438)scale(0.1 -0.1)">
       <defs>
        <path id="DejaVuSans-34" d="M 2419 4116 
L 825 1625 
L 2419 1625 
L 2419 4116 
z
M 2253 4666 
L 3047 4666 
L 3047 1625 
L 3713 1625 
L 3713 1100 
L 3047 1100 
L 3047 0 
L 2419 0 
L 2419 1100 
L 313 1100 
L 313 1709 
L 2253 4666 
z
" transform="scale(0.015625)"/>
       </defs>
       <use xlink:href="#DejaVuSans-2212"/>
       <use xlink:href="#DejaVuSans-30" x="83.789062"/>
       <use xlink:href="#DejaVuSans-2e" x="147.412109"/>
       <use xlink:href="#DejaVuSans-34" x="179.199219"/>
      </g>
     </g>
    </g>
    <g id="xtick_3">
     <g id="line2d_3">
      <g>
       <use xlink:href="#m13546d4dbe" x="267.416471" y="320.4" style="stroke: #000000; stroke-width: 0.8"/>
      </g>
     </g>
     <g id="text_3">
      <!-- −0.2 -->
      <g transform="translate(255.275064 334.998438)scale(0.1 -0.1)">
       <defs>
        <path id="DejaVuSans-32" d="M 1228 531 
L 3431 531 
L 3431 0 
L 469 0 
L 469 531 
Q 828 903 1448 1529 
Q 2069 2156 2228 2338 
Q 2531 2678 2651 2914 
Q 2772 3150 2772 3378 
Q 2772 3750 2511 3984 
Q 2250 4219 1831 4219 
Q 1534 4219 1204 4116 
Q 875 4013 500 3803 
L 500 4441 
Q 881 4594 1212 4672 
Q 1544 4750 1819 4750 
Q 2544 4750 2975 4387 
Q 3406 4025 3406 3419 
Q 3406 3131 3298 2873 
Q 3191 2616 2906 2266 
Q 2828 2175 2409 1742 
Q 1991 1309 1228 531 
z
" transform="scale(0.015625)"/>
       </defs>
       <use xlink:href="#DejaVuSans-2212"/>
       <use xlink:href="#DejaVuSans-30" x="83.789062"/>
       <use xlink:href="#DejaVuSans-2e" x="147.412109"/>
       <use xlink:href="#DejaVuSans-32" x="179.199219"/>
      </g>
     </g>
    </g>
    <g id="xtick_4">
     <g id="line2d_4">
      <g>
       <use xlink:href="#m13546d4dbe" x="317.964706" y="320.4" style="stroke: #000000; stroke-width: 0.8"/>
      </g>
     </g>
     <g id="text_4">
      <!-- 0.0 -->
      <g transform="translate(310.013143 334.998438)scale(0.1 -0.1)">
       <use xlink:href="#DejaVuSans-30"/>
       <use xlink:href="#DejaVuSans-2e" x="63.623047"/>
       <use xlink:href="#DejaVuSans-30" x="95.410156"/>
      </g>
     </g>
    </g>
    <g id="xtick_5">
     <g id="line2d_5">
      <g>
       <use xlink:href="#m13546d4dbe" x="368.512941" y="320.4" style="stroke: #000000; stroke-width: 0.8"/>
      </g>
     </g>
     <g id="text_5">
      <!-- 0.2 -->
      <g transform="translate(360.561379 334.998438)scale(0.1 -0.1)">
       <use xlink:href="#DejaVuSans-30"/>
       <use xlink:href="#DejaVuSans-2e" x="63.623047"/>
       <use xlink:href="#DejaVuSans-32" x="95.410156"/>
      </g>
     </g>
    </g>
    <g id="xtick_6">
     <g id="line2d_6">
      <g>
       <use xlink:href="#m13546d4dbe" x="419.061176" y="320.4" style="stroke: #000000; stroke-width: 0.8"/>
      </g>
     </g>
     <g id="text_6">
      <!-- 0.4 -->
      <g transform="translate(411.109614 334.998438)scale(0.1 -0.1)">
       <use xlink:href="#DejaVuSans-30"/>
       <use xlink:href="#DejaVuSans-2e" x="63.623047"/>
       <use xlink:href="#DejaVuSans-34" x="95.410156"/>
      </g>
     </g>
    </g>
    <g id="xtick_7">
     <g id="line2d_7">
      <g>
       <use xlink:href="#m13546d4dbe" x="469.609412" y="320.4" style="stroke: #000000; stroke-width: 0.8"/>
      </g>
     </g>
     <g id="text_7">
      <!-- 0.6 -->
      <g transform="translate(461.657849 334.998438)scale(0.1 -0.1)">
       <use xlink:href="#DejaVuSans-30"/>
       <use xlink:href="#DejaVuSans-2e" x="63.623047"/>
       <use xlink:href="#DejaVuSans-36" x="95.410156"/>
      </g>
     </g>
    </g>
    <g id="text_8">
     <!-- Error -->
     <g transform="translate(305.77955 348.676562)scale(0.1 -0.1)">
      <defs>
       <path id="DejaVuSans-45" d="M 628 4666 
L 3578 4666 
L 3578 4134 
L 1259 4134 
L 1259 2753 
L 3481 2753 
L 3481 2222 
L 1259 2222 
L 1259 531 
L 3634 531 
L 3634 0 
L 628 0 
L 628 4666 
z
" transform="scale(0.015625)"/>
       <path id="DejaVuSans-72" d="M 2631 2963 
Q 2534 3019 2420 3045 
Q 2306 3072 2169 3072 
Q 1681 3072 1420 2755 
Q 1159 2438 1159 1844 
L 1159 0 
L 581 0 
L 581 3500 
L 1159 3500 
L 1159 2956 
Q 1341 3275 1631 3429 
Q 1922 3584 2338 3584 
Q 2397 3584 2469 3576 
Q 2541 3569 2628 3553 
L 2631 2963 
z
" transform="scale(0.015625)"/>
       <path id="DejaVuSans-6f" d="M 1959 3097 
Q 1497 3097 1228 2736 
Q 959 2375 959 1747 
Q 959 1119 1226 758 
Q 1494 397 1959 397 
Q 2419 397 2687 759 
Q 2956 1122 2956 1747 
Q 2956 2369 2687 2733 
Q 2419 3097 1959 3097 
z
M 1959 3584 
Q 2709 3584 3137 3096 
Q 3566 2609 3566 1747 
Q 3566 888 3137 398 
Q 2709 -91 1959 -91 
Q 1206 -91 779 398 
Q 353 888 353 1747 
Q 353 2609 779 3096 
Q 1206 3584 1959 3584 
z
" transform="scale(0.015625)"/>
      </defs>
      <use xlink:href="#DejaVuSans-45"/>
      <use xlink:href="#DejaVuSans-72" x="63.183594"/>
      <use xlink:href="#DejaVuSans-72" x="102.546875"/>
      <use xlink:href="#DejaVuSans-6f" x="141.410156"/>
      <use xlink:href="#DejaVuSans-72" x="202.591797"/>
     </g>
    </g>
   </g>
   <g id="matplotlib.axis_2">
    <g id="ytick_1">
     <g id="line2d_8">
      <defs>
       <path id="m19106d1e8b" d="M 0 0 
L -3.5 0 
" style="stroke: #000000; stroke-width: 0.8"/>
      </defs>
      <g>
       <use xlink:href="#m19106d1e8b" x="166.32" y="320.4" style="stroke: #000000; stroke-width: 0.8"/>
      </g>
     </g>
     <g id="text_9">
      <!-- 0 -->
      <g transform="translate(152.9575 324.199219)scale(0.1 -0.1)">
       <use xlink:href="#DejaVuSans-30"/>
      </g>
     </g>
    </g>
    <g id="ytick_2">
     <g id="line2d_9">
      <g>
       <use xlink:href="#m19106d1e8b" x="166.32" y="262.454717" style="stroke: #000000; stroke-width: 0.8"/>
      </g>
     </g>
     <g id="text_10">
      <!-- 2 -->
      <g transform="translate(152.9575 266.253936)scale(0.1 -0.1)">
       <use xlink:href="#DejaVuSans-32"/>
      </g>
     </g>
    </g>
    <g id="ytick_3">
     <g id="line2d_10">
      <g>
       <use xlink:href="#m19106d1e8b" x="166.32" y="204.509434" style="stroke: #000000; stroke-width: 0.8"/>
      </g>
     </g>
     <g id="text_11">
      <!-- 4 -->
      <g transform="translate(152.9575 208.308653)scale(0.1 -0.1)">
       <use xlink:href="#DejaVuSans-34"/>
      </g>
     </g>
    </g>
    <g id="ytick_4">
     <g id="line2d_11">
      <g>
       <use xlink:href="#m19106d1e8b" x="166.32" y="146.564151" style="stroke: #000000; stroke-width: 0.8"/>
      </g>
     </g>
     <g id="text_12">
      <!-- 6 -->
      <g transform="translate(152.9575 150.36337)scale(0.1 -0.1)">
       <use xlink:href="#DejaVuSans-36"/>
      </g>
     </g>
    </g>
    <g id="ytick_5">
     <g id="line2d_12">
      <g>
       <use xlink:href="#m19106d1e8b" x="166.32" y="88.618868" style="stroke: #000000; stroke-width: 0.8"/>
      </g>
     </g>
     <g id="text_13">
      <!-- 8 -->
      <g transform="translate(152.9575 92.418087)scale(0.1 -0.1)">
       <defs>
        <path id="DejaVuSans-38" d="M 2034 2216 
Q 1584 2216 1326 1975 
Q 1069 1734 1069 1313 
Q 1069 891 1326 650 
Q 1584 409 2034 409 
Q 2484 409 2743 651 
Q 3003 894 3003 1313 
Q 3003 1734 2745 1975 
Q 2488 2216 2034 2216 
z
M 1403 2484 
Q 997 2584 770 2862 
Q 544 3141 544 3541 
Q 544 4100 942 4425 
Q 1341 4750 2034 4750 
Q 2731 4750 3128 4425 
Q 3525 4100 3525 3541 
Q 3525 3141 3298 2862 
Q 3072 2584 2669 2484 
Q 3125 2378 3379 2068 
Q 3634 1759 3634 1313 
Q 3634 634 3220 271 
Q 2806 -91 2034 -91 
Q 1263 -91 848 271 
Q 434 634 434 1313 
Q 434 1759 690 2068 
Q 947 2378 1403 2484 
z
M 1172 3481 
Q 1172 3119 1398 2916 
Q 1625 2713 2034 2713 
Q 2441 2713 2670 2916 
Q 2900 3119 2900 3481 
Q 2900 3844 2670 4047 
Q 2441 4250 2034 4250 
Q 1625 4250 1398 4047 
Q 1172 3844 1172 3481 
z
" transform="scale(0.015625)"/>
       </defs>
       <use xlink:href="#DejaVuSans-38"/>
      </g>
     </g>
    </g>
    <g id="text_14">
     <!-- Density -->
     <g transform="translate(146.877812 200.808594)rotate(-90)scale(0.1 -0.1)">
      <defs>
       <path id="DejaVuSans-44" d="M 1259 4147 
L 1259 519 
L 2022 519 
Q 2988 519 3436 956 
Q 3884 1394 3884 2338 
Q 3884 3275 3436 3711 
Q 2988 4147 2022 4147 
L 1259 4147 
z
M 628 4666 
L 1925 4666 
Q 3281 4666 3915 4102 
Q 4550 3538 4550 2338 
Q 4550 1131 3912 565 
Q 3275 0 1925 0 
L 628 0 
L 628 4666 
z
" transform="scale(0.015625)"/>
       <path id="DejaVuSans-65" d="M 3597 1894 
L 3597 1613 
L 953 1613 
Q 991 1019 1311 708 
Q 1631 397 2203 397 
Q 2534 397 2845 478 
Q 3156 559 3463 722 
L 3463 178 
Q 3153 47 2828 -22 
Q 2503 -91 2169 -91 
Q 1331 -91 842 396 
Q 353 884 353 1716 
Q 353 2575 817 3079 
Q 1281 3584 2069 3584 
Q 2775 3584 3186 3129 
Q 3597 2675 3597 1894 
z
M 3022 2063 
Q 3016 2534 2758 2815 
Q 2500 3097 2075 3097 
Q 1594 3097 1305 2825 
Q 1016 2553 972 2059 
L 3022 2063 
z
" transform="scale(0.015625)"/>
       <path id="DejaVuSans-6e" d="M 3513 2113 
L 3513 0 
L 2938 0 
L 2938 2094 
Q 2938 2591 2744 2837 
Q 2550 3084 2163 3084 
Q 1697 3084 1428 2787 
Q 1159 2491 1159 1978 
L 1159 0 
L 581 0 
L 581 3500 
L 1159 3500 
L 1159 2956 
Q 1366 3272 1645 3428 
Q 1925 3584 2291 3584 
Q 2894 3584 3203 3211 
Q 3513 2838 3513 2113 
z
" transform="scale(0.015625)"/>
       <path id="DejaVuSans-73" d="M 2834 3397 
L 2834 2853 
Q 2591 2978 2328 3040 
Q 2066 3103 1784 3103 
Q 1356 3103 1142 2972 
Q 928 2841 928 2578 
Q 928 2378 1081 2264 
Q 1234 2150 1697 2047 
L 1894 2003 
Q 2506 1872 2764 1633 
Q 3022 1394 3022 966 
Q 3022 478 2636 193 
Q 2250 -91 1575 -91 
Q 1294 -91 989 -36 
Q 684 19 347 128 
L 347 722 
Q 666 556 975 473 
Q 1284 391 1588 391 
Q 1994 391 2212 530 
Q 2431 669 2431 922 
Q 2431 1156 2273 1281 
Q 2116 1406 1581 1522 
L 1381 1569 
Q 847 1681 609 1914 
Q 372 2147 372 2553 
Q 372 3047 722 3315 
Q 1072 3584 1716 3584 
Q 2034 3584 2315 3537 
Q 2597 3491 2834 3397 
z
" transform="scale(0.015625)"/>
       <path id="DejaVuSans-69" d="M 603 3500 
L 1178 3500 
L 1178 0 
L 603 0 
L 603 3500 
z
M 603 4863 
L 1178 4863 
L 1178 4134 
L 603 4134 
L 603 4863 
z
" transform="scale(0.015625)"/>
       <path id="DejaVuSans-74" d="M 1172 4494 
L 1172 3500 
L 2356 3500 
L 2356 3053 
L 1172 3053 
L 1172 1153 
Q 1172 725 1289 603 
Q 1406 481 1766 481 
L 2356 481 
L 2356 0 
L 1766 0 
Q 1100 0 847 248 
Q 594 497 594 1153 
L 594 3053 
L 172 3053 
L 172 3500 
L 594 3500 
L 594 4494 
L 1172 4494 
z
" transform="scale(0.015625)"/>
       <path id="DejaVuSans-79" d="M 2059 -325 
Q 1816 -950 1584 -1140 
Q 1353 -1331 966 -1331 
L 506 -1331 
L 506 -850 
L 844 -850 
Q 1081 -850 1212 -737 
Q 1344 -625 1503 -206 
L 1606 56 
L 191 3500 
L 800 3500 
L 1894 763 
L 2988 3500 
L 3597 3500 
L 2059 -325 
z
" transform="scale(0.015625)"/>
      </defs>
      <use xlink:href="#DejaVuSans-44"/>
      <use xlink:href="#DejaVuSans-65" x="77.001953"/>
      <use xlink:href="#DejaVuSans-6e" x="138.525391"/>
      <use xlink:href="#DejaVuSans-73" x="201.904297"/>
      <use xlink:href="#DejaVuSans-69" x="254.003906"/>
      <use xlink:href="#DejaVuSans-74" x="281.787109"/>
      <use xlink:href="#DejaVuSans-79" x="320.996094"/>
     </g>
    </g>
   </g>
   <g id="line2d_13">
    <path d="M 317.964706 320.4 
L 317.964706 43.2 
" clip-path="url(#pc16218266e)" style="fill: none; stroke-dasharray: 5.55,2.4; stroke-dashoffset: 0; stroke: #1f77b4; stroke-width: 1.5"/>
   </g>
   <g id="line2d_14">
    <path d="M 256.556936 320.399993 
L 273.375536 320.30464 
L 278.757487 319.839272 
L 280.775719 319.318138 
L 282.121207 318.825058 
L 283.466695 318.072601 
L 284.812183 317.150964 
L 286.157671 315.764589 
L 287.503159 314.008578 
L 288.848647 311.609494 
L 289.521391 310.264845 
L 290.866879 306.643802 
L 292.212367 302.274265 
L 293.557855 296.808608 
L 294.903343 289.843238 
L 296.248831 281.39258 
L 297.594319 271.957236 
L 299.612551 253.782027 
L 301.630783 232.208857 
L 302.97627 215.970323 
L 306.33999 169.501165 
L 310.376454 113.194806 
L 312.394686 88.62132 
L 313.740174 75.967099 
L 315.085662 65.897207 
L 315.758406 61.985292 
L 316.43115 59.170596 
L 317.103894 57.253117 
L 317.776638 56.4 
L 318.449382 56.926187 
L 319.122126 57.954725 
L 319.79487 59.432698 
L 320.467614 62.304997 
L 321.140358 65.91989 
L 321.813102 70.490253 
L 323.831334 89.308003 
L 326.52231 122.797887 
L 329.213286 162.149886 
L 333.249749 218.573404 
L 334.595237 235.120836 
L 336.613469 256.739124 
L 338.631701 274.638106 
L 339.977189 284.105235 
L 341.322677 292.264904 
L 342.668165 298.859874 
L 344.013653 304.087196 
L 344.686397 306.371043 
L 346.031885 309.982651 
L 347.377373 312.778294 
L 348.722861 314.968681 
L 350.068349 316.54532 
L 351.413837 317.743881 
L 352.759325 318.604798 
L 354.777557 319.346747 
L 356.123045 319.708959 
L 358.141276 320.023458 
L 361.504996 320.29009 
L 365.54146 320.370795 
L 390.432987 320.399989 
L 390.432987 320.399989 
" clip-path="url(#pc16218266e)" style="fill: none; stroke: #1f77b4; stroke-width: 1.5; stroke-linecap: square"/>
   </g>
   <g id="line2d_15">
    <path d="M -1 320.4 
L 229.511842 320.302489 
L 237.917538 320.101037 
L 243.521334 319.808529 
L 249.125131 319.211254 
L 254.728928 318.099525 
L 257.530826 317.265552 
L 260.332725 316.041659 
L 263.134623 314.501715 
L 265.936521 312.425033 
L 268.73842 309.889689 
L 271.540318 306.451178 
L 274.342217 302.379723 
L 277.144115 297.33087 
L 279.946013 291.22738 
L 282.747912 283.920007 
L 285.54981 275.959678 
L 288.351708 267.003063 
L 293.955505 247.287122 
L 299.559302 226.931121 
L 302.3612 217.317832 
L 305.163099 208.711319 
L 307.964997 201.031954 
L 310.766896 194.981325 
L 313.568794 191.038146 
L 316.370692 188.443974 
L 319.172591 188.221583 
L 321.974489 189.655433 
L 324.776387 193.987241 
L 327.578286 199.337257 
L 330.380184 206.380053 
L 333.182083 214.613326 
L 335.983981 224.283032 
L 347.191574 264.861821 
L 349.993473 274.01346 
L 352.795371 282.419191 
L 355.59727 289.838657 
L 358.399168 296.35773 
L 361.201066 301.494775 
L 364.002965 305.947151 
L 366.804863 309.506668 
L 369.606762 312.40383 
L 372.40866 314.438393 
L 375.210558 316.064531 
L 378.012457 317.271529 
L 380.814355 318.155939 
L 383.616253 318.777297 
L 386.418152 319.257602 
L 392.021949 319.83844 
L 397.625745 320.126825 
L 406.031441 320.317764 
L 428.446628 320.397833 
L 439.654221 320.399996 
L 439.654221 320.399996 
" clip-path="url(#pc16218266e)" style="fill: none; stroke: #ff7f0e; stroke-width: 1.5; stroke-linecap: square"/>
   </g>
   <g id="line2d_16">
    <path d="M -1 320.4 
L 227.551533 320.305226 
L 236.379266 320.094167 
L 242.26442 319.777377 
L 248.149575 319.116968 
L 251.092153 318.606605 
L 254.03473 317.884981 
L 256.977308 316.9107 
L 259.919885 315.522015 
L 262.862462 313.742097 
L 265.80504 311.426724 
L 268.747617 308.474784 
L 271.690195 304.609265 
L 274.632772 300.000742 
L 277.57535 294.374413 
L 280.517927 287.811934 
L 283.460505 280.231667 
L 286.403082 271.680972 
L 289.345659 262.573675 
L 301.115969 222.81217 
L 304.058547 214.173913 
L 307.001124 206.330938 
L 309.943701 199.913454 
L 312.886279 195.510716 
L 315.828856 192.717935 
L 318.771434 192.274935 
L 321.714011 193.748711 
L 324.656589 196.570189 
L 327.599166 201.938835 
L 330.541743 208.969254 
L 333.484321 217.324388 
L 336.426898 226.448937 
L 342.312053 246.668589 
L 345.254631 257.03769 
L 351.139785 275.867367 
L 354.082363 284.320123 
L 357.02494 291.507557 
L 359.967518 297.870069 
L 362.910095 303.01896 
L 365.852673 307.214777 
L 368.79525 310.509507 
L 371.737827 313.219858 
L 374.680405 315.252824 
L 377.622982 316.656464 
L 380.56556 317.744693 
L 383.508137 318.521923 
L 386.450715 319.092003 
L 392.33587 319.749005 
L 398.221024 320.064537 
L 407.048757 320.282788 
L 421.761644 320.384099 
L 454.129996 320.399996 
L 454.129996 320.399996 
" clip-path="url(#pc16218266e)" style="fill: none; stroke: #2ca02c; stroke-width: 1.5; stroke-linecap: square"/>
   </g>
   <g id="line2d_17">
    <path d="M -1 320.4 
L 237.454127 320.322227 
L 245.604416 320.132737 
L 251.037942 319.80317 
L 256.471469 319.106886 
L 259.188232 318.526353 
L 261.904995 317.714726 
L 264.621758 316.526724 
L 267.338521 314.892596 
L 270.055284 312.835041 
L 272.772047 309.961854 
L 275.48881 306.369914 
L 278.205573 301.388674 
L 280.922336 295.597017 
L 283.639099 288.666419 
L 286.355862 279.927182 
L 289.072625 270.415729 
L 291.789388 259.661298 
L 294.506151 247.818611 
L 299.939678 223.017296 
L 302.656441 210.767738 
L 305.373204 199.644364 
L 308.089967 189.453519 
L 310.80673 181.382776 
L 313.523493 175.528242 
L 316.240256 171.787737 
L 318.957019 171.495332 
L 321.673782 173.703421 
L 324.390545 178.825481 
L 327.107308 185.532935 
L 329.824071 195.165842 
L 332.540834 206.103954 
L 335.257597 218.031605 
L 340.691124 243.444178 
L 346.12465 267.404153 
L 348.841413 277.422723 
L 351.558176 286.507776 
L 354.274939 294.359887 
L 356.991702 300.768796 
L 359.708465 305.906404 
L 362.425228 309.774036 
L 365.141991 312.842349 
L 367.858754 315.094732 
L 370.575517 316.767374 
L 373.29228 317.90782 
L 376.009043 318.715967 
L 378.725807 319.26182 
L 381.44257 319.659798 
L 386.876096 320.063333 
L 392.309622 320.260481 
L 405.893437 320.387148 
L 427.627542 320.399996 
L 427.627542 320.399996 
" clip-path="url(#pc16218266e)" style="fill: none; stroke: #d62728; stroke-width: 1.5; stroke-linecap: square"/>
   </g>
   <g id="patch_3">
    <path d="M 166.32 320.4 
L 166.32 43.2 
" style="fill: none; stroke: #000000; stroke-width: 0.8; stroke-linejoin: miter; stroke-linecap: square"/>
   </g>
   <g id="patch_4">
    <path d="M 469.609412 320.4 
L 469.609412 43.2 
" style="fill: none; stroke: #000000; stroke-width: 0.8; stroke-linejoin: miter; stroke-linecap: square"/>
   </g>
   <g id="patch_5">
    <path d="M 166.32 320.4 
L 469.609412 320.4 
" style="fill: none; stroke: #000000; stroke-width: 0.8; stroke-linejoin: miter; stroke-linecap: square"/>
   </g>
   <g id="patch_6">
    <path d="M 166.32 43.2 
L 469.609412 43.2 
" style="fill: none; stroke: #000000; stroke-width: 0.8; stroke-linejoin: miter; stroke-linecap: square"/>
   </g>
   <g id="text_15">
    <!-- glove-100-angular -->
    <g transform="translate(262.891268 37.2)scale(0.12 -0.12)">
     <defs>
      <path id="DejaVuSans-67" d="M 2906 1791 
Q 2906 2416 2648 2759 
Q 2391 3103 1925 3103 
Q 1463 3103 1205 2759 
Q 947 2416 947 1791 
Q 947 1169 1205 825 
Q 1463 481 1925 481 
Q 2391 481 2648 825 
Q 2906 1169 2906 1791 
z
M 3481 434 
Q 3481 -459 3084 -895 
Q 2688 -1331 1869 -1331 
Q 1566 -1331 1297 -1286 
Q 1028 -1241 775 -1147 
L 775 -588 
Q 1028 -725 1275 -790 
Q 1522 -856 1778 -856 
Q 2344 -856 2625 -561 
Q 2906 -266 2906 331 
L 2906 616 
Q 2728 306 2450 153 
Q 2172 0 1784 0 
Q 1141 0 747 490 
Q 353 981 353 1791 
Q 353 2603 747 3093 
Q 1141 3584 1784 3584 
Q 2172 3584 2450 3431 
Q 2728 3278 2906 2969 
L 2906 3500 
L 3481 3500 
L 3481 434 
z
" transform="scale(0.015625)"/>
      <path id="DejaVuSans-6c" d="M 603 4863 
L 1178 4863 
L 1178 0 
L 603 0 
L 603 4863 
z
" transform="scale(0.015625)"/>
      <path id="DejaVuSans-76" d="M 191 3500 
L 800 3500 
L 1894 563 
L 2988 3500 
L 3597 3500 
L 2284 0 
L 1503 0 
L 191 3500 
z
" transform="scale(0.015625)"/>
      <path id="DejaVuSans-2d" d="M 313 2009 
L 1997 2009 
L 1997 1497 
L 313 1497 
L 313 2009 
z
" transform="scale(0.015625)"/>
      <path id="DejaVuSans-31" d="M 794 531 
L 1825 531 
L 1825 4091 
L 703 3866 
L 703 4441 
L 1819 4666 
L 2450 4666 
L 2450 531 
L 3481 531 
L 3481 0 
L 794 0 
L 794 531 
z
" transform="scale(0.015625)"/>
      <path id="DejaVuSans-61" d="M 2194 1759 
Q 1497 1759 1228 1600 
Q 959 1441 959 1056 
Q 959 750 1161 570 
Q 1363 391 1709 391 
Q 2188 391 2477 730 
Q 2766 1069 2766 1631 
L 2766 1759 
L 2194 1759 
z
M 3341 1997 
L 3341 0 
L 2766 0 
L 2766 531 
Q 2569 213 2275 61 
Q 1981 -91 1556 -91 
Q 1019 -91 701 211 
Q 384 513 384 1019 
Q 384 1609 779 1909 
Q 1175 2209 1959 2209 
L 2766 2209 
L 2766 2266 
Q 2766 2663 2505 2880 
Q 2244 3097 1772 3097 
Q 1472 3097 1187 3025 
Q 903 2953 641 2809 
L 641 3341 
Q 956 3463 1253 3523 
Q 1550 3584 1831 3584 
Q 2591 3584 2966 3190 
Q 3341 2797 3341 1997 
z
" transform="scale(0.015625)"/>
      <path id="DejaVuSans-75" d="M 544 1381 
L 544 3500 
L 1119 3500 
L 1119 1403 
Q 1119 906 1312 657 
Q 1506 409 1894 409 
Q 2359 409 2629 706 
Q 2900 1003 2900 1516 
L 2900 3500 
L 3475 3500 
L 3475 0 
L 2900 0 
L 2900 538 
Q 2691 219 2414 64 
Q 2138 -91 1772 -91 
Q 1169 -91 856 284 
Q 544 659 544 1381 
z
M 1991 3584 
L 1991 3584 
z
" transform="scale(0.015625)"/>
     </defs>
     <use xlink:href="#DejaVuSans-67"/>
     <use xlink:href="#DejaVuSans-6c" x="63.476562"/>
     <use xlink:href="#DejaVuSans-6f" x="91.259766"/>
     <use xlink:href="#DejaVuSans-76" x="152.441406"/>
     <use xlink:href="#DejaVuSans-65" x="211.621094"/>
     <use xlink:href="#DejaVuSans-2d" x="273.144531"/>
     <use xlink:href="#DejaVuSans-31" x="309.228516"/>
     <use xlink:href="#DejaVuSans-30" x="372.851562"/>
     <use xlink:href="#DejaVuSans-30" x="436.474609"/>
     <use xlink:href="#DejaVuSans-2d" x="500.097656"/>
     <use xlink:href="#DejaVuSans-61" x="536.181641"/>
     <use xlink:href="#DejaVuSans-6e" x="597.460938"/>
     <use xlink:href="#DejaVuSans-67" x="660.839844"/>
     <use xlink:href="#DejaVuSans-75" x="724.316406"/>
     <use xlink:href="#DejaVuSans-6c" x="787.695312"/>
     <use xlink:href="#DejaVuSans-61" x="815.478516"/>
     <use xlink:href="#DejaVuSans-72" x="876.757812"/>
    </g>
   </g>
   <g id="legend_1">
    <g id="patch_7">
     <path d="M 395.745349 109.9125 
L 462.609412 109.9125 
Q 464.609412 109.9125 464.609412 107.9125 
L 464.609412 50.2 
Q 464.609412 48.2 462.609412 48.2 
L 395.745349 48.2 
Q 393.745349 48.2 393.745349 50.2 
L 393.745349 107.9125 
Q 393.745349 109.9125 395.745349 109.9125 
z
" style="fill: #ffffff; opacity: 0.8; stroke: #cccccc; stroke-linejoin: miter"/>
    </g>
    <g id="line2d_18">
     <path d="M 397.745349 56.298437 
L 407.745349 56.298437 
L 417.745349 56.298437 
" style="fill: none; stroke: #1f77b4; stroke-width: 1.5; stroke-linecap: square"/>
    </g>
    <g id="text_16">
     <!-- M16P -->
     <g transform="translate(425.745349 59.798437)scale(0.1 -0.1)">
      <defs>
       <path id="DejaVuSans-4d" d="M 628 4666 
L 1569 4666 
L 2759 1491 
L 3956 4666 
L 4897 4666 
L 4897 0 
L 4281 0 
L 4281 4097 
L 3078 897 
L 2444 897 
L 1241 4097 
L 1241 0 
L 628 0 
L 628 4666 
z
" transform="scale(0.015625)"/>
       <path id="DejaVuSans-50" d="M 1259 4147 
L 1259 2394 
L 2053 2394 
Q 2494 2394 2734 2622 
Q 2975 2850 2975 3272 
Q 2975 3691 2734 3919 
Q 2494 4147 2053 4147 
L 1259 4147 
z
M 628 4666 
L 2053 4666 
Q 2838 4666 3239 4311 
Q 3641 3956 3641 3272 
Q 3641 2581 3239 2228 
Q 2838 1875 2053 1875 
L 1259 1875 
L 1259 0 
L 628 0 
L 628 4666 
z
" transform="scale(0.015625)"/>
      </defs>
      <use xlink:href="#DejaVuSans-4d"/>
      <use xlink:href="#DejaVuSans-31" x="86.279297"/>
      <use xlink:href="#DejaVuSans-36" x="149.902344"/>
      <use xlink:href="#DejaVuSans-50" x="213.525391"/>
     </g>
    </g>
    <g id="line2d_19">
     <path d="M 397.745349 70.976562 
L 407.745349 70.976562 
L 417.745349 70.976562 
" style="fill: none; stroke: #ff7f0e; stroke-width: 1.5; stroke-linecap: square"/>
    </g>
    <g id="text_17">
     <!-- M16NP -->
     <g transform="translate(425.745349 74.476562)scale(0.1 -0.1)">
      <defs>
       <path id="DejaVuSans-4e" d="M 628 4666 
L 1478 4666 
L 3547 763 
L 3547 4666 
L 4159 4666 
L 4159 0 
L 3309 0 
L 1241 3903 
L 1241 0 
L 628 0 
L 628 4666 
z
" transform="scale(0.015625)"/>
      </defs>
      <use xlink:href="#DejaVuSans-4d"/>
      <use xlink:href="#DejaVuSans-31" x="86.279297"/>
      <use xlink:href="#DejaVuSans-36" x="149.902344"/>
      <use xlink:href="#DejaVuSans-4e" x="213.525391"/>
      <use xlink:href="#DejaVuSans-50" x="288.330078"/>
     </g>
    </g>
    <g id="line2d_20">
     <path d="M 397.745349 85.654687 
L 407.745349 85.654687 
L 417.745349 85.654687 
" style="fill: none; stroke: #2ca02c; stroke-width: 1.5; stroke-linecap: square"/>
    </g>
    <g id="text_18">
     <!-- E16NP -->
     <g transform="translate(425.745349 89.154687)scale(0.1 -0.1)">
      <use xlink:href="#DejaVuSans-45"/>
      <use xlink:href="#DejaVuSans-31" x="63.183594"/>
      <use xlink:href="#DejaVuSans-36" x="126.806641"/>
      <use xlink:href="#DejaVuSans-4e" x="190.429688"/>
      <use xlink:href="#DejaVuSans-50" x="265.234375"/>
     </g>
    </g>
    <g id="line2d_21">
     <path d="M 397.745349 100.332812 
L 407.745349 100.332812 
L 417.745349 100.332812 
" style="fill: none; stroke: #d62728; stroke-width: 1.5; stroke-linecap: square"/>
    </g>
    <g id="text_19">
     <!-- E16P -->
     <g transform="translate(425.745349 103.832812)scale(0.1 -0.1)">
      <use xlink:href="#DejaVuSans-45"/>
      <use xlink:href="#DejaVuSans-31" x="63.183594"/>
      <use xlink:href="#DejaVuSans-36" x="126.806641"/>
      <use xlink:href="#DejaVuSans-50" x="190.429688"/>
     </g>
    </g>
   </g>
  </g>
  <g id="axes_2">
   <g id="patch_8">
    <path d="M 530.267294 320.4 
L 833.556706 320.4 
L 833.556706 43.2 
L 530.267294 43.2 
z
" style="fill: #ffffff"/>
   </g>
   <g id="matplotlib.axis_3">
    <g id="xtick_8">
     <g id="line2d_22">
      <g>
       <use xlink:href="#m13546d4dbe" x="530.267294" y="320.4" style="stroke: #000000; stroke-width: 0.8"/>
      </g>
     </g>
     <g id="text_20">
      <!-- −0.6 -->
      <g transform="translate(518.125888 334.998438)scale(0.1 -0.1)">
       <use xlink:href="#DejaVuSans-2212"/>
       <use xlink:href="#DejaVuSans-30" x="83.789062"/>
       <use xlink:href="#DejaVuSans-2e" x="147.412109"/>
       <use xlink:href="#DejaVuSans-36" x="179.199219"/>
      </g>
     </g>
    </g>
    <g id="xtick_9">
     <g id="line2d_23">
      <g>
       <use xlink:href="#m13546d4dbe" x="580.815529" y="320.4" style="stroke: #000000; stroke-width: 0.8"/>
      </g>
     </g>
     <g id="text_21">
      <!-- −0.4 -->
      <g transform="translate(568.674123 334.998438)scale(0.1 -0.1)">
       <use xlink:href="#DejaVuSans-2212"/>
       <use xlink:href="#DejaVuSans-30" x="83.789062"/>
       <use xlink:href="#DejaVuSans-2e" x="147.412109"/>
       <use xlink:href="#DejaVuSans-34" x="179.199219"/>
      </g>
     </g>
    </g>
    <g id="xtick_10">
     <g id="line2d_24">
      <g>
       <use xlink:href="#m13546d4dbe" x="631.363765" y="320.4" style="stroke: #000000; stroke-width: 0.8"/>
      </g>
     </g>
     <g id="text_22">
      <!-- −0.2 -->
      <g transform="translate(619.222358 334.998438)scale(0.1 -0.1)">
       <use xlink:href="#DejaVuSans-2212"/>
       <use xlink:href="#DejaVuSans-30" x="83.789062"/>
       <use xlink:href="#DejaVuSans-2e" x="147.412109"/>
       <use xlink:href="#DejaVuSans-32" x="179.199219"/>
      </g>
     </g>
    </g>
    <g id="xtick_11">
     <g id="line2d_25">
      <g>
       <use xlink:href="#m13546d4dbe" x="681.912" y="320.4" style="stroke: #000000; stroke-width: 0.8"/>
      </g>
     </g>
     <g id="text_23">
      <!-- 0.0 -->
      <g transform="translate(673.960438 334.998438)scale(0.1 -0.1)">
       <use xlink:href="#DejaVuSans-30"/>
       <use xlink:href="#DejaVuSans-2e" x="63.623047"/>
       <use xlink:href="#DejaVuSans-30" x="95.410156"/>
      </g>
     </g>
    </g>
    <g id="xtick_12">
     <g id="line2d_26">
      <g>
       <use xlink:href="#m13546d4dbe" x="732.460235" y="320.4" style="stroke: #000000; stroke-width: 0.8"/>
      </g>
     </g>
     <g id="text_24">
      <!-- 0.2 -->
      <g transform="translate(724.508673 334.998438)scale(0.1 -0.1)">
       <use xlink:href="#DejaVuSans-30"/>
       <use xlink:href="#DejaVuSans-2e" x="63.623047"/>
       <use xlink:href="#DejaVuSans-32" x="95.410156"/>
      </g>
     </g>
    </g>
    <g id="xtick_13">
     <g id="line2d_27">
      <g>
       <use xlink:href="#m13546d4dbe" x="783.008471" y="320.4" style="stroke: #000000; stroke-width: 0.8"/>
      </g>
     </g>
     <g id="text_25">
      <!-- 0.4 -->
      <g transform="translate(775.056908 334.998438)scale(0.1 -0.1)">
       <use xlink:href="#DejaVuSans-30"/>
       <use xlink:href="#DejaVuSans-2e" x="63.623047"/>
       <use xlink:href="#DejaVuSans-34" x="95.410156"/>
      </g>
     </g>
    </g>
    <g id="xtick_14">
     <g id="line2d_28">
      <g>
       <use xlink:href="#m13546d4dbe" x="833.556706" y="320.4" style="stroke: #000000; stroke-width: 0.8"/>
      </g>
     </g>
     <g id="text_26">
      <!-- 0.6 -->
      <g transform="translate(825.605143 334.998438)scale(0.1 -0.1)">
       <use xlink:href="#DejaVuSans-30"/>
       <use xlink:href="#DejaVuSans-2e" x="63.623047"/>
       <use xlink:href="#DejaVuSans-36" x="95.410156"/>
      </g>
     </g>
    </g>
    <g id="text_27">
     <!-- Error -->
     <g transform="translate(669.726844 348.676562)scale(0.1 -0.1)">
      <use xlink:href="#DejaVuSans-45"/>
      <use xlink:href="#DejaVuSans-72" x="63.183594"/>
      <use xlink:href="#DejaVuSans-72" x="102.546875"/>
      <use xlink:href="#DejaVuSans-6f" x="141.410156"/>
      <use xlink:href="#DejaVuSans-72" x="202.591797"/>
     </g>
    </g>
   </g>
   <g id="matplotlib.axis_4">
    <g id="ytick_6">
     <g id="line2d_29">
      <g>
       <use xlink:href="#m19106d1e8b" x="530.267294" y="320.4" style="stroke: #000000; stroke-width: 0.8"/>
      </g>
     </g>
     <g id="text_28">
      <!-- 0 -->
      <g transform="translate(516.904794 324.199219)scale(0.1 -0.1)">
       <use xlink:href="#DejaVuSans-30"/>
      </g>
     </g>
    </g>
    <g id="ytick_7">
     <g id="line2d_30">
      <g>
       <use xlink:href="#m19106d1e8b" x="530.267294" y="281.834849" style="stroke: #000000; stroke-width: 0.8"/>
      </g>
     </g>
     <g id="text_29">
      <!-- 1 -->
      <g transform="translate(516.904794 285.634068)scale(0.1 -0.1)">
       <use xlink:href="#DejaVuSans-31"/>
      </g>
     </g>
    </g>
    <g id="ytick_8">
     <g id="line2d_31">
      <g>
       <use xlink:href="#m19106d1e8b" x="530.267294" y="243.269699" style="stroke: #000000; stroke-width: 0.8"/>
      </g>
     </g>
     <g id="text_30">
      <!-- 2 -->
      <g transform="translate(516.904794 247.068918)scale(0.1 -0.1)">
       <use xlink:href="#DejaVuSans-32"/>
      </g>
     </g>
    </g>
    <g id="ytick_9">
     <g id="line2d_32">
      <g>
       <use xlink:href="#m19106d1e8b" x="530.267294" y="204.704548" style="stroke: #000000; stroke-width: 0.8"/>
      </g>
     </g>
     <g id="text_31">
      <!-- 3 -->
      <g transform="translate(516.904794 208.503767)scale(0.1 -0.1)">
       <defs>
        <path id="DejaVuSans-33" d="M 2597 2516 
Q 3050 2419 3304 2112 
Q 3559 1806 3559 1356 
Q 3559 666 3084 287 
Q 2609 -91 1734 -91 
Q 1441 -91 1130 -33 
Q 819 25 488 141 
L 488 750 
Q 750 597 1062 519 
Q 1375 441 1716 441 
Q 2309 441 2620 675 
Q 2931 909 2931 1356 
Q 2931 1769 2642 2001 
Q 2353 2234 1838 2234 
L 1294 2234 
L 1294 2753 
L 1863 2753 
Q 2328 2753 2575 2939 
Q 2822 3125 2822 3475 
Q 2822 3834 2567 4026 
Q 2313 4219 1838 4219 
Q 1578 4219 1281 4162 
Q 984 4106 628 3988 
L 628 4550 
Q 988 4650 1302 4700 
Q 1616 4750 1894 4750 
Q 2613 4750 3031 4423 
Q 3450 4097 3450 3541 
Q 3450 3153 3228 2886 
Q 3006 2619 2597 2516 
z
" transform="scale(0.015625)"/>
       </defs>
       <use xlink:href="#DejaVuSans-33"/>
      </g>
     </g>
    </g>
    <g id="ytick_10">
     <g id="line2d_33">
      <g>
       <use xlink:href="#m19106d1e8b" x="530.267294" y="166.139398" style="stroke: #000000; stroke-width: 0.8"/>
      </g>
     </g>
     <g id="text_32">
      <!-- 4 -->
      <g transform="translate(516.904794 169.938616)scale(0.1 -0.1)">
       <use xlink:href="#DejaVuSans-34"/>
      </g>
     </g>
    </g>
    <g id="ytick_11">
     <g id="line2d_34">
      <g>
       <use xlink:href="#m19106d1e8b" x="530.267294" y="127.574247" style="stroke: #000000; stroke-width: 0.8"/>
      </g>
     </g>
     <g id="text_33">
      <!-- 5 -->
      <g transform="translate(516.904794 131.373466)scale(0.1 -0.1)">
       <defs>
        <path id="DejaVuSans-35" d="M 691 4666 
L 3169 4666 
L 3169 4134 
L 1269 4134 
L 1269 2991 
Q 1406 3038 1543 3061 
Q 1681 3084 1819 3084 
Q 2600 3084 3056 2656 
Q 3513 2228 3513 1497 
Q 3513 744 3044 326 
Q 2575 -91 1722 -91 
Q 1428 -91 1123 -41 
Q 819 9 494 109 
L 494 744 
Q 775 591 1075 516 
Q 1375 441 1709 441 
Q 2250 441 2565 725 
Q 2881 1009 2881 1497 
Q 2881 1984 2565 2268 
Q 2250 2553 1709 2553 
Q 1456 2553 1204 2497 
Q 953 2441 691 2322 
L 691 4666 
z
" transform="scale(0.015625)"/>
       </defs>
       <use xlink:href="#DejaVuSans-35"/>
      </g>
     </g>
    </g>
    <g id="ytick_12">
     <g id="line2d_35">
      <g>
       <use xlink:href="#m19106d1e8b" x="530.267294" y="89.009097" style="stroke: #000000; stroke-width: 0.8"/>
      </g>
     </g>
     <g id="text_34">
      <!-- 6 -->
      <g transform="translate(516.904794 92.808315)scale(0.1 -0.1)">
       <use xlink:href="#DejaVuSans-36"/>
      </g>
     </g>
    </g>
    <g id="ytick_13">
     <g id="line2d_36">
      <g>
       <use xlink:href="#m19106d1e8b" x="530.267294" y="50.443946" style="stroke: #000000; stroke-width: 0.8"/>
      </g>
     </g>
     <g id="text_35">
      <!-- 7 -->
      <g transform="translate(516.904794 54.243165)scale(0.1 -0.1)">
       <defs>
        <path id="DejaVuSans-37" d="M 525 4666 
L 3525 4666 
L 3525 4397 
L 1831 0 
L 1172 0 
L 2766 4134 
L 525 4134 
L 525 4666 
z
" transform="scale(0.015625)"/>
       </defs>
       <use xlink:href="#DejaVuSans-37"/>
      </g>
     </g>
    </g>
    <g id="text_36">
     <!-- Density -->
     <g transform="translate(510.825107 200.808594)rotate(-90)scale(0.1 -0.1)">
      <use xlink:href="#DejaVuSans-44"/>
      <use xlink:href="#DejaVuSans-65" x="77.001953"/>
      <use xlink:href="#DejaVuSans-6e" x="138.525391"/>
      <use xlink:href="#DejaVuSans-73" x="201.904297"/>
      <use xlink:href="#DejaVuSans-69" x="254.003906"/>
      <use xlink:href="#DejaVuSans-74" x="281.787109"/>
      <use xlink:href="#DejaVuSans-79" x="320.996094"/>
     </g>
    </g>
   </g>
   <g id="line2d_37">
    <path d="M 681.912 320.4 
L 681.912 43.2 
" clip-path="url(#p40ccfb546f)" style="fill: none; stroke-dasharray: 5.55,2.4; stroke-dashoffset: 0; stroke: #1f77b4; stroke-width: 1.5"/>
   </g>
   <g id="line2d_38">
    <path d="M 293.268454 320.399982 
L 549.044707 320.4 
L 608.907235 320.343071 
L 617.070307 320.059124 
L 619.791331 319.791238 
L 622.512355 319.411271 
L 625.233379 318.873768 
L 627.954403 317.800833 
L 630.675427 316.440698 
L 633.39645 314.541923 
L 636.117474 311.704852 
L 638.838498 307.784278 
L 641.559522 302.541632 
L 644.280546 295.658 
L 647.00157 286.97609 
L 649.722594 276.260959 
L 652.443618 263.382291 
L 655.164642 247.848553 
L 657.885666 230.83971 
L 663.327714 193.352517 
L 666.048738 173.41557 
L 671.490786 137.642759 
L 674.21181 123.462202 
L 676.932834 112.534903 
L 679.653858 106.390354 
L 682.374882 105.720826 
L 685.095906 109.127087 
L 687.81693 116.461392 
L 690.537954 129.071657 
L 693.258978 144.389946 
L 695.980002 161.66609 
L 704.143074 220.205303 
L 706.864098 238.391957 
L 709.585122 254.417684 
L 712.306146 268.397785 
L 715.02717 280.73056 
L 717.748194 290.421943 
L 720.469218 298.315909 
L 723.190242 304.624494 
L 725.911266 309.289839 
L 728.63229 312.802035 
L 731.353314 315.295493 
L 734.074338 317.029955 
L 736.795362 318.246796 
L 739.516386 318.990832 
L 742.237409 319.569734 
L 744.958433 319.883656 
L 750.400481 320.201305 
L 758.563553 320.364674 
L 783.052769 320.399914 
L 834.752225 320.399994 
L 834.752225 320.399994 
" clip-path="url(#p40ccfb546f)" style="fill: none; stroke: #1f77b4; stroke-width: 1.5; stroke-linecap: square"/>
   </g>
   <g id="line2d_39">
    <path d="M 310.828408 320.399985 
L 625.505647 320.240426 
L 628.149993 320.07436 
L 630.79434 319.795025 
L 633.438687 319.208532 
L 636.083033 318.369892 
L 638.72738 316.931216 
L 641.371726 314.48719 
L 644.016073 310.854325 
L 646.660419 305.311187 
L 649.304766 297.666856 
L 651.949112 287.086218 
L 654.593459 272.790009 
L 657.237805 255.266959 
L 659.882152 233.754427 
L 662.526499 209.052714 
L 667.815192 153.504496 
L 670.459538 125.713967 
L 673.103885 99.894958 
L 675.748231 78.618796 
L 678.392578 63.928297 
L 681.036924 56.4 
L 683.681271 57.653247 
L 686.325618 68.065031 
L 688.969964 84.685557 
L 691.614311 107.805322 
L 694.258657 134.656367 
L 699.54735 191.916486 
L 702.191697 218.592206 
L 704.836043 242.05493 
L 707.48039 262.063137 
L 710.124736 278.46818 
L 712.769083 291.156317 
L 715.41343 300.561307 
L 718.057776 307.473402 
L 720.702123 312.151574 
L 723.346469 315.334503 
L 725.990816 317.332139 
L 728.635162 318.605631 
L 731.279509 319.354251 
L 733.923855 319.832659 
L 739.212548 320.205629 
L 747.145588 320.345883 
L 768.300361 320.394122 
L 837.053371 320.399993 
L 837.053371 320.399993 
" clip-path="url(#p40ccfb546f)" style="fill: none; stroke: #ff7f0e; stroke-width: 1.5; stroke-linecap: square"/>
   </g>
   <g id="line2d_40">
    <path d="M 310.516057 320.399986 
L 620.279597 320.272069 
L 625.442322 319.9564 
L 628.023685 319.619179 
L 630.605048 319.088842 
L 633.186411 318.193297 
L 635.767774 316.807831 
L 638.349137 314.604202 
L 640.930499 311.680961 
L 643.511862 307.182848 
L 646.093225 300.879652 
L 648.674588 293.018547 
L 651.255951 282.211692 
L 653.837313 268.867177 
L 656.418676 252.571201 
L 659.000039 233.912368 
L 661.581402 212.851125 
L 666.744128 165.87402 
L 669.32549 141.987959 
L 671.906853 120.273739 
L 674.488216 101.415516 
L 677.069579 87.098026 
L 679.650942 78.6193 
L 682.232305 76.571995 
L 684.813667 79.652957 
L 687.39503 89.493155 
L 689.976393 105.316762 
L 692.557756 125.450602 
L 695.139119 147.067193 
L 702.883207 218.327442 
L 705.46457 238.557179 
L 708.045933 257.052012 
L 710.627296 271.93841 
L 713.208659 284.644662 
L 715.790021 295.035517 
L 718.371384 302.553557 
L 720.952747 308.226038 
L 723.53411 312.248731 
L 726.115473 315.101097 
L 728.696835 316.986059 
L 731.278198 318.291947 
L 733.859561 319.147918 
L 739.022287 319.962211 
L 744.185012 320.244751 
L 754.510464 320.370698 
L 795.812269 320.399932 
L 824.20726 320.399993 
L 824.20726 320.399993 
" clip-path="url(#p40ccfb546f)" style="fill: none; stroke: #2ca02c; stroke-width: 1.5; stroke-linecap: square"/>
   </g>
   <g id="line2d_41">
    <path d="M 306.605331 320.399985 
L 623.564352 320.301533 
L 626.205678 320.222453 
L 631.488328 319.712075 
L 634.129653 319.099624 
L 636.770978 318.038515 
L 639.412304 316.400854 
L 642.053629 313.67039 
L 644.694954 309.652666 
L 647.336279 303.737883 
L 649.977604 295.422123 
L 652.618929 283.932772 
L 655.260255 269.181254 
L 657.90158 250.505211 
L 660.542905 227.815867 
L 663.18423 202.776041 
L 668.466881 146.019493 
L 671.108206 119.033562 
L 673.749531 94.367881 
L 676.390856 75.077102 
L 679.032181 62.120505 
L 681.673506 56.630411 
L 684.314832 60.668083 
L 686.956157 72.271196 
L 689.597482 90.2122 
L 692.238807 114.378423 
L 697.521458 170.224223 
L 700.162783 197.999553 
L 702.804108 223.928156 
L 705.445433 246.468817 
L 708.086758 265.651314 
L 710.728083 281.028118 
L 713.369409 292.945873 
L 716.010734 301.640324 
L 718.652059 308.251709 
L 721.293384 312.739188 
L 723.934709 315.656118 
L 726.576035 317.499138 
L 729.21736 318.669709 
L 731.858685 319.392677 
L 734.50001 319.808038 
L 737.141335 320.0715 
L 742.423986 320.292545 
L 752.989286 320.377841 
L 803.174465 320.399984 
L 832.229042 320.399985 
L 832.229042 320.399985 
" clip-path="url(#p40ccfb546f)" style="fill: none; stroke: #d62728; stroke-width: 1.5; stroke-linecap: square"/>
   </g>
   <g id="patch_9">
    <path d="M 530.267294 320.4 
L 530.267294 43.2 
" style="fill: none; stroke: #000000; stroke-width: 0.8; stroke-linejoin: miter; stroke-linecap: square"/>
   </g>
   <g id="patch_10">
    <path d="M 833.556706 320.4 
L 833.556706 43.2 
" style="fill: none; stroke: #000000; stroke-width: 0.8; stroke-linejoin: miter; stroke-linecap: square"/>
   </g>
   <g id="patch_11">
    <path d="M 530.267294 320.4 
L 833.556706 320.4 
" style="fill: none; stroke: #000000; stroke-width: 0.8; stroke-linejoin: miter; stroke-linecap: square"/>
   </g>
   <g id="patch_12">
    <path d="M 530.267294 43.2 
L 833.556706 43.2 
" style="fill: none; stroke: #000000; stroke-width: 0.8; stroke-linejoin: miter; stroke-linecap: square"/>
   </g>
   <g id="text_37">
    <!-- nytimes-256-angular -->
    <g transform="translate(619.194187 37.2)scale(0.12 -0.12)">
     <defs>
      <path id="DejaVuSans-6d" d="M 3328 2828 
Q 3544 3216 3844 3400 
Q 4144 3584 4550 3584 
Q 5097 3584 5394 3201 
Q 5691 2819 5691 2113 
L 5691 0 
L 5113 0 
L 5113 2094 
Q 5113 2597 4934 2840 
Q 4756 3084 4391 3084 
Q 3944 3084 3684 2787 
Q 3425 2491 3425 1978 
L 3425 0 
L 2847 0 
L 2847 2094 
Q 2847 2600 2669 2842 
Q 2491 3084 2119 3084 
Q 1678 3084 1418 2786 
Q 1159 2488 1159 1978 
L 1159 0 
L 581 0 
L 581 3500 
L 1159 3500 
L 1159 2956 
Q 1356 3278 1631 3431 
Q 1906 3584 2284 3584 
Q 2666 3584 2933 3390 
Q 3200 3197 3328 2828 
z
" transform="scale(0.015625)"/>
     </defs>
     <use xlink:href="#DejaVuSans-6e"/>
     <use xlink:href="#DejaVuSans-79" x="63.378906"/>
     <use xlink:href="#DejaVuSans-74" x="122.558594"/>
     <use xlink:href="#DejaVuSans-69" x="161.767578"/>
     <use xlink:href="#DejaVuSans-6d" x="189.550781"/>
     <use xlink:href="#DejaVuSans-65" x="286.962891"/>
     <use xlink:href="#DejaVuSans-73" x="348.486328"/>
     <use xlink:href="#DejaVuSans-2d" x="400.585938"/>
     <use xlink:href="#DejaVuSans-32" x="436.669922"/>
     <use xlink:href="#DejaVuSans-35" x="500.292969"/>
     <use xlink:href="#DejaVuSans-36" x="563.916016"/>
     <use xlink:href="#DejaVuSans-2d" x="627.539062"/>
     <use xlink:href="#DejaVuSans-61" x="663.623047"/>
     <use xlink:href="#DejaVuSans-6e" x="724.902344"/>
     <use xlink:href="#DejaVuSans-67" x="788.28125"/>
     <use xlink:href="#DejaVuSans-75" x="851.757812"/>
     <use xlink:href="#DejaVuSans-6c" x="915.136719"/>
     <use xlink:href="#DejaVuSans-61" x="942.919922"/>
     <use xlink:href="#DejaVuSans-72" x="1004.199219"/>
    </g>
   </g>
   <g id="legend_2">
    <g id="patch_13">
     <path d="M 759.692643 109.9125 
L 826.556706 109.9125 
Q 828.556706 109.9125 828.556706 107.9125 
L 828.556706 50.2 
Q 828.556706 48.2 826.556706 48.2 
L 759.692643 48.2 
Q 757.692643 48.2 757.692643 50.2 
L 757.692643 107.9125 
Q 757.692643 109.9125 759.692643 109.9125 
z
" style="fill: #ffffff; opacity: 0.8; stroke: #cccccc; stroke-linejoin: miter"/>
    </g>
    <g id="line2d_42">
     <path d="M 761.692643 56.298437 
L 771.692643 56.298437 
L 781.692643 56.298437 
" style="fill: none; stroke: #1f77b4; stroke-width: 1.5; stroke-linecap: square"/>
    </g>
    <g id="text_38">
     <!-- M16P -->
     <g transform="translate(789.692643 59.798437)scale(0.1 -0.1)">
      <use xlink:href="#DejaVuSans-4d"/>
      <use xlink:href="#DejaVuSans-31" x="86.279297"/>
      <use xlink:href="#DejaVuSans-36" x="149.902344"/>
      <use xlink:href="#DejaVuSans-50" x="213.525391"/>
     </g>
    </g>
    <g id="line2d_43">
     <path d="M 761.692643 70.976562 
L 771.692643 70.976562 
L 781.692643 70.976562 
" style="fill: none; stroke: #ff7f0e; stroke-width: 1.5; stroke-linecap: square"/>
    </g>
    <g id="text_39">
     <!-- M16NP -->
     <g transform="translate(789.692643 74.476562)scale(0.1 -0.1)">
      <use xlink:href="#DejaVuSans-4d"/>
      <use xlink:href="#DejaVuSans-31" x="86.279297"/>
      <use xlink:href="#DejaVuSans-36" x="149.902344"/>
      <use xlink:href="#DejaVuSans-4e" x="213.525391"/>
      <use xlink:href="#DejaVuSans-50" x="288.330078"/>
     </g>
    </g>
    <g id="line2d_44">
     <path d="M 761.692643 85.654687 
L 771.692643 85.654687 
L 781.692643 85.654687 
" style="fill: none; stroke: #2ca02c; stroke-width: 1.5; stroke-linecap: square"/>
    </g>
    <g id="text_40">
     <!-- E16NP -->
     <g transform="translate(789.692643 89.154687)scale(0.1 -0.1)">
      <use xlink:href="#DejaVuSans-45"/>
      <use xlink:href="#DejaVuSans-31" x="63.183594"/>
      <use xlink:href="#DejaVuSans-36" x="126.806641"/>
      <use xlink:href="#DejaVuSans-4e" x="190.429688"/>
      <use xlink:href="#DejaVuSans-50" x="265.234375"/>
     </g>
    </g>
    <g id="line2d_45">
     <path d="M 761.692643 100.332812 
L 771.692643 100.332812 
L 781.692643 100.332812 
" style="fill: none; stroke: #d62728; stroke-width: 1.5; stroke-linecap: square"/>
    </g>
    <g id="text_41">
     <!-- E16P -->
     <g transform="translate(789.692643 103.832812)scale(0.1 -0.1)">
      <use xlink:href="#DejaVuSans-45"/>
      <use xlink:href="#DejaVuSans-31" x="63.183594"/>
      <use xlink:href="#DejaVuSans-36" x="126.806641"/>
      <use xlink:href="#DejaVuSans-50" x="190.429688"/>
     </g>
    </g>
   </g>
  </g>
  <g id="axes_3">
   <g id="patch_14">
    <path d="M 894.214588 320.4 
L 1197.504 320.4 
L 1197.504 43.2 
L 894.214588 43.2 
z
" style="fill: #ffffff"/>
   </g>
   <g id="matplotlib.axis_5">
    <g id="xtick_15">
     <g id="line2d_46">
      <g>
       <use xlink:href="#m13546d4dbe" x="894.214588" y="320.4" style="stroke: #000000; stroke-width: 0.8"/>
      </g>
     </g>
     <g id="text_42">
      <!-- −0.6 -->
      <g transform="translate(882.073182 334.998438)scale(0.1 -0.1)">
       <use xlink:href="#DejaVuSans-2212"/>
       <use xlink:href="#DejaVuSans-30" x="83.789062"/>
       <use xlink:href="#DejaVuSans-2e" x="147.412109"/>
       <use xlink:href="#DejaVuSans-36" x="179.199219"/>
      </g>
     </g>
    </g>
    <g id="xtick_16">
     <g id="line2d_47">
      <g>
       <use xlink:href="#m13546d4dbe" x="944.762824" y="320.4" style="stroke: #000000; stroke-width: 0.8"/>
      </g>
     </g>
     <g id="text_43">
      <!-- −0.4 -->
      <g transform="translate(932.621417 334.998438)scale(0.1 -0.1)">
       <use xlink:href="#DejaVuSans-2212"/>
       <use xlink:href="#DejaVuSans-30" x="83.789062"/>
       <use xlink:href="#DejaVuSans-2e" x="147.412109"/>
       <use xlink:href="#DejaVuSans-34" x="179.199219"/>
      </g>
     </g>
    </g>
    <g id="xtick_17">
     <g id="line2d_48">
      <g>
       <use xlink:href="#m13546d4dbe" x="995.311059" y="320.4" style="stroke: #000000; stroke-width: 0.8"/>
      </g>
     </g>
     <g id="text_44">
      <!-- −0.2 -->
      <g transform="translate(983.169653 334.998438)scale(0.1 -0.1)">
       <use xlink:href="#DejaVuSans-2212"/>
       <use xlink:href="#DejaVuSans-30" x="83.789062"/>
       <use xlink:href="#DejaVuSans-2e" x="147.412109"/>
       <use xlink:href="#DejaVuSans-32" x="179.199219"/>
      </g>
     </g>
    </g>
    <g id="xtick_18">
     <g id="line2d_49">
      <g>
       <use xlink:href="#m13546d4dbe" x="1045.859294" y="320.4" style="stroke: #000000; stroke-width: 0.8"/>
      </g>
     </g>
     <g id="text_45">
      <!-- 0.0 -->
      <g transform="translate(1037.907732 334.998438)scale(0.1 -0.1)">
       <use xlink:href="#DejaVuSans-30"/>
       <use xlink:href="#DejaVuSans-2e" x="63.623047"/>
       <use xlink:href="#DejaVuSans-30" x="95.410156"/>
      </g>
     </g>
    </g>
    <g id="xtick_19">
     <g id="line2d_50">
      <g>
       <use xlink:href="#m13546d4dbe" x="1096.407529" y="320.4" style="stroke: #000000; stroke-width: 0.8"/>
      </g>
     </g>
     <g id="text_46">
      <!-- 0.2 -->
      <g transform="translate(1088.455967 334.998438)scale(0.1 -0.1)">
       <use xlink:href="#DejaVuSans-30"/>
       <use xlink:href="#DejaVuSans-2e" x="63.623047"/>
       <use xlink:href="#DejaVuSans-32" x="95.410156"/>
      </g>
     </g>
    </g>
    <g id="xtick_20">
     <g id="line2d_51">
      <g>
       <use xlink:href="#m13546d4dbe" x="1146.955765" y="320.4" style="stroke: #000000; stroke-width: 0.8"/>
      </g>
     </g>
     <g id="text_47">
      <!-- 0.4 -->
      <g transform="translate(1139.004202 334.998438)scale(0.1 -0.1)">
       <use xlink:href="#DejaVuSans-30"/>
       <use xlink:href="#DejaVuSans-2e" x="63.623047"/>
       <use xlink:href="#DejaVuSans-34" x="95.410156"/>
      </g>
     </g>
    </g>
    <g id="xtick_21">
     <g id="line2d_52">
      <g>
       <use xlink:href="#m13546d4dbe" x="1197.504" y="320.4" style="stroke: #000000; stroke-width: 0.8"/>
      </g>
     </g>
     <g id="text_48">
      <!-- 0.6 -->
      <g transform="translate(1189.552437 334.998438)scale(0.1 -0.1)">
       <use xlink:href="#DejaVuSans-30"/>
       <use xlink:href="#DejaVuSans-2e" x="63.623047"/>
       <use xlink:href="#DejaVuSans-36" x="95.410156"/>
      </g>
     </g>
    </g>
    <g id="text_49">
     <!-- Error -->
     <g transform="translate(1033.674138 348.676562)scale(0.1 -0.1)">
      <use xlink:href="#DejaVuSans-45"/>
      <use xlink:href="#DejaVuSans-72" x="63.183594"/>
      <use xlink:href="#DejaVuSans-72" x="102.546875"/>
      <use xlink:href="#DejaVuSans-6f" x="141.410156"/>
      <use xlink:href="#DejaVuSans-72" x="202.591797"/>
     </g>
    </g>
   </g>
   <g id="matplotlib.axis_6">
    <g id="ytick_14">
     <g id="line2d_53">
      <g>
       <use xlink:href="#m19106d1e8b" x="894.214588" y="320.4" style="stroke: #000000; stroke-width: 0.8"/>
      </g>
     </g>
     <g id="text_50">
      <!-- 0 -->
      <g transform="translate(880.852088 324.199219)scale(0.1 -0.1)">
       <use xlink:href="#DejaVuSans-30"/>
      </g>
     </g>
    </g>
    <g id="ytick_15">
     <g id="line2d_54">
      <g>
       <use xlink:href="#m19106d1e8b" x="894.214588" y="263.074422" style="stroke: #000000; stroke-width: 0.8"/>
      </g>
     </g>
     <g id="text_51">
      <!-- 2 -->
      <g transform="translate(880.852088 266.87364)scale(0.1 -0.1)">
       <use xlink:href="#DejaVuSans-32"/>
      </g>
     </g>
    </g>
    <g id="ytick_16">
     <g id="line2d_55">
      <g>
       <use xlink:href="#m19106d1e8b" x="894.214588" y="205.748843" style="stroke: #000000; stroke-width: 0.8"/>
      </g>
     </g>
     <g id="text_52">
      <!-- 4 -->
      <g transform="translate(880.852088 209.548062)scale(0.1 -0.1)">
       <use xlink:href="#DejaVuSans-34"/>
      </g>
     </g>
    </g>
    <g id="ytick_17">
     <g id="line2d_56">
      <g>
       <use xlink:href="#m19106d1e8b" x="894.214588" y="148.423265" style="stroke: #000000; stroke-width: 0.8"/>
      </g>
     </g>
     <g id="text_53">
      <!-- 6 -->
      <g transform="translate(880.852088 152.222484)scale(0.1 -0.1)">
       <use xlink:href="#DejaVuSans-36"/>
      </g>
     </g>
    </g>
    <g id="ytick_18">
     <g id="line2d_57">
      <g>
       <use xlink:href="#m19106d1e8b" x="894.214588" y="91.097687" style="stroke: #000000; stroke-width: 0.8"/>
      </g>
     </g>
     <g id="text_54">
      <!-- 8 -->
      <g transform="translate(880.852088 94.896905)scale(0.1 -0.1)">
       <use xlink:href="#DejaVuSans-38"/>
      </g>
     </g>
    </g>
    <g id="text_55">
     <!-- Density -->
     <g transform="translate(874.772401 200.808594)rotate(-90)scale(0.1 -0.1)">
      <use xlink:href="#DejaVuSans-44"/>
      <use xlink:href="#DejaVuSans-65" x="77.001953"/>
      <use xlink:href="#DejaVuSans-6e" x="138.525391"/>
      <use xlink:href="#DejaVuSans-73" x="201.904297"/>
      <use xlink:href="#DejaVuSans-69" x="254.003906"/>
      <use xlink:href="#DejaVuSans-74" x="281.787109"/>
      <use xlink:href="#DejaVuSans-79" x="320.996094"/>
     </g>
    </g>
   </g>
   <g id="line2d_58">
    <path d="M 1045.859294 320.4 
L 1045.859294 43.2 
" clip-path="url(#p79e7565904)" style="fill: none; stroke-dasharray: 5.55,2.4; stroke-dashoffset: 0; stroke: #1f77b4; stroke-width: 1.5"/>
   </g>
   <g id="line2d_59">
    <path d="M 546.7068 320.399995 
L 976.294126 320.259476 
L 982.387563 319.996567 
L 985.434282 319.722156 
L 988.481 319.321839 
L 991.527719 318.651361 
L 994.574438 317.615563 
L 997.621156 316.006842 
L 1000.667875 313.770358 
L 1003.714593 310.352653 
L 1006.761312 305.773321 
L 1009.808031 299.503737 
L 1012.854749 291.435966 
L 1015.901468 281.308866 
L 1018.948187 268.809216 
L 1021.994905 254.397643 
L 1025.041624 238.666253 
L 1034.18178 189.158748 
L 1037.228498 175.891957 
L 1040.275217 165.559789 
L 1043.321935 159.599111 
L 1046.368654 157.951451 
L 1049.415373 161.572086 
L 1052.462091 169.367759 
L 1055.50881 180.811921 
L 1058.555529 194.886636 
L 1061.602247 210.925436 
L 1064.648966 227.861641 
L 1067.695684 244.156099 
L 1070.742403 259.500225 
L 1073.789122 273.054122 
L 1076.83584 284.836542 
L 1079.882559 294.454289 
L 1082.929278 301.824076 
L 1085.975996 307.438368 
L 1089.022715 311.54932 
L 1092.069433 314.540341 
L 1095.116152 316.586154 
L 1098.162871 317.978388 
L 1101.209589 318.916058 
L 1104.256308 319.524041 
L 1110.349745 320.109516 
L 1116.443182 320.301446 
L 1128.630057 320.393342 
L 1153.003806 320.399995 
L 1153.003806 320.399995 
" clip-path="url(#p79e7565904)" style="fill: none; stroke: #1f77b4; stroke-width: 1.5; stroke-linecap: square"/>
   </g>
   <g id="line2d_60">
    <path d="M 985.956307 320.399993 
L 1002.578255 320.289628 
L 1005.34858 320.095889 
L 1008.118905 319.662802 
L 1010.196648 319.031997 
L 1012.274392 317.874091 
L 1012.966973 317.35795 
L 1014.352136 315.978391 
L 1015.044717 315.153888 
L 1016.429879 312.989563 
L 1017.12246 311.770414 
L 1018.507623 308.452931 
L 1019.200204 306.47047 
L 1020.585366 301.630524 
L 1021.970529 295.705191 
L 1023.355691 287.858857 
L 1024.740853 278.88341 
L 1026.126016 267.770127 
L 1027.511178 255.001451 
L 1029.588922 232.405428 
L 1031.666665 205.479394 
L 1033.744409 176.058038 
L 1037.899896 115.910596 
L 1039.285058 97.855475 
L 1040.670221 82.7727 
L 1042.055383 69.970589 
L 1042.747964 64.836458 
L 1043.440545 60.851005 
L 1044.133127 58.116309 
L 1044.825708 56.589393 
L 1046.21087 56.4 
L 1046.903451 57.959678 
L 1047.596032 61.155919 
L 1048.981195 69.292402 
L 1049.673776 74.129355 
L 1051.058938 88.38049 
L 1053.136682 112.730428 
L 1055.907007 151.50666 
L 1058.677331 190.939662 
L 1060.755075 218.139011 
L 1062.832819 242.364607 
L 1064.217981 256.068508 
L 1066.295724 273.931985 
L 1067.680887 283.412349 
L 1069.066049 291.112028 
L 1070.451212 297.820637 
L 1071.836374 303.052495 
L 1073.221536 307.247621 
L 1074.606699 310.515367 
L 1075.991861 313.079951 
L 1077.377023 315.050307 
L 1078.069605 315.90513 
L 1078.762186 316.555043 
L 1081.532511 318.417937 
L 1082.917673 318.973015 
L 1084.302835 319.430956 
L 1086.380579 319.827712 
L 1090.536066 320.209983 
L 1093.998972 320.326424 
L 1103.002527 320.395513 
L 1123.779963 320.399993 
L 1123.779963 320.399993 
" clip-path="url(#p79e7565904)" style="fill: none; stroke: #ff7f0e; stroke-width: 1.5; stroke-linecap: square"/>
   </g>
   <g id="line2d_61">
    <path d="M 982.205457 320.399993 
L 1000.551014 320.301901 
L 1003.948339 320.11344 
L 1005.986734 319.831441 
L 1008.02513 319.327631 
L 1009.38406 318.887336 
L 1010.74299 318.161012 
L 1012.10192 317.178488 
L 1013.46085 315.881123 
L 1014.81978 314.266398 
L 1016.17871 311.886081 
L 1016.858176 310.548189 
L 1017.537641 308.955899 
L 1018.896571 304.82876 
L 1020.255501 300.105203 
L 1021.614431 293.894788 
L 1022.973361 286.287412 
L 1024.332291 277.832156 
L 1025.691221 267.659982 
L 1027.050152 255.421414 
L 1028.409082 241.878978 
L 1030.447477 218.401373 
L 1033.844802 174.329761 
L 1037.921593 119.49943 
L 1039.280523 103.725659 
L 1041.318918 84.202639 
L 1041.998383 78.621204 
L 1042.677848 74.33294 
L 1044.036778 68.35292 
L 1044.716243 66.338012 
L 1045.395709 65.821032 
L 1046.075174 65.947011 
L 1046.754639 66.944659 
L 1048.793034 75.422868 
L 1050.151964 86.413975 
L 1051.510894 98.431855 
L 1052.190359 105.34729 
L 1054.228754 130.845395 
L 1056.26715 156.729793 
L 1060.34394 210.097233 
L 1062.382335 233.411673 
L 1063.741265 247.356302 
L 1065.100196 259.746665 
L 1066.459126 270.520664 
L 1067.818056 280.214509 
L 1069.176986 288.307471 
L 1070.535916 294.993342 
L 1071.215381 298.04307 
L 1072.574311 302.855875 
L 1073.933242 306.791274 
L 1075.292172 310.050942 
L 1076.651102 312.661899 
L 1078.010032 314.592368 
L 1080.048427 316.763776 
L 1082.086822 318.10205 
L 1083.445753 318.799805 
L 1085.484148 319.452633 
L 1088.202008 319.945314 
L 1092.278798 320.260137 
L 1098.393984 320.378444 
L 1117.419006 320.399993 
L 1117.419006 320.399993 
" clip-path="url(#p79e7565904)" style="fill: none; stroke: #2ca02c; stroke-width: 1.5; stroke-linecap: square"/>
   </g>
   <g id="line2d_62">
    <path d="M 514.67127 320.399997 
L 953.642385 320.272565 
L 963.397298 320.012437 
L 968.274755 319.734979 
L 973.152212 319.251557 
L 978.029669 318.462446 
L 982.907126 317.166222 
L 987.784582 315.037769 
L 992.662039 311.727072 
L 997.539496 306.778257 
L 1002.416953 299.804565 
L 1007.29441 290.452953 
L 1012.171867 278.269416 
L 1017.049323 264.343203 
L 1026.804237 232.762744 
L 1031.681694 217.84763 
L 1036.559151 205.695633 
L 1041.436608 197.36539 
L 1046.314064 194.393684 
L 1051.191521 196.883205 
L 1056.068978 204.518492 
L 1060.946435 216.592703 
L 1065.823892 231.797007 
L 1070.701349 248.605338 
L 1075.578805 264.84293 
L 1080.456262 279.735091 
L 1085.333719 291.99684 
L 1090.211176 301.485638 
L 1095.088633 308.54079 
L 1099.96609 313.265888 
L 1104.843546 316.288126 
L 1109.721003 318.140878 
L 1114.59846 319.182972 
L 1119.475917 319.785244 
L 1124.353374 320.102507 
L 1134.108287 320.324817 
L 1153.618115 320.397672 
L 1331.56 320.4 
L 1331.56 320.4 
" clip-path="url(#p79e7565904)" style="fill: none; stroke: #d62728; stroke-width: 1.5; stroke-linecap: square"/>
   </g>
   <g id="patch_15">
    <path d="M 894.214588 320.4 
L 894.214588 43.2 
" style="fill: none; stroke: #000000; stroke-width: 0.8; stroke-linejoin: miter; stroke-linecap: square"/>
   </g>
   <g id="patch_16">
    <path d="M 1197.504 320.4 
L 1197.504 43.2 
" style="fill: none; stroke: #000000; stroke-width: 0.8; stroke-linejoin: miter; stroke-linecap: square"/>
   </g>
   <g id="patch_17">
    <path d="M 894.214588 320.4 
L 1197.504 320.4 
" style="fill: none; stroke: #000000; stroke-width: 0.8; stroke-linejoin: miter; stroke-linecap: square"/>
   </g>
   <g id="patch_18">
    <path d="M 894.214588 43.2 
L 1197.504 43.2 
" style="fill: none; stroke: #000000; stroke-width: 0.8; stroke-linejoin: miter; stroke-linecap: square"/>
   </g>
   <g id="text_56">
    <!-- deep-image-96-angular -->
    <g transform="translate(975.138044 37.2)scale(0.12 -0.12)">
     <defs>
      <path id="DejaVuSans-64" d="M 2906 2969 
L 2906 4863 
L 3481 4863 
L 3481 0 
L 2906 0 
L 2906 525 
Q 2725 213 2448 61 
Q 2172 -91 1784 -91 
Q 1150 -91 751 415 
Q 353 922 353 1747 
Q 353 2572 751 3078 
Q 1150 3584 1784 3584 
Q 2172 3584 2448 3432 
Q 2725 3281 2906 2969 
z
M 947 1747 
Q 947 1113 1208 752 
Q 1469 391 1925 391 
Q 2381 391 2643 752 
Q 2906 1113 2906 1747 
Q 2906 2381 2643 2742 
Q 2381 3103 1925 3103 
Q 1469 3103 1208 2742 
Q 947 2381 947 1747 
z
" transform="scale(0.015625)"/>
      <path id="DejaVuSans-70" d="M 1159 525 
L 1159 -1331 
L 581 -1331 
L 581 3500 
L 1159 3500 
L 1159 2969 
Q 1341 3281 1617 3432 
Q 1894 3584 2278 3584 
Q 2916 3584 3314 3078 
Q 3713 2572 3713 1747 
Q 3713 922 3314 415 
Q 2916 -91 2278 -91 
Q 1894 -91 1617 61 
Q 1341 213 1159 525 
z
M 3116 1747 
Q 3116 2381 2855 2742 
Q 2594 3103 2138 3103 
Q 1681 3103 1420 2742 
Q 1159 2381 1159 1747 
Q 1159 1113 1420 752 
Q 1681 391 2138 391 
Q 2594 391 2855 752 
Q 3116 1113 3116 1747 
z
" transform="scale(0.015625)"/>
      <path id="DejaVuSans-39" d="M 703 97 
L 703 672 
Q 941 559 1184 500 
Q 1428 441 1663 441 
Q 2288 441 2617 861 
Q 2947 1281 2994 2138 
Q 2813 1869 2534 1725 
Q 2256 1581 1919 1581 
Q 1219 1581 811 2004 
Q 403 2428 403 3163 
Q 403 3881 828 4315 
Q 1253 4750 1959 4750 
Q 2769 4750 3195 4129 
Q 3622 3509 3622 2328 
Q 3622 1225 3098 567 
Q 2575 -91 1691 -91 
Q 1453 -91 1209 -44 
Q 966 3 703 97 
z
M 1959 2075 
Q 2384 2075 2632 2365 
Q 2881 2656 2881 3163 
Q 2881 3666 2632 3958 
Q 2384 4250 1959 4250 
Q 1534 4250 1286 3958 
Q 1038 3666 1038 3163 
Q 1038 2656 1286 2365 
Q 1534 2075 1959 2075 
z
" transform="scale(0.015625)"/>
     </defs>
     <use xlink:href="#DejaVuSans-64"/>
     <use xlink:href="#DejaVuSans-65" x="63.476562"/>
     <use xlink:href="#DejaVuSans-65" x="125"/>
     <use xlink:href="#DejaVuSans-70" x="186.523438"/>
     <use xlink:href="#DejaVuSans-2d" x="250"/>
     <use xlink:href="#DejaVuSans-69" x="286.083984"/>
     <use xlink:href="#DejaVuSans-6d" x="313.867188"/>
     <use xlink:href="#DejaVuSans-61" x="411.279297"/>
     <use xlink:href="#DejaVuSans-67" x="472.558594"/>
     <use xlink:href="#DejaVuSans-65" x="536.035156"/>
     <use xlink:href="#DejaVuSans-2d" x="597.558594"/>
     <use xlink:href="#DejaVuSans-39" x="633.642578"/>
     <use xlink:href="#DejaVuSans-36" x="697.265625"/>
     <use xlink:href="#DejaVuSans-2d" x="760.888672"/>
     <use xlink:href="#DejaVuSans-61" x="796.972656"/>
     <use xlink:href="#DejaVuSans-6e" x="858.251953"/>
     <use xlink:href="#DejaVuSans-67" x="921.630859"/>
     <use xlink:href="#DejaVuSans-75" x="985.107422"/>
     <use xlink:href="#DejaVuSans-6c" x="1048.486328"/>
     <use xlink:href="#DejaVuSans-61" x="1076.269531"/>
     <use xlink:href="#DejaVuSans-72" x="1137.548828"/>
    </g>
   </g>
   <g id="legend_3">
    <g id="patch_19">
     <path d="M 1123.639937 109.9125 
L 1190.504 109.9125 
Q 1192.504 109.9125 1192.504 107.9125 
L 1192.504 50.2 
Q 1192.504 48.2 1190.504 48.2 
L 1123.639937 48.2 
Q 1121.639937 48.2 1121.639937 50.2 
L 1121.639937 107.9125 
Q 1121.639937 109.9125 1123.639937 109.9125 
z
" style="fill: #ffffff; opacity: 0.8; stroke: #cccccc; stroke-linejoin: miter"/>
    </g>
    <g id="line2d_63">
     <path d="M 1125.639937 56.298437 
L 1135.639937 56.298437 
L 1145.639937 56.298437 
" style="fill: none; stroke: #1f77b4; stroke-width: 1.5; stroke-linecap: square"/>
    </g>
    <g id="text_57">
     <!-- M16P -->
     <g transform="translate(1153.639937 59.798437)scale(0.1 -0.1)">
      <use xlink:href="#DejaVuSans-4d"/>
      <use xlink:href="#DejaVuSans-31" x="86.279297"/>
      <use xlink:href="#DejaVuSans-36" x="149.902344"/>
      <use xlink:href="#DejaVuSans-50" x="213.525391"/>
     </g>
    </g>
    <g id="line2d_64">
     <path d="M 1125.639937 70.976562 
L 1135.639937 70.976562 
L 1145.639937 70.976562 
" style="fill: none; stroke: #ff7f0e; stroke-width: 1.5; stroke-linecap: square"/>
    </g>
    <g id="text_58">
     <!-- M16NP -->
     <g transform="translate(1153.639937 74.476562)scale(0.1 -0.1)">
      <use xlink:href="#DejaVuSans-4d"/>
      <use xlink:href="#DejaVuSans-31" x="86.279297"/>
      <use xlink:href="#DejaVuSans-36" x="149.902344"/>
      <use xlink:href="#DejaVuSans-4e" x="213.525391"/>
      <use xlink:href="#DejaVuSans-50" x="288.330078"/>
     </g>
    </g>
    <g id="line2d_65">
     <path d="M 1125.639937 85.654687 
L 1135.639937 85.654687 
L 1145.639937 85.654687 
" style="fill: none; stroke: #2ca02c; stroke-width: 1.5; stroke-linecap: square"/>
    </g>
    <g id="text_59">
     <!-- E16NP -->
     <g transform="translate(1153.639937 89.154687)scale(0.1 -0.1)">
      <use xlink:href="#DejaVuSans-45"/>
      <use xlink:href="#DejaVuSans-31" x="63.183594"/>
      <use xlink:href="#DejaVuSans-36" x="126.806641"/>
      <use xlink:href="#DejaVuSans-4e" x="190.429688"/>
      <use xlink:href="#DejaVuSans-50" x="265.234375"/>
     </g>
    </g>
    <g id="line2d_66">
     <path d="M 1125.639937 100.332812 
L 1135.639937 100.332812 
L 1145.639937 100.332812 
" style="fill: none; stroke: #d62728; stroke-width: 1.5; stroke-linecap: square"/>
    </g>
    <g id="text_60">
     <!-- E16P -->
     <g transform="translate(1153.639937 103.832812)scale(0.1 -0.1)">
      <use xlink:href="#DejaVuSans-45"/>
      <use xlink:href="#DejaVuSans-31" x="63.183594"/>
      <use xlink:href="#DejaVuSans-36" x="126.806641"/>
      <use xlink:href="#DejaVuSans-50" x="190.429688"/>
     </g>
    </g>
   </g>
  </g>
  <g id="text_61">
   <!-- Estimation errors -->
   <g transform="translate(613.774688 16.318125)scale(0.12 -0.12)">
    <defs>
     <path id="DejaVuSans-20" transform="scale(0.015625)"/>
    </defs>
    <use xlink:href="#DejaVuSans-45"/>
    <use xlink:href="#DejaVuSans-73" x="63.183594"/>
    <use xlink:href="#DejaVuSans-74" x="115.283203"/>
    <use xlink:href="#DejaVuSans-69" x="154.492188"/>
    <use xlink:href="#DejaVuSans-6d" x="182.275391"/>
    <use xlink:href="#DejaVuSans-61" x="279.6875"/>
    <use xlink:href="#DejaVuSans-74" x="340.966797"/>
    <use xlink:href="#DejaVuSans-69" x="380.175781"/>
    <use xlink:href="#DejaVuSans-6f" x="407.958984"/>
    <use xlink:href="#DejaVuSans-6e" x="469.140625"/>
    <use xlink:href="#DejaVuSans-20" x="532.519531"/>
    <use xlink:href="#DejaVuSans-65" x="564.306641"/>
    <use xlink:href="#DejaVuSans-72" x="625.830078"/>
    <use xlink:href="#DejaVuSans-72" x="665.193359"/>
    <use xlink:href="#DejaVuSans-6f" x="704.056641"/>
    <use xlink:href="#DejaVuSans-72" x="765.238281"/>
    <use xlink:href="#DejaVuSans-73" x="806.351562"/>
   </g>
  </g>
 </g>
 <defs>
  <clipPath id="pc16218266e">
   <rect x="166.32" y="43.2" width="303.289412" height="277.2"/>
  </clipPath>
  <clipPath id="p40ccfb546f">
   <rect x="530.267294" y="43.2" width="303.289412" height="277.2"/>
  </clipPath>
  <clipPath id="p79e7565904">
   <rect x="894.214588" y="43.2" width="303.289412" height="277.2"/>
  </clipPath>
 </defs>
</svg>
