<?xml version="1.0" encoding="utf-8" standalone="no"?>
<!DOCTYPE svg PUBLIC "-//W3C//DTD SVG 1.1//EN"
  "http://www.w3.org/Graphics/SVG/1.1/DTD/svg11.dtd">
<svg xmlns:xlink="http://www.w3.org/1999/xlink" width="1330.56pt" height="360pt" viewBox="0 0 1330.56 360" xmlns="http://www.w3.org/2000/svg" version="1.1">
 <metadata>
  <rdf:RDF xmlns:dc="http://purl.org/dc/elements/1.1/" xmlns:cc="http://creativecommons.org/ns#" xmlns:rdf="http://www.w3.org/1999/02/22-rdf-syntax-ns#">
   <cc:Work>
    <dc:type rdf:resource="http://purl.org/dc/dcmitype/StillImage"/>
    <dc:date>2022-05-08T15:31:45.907341</dc:date>
    <dc:format>image/svg+xml</dc:format>
    <dc:creator>
     <cc:Agent>
      <dc:title>Matplotlib v3.5.1, https://matplotlib.org/</dc:title>
     </cc:Agent>
    </dc:creator>
   </cc:Work>
  </rdf:RDF>
 </metadata>
 <defs>
  <style type="text/css">*{stroke-linejoin: round; stroke-linecap: butt}</style>
 </defs>
 <g id="figure_1">
  <g id="patch_1">
   <path d="M 0 360 
L 1330.56 360 
L 1330.56 0 
L 0 0 
z
" style="fill: #ffffff"/>
  </g>
  <g id="axes_1">
   <g id="patch_2">
    <path d="M 66.528 342 
L 457.38 342 
L 457.38 18 
L 66.528 18 
z
" style="fill: #ffffff"/>
   </g>
   <g id="matplotlib.axis_1">
    <g id="xtick_1">
     <g id="line2d_1">
      <defs>
       <path id="m200f8a5eb4" d="M 0 0 
L 0 3.5 
" style="stroke: #000000; stroke-width: 0.8"/>
      </defs>
      <g>
       <use xlink:href="#m200f8a5eb4" x="66.528" y="342" style="stroke: #000000; stroke-width: 0.8"/>
      </g>
     </g>
     <g id="text_1">
      <!-- −0.6 -->
      <g transform="translate(54.386594 356.598437)scale(0.1 -0.1)">
       <defs>
        <path id="DejaVuSans-2212" d="M 678 2272 
L 4684 2272 
L 4684 1741 
L 678 1741 
L 678 2272 
z
" transform="scale(0.015625)"/>
        <path id="DejaVuSans-30" d="M 2034 4250 
Q 1547 4250 1301 3770 
Q 1056 3291 1056 2328 
Q 1056 1369 1301 889 
Q 1547 409 2034 409 
Q 2525 409 2770 889 
Q 3016 1369 3016 2328 
Q 3016 3291 2770 3770 
Q 2525 4250 2034 4250 
z
M 2034 4750 
Q 2819 4750 3233 4129 
Q 3647 3509 3647 2328 
Q 3647 1150 3233 529 
Q 2819 -91 2034 -91 
Q 1250 -91 836 529 
Q 422 1150 422 2328 
Q 422 3509 836 4129 
Q 1250 4750 2034 4750 
z
" transform="scale(0.015625)"/>
        <path id="DejaVuSans-2e" d="M 684 794 
L 1344 794 
L 1344 0 
L 684 0 
L 684 794 
z
" transform="scale(0.015625)"/>
        <path id="DejaVuSans-36" d="M 2113 2584 
Q 1688 2584 1439 2293 
Q 1191 2003 1191 1497 
Q 1191 994 1439 701 
Q 1688 409 2113 409 
Q 2538 409 2786 701 
Q 3034 994 3034 1497 
Q 3034 2003 2786 2293 
Q 2538 2584 2113 2584 
z
M 3366 4563 
L 3366 3988 
Q 3128 4100 2886 4159 
Q 2644 4219 2406 4219 
Q 1781 4219 1451 3797 
Q 1122 3375 1075 2522 
Q 1259 2794 1537 2939 
Q 1816 3084 2150 3084 
Q 2853 3084 3261 2657 
Q 3669 2231 3669 1497 
Q 3669 778 3244 343 
Q 2819 -91 2113 -91 
Q 1303 -91 875 529 
Q 447 1150 447 2328 
Q 447 3434 972 4092 
Q 1497 4750 2381 4750 
Q 2619 4750 2861 4703 
Q 3103 4656 3366 4563 
z
" transform="scale(0.015625)"/>
       </defs>
       <use xlink:href="#DejaVuSans-2212"/>
       <use xlink:href="#DejaVuSans-30" x="83.789062"/>
       <use xlink:href="#DejaVuSans-2e" x="147.412109"/>
       <use xlink:href="#DejaVuSans-36" x="179.199219"/>
      </g>
     </g>
    </g>
    <g id="xtick_2">
     <g id="line2d_2">
      <g>
       <use xlink:href="#m200f8a5eb4" x="131.67" y="342" style="stroke: #000000; stroke-width: 0.8"/>
      </g>
     </g>
     <g id="text_2">
      <!-- −0.4 -->
      <g transform="translate(119.528594 356.598437)scale(0.1 -0.1)">
       <defs>
        <path id="DejaVuSans-34" d="M 2419 4116 
L 825 1625 
L 2419 1625 
L 2419 4116 
z
M 2253 4666 
L 3047 4666 
L 3047 1625 
L 3713 1625 
L 3713 1100 
L 3047 1100 
L 3047 0 
L 2419 0 
L 2419 1100 
L 313 1100 
L 313 1709 
L 2253 4666 
z
" transform="scale(0.015625)"/>
       </defs>
       <use xlink:href="#DejaVuSans-2212"/>
       <use xlink:href="#DejaVuSans-30" x="83.789062"/>
       <use xlink:href="#DejaVuSans-2e" x="147.412109"/>
       <use xlink:href="#DejaVuSans-34" x="179.199219"/>
      </g>
     </g>
    </g>
    <g id="xtick_3">
     <g id="line2d_3">
      <g>
       <use xlink:href="#m200f8a5eb4" x="196.812" y="342" style="stroke: #000000; stroke-width: 0.8"/>
      </g>
     </g>
     <g id="text_3">
      <!-- −0.2 -->
      <g transform="translate(184.670594 356.598437)scale(0.1 -0.1)">
       <defs>
        <path id="DejaVuSans-32" d="M 1228 531 
L 3431 531 
L 3431 0 
L 469 0 
L 469 531 
Q 828 903 1448 1529 
Q 2069 2156 2228 2338 
Q 2531 2678 2651 2914 
Q 2772 3150 2772 3378 
Q 2772 3750 2511 3984 
Q 2250 4219 1831 4219 
Q 1534 4219 1204 4116 
Q 875 4013 500 3803 
L 500 4441 
Q 881 4594 1212 4672 
Q 1544 4750 1819 4750 
Q 2544 4750 2975 4387 
Q 3406 4025 3406 3419 
Q 3406 3131 3298 2873 
Q 3191 2616 2906 2266 
Q 2828 2175 2409 1742 
Q 1991 1309 1228 531 
z
" transform="scale(0.015625)"/>
       </defs>
       <use xlink:href="#DejaVuSans-2212"/>
       <use xlink:href="#DejaVuSans-30" x="83.789062"/>
       <use xlink:href="#DejaVuSans-2e" x="147.412109"/>
       <use xlink:href="#DejaVuSans-32" x="179.199219"/>
      </g>
     </g>
    </g>
    <g id="xtick_4">
     <g id="line2d_4">
      <g>
       <use xlink:href="#m200f8a5eb4" x="261.954" y="342" style="stroke: #000000; stroke-width: 0.8"/>
      </g>
     </g>
     <g id="text_4">
      <!-- 0.0 -->
      <g transform="translate(254.002437 356.598437)scale(0.1 -0.1)">
       <use xlink:href="#DejaVuSans-30"/>
       <use xlink:href="#DejaVuSans-2e" x="63.623047"/>
       <use xlink:href="#DejaVuSans-30" x="95.410156"/>
      </g>
     </g>
    </g>
    <g id="xtick_5">
     <g id="line2d_5">
      <g>
       <use xlink:href="#m200f8a5eb4" x="327.096" y="342" style="stroke: #000000; stroke-width: 0.8"/>
      </g>
     </g>
     <g id="text_5">
      <!-- 0.2 -->
      <g transform="translate(319.144437 356.598437)scale(0.1 -0.1)">
       <use xlink:href="#DejaVuSans-30"/>
       <use xlink:href="#DejaVuSans-2e" x="63.623047"/>
       <use xlink:href="#DejaVuSans-32" x="95.410156"/>
      </g>
     </g>
    </g>
    <g id="xtick_6">
     <g id="line2d_6">
      <g>
       <use xlink:href="#m200f8a5eb4" x="392.238" y="342" style="stroke: #000000; stroke-width: 0.8"/>
      </g>
     </g>
     <g id="text_6">
      <!-- 0.4 -->
      <g transform="translate(384.286437 356.598437)scale(0.1 -0.1)">
       <use xlink:href="#DejaVuSans-30"/>
       <use xlink:href="#DejaVuSans-2e" x="63.623047"/>
       <use xlink:href="#DejaVuSans-34" x="95.410156"/>
      </g>
     </g>
    </g>
    <g id="xtick_7">
     <g id="line2d_7">
      <g>
       <use xlink:href="#m200f8a5eb4" x="457.38" y="342" style="stroke: #000000; stroke-width: 0.8"/>
      </g>
     </g>
     <g id="text_7">
      <!-- 0.6 -->
      <g transform="translate(449.428437 356.598437)scale(0.1 -0.1)">
       <use xlink:href="#DejaVuSans-30"/>
       <use xlink:href="#DejaVuSans-2e" x="63.623047"/>
       <use xlink:href="#DejaVuSans-36" x="95.410156"/>
      </g>
     </g>
    </g>
   </g>
   <g id="matplotlib.axis_2">
    <g id="ytick_1">
     <g id="line2d_8">
      <defs>
       <path id="m70e4e3e0bb" d="M 0 0 
L -3.5 0 
" style="stroke: #000000; stroke-width: 0.8"/>
      </defs>
      <g>
       <use xlink:href="#m70e4e3e0bb" x="66.528" y="342" style="stroke: #000000; stroke-width: 0.8"/>
      </g>
     </g>
     <g id="text_8">
      <!-- 0 -->
      <g transform="translate(53.1655 345.799219)scale(0.1 -0.1)">
       <use xlink:href="#DejaVuSans-30"/>
      </g>
     </g>
    </g>
    <g id="ytick_2">
     <g id="line2d_9">
      <g>
       <use xlink:href="#m70e4e3e0bb" x="66.528" y="272.542812" style="stroke: #000000; stroke-width: 0.8"/>
      </g>
     </g>
     <g id="text_9">
      <!-- 2 -->
      <g transform="translate(53.1655 276.342031)scale(0.1 -0.1)">
       <use xlink:href="#DejaVuSans-32"/>
      </g>
     </g>
    </g>
    <g id="ytick_3">
     <g id="line2d_10">
      <g>
       <use xlink:href="#m70e4e3e0bb" x="66.528" y="203.085625" style="stroke: #000000; stroke-width: 0.8"/>
      </g>
     </g>
     <g id="text_10">
      <!-- 4 -->
      <g transform="translate(53.1655 206.884843)scale(0.1 -0.1)">
       <use xlink:href="#DejaVuSans-34"/>
      </g>
     </g>
    </g>
    <g id="ytick_4">
     <g id="line2d_11">
      <g>
       <use xlink:href="#m70e4e3e0bb" x="66.528" y="133.628437" style="stroke: #000000; stroke-width: 0.8"/>
      </g>
     </g>
     <g id="text_11">
      <!-- 6 -->
      <g transform="translate(53.1655 137.427656)scale(0.1 -0.1)">
       <use xlink:href="#DejaVuSans-36"/>
      </g>
     </g>
    </g>
    <g id="ytick_5">
     <g id="line2d_12">
      <g>
       <use xlink:href="#m70e4e3e0bb" x="66.528" y="64.171249" style="stroke: #000000; stroke-width: 0.8"/>
      </g>
     </g>
     <g id="text_12">
      <!-- 8 -->
      <g transform="translate(53.1655 67.970468)scale(0.1 -0.1)">
       <defs>
        <path id="DejaVuSans-38" d="M 2034 2216 
Q 1584 2216 1326 1975 
Q 1069 1734 1069 1313 
Q 1069 891 1326 650 
Q 1584 409 2034 409 
Q 2484 409 2743 651 
Q 3003 894 3003 1313 
Q 3003 1734 2745 1975 
Q 2488 2216 2034 2216 
z
M 1403 2484 
Q 997 2584 770 2862 
Q 544 3141 544 3541 
Q 544 4100 942 4425 
Q 1341 4750 2034 4750 
Q 2731 4750 3128 4425 
Q 3525 4100 3525 3541 
Q 3525 3141 3298 2862 
Q 3072 2584 2669 2484 
Q 3125 2378 3379 2068 
Q 3634 1759 3634 1313 
Q 3634 634 3220 271 
Q 2806 -91 2034 -91 
Q 1263 -91 848 271 
Q 434 634 434 1313 
Q 434 1759 690 2068 
Q 947 2378 1403 2484 
z
M 1172 3481 
Q 1172 3119 1398 2916 
Q 1625 2713 2034 2713 
Q 2441 2713 2670 2916 
Q 2900 3119 2900 3481 
Q 2900 3844 2670 4047 
Q 2441 4250 2034 4250 
Q 1625 4250 1398 4047 
Q 1172 3844 1172 3481 
z
" transform="scale(0.015625)"/>
       </defs>
       <use xlink:href="#DejaVuSans-38"/>
      </g>
     </g>
    </g>
   </g>
   <g id="line2d_13">
    <path d="M 261.954 342 
L 261.954 18 
" clip-path="url(#pda6a459be9)" style="fill: none; stroke-dasharray: 5.55,2.4; stroke-dashoffset: 0; stroke: #1f77b4; stroke-width: 1.5"/>
   </g>
   <g id="line2d_14">
    <path d="M -1 342 
L 123.321143 341.91108 
L 134.686545 341.725059 
L 142.263479 341.468723 
L 149.840414 340.961282 
L 153.628881 340.602833 
L 161.205816 339.463835 
L 164.994283 338.624947 
L 168.78275 337.579838 
L 172.571218 336.265109 
L 176.359685 334.67965 
L 180.148152 332.661809 
L 183.93662 330.273095 
L 187.725087 327.397882 
L 191.513554 323.979639 
L 195.302021 319.920289 
L 199.090489 315.588841 
L 202.878956 310.23493 
L 206.667423 304.459418 
L 210.455891 298.015152 
L 214.244358 291.114815 
L 221.821293 276.061025 
L 233.186694 251.930499 
L 236.975162 244.323322 
L 240.763629 237.137539 
L 244.552096 230.870491 
L 248.340564 224.952147 
L 252.129031 220.582763 
L 255.917498 217.407435 
L 259.705966 215.278207 
L 263.494433 214.748304 
L 267.2829 215.622903 
L 271.071368 218.027789 
L 274.859835 221.497477 
L 278.648302 226.888208 
L 282.436769 232.609758 
L 286.225237 239.810129 
L 297.590639 263.641122 
L 301.379106 272.182301 
L 308.956041 288.348933 
L 312.744508 295.74989 
L 316.532975 302.557554 
L 320.321442 309.040661 
L 324.10991 314.562348 
L 327.898377 319.675331 
L 331.686844 323.927197 
L 335.475312 327.625476 
L 339.263779 330.741551 
L 343.052246 333.241199 
L 346.840714 335.210999 
L 350.629181 336.86745 
L 354.417648 338.196896 
L 358.206116 339.186573 
L 361.994583 339.976363 
L 365.78305 340.53914 
L 373.359985 341.253067 
L 380.936919 341.657423 
L 392.302321 341.898237 
L 407.456191 341.983178 
L 449.129331 341.999996 
L 449.129331 341.999996 
" clip-path="url(#pda6a459be9)" style="fill: none; stroke: #1f77b4; stroke-width: 1.5; stroke-linecap: square"/>
   </g>
   <g id="line2d_15">
    <path d="M -1 342 
L 158.612165 341.895404 
L 168.871544 341.664658 
L 175.71113 341.302021 
L 179.130923 340.957689 
L 182.550716 340.475463 
L 185.970509 339.819036 
L 189.390302 338.832192 
L 192.810096 337.623255 
L 196.229889 335.785176 
L 199.649682 333.38795 
L 203.069475 330.177087 
L 206.489268 326.002757 
L 209.909061 320.796903 
L 213.328854 314.219979 
L 216.748647 306.23551 
L 220.16844 296.631064 
L 223.588233 286.024473 
L 227.008026 273.820021 
L 230.427819 260.418219 
L 244.106991 203.377801 
L 247.526785 190.299331 
L 250.946578 179.751667 
L 254.366371 171.872276 
L 257.786164 166.079164 
L 261.205957 163.570869 
L 264.62575 164.134741 
L 268.045543 167.962226 
L 271.465336 174.378337 
L 274.885129 184.379923 
L 278.304922 195.765079 
L 281.724715 208.574908 
L 288.564301 238.07523 
L 295.403887 267.284817 
L 298.823681 280.311004 
L 302.243474 292.379175 
L 305.663267 302.751441 
L 309.08306 311.629854 
L 312.502853 318.995087 
L 315.922646 324.828983 
L 319.342439 329.444664 
L 322.762232 332.937487 
L 326.182025 335.641248 
L 329.601818 337.57922 
L 333.021611 338.931952 
L 336.441404 339.953985 
L 343.28099 341.051485 
L 346.700783 341.380192 
L 353.54037 341.714382 
L 363.799749 341.932231 
L 401.417472 341.999586 
L 404.837265 341.999995 
L 404.837265 341.999995 
" clip-path="url(#pda6a459be9)" style="fill: none; stroke: #ff7f0e; stroke-width: 1.5; stroke-linecap: square"/>
   </g>
   <g id="line2d_16">
    <path d="M -1 342 
L 124.063591 341.914787 
L 138.05575 341.680257 
L 145.05183 341.397792 
L 152.04791 340.930134 
L 155.54595 340.583145 
L 162.542029 339.453708 
L 166.040069 338.713632 
L 169.538109 337.760945 
L 173.036149 336.614697 
L 180.032229 333.414742 
L 183.530269 331.225085 
L 187.028309 328.761267 
L 190.526349 325.852202 
L 194.024389 322.347642 
L 197.522428 318.409984 
L 201.020468 313.678459 
L 204.518508 308.681456 
L 208.016548 303.135097 
L 211.514588 296.918346 
L 215.012628 290.227592 
L 218.510668 283.268672 
L 225.506748 268.029314 
L 232.502828 252.81609 
L 239.498907 237.934734 
L 242.996947 231.711033 
L 246.494987 225.9154 
L 249.993027 221.140182 
L 253.491067 217.160648 
L 256.989107 214.829746 
L 260.487147 213.105465 
L 263.985187 213.023162 
L 267.483227 213.933689 
L 270.981266 216.399469 
L 274.479306 220.148584 
L 277.977346 225.00396 
L 281.475386 230.404257 
L 284.973426 236.901551 
L 288.471466 243.95189 
L 291.969506 251.52539 
L 295.467546 259.531003 
L 302.463626 275.001718 
L 305.961665 282.775661 
L 309.459705 290.124746 
L 312.957745 297.004836 
L 316.455785 303.41803 
L 319.953825 309.177214 
L 323.451865 314.523538 
L 326.949905 319.311623 
L 330.447945 323.256295 
L 333.945985 326.716709 
L 337.444025 329.829534 
L 340.942064 332.293652 
L 344.440104 334.306419 
L 347.938144 336.050007 
L 351.436184 337.452854 
L 354.934224 338.508746 
L 358.432264 339.376176 
L 365.428344 340.610047 
L 372.424424 341.245804 
L 379.420503 341.617774 
L 389.914623 341.872869 
L 403.906783 341.974708 
L 452.879341 341.999996 
L 452.879341 341.999996 
" clip-path="url(#pda6a459be9)" style="fill: none; stroke: #2ca02c; stroke-width: 1.5; stroke-linecap: square"/>
   </g>
   <g id="line2d_17">
    <path d="M -1 342 
L 144.675067 341.898302 
L 155.385725 341.681126 
L 162.526163 341.373884 
L 169.666601 340.711702 
L 173.23682 340.270306 
L 176.807039 339.59808 
L 180.377258 338.734755 
L 183.947477 337.660799 
L 187.517697 335.981856 
L 191.087916 333.91826 
L 194.658135 331.362381 
L 198.228354 328.101128 
L 201.798573 323.666434 
L 205.368792 318.58329 
L 208.939011 312.6213 
L 212.50923 305.57801 
L 216.079449 297.509658 
L 223.219887 278.055518 
L 226.790107 267.43417 
L 237.500764 233.200248 
L 241.070983 222.779816 
L 244.641202 212.707546 
L 248.211421 204.403559 
L 251.78164 197.582161 
L 255.351859 192.571929 
L 258.922078 189.153091 
L 262.492297 188.246391 
L 266.062517 189.482489 
L 269.632736 192.510791 
L 273.202955 197.999475 
L 276.773174 205.207265 
L 280.343393 214.026486 
L 283.913612 224.195421 
L 287.483831 234.796693 
L 291.05405 246.640054 
L 294.624269 257.52871 
L 298.194488 269.230611 
L 301.764707 279.997299 
L 305.334927 290.382786 
L 308.905146 299.640015 
L 312.475365 307.750492 
L 316.045584 314.75364 
L 319.615803 320.681819 
L 323.186022 325.695085 
L 326.756241 329.568777 
L 330.32646 332.689284 
L 333.896679 335.116765 
L 337.466898 336.905571 
L 341.037117 338.245653 
L 344.607336 339.366429 
L 348.177556 340.083306 
L 351.747775 340.610903 
L 355.317994 341.00539 
L 362.458432 341.479244 
L 369.59887 341.729929 
L 380.309527 341.904496 
L 401.730842 341.986497 
L 437.433033 341.999996 
L 437.433033 341.999996 
" clip-path="url(#pda6a459be9)" style="fill: none; stroke: #d62728; stroke-width: 1.5; stroke-linecap: square"/>
   </g>
   <g id="patch_3">
    <path d="M 66.528 342 
L 66.528 18 
" style="fill: none; stroke: #000000; stroke-width: 0.8; stroke-linejoin: miter; stroke-linecap: square"/>
   </g>
   <g id="patch_4">
    <path d="M 457.38 342 
L 457.38 18 
" style="fill: none; stroke: #000000; stroke-width: 0.8; stroke-linejoin: miter; stroke-linecap: square"/>
   </g>
   <g id="patch_5">
    <path d="M 66.528 342 
L 457.38 342 
" style="fill: none; stroke: #000000; stroke-width: 0.8; stroke-linejoin: miter; stroke-linecap: square"/>
   </g>
   <g id="patch_6">
    <path d="M 66.528 18 
L 457.38 18 
" style="fill: none; stroke: #000000; stroke-width: 0.8; stroke-linejoin: miter; stroke-linecap: square"/>
   </g>
   <g id="text_13">
    <!-- glove-100-angular -->
    <g transform="translate(206.880562 12)scale(0.12 -0.12)">
     <defs>
      <path id="DejaVuSans-67" d="M 2906 1791 
Q 2906 2416 2648 2759 
Q 2391 3103 1925 3103 
Q 1463 3103 1205 2759 
Q 947 2416 947 1791 
Q 947 1169 1205 825 
Q 1463 481 1925 481 
Q 2391 481 2648 825 
Q 2906 1169 2906 1791 
z
M 3481 434 
Q 3481 -459 3084 -895 
Q 2688 -1331 1869 -1331 
Q 1566 -1331 1297 -1286 
Q 1028 -1241 775 -1147 
L 775 -588 
Q 1028 -725 1275 -790 
Q 1522 -856 1778 -856 
Q 2344 -856 2625 -561 
Q 2906 -266 2906 331 
L 2906 616 
Q 2728 306 2450 153 
Q 2172 0 1784 0 
Q 1141 0 747 490 
Q 353 981 353 1791 
Q 353 2603 747 3093 
Q 1141 3584 1784 3584 
Q 2172 3584 2450 3431 
Q 2728 3278 2906 2969 
L 2906 3500 
L 3481 3500 
L 3481 434 
z
" transform="scale(0.015625)"/>
      <path id="DejaVuSans-6c" d="M 603 4863 
L 1178 4863 
L 1178 0 
L 603 0 
L 603 4863 
z
" transform="scale(0.015625)"/>
      <path id="DejaVuSans-6f" d="M 1959 3097 
Q 1497 3097 1228 2736 
Q 959 2375 959 1747 
Q 959 1119 1226 758 
Q 1494 397 1959 397 
Q 2419 397 2687 759 
Q 2956 1122 2956 1747 
Q 2956 2369 2687 2733 
Q 2419 3097 1959 3097 
z
M 1959 3584 
Q 2709 3584 3137 3096 
Q 3566 2609 3566 1747 
Q 3566 888 3137 398 
Q 2709 -91 1959 -91 
Q 1206 -91 779 398 
Q 353 888 353 1747 
Q 353 2609 779 3096 
Q 1206 3584 1959 3584 
z
" transform="scale(0.015625)"/>
      <path id="DejaVuSans-76" d="M 191 3500 
L 800 3500 
L 1894 563 
L 2988 3500 
L 3597 3500 
L 2284 0 
L 1503 0 
L 191 3500 
z
" transform="scale(0.015625)"/>
      <path id="DejaVuSans-65" d="M 3597 1894 
L 3597 1613 
L 953 1613 
Q 991 1019 1311 708 
Q 1631 397 2203 397 
Q 2534 397 2845 478 
Q 3156 559 3463 722 
L 3463 178 
Q 3153 47 2828 -22 
Q 2503 -91 2169 -91 
Q 1331 -91 842 396 
Q 353 884 353 1716 
Q 353 2575 817 3079 
Q 1281 3584 2069 3584 
Q 2775 3584 3186 3129 
Q 3597 2675 3597 1894 
z
M 3022 2063 
Q 3016 2534 2758 2815 
Q 2500 3097 2075 3097 
Q 1594 3097 1305 2825 
Q 1016 2553 972 2059 
L 3022 2063 
z
" transform="scale(0.015625)"/>
      <path id="DejaVuSans-2d" d="M 313 2009 
L 1997 2009 
L 1997 1497 
L 313 1497 
L 313 2009 
z
" transform="scale(0.015625)"/>
      <path id="DejaVuSans-31" d="M 794 531 
L 1825 531 
L 1825 4091 
L 703 3866 
L 703 4441 
L 1819 4666 
L 2450 4666 
L 2450 531 
L 3481 531 
L 3481 0 
L 794 0 
L 794 531 
z
" transform="scale(0.015625)"/>
      <path id="DejaVuSans-61" d="M 2194 1759 
Q 1497 1759 1228 1600 
Q 959 1441 959 1056 
Q 959 750 1161 570 
Q 1363 391 1709 391 
Q 2188 391 2477 730 
Q 2766 1069 2766 1631 
L 2766 1759 
L 2194 1759 
z
M 3341 1997 
L 3341 0 
L 2766 0 
L 2766 531 
Q 2569 213 2275 61 
Q 1981 -91 1556 -91 
Q 1019 -91 701 211 
Q 384 513 384 1019 
Q 384 1609 779 1909 
Q 1175 2209 1959 2209 
L 2766 2209 
L 2766 2266 
Q 2766 2663 2505 2880 
Q 2244 3097 1772 3097 
Q 1472 3097 1187 3025 
Q 903 2953 641 2809 
L 641 3341 
Q 956 3463 1253 3523 
Q 1550 3584 1831 3584 
Q 2591 3584 2966 3190 
Q 3341 2797 3341 1997 
z
" transform="scale(0.015625)"/>
      <path id="DejaVuSans-6e" d="M 3513 2113 
L 3513 0 
L 2938 0 
L 2938 2094 
Q 2938 2591 2744 2837 
Q 2550 3084 2163 3084 
Q 1697 3084 1428 2787 
Q 1159 2491 1159 1978 
L 1159 0 
L 581 0 
L 581 3500 
L 1159 3500 
L 1159 2956 
Q 1366 3272 1645 3428 
Q 1925 3584 2291 3584 
Q 2894 3584 3203 3211 
Q 3513 2838 3513 2113 
z
" transform="scale(0.015625)"/>
      <path id="DejaVuSans-75" d="M 544 1381 
L 544 3500 
L 1119 3500 
L 1119 1403 
Q 1119 906 1312 657 
Q 1506 409 1894 409 
Q 2359 409 2629 706 
Q 2900 1003 2900 1516 
L 2900 3500 
L 3475 3500 
L 3475 0 
L 2900 0 
L 2900 538 
Q 2691 219 2414 64 
Q 2138 -91 1772 -91 
Q 1169 -91 856 284 
Q 544 659 544 1381 
z
M 1991 3584 
L 1991 3584 
z
" transform="scale(0.015625)"/>
      <path id="DejaVuSans-72" d="M 2631 2963 
Q 2534 3019 2420 3045 
Q 2306 3072 2169 3072 
Q 1681 3072 1420 2755 
Q 1159 2438 1159 1844 
L 1159 0 
L 581 0 
L 581 3500 
L 1159 3500 
L 1159 2956 
Q 1341 3275 1631 3429 
Q 1922 3584 2338 3584 
Q 2397 3584 2469 3576 
Q 2541 3569 2628 3553 
L 2631 2963 
z
" transform="scale(0.015625)"/>
     </defs>
     <use xlink:href="#DejaVuSans-67"/>
     <use xlink:href="#DejaVuSans-6c" x="63.476562"/>
     <use xlink:href="#DejaVuSans-6f" x="91.259766"/>
     <use xlink:href="#DejaVuSans-76" x="152.441406"/>
     <use xlink:href="#DejaVuSans-65" x="211.621094"/>
     <use xlink:href="#DejaVuSans-2d" x="273.144531"/>
     <use xlink:href="#DejaVuSans-31" x="309.228516"/>
     <use xlink:href="#DejaVuSans-30" x="372.851562"/>
     <use xlink:href="#DejaVuSans-30" x="436.474609"/>
     <use xlink:href="#DejaVuSans-2d" x="500.097656"/>
     <use xlink:href="#DejaVuSans-61" x="536.181641"/>
     <use xlink:href="#DejaVuSans-6e" x="597.460938"/>
     <use xlink:href="#DejaVuSans-67" x="660.839844"/>
     <use xlink:href="#DejaVuSans-75" x="724.316406"/>
     <use xlink:href="#DejaVuSans-6c" x="787.695312"/>
     <use xlink:href="#DejaVuSans-61" x="815.478516"/>
     <use xlink:href="#DejaVuSans-72" x="876.757812"/>
    </g>
   </g>
   <g id="legend_1">
    <g id="patch_7">
     <path d="M 352.93 85.825 
L 450.38 85.825 
Q 452.38 85.825 452.38 83.825 
L 452.38 25 
Q 452.38 23 450.38 23 
L 352.93 23 
Q 350.93 23 350.93 25 
L 350.93 83.825 
Q 350.93 85.825 352.93 85.825 
z
" style="fill: #ffffff; opacity: 0.8; stroke: #cccccc; stroke-linejoin: miter"/>
    </g>
    <g id="line2d_18">
     <path d="M 354.93 31.098437 
L 364.93 31.098437 
L 374.93 31.098437 
" style="fill: none; stroke: #1f77b4; stroke-width: 1.5; stroke-linecap: square"/>
    </g>
    <g id="text_14">
     <!-- M8_Perm -->
     <g transform="translate(382.93 34.598437)scale(0.1 -0.1)">
      <defs>
       <path id="DejaVuSans-4d" d="M 628 4666 
L 1569 4666 
L 2759 1491 
L 3956 4666 
L 4897 4666 
L 4897 0 
L 4281 0 
L 4281 4097 
L 3078 897 
L 2444 897 
L 1241 4097 
L 1241 0 
L 628 0 
L 628 4666 
z
" transform="scale(0.015625)"/>
       <path id="DejaVuSans-5f" d="M 3263 -1063 
L 3263 -1509 
L -63 -1509 
L -63 -1063 
L 3263 -1063 
z
" transform="scale(0.015625)"/>
       <path id="DejaVuSans-50" d="M 1259 4147 
L 1259 2394 
L 2053 2394 
Q 2494 2394 2734 2622 
Q 2975 2850 2975 3272 
Q 2975 3691 2734 3919 
Q 2494 4147 2053 4147 
L 1259 4147 
z
M 628 4666 
L 2053 4666 
Q 2838 4666 3239 4311 
Q 3641 3956 3641 3272 
Q 3641 2581 3239 2228 
Q 2838 1875 2053 1875 
L 1259 1875 
L 1259 0 
L 628 0 
L 628 4666 
z
" transform="scale(0.015625)"/>
       <path id="DejaVuSans-6d" d="M 3328 2828 
Q 3544 3216 3844 3400 
Q 4144 3584 4550 3584 
Q 5097 3584 5394 3201 
Q 5691 2819 5691 2113 
L 5691 0 
L 5113 0 
L 5113 2094 
Q 5113 2597 4934 2840 
Q 4756 3084 4391 3084 
Q 3944 3084 3684 2787 
Q 3425 2491 3425 1978 
L 3425 0 
L 2847 0 
L 2847 2094 
Q 2847 2600 2669 2842 
Q 2491 3084 2119 3084 
Q 1678 3084 1418 2786 
Q 1159 2488 1159 1978 
L 1159 0 
L 581 0 
L 581 3500 
L 1159 3500 
L 1159 2956 
Q 1356 3278 1631 3431 
Q 1906 3584 2284 3584 
Q 2666 3584 2933 3390 
Q 3200 3197 3328 2828 
z
" transform="scale(0.015625)"/>
      </defs>
      <use xlink:href="#DejaVuSans-4d"/>
      <use xlink:href="#DejaVuSans-38" x="86.279297"/>
      <use xlink:href="#DejaVuSans-5f" x="149.902344"/>
      <use xlink:href="#DejaVuSans-50" x="199.902344"/>
      <use xlink:href="#DejaVuSans-65" x="256.580078"/>
      <use xlink:href="#DejaVuSans-72" x="318.103516"/>
      <use xlink:href="#DejaVuSans-6d" x="357.466797"/>
     </g>
    </g>
    <g id="line2d_19">
     <path d="M 354.93 46.054688 
L 364.93 46.054688 
L 374.93 46.054688 
" style="fill: none; stroke: #ff7f0e; stroke-width: 1.5; stroke-linecap: square"/>
    </g>
    <g id="text_15">
     <!-- M16_Perm -->
     <g transform="translate(382.93 49.554688)scale(0.1 -0.1)">
      <use xlink:href="#DejaVuSans-4d"/>
      <use xlink:href="#DejaVuSans-31" x="86.279297"/>
      <use xlink:href="#DejaVuSans-36" x="149.902344"/>
      <use xlink:href="#DejaVuSans-5f" x="213.525391"/>
      <use xlink:href="#DejaVuSans-50" x="263.525391"/>
      <use xlink:href="#DejaVuSans-65" x="320.203125"/>
      <use xlink:href="#DejaVuSans-72" x="381.726562"/>
      <use xlink:href="#DejaVuSans-6d" x="421.089844"/>
     </g>
    </g>
    <g id="line2d_20">
     <path d="M 354.93 61.010938 
L 364.93 61.010938 
L 374.93 61.010938 
" style="fill: none; stroke: #2ca02c; stroke-width: 1.5; stroke-linecap: square"/>
    </g>
    <g id="text_16">
     <!-- M8_NoPerm -->
     <g transform="translate(382.93 64.510938)scale(0.1 -0.1)">
      <defs>
       <path id="DejaVuSans-4e" d="M 628 4666 
L 1478 4666 
L 3547 763 
L 3547 4666 
L 4159 4666 
L 4159 0 
L 3309 0 
L 1241 3903 
L 1241 0 
L 628 0 
L 628 4666 
z
" transform="scale(0.015625)"/>
      </defs>
      <use xlink:href="#DejaVuSans-4d"/>
      <use xlink:href="#DejaVuSans-38" x="86.279297"/>
      <use xlink:href="#DejaVuSans-5f" x="149.902344"/>
      <use xlink:href="#DejaVuSans-4e" x="199.902344"/>
      <use xlink:href="#DejaVuSans-6f" x="274.707031"/>
      <use xlink:href="#DejaVuSans-50" x="335.888672"/>
      <use xlink:href="#DejaVuSans-65" x="392.566406"/>
      <use xlink:href="#DejaVuSans-72" x="454.089844"/>
      <use xlink:href="#DejaVuSans-6d" x="493.453125"/>
     </g>
    </g>
    <g id="line2d_21">
     <path d="M 354.93 75.967188 
L 364.93 75.967188 
L 374.93 75.967188 
" style="fill: none; stroke: #d62728; stroke-width: 1.5; stroke-linecap: square"/>
    </g>
    <g id="text_17">
     <!-- M16_NoPerm -->
     <g transform="translate(382.93 79.467188)scale(0.1 -0.1)">
      <use xlink:href="#DejaVuSans-4d"/>
      <use xlink:href="#DejaVuSans-31" x="86.279297"/>
      <use xlink:href="#DejaVuSans-36" x="149.902344"/>
      <use xlink:href="#DejaVuSans-5f" x="213.525391"/>
      <use xlink:href="#DejaVuSans-4e" x="263.525391"/>
      <use xlink:href="#DejaVuSans-6f" x="338.330078"/>
      <use xlink:href="#DejaVuSans-50" x="399.511719"/>
      <use xlink:href="#DejaVuSans-65" x="456.189453"/>
      <use xlink:href="#DejaVuSans-72" x="517.712891"/>
      <use xlink:href="#DejaVuSans-6d" x="557.076172"/>
     </g>
    </g>
   </g>
  </g>
  <g id="axes_2">
   <g id="patch_8">
    <path d="M 496.4652 342 
L 887.3172 342 
L 887.3172 18 
L 496.4652 18 
z
" style="fill: #ffffff"/>
   </g>
   <g id="matplotlib.axis_3">
    <g id="xtick_8">
     <g id="line2d_22">
      <g>
       <use xlink:href="#m200f8a5eb4" x="496.4652" y="342" style="stroke: #000000; stroke-width: 0.8"/>
      </g>
     </g>
     <g id="text_18">
      <!-- −0.6 -->
      <g transform="translate(484.323794 356.598437)scale(0.1 -0.1)">
       <use xlink:href="#DejaVuSans-2212"/>
       <use xlink:href="#DejaVuSans-30" x="83.789062"/>
       <use xlink:href="#DejaVuSans-2e" x="147.412109"/>
       <use xlink:href="#DejaVuSans-36" x="179.199219"/>
      </g>
     </g>
    </g>
    <g id="xtick_9">
     <g id="line2d_23">
      <g>
       <use xlink:href="#m200f8a5eb4" x="561.6072" y="342" style="stroke: #000000; stroke-width: 0.8"/>
      </g>
     </g>
     <g id="text_19">
      <!-- −0.4 -->
      <g transform="translate(549.465794 356.598437)scale(0.1 -0.1)">
       <use xlink:href="#DejaVuSans-2212"/>
       <use xlink:href="#DejaVuSans-30" x="83.789062"/>
       <use xlink:href="#DejaVuSans-2e" x="147.412109"/>
       <use xlink:href="#DejaVuSans-34" x="179.199219"/>
      </g>
     </g>
    </g>
    <g id="xtick_10">
     <g id="line2d_24">
      <g>
       <use xlink:href="#m200f8a5eb4" x="626.7492" y="342" style="stroke: #000000; stroke-width: 0.8"/>
      </g>
     </g>
     <g id="text_20">
      <!-- −0.2 -->
      <g transform="translate(614.607794 356.598437)scale(0.1 -0.1)">
       <use xlink:href="#DejaVuSans-2212"/>
       <use xlink:href="#DejaVuSans-30" x="83.789062"/>
       <use xlink:href="#DejaVuSans-2e" x="147.412109"/>
       <use xlink:href="#DejaVuSans-32" x="179.199219"/>
      </g>
     </g>
    </g>
    <g id="xtick_11">
     <g id="line2d_25">
      <g>
       <use xlink:href="#m200f8a5eb4" x="691.8912" y="342" style="stroke: #000000; stroke-width: 0.8"/>
      </g>
     </g>
     <g id="text_21">
      <!-- 0.0 -->
      <g transform="translate(683.939637 356.598437)scale(0.1 -0.1)">
       <use xlink:href="#DejaVuSans-30"/>
       <use xlink:href="#DejaVuSans-2e" x="63.623047"/>
       <use xlink:href="#DejaVuSans-30" x="95.410156"/>
      </g>
     </g>
    </g>
    <g id="xtick_12">
     <g id="line2d_26">
      <g>
       <use xlink:href="#m200f8a5eb4" x="757.0332" y="342" style="stroke: #000000; stroke-width: 0.8"/>
      </g>
     </g>
     <g id="text_22">
      <!-- 0.2 -->
      <g transform="translate(749.081637 356.598437)scale(0.1 -0.1)">
       <use xlink:href="#DejaVuSans-30"/>
       <use xlink:href="#DejaVuSans-2e" x="63.623047"/>
       <use xlink:href="#DejaVuSans-32" x="95.410156"/>
      </g>
     </g>
    </g>
    <g id="xtick_13">
     <g id="line2d_27">
      <g>
       <use xlink:href="#m200f8a5eb4" x="822.1752" y="342" style="stroke: #000000; stroke-width: 0.8"/>
      </g>
     </g>
     <g id="text_23">
      <!-- 0.4 -->
      <g transform="translate(814.223637 356.598437)scale(0.1 -0.1)">
       <use xlink:href="#DejaVuSans-30"/>
       <use xlink:href="#DejaVuSans-2e" x="63.623047"/>
       <use xlink:href="#DejaVuSans-34" x="95.410156"/>
      </g>
     </g>
    </g>
    <g id="xtick_14">
     <g id="line2d_28">
      <g>
       <use xlink:href="#m200f8a5eb4" x="887.3172" y="342" style="stroke: #000000; stroke-width: 0.8"/>
      </g>
     </g>
     <g id="text_24">
      <!-- 0.6 -->
      <g transform="translate(879.365637 356.598437)scale(0.1 -0.1)">
       <use xlink:href="#DejaVuSans-30"/>
       <use xlink:href="#DejaVuSans-2e" x="63.623047"/>
       <use xlink:href="#DejaVuSans-36" x="95.410156"/>
      </g>
     </g>
    </g>
   </g>
   <g id="matplotlib.axis_4">
    <g id="ytick_6">
     <g id="line2d_29">
      <g>
       <use xlink:href="#m70e4e3e0bb" x="496.4652" y="342" style="stroke: #000000; stroke-width: 0.8"/>
      </g>
     </g>
    </g>
    <g id="ytick_7">
     <g id="line2d_30">
      <g>
       <use xlink:href="#m70e4e3e0bb" x="496.4652" y="272.542812" style="stroke: #000000; stroke-width: 0.8"/>
      </g>
     </g>
    </g>
    <g id="ytick_8">
     <g id="line2d_31">
      <g>
       <use xlink:href="#m70e4e3e0bb" x="496.4652" y="203.085625" style="stroke: #000000; stroke-width: 0.8"/>
      </g>
     </g>
    </g>
    <g id="ytick_9">
     <g id="line2d_32">
      <g>
       <use xlink:href="#m70e4e3e0bb" x="496.4652" y="133.628437" style="stroke: #000000; stroke-width: 0.8"/>
      </g>
     </g>
    </g>
    <g id="ytick_10">
     <g id="line2d_33">
      <g>
       <use xlink:href="#m70e4e3e0bb" x="496.4652" y="64.171249" style="stroke: #000000; stroke-width: 0.8"/>
      </g>
     </g>
    </g>
   </g>
   <g id="line2d_34">
    <path d="M 691.8912 342 
L 691.8912 18 
" clip-path="url(#p2cb84a6fa1)" style="fill: none; stroke-dasharray: 5.55,2.4; stroke-dashoffset: 0; stroke: #1f77b4; stroke-width: 1.5"/>
   </g>
   <g id="line2d_35">
    <path d="M 239.222893 341.999995 
L 599.390714 341.860558 
L 606.251053 341.601714 
L 613.111393 340.945172 
L 616.541562 340.391708 
L 619.971732 339.556939 
L 623.401902 338.327343 
L 626.832072 336.609148 
L 630.262241 334.359431 
L 633.692411 331.20326 
L 637.122581 327.149442 
L 640.55275 321.655763 
L 643.98292 314.895481 
L 647.41309 306.745188 
L 650.84326 297.070631 
L 654.273429 285.975021 
L 657.703599 272.901695 
L 661.133769 258.689069 
L 667.994108 227.87524 
L 671.424278 212.264604 
L 674.854448 197.238816 
L 678.284617 183.747745 
L 681.714787 172.489758 
L 685.144957 163.875947 
L 688.575127 158.539251 
L 692.005296 156.460342 
L 695.435466 158.52621 
L 698.865636 164.408255 
L 702.295806 173.027716 
L 705.725975 184.970527 
L 709.156145 198.602447 
L 716.016484 228.482303 
L 719.446654 244.573405 
L 722.876824 259.863949 
L 729.737163 286.676882 
L 733.167333 297.592932 
L 736.597503 307.515192 
L 740.027672 315.460825 
L 743.457842 322.058222 
L 746.888012 327.308956 
L 750.318182 331.371126 
L 753.748351 334.407048 
L 757.178521 336.720513 
L 760.608691 338.426612 
L 764.038861 339.599998 
L 767.46903 340.394383 
L 770.8992 340.976462 
L 774.32937 341.326489 
L 781.189709 341.746127 
L 791.480218 341.934591 
L 812.061237 341.991779 
L 921.826668 341.999995 
L 921.826668 341.999995 
" clip-path="url(#p2cb84a6fa1)" style="fill: none; stroke: #1f77b4; stroke-width: 1.5; stroke-linecap: square"/>
   </g>
   <g id="line2d_36">
    <path d="M 208.229032 341.999993 
L 616.698193 341.912687 
L 620.102103 341.828668 
L 626.909922 341.394 
L 630.313832 340.793152 
L 633.717741 339.898346 
L 637.121651 338.352001 
L 640.525561 335.919721 
L 643.929471 332.222758 
L 647.33338 327.025403 
L 650.73729 319.464771 
L 654.1412 309.165698 
L 657.545109 295.83681 
L 660.949019 278.791546 
L 664.352929 258.967002 
L 667.756838 236.070911 
L 674.564658 184.870313 
L 677.968567 160.392736 
L 681.372477 138.303523 
L 684.776387 121.153913 
L 688.180296 109.127004 
L 691.584206 105.14092 
L 694.988116 107.616289 
L 698.392025 118.060119 
L 701.795935 135.001861 
L 705.199845 156.83729 
L 708.603754 181.37897 
L 715.411574 231.781324 
L 718.815483 255.043931 
L 722.219393 275.520516 
L 725.623303 292.336705 
L 729.027212 306.522675 
L 732.431122 317.365293 
L 735.835032 325.189445 
L 739.238941 331.075429 
L 742.642851 335.041611 
L 746.046761 337.643487 
L 749.45067 339.362221 
L 752.85458 340.477583 
L 756.25849 341.118228 
L 763.066309 341.709852 
L 769.874128 341.895281 
L 783.489767 341.984623 
L 885.607057 341.999993 
L 885.607057 341.999993 
" clip-path="url(#p2cb84a6fa1)" style="fill: none; stroke: #ff7f0e; stroke-width: 1.5; stroke-linecap: square"/>
   </g>
   <g id="line2d_37">
    <path d="M 580.35965 341.999994 
L 608.822853 341.897876 
L 615.938653 341.650595 
L 619.496554 341.362277 
L 623.054454 340.833872 
L 624.833404 340.518564 
L 628.391304 339.491013 
L 630.170255 338.860414 
L 633.728155 336.856506 
L 635.507105 335.598098 
L 637.286055 334.01639 
L 639.065005 332.135041 
L 640.843956 329.976924 
L 642.622906 327.387703 
L 644.401856 324.214194 
L 646.180806 320.648 
L 649.738706 312.001253 
L 651.517657 306.668922 
L 653.296607 300.672782 
L 655.075557 294.239836 
L 656.854507 287.163388 
L 658.633457 279.176006 
L 662.191358 261.462341 
L 663.970308 252.456 
L 665.749258 242.520686 
L 669.307158 221.173849 
L 671.086109 211.173643 
L 676.422959 178.796925 
L 678.201909 170.102353 
L 679.980859 160.814507 
L 681.75981 153.024266 
L 683.53876 145.941113 
L 687.09666 135.972851 
L 688.87561 132.045754 
L 690.65456 130.045484 
L 694.212461 131.017456 
L 695.991411 134.245207 
L 697.770361 138.380138 
L 699.549311 143.615751 
L 701.328262 150.071812 
L 703.107212 157.417984 
L 706.665112 175.36762 
L 712.001963 207.138538 
L 717.338813 239.054815 
L 722.675664 267.563864 
L 724.454614 276.231817 
L 726.233564 284.335001 
L 729.791464 298.280123 
L 731.570414 304.55064 
L 733.349365 309.792707 
L 735.128315 314.686395 
L 736.907265 319.148964 
L 738.686215 322.789485 
L 740.465165 326.023597 
L 742.244116 328.872942 
L 744.023066 331.09675 
L 745.802016 333.138289 
L 747.580966 334.780226 
L 749.359916 336.161297 
L 751.138866 337.360385 
L 752.917817 338.405862 
L 754.696767 339.179168 
L 758.254667 340.223945 
L 761.812567 340.912944 
L 767.149418 341.541817 
L 774.265219 341.841769 
L 784.93892 341.959169 
L 893.45488 342 
L 934.370734 341.999994 
L 934.370734 341.999994 
" clip-path="url(#p2cb84a6fa1)" style="fill: none; stroke: #2ca02c; stroke-width: 1.5; stroke-linecap: square"/>
   </g>
   <g id="line2d_38">
    <path d="M 211.679221 341.999994 
L 611.608373 341.90187 
L 618.218772 341.655944 
L 624.829171 340.9834 
L 628.134371 340.3174 
L 631.439571 339.189539 
L 634.74477 337.419425 
L 638.04997 334.944287 
L 641.355169 331.429978 
L 644.660369 326.548712 
L 647.965569 319.943259 
L 651.270768 311.122988 
L 654.575968 300.174152 
L 657.881167 286.289255 
L 661.186367 270.167694 
L 664.491567 252.166378 
L 671.101966 210.803121 
L 674.407165 189.221903 
L 677.712365 169.398992 
L 681.017565 151.724008 
L 684.322764 136.242288 
L 687.627964 126.850339 
L 690.933163 122.382499 
L 694.238363 122.781929 
L 697.543563 129.463233 
L 700.848762 141.854431 
L 704.153962 158.061219 
L 707.459161 177.081723 
L 710.764361 197.542464 
L 717.37476 240.461133 
L 720.67996 259.874031 
L 723.985159 277.038594 
L 727.290359 292.265782 
L 730.595559 304.611197 
L 733.900758 314.66274 
L 737.205958 322.668394 
L 740.511157 328.762733 
L 743.816357 332.821289 
L 747.121557 336.036833 
L 750.426756 338.149759 
L 753.731956 339.539972 
L 757.037155 340.521993 
L 760.342355 341.054973 
L 763.647555 341.45185 
L 766.952754 341.704054 
L 776.868353 341.936572 
L 806.61515 341.997184 
L 869.413942 341.999988 
L 869.413942 341.999988 
" clip-path="url(#p2cb84a6fa1)" style="fill: none; stroke: #d62728; stroke-width: 1.5; stroke-linecap: square"/>
   </g>
   <g id="patch_9">
    <path d="M 496.4652 342 
L 496.4652 18 
" style="fill: none; stroke: #000000; stroke-width: 0.8; stroke-linejoin: miter; stroke-linecap: square"/>
   </g>
   <g id="patch_10">
    <path d="M 887.3172 342 
L 887.3172 18 
" style="fill: none; stroke: #000000; stroke-width: 0.8; stroke-linejoin: miter; stroke-linecap: square"/>
   </g>
   <g id="patch_11">
    <path d="M 496.4652 342 
L 887.3172 342 
" style="fill: none; stroke: #000000; stroke-width: 0.8; stroke-linejoin: miter; stroke-linecap: square"/>
   </g>
   <g id="patch_12">
    <path d="M 496.4652 18 
L 887.3172 18 
" style="fill: none; stroke: #000000; stroke-width: 0.8; stroke-linejoin: miter; stroke-linecap: square"/>
   </g>
   <g id="text_25">
    <!-- nytimes-256-angular -->
    <g transform="translate(629.173387 12)scale(0.12 -0.12)">
     <defs>
      <path id="DejaVuSans-79" d="M 2059 -325 
Q 1816 -950 1584 -1140 
Q 1353 -1331 966 -1331 
L 506 -1331 
L 506 -850 
L 844 -850 
Q 1081 -850 1212 -737 
Q 1344 -625 1503 -206 
L 1606 56 
L 191 3500 
L 800 3500 
L 1894 763 
L 2988 3500 
L 3597 3500 
L 2059 -325 
z
" transform="scale(0.015625)"/>
      <path id="DejaVuSans-74" d="M 1172 4494 
L 1172 3500 
L 2356 3500 
L 2356 3053 
L 1172 3053 
L 1172 1153 
Q 1172 725 1289 603 
Q 1406 481 1766 481 
L 2356 481 
L 2356 0 
L 1766 0 
Q 1100 0 847 248 
Q 594 497 594 1153 
L 594 3053 
L 172 3053 
L 172 3500 
L 594 3500 
L 594 4494 
L 1172 4494 
z
" transform="scale(0.015625)"/>
      <path id="DejaVuSans-69" d="M 603 3500 
L 1178 3500 
L 1178 0 
L 603 0 
L 603 3500 
z
M 603 4863 
L 1178 4863 
L 1178 4134 
L 603 4134 
L 603 4863 
z
" transform="scale(0.015625)"/>
      <path id="DejaVuSans-73" d="M 2834 3397 
L 2834 2853 
Q 2591 2978 2328 3040 
Q 2066 3103 1784 3103 
Q 1356 3103 1142 2972 
Q 928 2841 928 2578 
Q 928 2378 1081 2264 
Q 1234 2150 1697 2047 
L 1894 2003 
Q 2506 1872 2764 1633 
Q 3022 1394 3022 966 
Q 3022 478 2636 193 
Q 2250 -91 1575 -91 
Q 1294 -91 989 -36 
Q 684 19 347 128 
L 347 722 
Q 666 556 975 473 
Q 1284 391 1588 391 
Q 1994 391 2212 530 
Q 2431 669 2431 922 
Q 2431 1156 2273 1281 
Q 2116 1406 1581 1522 
L 1381 1569 
Q 847 1681 609 1914 
Q 372 2147 372 2553 
Q 372 3047 722 3315 
Q 1072 3584 1716 3584 
Q 2034 3584 2315 3537 
Q 2597 3491 2834 3397 
z
" transform="scale(0.015625)"/>
      <path id="DejaVuSans-35" d="M 691 4666 
L 3169 4666 
L 3169 4134 
L 1269 4134 
L 1269 2991 
Q 1406 3038 1543 3061 
Q 1681 3084 1819 3084 
Q 2600 3084 3056 2656 
Q 3513 2228 3513 1497 
Q 3513 744 3044 326 
Q 2575 -91 1722 -91 
Q 1428 -91 1123 -41 
Q 819 9 494 109 
L 494 744 
Q 775 591 1075 516 
Q 1375 441 1709 441 
Q 2250 441 2565 725 
Q 2881 1009 2881 1497 
Q 2881 1984 2565 2268 
Q 2250 2553 1709 2553 
Q 1456 2553 1204 2497 
Q 953 2441 691 2322 
L 691 4666 
z
" transform="scale(0.015625)"/>
     </defs>
     <use xlink:href="#DejaVuSans-6e"/>
     <use xlink:href="#DejaVuSans-79" x="63.378906"/>
     <use xlink:href="#DejaVuSans-74" x="122.558594"/>
     <use xlink:href="#DejaVuSans-69" x="161.767578"/>
     <use xlink:href="#DejaVuSans-6d" x="189.550781"/>
     <use xlink:href="#DejaVuSans-65" x="286.962891"/>
     <use xlink:href="#DejaVuSans-73" x="348.486328"/>
     <use xlink:href="#DejaVuSans-2d" x="400.585938"/>
     <use xlink:href="#DejaVuSans-32" x="436.669922"/>
     <use xlink:href="#DejaVuSans-35" x="500.292969"/>
     <use xlink:href="#DejaVuSans-36" x="563.916016"/>
     <use xlink:href="#DejaVuSans-2d" x="627.539062"/>
     <use xlink:href="#DejaVuSans-61" x="663.623047"/>
     <use xlink:href="#DejaVuSans-6e" x="724.902344"/>
     <use xlink:href="#DejaVuSans-67" x="788.28125"/>
     <use xlink:href="#DejaVuSans-75" x="851.757812"/>
     <use xlink:href="#DejaVuSans-6c" x="915.136719"/>
     <use xlink:href="#DejaVuSans-61" x="942.919922"/>
     <use xlink:href="#DejaVuSans-72" x="1004.199219"/>
    </g>
   </g>
   <g id="legend_2">
    <g id="patch_13">
     <path d="M 782.8672 85.825 
L 880.3172 85.825 
Q 882.3172 85.825 882.3172 83.825 
L 882.3172 25 
Q 882.3172 23 880.3172 23 
L 782.8672 23 
Q 780.8672 23 780.8672 25 
L 780.8672 83.825 
Q 780.8672 85.825 782.8672 85.825 
z
" style="fill: #ffffff; opacity: 0.8; stroke: #cccccc; stroke-linejoin: miter"/>
    </g>
    <g id="line2d_39">
     <path d="M 784.8672 31.098437 
L 794.8672 31.098437 
L 804.8672 31.098437 
" style="fill: none; stroke: #1f77b4; stroke-width: 1.5; stroke-linecap: square"/>
    </g>
    <g id="text_26">
     <!-- M8_Perm -->
     <g transform="translate(812.8672 34.598437)scale(0.1 -0.1)">
      <use xlink:href="#DejaVuSans-4d"/>
      <use xlink:href="#DejaVuSans-38" x="86.279297"/>
      <use xlink:href="#DejaVuSans-5f" x="149.902344"/>
      <use xlink:href="#DejaVuSans-50" x="199.902344"/>
      <use xlink:href="#DejaVuSans-65" x="256.580078"/>
      <use xlink:href="#DejaVuSans-72" x="318.103516"/>
      <use xlink:href="#DejaVuSans-6d" x="357.466797"/>
     </g>
    </g>
    <g id="line2d_40">
     <path d="M 784.8672 46.054688 
L 794.8672 46.054688 
L 804.8672 46.054688 
" style="fill: none; stroke: #ff7f0e; stroke-width: 1.5; stroke-linecap: square"/>
    </g>
    <g id="text_27">
     <!-- M16_Perm -->
     <g transform="translate(812.8672 49.554688)scale(0.1 -0.1)">
      <use xlink:href="#DejaVuSans-4d"/>
      <use xlink:href="#DejaVuSans-31" x="86.279297"/>
      <use xlink:href="#DejaVuSans-36" x="149.902344"/>
      <use xlink:href="#DejaVuSans-5f" x="213.525391"/>
      <use xlink:href="#DejaVuSans-50" x="263.525391"/>
      <use xlink:href="#DejaVuSans-65" x="320.203125"/>
      <use xlink:href="#DejaVuSans-72" x="381.726562"/>
      <use xlink:href="#DejaVuSans-6d" x="421.089844"/>
     </g>
    </g>
    <g id="line2d_41">
     <path d="M 784.8672 61.010938 
L 794.8672 61.010938 
L 804.8672 61.010938 
" style="fill: none; stroke: #2ca02c; stroke-width: 1.5; stroke-linecap: square"/>
    </g>
    <g id="text_28">
     <!-- M8_NoPerm -->
     <g transform="translate(812.8672 64.510938)scale(0.1 -0.1)">
      <use xlink:href="#DejaVuSans-4d"/>
      <use xlink:href="#DejaVuSans-38" x="86.279297"/>
      <use xlink:href="#DejaVuSans-5f" x="149.902344"/>
      <use xlink:href="#DejaVuSans-4e" x="199.902344"/>
      <use xlink:href="#DejaVuSans-6f" x="274.707031"/>
      <use xlink:href="#DejaVuSans-50" x="335.888672"/>
      <use xlink:href="#DejaVuSans-65" x="392.566406"/>
      <use xlink:href="#DejaVuSans-72" x="454.089844"/>
      <use xlink:href="#DejaVuSans-6d" x="493.453125"/>
     </g>
    </g>
    <g id="line2d_42">
     <path d="M 784.8672 75.967188 
L 794.8672 75.967188 
L 804.8672 75.967188 
" style="fill: none; stroke: #d62728; stroke-width: 1.5; stroke-linecap: square"/>
    </g>
    <g id="text_29">
     <!-- M16_NoPerm -->
     <g transform="translate(812.8672 79.467188)scale(0.1 -0.1)">
      <use xlink:href="#DejaVuSans-4d"/>
      <use xlink:href="#DejaVuSans-31" x="86.279297"/>
      <use xlink:href="#DejaVuSans-36" x="149.902344"/>
      <use xlink:href="#DejaVuSans-5f" x="213.525391"/>
      <use xlink:href="#DejaVuSans-4e" x="263.525391"/>
      <use xlink:href="#DejaVuSans-6f" x="338.330078"/>
      <use xlink:href="#DejaVuSans-50" x="399.511719"/>
      <use xlink:href="#DejaVuSans-65" x="456.189453"/>
      <use xlink:href="#DejaVuSans-72" x="517.712891"/>
      <use xlink:href="#DejaVuSans-6d" x="557.076172"/>
     </g>
    </g>
   </g>
  </g>
  <g id="axes_3">
   <g id="patch_14">
    <path d="M 926.4024 342 
L 1317.2544 342 
L 1317.2544 18 
L 926.4024 18 
z
" style="fill: #ffffff"/>
   </g>
   <g id="matplotlib.axis_5">
    <g id="xtick_15">
     <g id="line2d_43">
      <g>
       <use xlink:href="#m200f8a5eb4" x="926.4024" y="342" style="stroke: #000000; stroke-width: 0.8"/>
      </g>
     </g>
     <g id="text_30">
      <!-- −0.6 -->
      <g transform="translate(914.260994 356.598437)scale(0.1 -0.1)">
       <use xlink:href="#DejaVuSans-2212"/>
       <use xlink:href="#DejaVuSans-30" x="83.789062"/>
       <use xlink:href="#DejaVuSans-2e" x="147.412109"/>
       <use xlink:href="#DejaVuSans-36" x="179.199219"/>
      </g>
     </g>
    </g>
    <g id="xtick_16">
     <g id="line2d_44">
      <g>
       <use xlink:href="#m200f8a5eb4" x="991.5444" y="342" style="stroke: #000000; stroke-width: 0.8"/>
      </g>
     </g>
     <g id="text_31">
      <!-- −0.4 -->
      <g transform="translate(979.402994 356.598437)scale(0.1 -0.1)">
       <use xlink:href="#DejaVuSans-2212"/>
       <use xlink:href="#DejaVuSans-30" x="83.789062"/>
       <use xlink:href="#DejaVuSans-2e" x="147.412109"/>
       <use xlink:href="#DejaVuSans-34" x="179.199219"/>
      </g>
     </g>
    </g>
    <g id="xtick_17">
     <g id="line2d_45">
      <g>
       <use xlink:href="#m200f8a5eb4" x="1056.6864" y="342" style="stroke: #000000; stroke-width: 0.8"/>
      </g>
     </g>
     <g id="text_32">
      <!-- −0.2 -->
      <g transform="translate(1044.544994 356.598437)scale(0.1 -0.1)">
       <use xlink:href="#DejaVuSans-2212"/>
       <use xlink:href="#DejaVuSans-30" x="83.789062"/>
       <use xlink:href="#DejaVuSans-2e" x="147.412109"/>
       <use xlink:href="#DejaVuSans-32" x="179.199219"/>
      </g>
     </g>
    </g>
    <g id="xtick_18">
     <g id="line2d_46">
      <g>
       <use xlink:href="#m200f8a5eb4" x="1121.8284" y="342" style="stroke: #000000; stroke-width: 0.8"/>
      </g>
     </g>
     <g id="text_33">
      <!-- 0.0 -->
      <g transform="translate(1113.876837 356.598437)scale(0.1 -0.1)">
       <use xlink:href="#DejaVuSans-30"/>
       <use xlink:href="#DejaVuSans-2e" x="63.623047"/>
       <use xlink:href="#DejaVuSans-30" x="95.410156"/>
      </g>
     </g>
    </g>
    <g id="xtick_19">
     <g id="line2d_47">
      <g>
       <use xlink:href="#m200f8a5eb4" x="1186.9704" y="342" style="stroke: #000000; stroke-width: 0.8"/>
      </g>
     </g>
     <g id="text_34">
      <!-- 0.2 -->
      <g transform="translate(1179.018838 356.598437)scale(0.1 -0.1)">
       <use xlink:href="#DejaVuSans-30"/>
       <use xlink:href="#DejaVuSans-2e" x="63.623047"/>
       <use xlink:href="#DejaVuSans-32" x="95.410156"/>
      </g>
     </g>
    </g>
    <g id="xtick_20">
     <g id="line2d_48">
      <g>
       <use xlink:href="#m200f8a5eb4" x="1252.1124" y="342" style="stroke: #000000; stroke-width: 0.8"/>
      </g>
     </g>
     <g id="text_35">
      <!-- 0.4 -->
      <g transform="translate(1244.160837 356.598437)scale(0.1 -0.1)">
       <use xlink:href="#DejaVuSans-30"/>
       <use xlink:href="#DejaVuSans-2e" x="63.623047"/>
       <use xlink:href="#DejaVuSans-34" x="95.410156"/>
      </g>
     </g>
    </g>
    <g id="xtick_21">
     <g id="line2d_49">
      <g>
       <use xlink:href="#m200f8a5eb4" x="1317.2544" y="342" style="stroke: #000000; stroke-width: 0.8"/>
      </g>
     </g>
     <g id="text_36">
      <!-- 0.6 -->
      <g transform="translate(1309.302837 356.598437)scale(0.1 -0.1)">
       <use xlink:href="#DejaVuSans-30"/>
       <use xlink:href="#DejaVuSans-2e" x="63.623047"/>
       <use xlink:href="#DejaVuSans-36" x="95.410156"/>
      </g>
     </g>
    </g>
   </g>
   <g id="matplotlib.axis_6">
    <g id="ytick_11">
     <g id="line2d_50">
      <g>
       <use xlink:href="#m70e4e3e0bb" x="926.4024" y="342" style="stroke: #000000; stroke-width: 0.8"/>
      </g>
     </g>
    </g>
    <g id="ytick_12">
     <g id="line2d_51">
      <g>
       <use xlink:href="#m70e4e3e0bb" x="926.4024" y="272.542812" style="stroke: #000000; stroke-width: 0.8"/>
      </g>
     </g>
    </g>
    <g id="ytick_13">
     <g id="line2d_52">
      <g>
       <use xlink:href="#m70e4e3e0bb" x="926.4024" y="203.085625" style="stroke: #000000; stroke-width: 0.8"/>
      </g>
     </g>
    </g>
    <g id="ytick_14">
     <g id="line2d_53">
      <g>
       <use xlink:href="#m70e4e3e0bb" x="926.4024" y="133.628437" style="stroke: #000000; stroke-width: 0.8"/>
      </g>
     </g>
    </g>
    <g id="ytick_15">
     <g id="line2d_54">
      <g>
       <use xlink:href="#m70e4e3e0bb" x="926.4024" y="64.171249" style="stroke: #000000; stroke-width: 0.8"/>
      </g>
     </g>
    </g>
   </g>
   <g id="line2d_55">
    <path d="M 1121.8284 342 
L 1121.8284 18 
" clip-path="url(#p945d64b805)" style="fill: none; stroke-dasharray: 5.55,2.4; stroke-dashoffset: 0; stroke: #1f77b4; stroke-width: 1.5"/>
   </g>
   <g id="line2d_56">
    <path d="M 500.501292 341.999996 
L 992.57044 341.806062 
L 1004.872169 341.422934 
L 1008.972745 341.187103 
L 1013.073321 340.830745 
L 1017.173897 340.361048 
L 1025.37505 338.971654 
L 1029.475626 337.883148 
L 1033.576202 336.495321 
L 1037.676779 334.73437 
L 1041.777355 332.508669 
L 1045.877931 329.782003 
L 1049.978507 326.454293 
L 1054.079084 322.469843 
L 1058.17966 317.743249 
L 1062.280236 312.409501 
L 1066.380812 306.142122 
L 1070.481388 299.254888 
L 1074.581965 291.51294 
L 1078.682541 283.215045 
L 1082.783117 274.374431 
L 1099.185422 237.33747 
L 1103.285998 229.256965 
L 1107.386575 222.37557 
L 1111.487151 216.159396 
L 1115.587727 212.280482 
L 1119.688303 210.448821 
L 1123.788879 210.209037 
L 1127.889456 212.272641 
L 1131.990032 216.136156 
L 1136.090608 222.223357 
L 1140.191184 229.086097 
L 1144.291761 237.200542 
L 1148.392337 245.925523 
L 1156.593489 264.865195 
L 1160.694066 274.093713 
L 1164.794642 282.905786 
L 1168.895218 291.260792 
L 1172.995794 299.230841 
L 1177.09637 306.128746 
L 1181.196947 312.416605 
L 1185.297523 317.803527 
L 1189.398099 322.355319 
L 1193.498675 326.374452 
L 1197.599252 329.601221 
L 1201.699828 332.191994 
L 1205.800404 334.513815 
L 1209.90098 336.266523 
L 1214.001557 337.683583 
L 1218.102133 338.766865 
L 1222.202709 339.619041 
L 1226.303285 340.269144 
L 1234.504438 341.078975 
L 1242.70559 341.550324 
L 1250.906743 341.791244 
L 1271.409624 341.969763 
L 1316.515962 341.999996 
L 1316.515962 341.999996 
" clip-path="url(#p945d64b805)" style="fill: none; stroke: #1f77b4; stroke-width: 1.5; stroke-linecap: square"/>
   </g>
   <g id="line2d_57">
    <path d="M 425.633986 341.999996 
L 995.143877 341.917178 
L 1007.941852 341.746707 
L 1014.340839 341.570578 
L 1020.739827 341.27965 
L 1027.138815 340.735416 
L 1033.537802 339.81497 
L 1039.93679 338.335538 
L 1046.335777 335.819569 
L 1052.734765 331.868585 
L 1059.133752 326.090042 
L 1065.53274 317.38606 
L 1071.931727 305.987757 
L 1078.330715 291.211623 
L 1084.729702 273.802764 
L 1091.12869 254.569915 
L 1097.527678 234.785695 
L 1103.926665 216.448955 
L 1110.325653 202.133231 
L 1116.72464 192.492191 
L 1123.123628 189.273379 
L 1129.522615 193.503373 
L 1135.921603 203.539663 
L 1142.32059 218.837715 
L 1148.719578 238.766072 
L 1155.118565 259.061896 
L 1161.517553 278.982286 
L 1167.91654 296.60199 
L 1174.315528 310.786796 
L 1180.714516 321.9522 
L 1187.113503 329.554644 
L 1193.512491 334.702669 
L 1199.911478 337.923806 
L 1206.310466 339.793027 
L 1212.709453 340.837095 
L 1219.108441 341.426972 
L 1225.507428 341.717751 
L 1238.305403 341.938811 
L 1270.300341 341.999005 
L 1331.56 342 
L 1331.56 342 
" clip-path="url(#p945d64b805)" style="fill: none; stroke: #ff7f0e; stroke-width: 1.5; stroke-linecap: square"/>
   </g>
   <g id="line2d_58">
    <path d="M 999.120585 341.999994 
L 1039.980833 341.885609 
L 1046.17178 341.636788 
L 1049.886348 341.339567 
L 1053.600916 340.799586 
L 1056.077294 340.293032 
L 1059.791862 339.129372 
L 1062.268241 337.964922 
L 1063.50643 337.224332 
L 1065.982809 335.387942 
L 1068.459188 333.119439 
L 1069.697377 331.747197 
L 1072.173756 328.396158 
L 1074.650134 324.376534 
L 1075.888324 322.038439 
L 1078.364703 316.370703 
L 1080.841081 309.818379 
L 1082.079271 306.031715 
L 1084.555649 297.344735 
L 1085.793839 292.514313 
L 1088.270217 281.754319 
L 1090.746596 269.962709 
L 1094.461164 249.842893 
L 1095.699353 242.773854 
L 1101.8903 204.164638 
L 1108.081247 166.44417 
L 1109.319436 159.619115 
L 1113.034004 141.730249 
L 1114.272193 137.298186 
L 1115.510383 133.290273 
L 1116.748572 130.166172 
L 1117.986761 127.788695 
L 1119.224951 126.020657 
L 1120.46314 125.183735 
L 1121.701329 125.377712 
L 1122.939519 126.363068 
L 1124.177708 127.660318 
L 1125.415897 130.581027 
L 1126.654087 134.333566 
L 1129.130465 142.487607 
L 1130.368655 147.715344 
L 1132.845033 159.783013 
L 1139.03598 195.051891 
L 1145.226927 231.637487 
L 1148.941495 252.479673 
L 1150.179684 259.189676 
L 1152.656063 271.029547 
L 1155.132442 281.991279 
L 1157.60882 291.401764 
L 1160.085199 300.366696 
L 1162.561578 307.746651 
L 1165.037956 314.095652 
L 1166.276146 317.063217 
L 1168.752524 321.844988 
L 1169.990714 324.134334 
L 1171.228903 326.031613 
L 1174.943471 330.852769 
L 1176.18166 332.178657 
L 1178.658039 334.426859 
L 1179.896228 335.398807 
L 1182.372607 336.922133 
L 1184.848986 338.156201 
L 1187.325364 339.160028 
L 1191.039932 340.206754 
L 1193.516311 340.697687 
L 1197.230879 341.207443 
L 1200.945447 341.531348 
L 1209.612773 341.866947 
L 1219.518287 341.971776 
L 1236.852938 341.998847 
L 1245.520263 341.99999 
L 1245.520263 341.99999 
" clip-path="url(#p945d64b805)" style="fill: none; stroke: #2ca02c; stroke-width: 1.5; stroke-linecap: square"/>
   </g>
   <g id="line2d_59">
    <path d="M 1043.822489 341.999991 
L 1062.398551 341.912865 
L 1068.052136 341.624313 
L 1071.282755 341.178098 
L 1072.898065 340.791008 
L 1075.32103 339.897101 
L 1076.93634 339.054591 
L 1078.551649 338.014666 
L 1080.166959 336.472892 
L 1081.782269 334.455381 
L 1082.589924 333.347196 
L 1083.397579 332.029712 
L 1085.820544 326.857153 
L 1086.628199 324.639131 
L 1089.051163 316.593833 
L 1090.666473 309.693006 
L 1092.281783 301.563644 
L 1093.897093 291.516355 
L 1095.512402 280.284024 
L 1097.127712 267.154678 
L 1098.743022 252.810481 
L 1100.358332 236.063076 
L 1102.781297 209.209911 
L 1105.204261 179.08059 
L 1112.473156 88.734826 
L 1114.088465 72.202461 
L 1115.703775 57.85897 
L 1116.51143 51.964158 
L 1117.319085 46.965845 
L 1118.934395 39.282549 
L 1119.74205 36.134958 
L 1120.549705 34.285183 
L 1121.357359 33.517497 
L 1122.165014 33.428571 
L 1122.972669 34.815022 
L 1123.780324 37.432698 
L 1124.587979 40.675012 
L 1125.395634 44.432637 
L 1126.203289 49.540538 
L 1127.818599 61.304912 
L 1128.626254 68.453766 
L 1131.856873 102.770675 
L 1133.472183 122.419257 
L 1137.510458 172.074686 
L 1141.548732 220.186611 
L 1143.164042 237.347625 
L 1145.587007 259.794004 
L 1147.202316 273.017339 
L 1149.625281 290.405668 
L 1151.240591 299.506711 
L 1152.855901 307.655719 
L 1155.278866 317.349972 
L 1156.894175 322.691841 
L 1158.509485 327.023029 
L 1159.31714 328.841754 
L 1160.93245 331.616936 
L 1162.54776 333.999137 
L 1164.970724 336.807359 
L 1167.393689 338.644552 
L 1169.008999 339.492206 
L 1172.239619 340.643883 
L 1176.277893 341.433576 
L 1181.123822 341.793302 
L 1188.392717 341.958354 
L 1198.084576 341.996371 
L 1204.545815 341.999991 
L 1204.545815 341.999991 
" clip-path="url(#p945d64b805)" style="fill: none; stroke: #d62728; stroke-width: 1.5; stroke-linecap: square"/>
   </g>
   <g id="patch_15">
    <path d="M 926.4024 342 
L 926.4024 18 
" style="fill: none; stroke: #000000; stroke-width: 0.8; stroke-linejoin: miter; stroke-linecap: square"/>
   </g>
   <g id="patch_16">
    <path d="M 1317.2544 342 
L 1317.2544 18 
" style="fill: none; stroke: #000000; stroke-width: 0.8; stroke-linejoin: miter; stroke-linecap: square"/>
   </g>
   <g id="patch_17">
    <path d="M 926.4024 342 
L 1317.2544 342 
" style="fill: none; stroke: #000000; stroke-width: 0.8; stroke-linejoin: miter; stroke-linecap: square"/>
   </g>
   <g id="patch_18">
    <path d="M 926.4024 18 
L 1317.2544 18 
" style="fill: none; stroke: #000000; stroke-width: 0.8; stroke-linejoin: miter; stroke-linecap: square"/>
   </g>
   <g id="text_37">
    <!-- deep-image-96-angular -->
    <g transform="translate(1051.10715 12)scale(0.12 -0.12)">
     <defs>
      <path id="DejaVuSans-64" d="M 2906 2969 
L 2906 4863 
L 3481 4863 
L 3481 0 
L 2906 0 
L 2906 525 
Q 2725 213 2448 61 
Q 2172 -91 1784 -91 
Q 1150 -91 751 415 
Q 353 922 353 1747 
Q 353 2572 751 3078 
Q 1150 3584 1784 3584 
Q 2172 3584 2448 3432 
Q 2725 3281 2906 2969 
z
M 947 1747 
Q 947 1113 1208 752 
Q 1469 391 1925 391 
Q 2381 391 2643 752 
Q 2906 1113 2906 1747 
Q 2906 2381 2643 2742 
Q 2381 3103 1925 3103 
Q 1469 3103 1208 2742 
Q 947 2381 947 1747 
z
" transform="scale(0.015625)"/>
      <path id="DejaVuSans-70" d="M 1159 525 
L 1159 -1331 
L 581 -1331 
L 581 3500 
L 1159 3500 
L 1159 2969 
Q 1341 3281 1617 3432 
Q 1894 3584 2278 3584 
Q 2916 3584 3314 3078 
Q 3713 2572 3713 1747 
Q 3713 922 3314 415 
Q 2916 -91 2278 -91 
Q 1894 -91 1617 61 
Q 1341 213 1159 525 
z
M 3116 1747 
Q 3116 2381 2855 2742 
Q 2594 3103 2138 3103 
Q 1681 3103 1420 2742 
Q 1159 2381 1159 1747 
Q 1159 1113 1420 752 
Q 1681 391 2138 391 
Q 2594 391 2855 752 
Q 3116 1113 3116 1747 
z
" transform="scale(0.015625)"/>
      <path id="DejaVuSans-39" d="M 703 97 
L 703 672 
Q 941 559 1184 500 
Q 1428 441 1663 441 
Q 2288 441 2617 861 
Q 2947 1281 2994 2138 
Q 2813 1869 2534 1725 
Q 2256 1581 1919 1581 
Q 1219 1581 811 2004 
Q 403 2428 403 3163 
Q 403 3881 828 4315 
Q 1253 4750 1959 4750 
Q 2769 4750 3195 4129 
Q 3622 3509 3622 2328 
Q 3622 1225 3098 567 
Q 2575 -91 1691 -91 
Q 1453 -91 1209 -44 
Q 966 3 703 97 
z
M 1959 2075 
Q 2384 2075 2632 2365 
Q 2881 2656 2881 3163 
Q 2881 3666 2632 3958 
Q 2384 4250 1959 4250 
Q 1534 4250 1286 3958 
Q 1038 3666 1038 3163 
Q 1038 2656 1286 2365 
Q 1534 2075 1959 2075 
z
" transform="scale(0.015625)"/>
     </defs>
     <use xlink:href="#DejaVuSans-64"/>
     <use xlink:href="#DejaVuSans-65" x="63.476562"/>
     <use xlink:href="#DejaVuSans-65" x="125"/>
     <use xlink:href="#DejaVuSans-70" x="186.523438"/>
     <use xlink:href="#DejaVuSans-2d" x="250"/>
     <use xlink:href="#DejaVuSans-69" x="286.083984"/>
     <use xlink:href="#DejaVuSans-6d" x="313.867188"/>
     <use xlink:href="#DejaVuSans-61" x="411.279297"/>
     <use xlink:href="#DejaVuSans-67" x="472.558594"/>
     <use xlink:href="#DejaVuSans-65" x="536.035156"/>
     <use xlink:href="#DejaVuSans-2d" x="597.558594"/>
     <use xlink:href="#DejaVuSans-39" x="633.642578"/>
     <use xlink:href="#DejaVuSans-36" x="697.265625"/>
     <use xlink:href="#DejaVuSans-2d" x="760.888672"/>
     <use xlink:href="#DejaVuSans-61" x="796.972656"/>
     <use xlink:href="#DejaVuSans-6e" x="858.251953"/>
     <use xlink:href="#DejaVuSans-67" x="921.630859"/>
     <use xlink:href="#DejaVuSans-75" x="985.107422"/>
     <use xlink:href="#DejaVuSans-6c" x="1048.486328"/>
     <use xlink:href="#DejaVuSans-61" x="1076.269531"/>
     <use xlink:href="#DejaVuSans-72" x="1137.548828"/>
    </g>
   </g>
   <g id="legend_3">
    <g id="patch_19">
     <path d="M 1212.8044 85.825 
L 1310.2544 85.825 
Q 1312.2544 85.825 1312.2544 83.825 
L 1312.2544 25 
Q 1312.2544 23 1310.2544 23 
L 1212.8044 23 
Q 1210.8044 23 1210.8044 25 
L 1210.8044 83.825 
Q 1210.8044 85.825 1212.8044 85.825 
z
" style="fill: #ffffff; opacity: 0.8; stroke: #cccccc; stroke-linejoin: miter"/>
    </g>
    <g id="line2d_60">
     <path d="M 1214.8044 31.098437 
L 1224.8044 31.098437 
L 1234.8044 31.098437 
" style="fill: none; stroke: #1f77b4; stroke-width: 1.5; stroke-linecap: square"/>
    </g>
    <g id="text_38">
     <!-- M8_Perm -->
     <g transform="translate(1242.8044 34.598437)scale(0.1 -0.1)">
      <use xlink:href="#DejaVuSans-4d"/>
      <use xlink:href="#DejaVuSans-38" x="86.279297"/>
      <use xlink:href="#DejaVuSans-5f" x="149.902344"/>
      <use xlink:href="#DejaVuSans-50" x="199.902344"/>
      <use xlink:href="#DejaVuSans-65" x="256.580078"/>
      <use xlink:href="#DejaVuSans-72" x="318.103516"/>
      <use xlink:href="#DejaVuSans-6d" x="357.466797"/>
     </g>
    </g>
    <g id="line2d_61">
     <path d="M 1214.8044 46.054688 
L 1224.8044 46.054688 
L 1234.8044 46.054688 
" style="fill: none; stroke: #ff7f0e; stroke-width: 1.5; stroke-linecap: square"/>
    </g>
    <g id="text_39">
     <!-- M16_Perm -->
     <g transform="translate(1242.8044 49.554688)scale(0.1 -0.1)">
      <use xlink:href="#DejaVuSans-4d"/>
      <use xlink:href="#DejaVuSans-31" x="86.279297"/>
      <use xlink:href="#DejaVuSans-36" x="149.902344"/>
      <use xlink:href="#DejaVuSans-5f" x="213.525391"/>
      <use xlink:href="#DejaVuSans-50" x="263.525391"/>
      <use xlink:href="#DejaVuSans-65" x="320.203125"/>
      <use xlink:href="#DejaVuSans-72" x="381.726562"/>
      <use xlink:href="#DejaVuSans-6d" x="421.089844"/>
     </g>
    </g>
    <g id="line2d_62">
     <path d="M 1214.8044 61.010938 
L 1224.8044 61.010938 
L 1234.8044 61.010938 
" style="fill: none; stroke: #2ca02c; stroke-width: 1.5; stroke-linecap: square"/>
    </g>
    <g id="text_40">
     <!-- M8_NoPerm -->
     <g transform="translate(1242.8044 64.510938)scale(0.1 -0.1)">
      <use xlink:href="#DejaVuSans-4d"/>
      <use xlink:href="#DejaVuSans-38" x="86.279297"/>
      <use xlink:href="#DejaVuSans-5f" x="149.902344"/>
      <use xlink:href="#DejaVuSans-4e" x="199.902344"/>
      <use xlink:href="#DejaVuSans-6f" x="274.707031"/>
      <use xlink:href="#DejaVuSans-50" x="335.888672"/>
      <use xlink:href="#DejaVuSans-65" x="392.566406"/>
      <use xlink:href="#DejaVuSans-72" x="454.089844"/>
      <use xlink:href="#DejaVuSans-6d" x="493.453125"/>
     </g>
    </g>
    <g id="line2d_63">
     <path d="M 1214.8044 75.967188 
L 1224.8044 75.967188 
L 1234.8044 75.967188 
" style="fill: none; stroke: #d62728; stroke-width: 1.5; stroke-linecap: square"/>
    </g>
    <g id="text_41">
     <!-- M16_NoPerm -->
     <g transform="translate(1242.8044 79.467188)scale(0.1 -0.1)">
      <use xlink:href="#DejaVuSans-4d"/>
      <use xlink:href="#DejaVuSans-31" x="86.279297"/>
      <use xlink:href="#DejaVuSans-36" x="149.902344"/>
      <use xlink:href="#DejaVuSans-5f" x="213.525391"/>
      <use xlink:href="#DejaVuSans-4e" x="263.525391"/>
      <use xlink:href="#DejaVuSans-6f" x="338.330078"/>
      <use xlink:href="#DejaVuSans-50" x="399.511719"/>
      <use xlink:href="#DejaVuSans-65" x="456.189453"/>
      <use xlink:href="#DejaVuSans-72" x="517.712891"/>
      <use xlink:href="#DejaVuSans-6d" x="557.076172"/>
     </g>
    </g>
   </g>
  </g>
  <g id="text_42">
   <!-- Density -->
   <g transform="translate(38.008856 208.512891)rotate(-90)scale(0.15 -0.15)">
    <defs>
     <path id="DejaVuSans-44" d="M 1259 4147 
L 1259 519 
L 2022 519 
Q 2988 519 3436 956 
Q 3884 1394 3884 2338 
Q 3884 3275 3436 3711 
Q 2988 4147 2022 4147 
L 1259 4147 
z
M 628 4666 
L 1925 4666 
Q 3281 4666 3915 4102 
Q 4550 3538 4550 2338 
Q 4550 1131 3912 565 
Q 3275 0 1925 0 
L 628 0 
L 628 4666 
z
" transform="scale(0.015625)"/>
    </defs>
    <use xlink:href="#DejaVuSans-44"/>
    <use xlink:href="#DejaVuSans-65" x="77.001953"/>
    <use xlink:href="#DejaVuSans-6e" x="138.525391"/>
    <use xlink:href="#DejaVuSans-73" x="201.904297"/>
    <use xlink:href="#DejaVuSans-69" x="254.003906"/>
    <use xlink:href="#DejaVuSans-74" x="281.787109"/>
    <use xlink:href="#DejaVuSans-79" x="320.996094"/>
   </g>
  </g>
 </g>
 <defs>
  <clipPath id="pda6a459be9">
   <rect x="66.528" y="18" width="390.852" height="324"/>
  </clipPath>
  <clipPath id="p2cb84a6fa1">
   <rect x="496.4652" y="18" width="390.852" height="324"/>
  </clipPath>
  <clipPath id="p945d64b805">
   <rect x="926.4024" y="18" width="390.852" height="324"/>
  </clipPath>
 </defs>
</svg>
