<?xml version="1.0" encoding="utf-8" standalone="no"?>
<!DOCTYPE svg PUBLIC "-//W3C//DTD SVG 1.1//EN"
  "http://www.w3.org/Graphics/SVG/1.1/DTD/svg11.dtd">
<svg xmlns:xlink="http://www.w3.org/1999/xlink" width="1330.56pt" height="360pt" viewBox="0 0 1330.56 360" xmlns="http://www.w3.org/2000/svg" version="1.1">
 <metadata>
  <rdf:RDF xmlns:dc="http://purl.org/dc/elements/1.1/" xmlns:cc="http://creativecommons.org/ns#" xmlns:rdf="http://www.w3.org/1999/02/22-rdf-syntax-ns#">
   <cc:Work>
    <dc:type rdf:resource="http://purl.org/dc/dcmitype/StillImage"/>
    <dc:date>2022-05-06T08:28:09.687329</dc:date>
    <dc:format>image/svg+xml</dc:format>
    <dc:creator>
     <cc:Agent>
      <dc:title>Matplotlib v3.5.1, https://matplotlib.org/</dc:title>
     </cc:Agent>
    </dc:creator>
   </cc:Work>
  </rdf:RDF>
 </metadata>
 <defs>
  <style type="text/css">*{stroke-linejoin: round; stroke-linecap: butt}</style>
 </defs>
 <g id="figure_1">
  <g id="patch_1">
   <path d="M 0 360 
L 1330.56 360 
L 1330.56 0 
L 0 0 
z
" style="fill: #ffffff"/>
  </g>
  <g id="axes_1">
   <g id="patch_2">
    <path d="M 166.32 320.4 
L 469.609412 320.4 
L 469.609412 43.2 
L 166.32 43.2 
z
" style="fill: #ffffff"/>
   </g>
   <g id="matplotlib.axis_1">
    <g id="xtick_1">
     <g id="line2d_1">
      <defs>
       <path id="ma1fd072dc4" d="M 0 0 
L 0 3.5 
" style="stroke: #000000; stroke-width: 0.8"/>
      </defs>
      <g>
       <use xlink:href="#ma1fd072dc4" x="166.32" y="320.4" style="stroke: #000000; stroke-width: 0.8"/>
      </g>
     </g>
     <g id="text_1">
      <!-- −0.6 -->
      <g transform="translate(154.178594 334.998438)scale(0.1 -0.1)">
       <defs>
        <path id="DejaVuSans-2212" d="M 678 2272 
L 4684 2272 
L 4684 1741 
L 678 1741 
L 678 2272 
z
" transform="scale(0.015625)"/>
        <path id="DejaVuSans-30" d="M 2034 4250 
Q 1547 4250 1301 3770 
Q 1056 3291 1056 2328 
Q 1056 1369 1301 889 
Q 1547 409 2034 409 
Q 2525 409 2770 889 
Q 3016 1369 3016 2328 
Q 3016 3291 2770 3770 
Q 2525 4250 2034 4250 
z
M 2034 4750 
Q 2819 4750 3233 4129 
Q 3647 3509 3647 2328 
Q 3647 1150 3233 529 
Q 2819 -91 2034 -91 
Q 1250 -91 836 529 
Q 422 1150 422 2328 
Q 422 3509 836 4129 
Q 1250 4750 2034 4750 
z
" transform="scale(0.015625)"/>
        <path id="DejaVuSans-2e" d="M 684 794 
L 1344 794 
L 1344 0 
L 684 0 
L 684 794 
z
" transform="scale(0.015625)"/>
        <path id="DejaVuSans-36" d="M 2113 2584 
Q 1688 2584 1439 2293 
Q 1191 2003 1191 1497 
Q 1191 994 1439 701 
Q 1688 409 2113 409 
Q 2538 409 2786 701 
Q 3034 994 3034 1497 
Q 3034 2003 2786 2293 
Q 2538 2584 2113 2584 
z
M 3366 4563 
L 3366 3988 
Q 3128 4100 2886 4159 
Q 2644 4219 2406 4219 
Q 1781 4219 1451 3797 
Q 1122 3375 1075 2522 
Q 1259 2794 1537 2939 
Q 1816 3084 2150 3084 
Q 2853 3084 3261 2657 
Q 3669 2231 3669 1497 
Q 3669 778 3244 343 
Q 2819 -91 2113 -91 
Q 1303 -91 875 529 
Q 447 1150 447 2328 
Q 447 3434 972 4092 
Q 1497 4750 2381 4750 
Q 2619 4750 2861 4703 
Q 3103 4656 3366 4563 
z
" transform="scale(0.015625)"/>
       </defs>
       <use xlink:href="#DejaVuSans-2212"/>
       <use xlink:href="#DejaVuSans-30" x="83.789062"/>
       <use xlink:href="#DejaVuSans-2e" x="147.412109"/>
       <use xlink:href="#DejaVuSans-36" x="179.199219"/>
      </g>
     </g>
    </g>
    <g id="xtick_2">
     <g id="line2d_2">
      <g>
       <use xlink:href="#ma1fd072dc4" x="216.868235" y="320.4" style="stroke: #000000; stroke-width: 0.8"/>
      </g>
     </g>
     <g id="text_2">
      <!-- −0.4 -->
      <g transform="translate(204.726829 334.998438)scale(0.1 -0.1)">
       <defs>
        <path id="DejaVuSans-34" d="M 2419 4116 
L 825 1625 
L 2419 1625 
L 2419 4116 
z
M 2253 4666 
L 3047 4666 
L 3047 1625 
L 3713 1625 
L 3713 1100 
L 3047 1100 
L 3047 0 
L 2419 0 
L 2419 1100 
L 313 1100 
L 313 1709 
L 2253 4666 
z
" transform="scale(0.015625)"/>
       </defs>
       <use xlink:href="#DejaVuSans-2212"/>
       <use xlink:href="#DejaVuSans-30" x="83.789062"/>
       <use xlink:href="#DejaVuSans-2e" x="147.412109"/>
       <use xlink:href="#DejaVuSans-34" x="179.199219"/>
      </g>
     </g>
    </g>
    <g id="xtick_3">
     <g id="line2d_3">
      <g>
       <use xlink:href="#ma1fd072dc4" x="267.416471" y="320.4" style="stroke: #000000; stroke-width: 0.8"/>
      </g>
     </g>
     <g id="text_3">
      <!-- −0.2 -->
      <g transform="translate(255.275064 334.998438)scale(0.1 -0.1)">
       <defs>
        <path id="DejaVuSans-32" d="M 1228 531 
L 3431 531 
L 3431 0 
L 469 0 
L 469 531 
Q 828 903 1448 1529 
Q 2069 2156 2228 2338 
Q 2531 2678 2651 2914 
Q 2772 3150 2772 3378 
Q 2772 3750 2511 3984 
Q 2250 4219 1831 4219 
Q 1534 4219 1204 4116 
Q 875 4013 500 3803 
L 500 4441 
Q 881 4594 1212 4672 
Q 1544 4750 1819 4750 
Q 2544 4750 2975 4387 
Q 3406 4025 3406 3419 
Q 3406 3131 3298 2873 
Q 3191 2616 2906 2266 
Q 2828 2175 2409 1742 
Q 1991 1309 1228 531 
z
" transform="scale(0.015625)"/>
       </defs>
       <use xlink:href="#DejaVuSans-2212"/>
       <use xlink:href="#DejaVuSans-30" x="83.789062"/>
       <use xlink:href="#DejaVuSans-2e" x="147.412109"/>
       <use xlink:href="#DejaVuSans-32" x="179.199219"/>
      </g>
     </g>
    </g>
    <g id="xtick_4">
     <g id="line2d_4">
      <g>
       <use xlink:href="#ma1fd072dc4" x="317.964706" y="320.4" style="stroke: #000000; stroke-width: 0.8"/>
      </g>
     </g>
     <g id="text_4">
      <!-- 0.0 -->
      <g transform="translate(310.013143 334.998438)scale(0.1 -0.1)">
       <use xlink:href="#DejaVuSans-30"/>
       <use xlink:href="#DejaVuSans-2e" x="63.623047"/>
       <use xlink:href="#DejaVuSans-30" x="95.410156"/>
      </g>
     </g>
    </g>
    <g id="xtick_5">
     <g id="line2d_5">
      <g>
       <use xlink:href="#ma1fd072dc4" x="368.512941" y="320.4" style="stroke: #000000; stroke-width: 0.8"/>
      </g>
     </g>
     <g id="text_5">
      <!-- 0.2 -->
      <g transform="translate(360.561379 334.998438)scale(0.1 -0.1)">
       <use xlink:href="#DejaVuSans-30"/>
       <use xlink:href="#DejaVuSans-2e" x="63.623047"/>
       <use xlink:href="#DejaVuSans-32" x="95.410156"/>
      </g>
     </g>
    </g>
    <g id="xtick_6">
     <g id="line2d_6">
      <g>
       <use xlink:href="#ma1fd072dc4" x="419.061176" y="320.4" style="stroke: #000000; stroke-width: 0.8"/>
      </g>
     </g>
     <g id="text_6">
      <!-- 0.4 -->
      <g transform="translate(411.109614 334.998438)scale(0.1 -0.1)">
       <use xlink:href="#DejaVuSans-30"/>
       <use xlink:href="#DejaVuSans-2e" x="63.623047"/>
       <use xlink:href="#DejaVuSans-34" x="95.410156"/>
      </g>
     </g>
    </g>
    <g id="xtick_7">
     <g id="line2d_7">
      <g>
       <use xlink:href="#ma1fd072dc4" x="469.609412" y="320.4" style="stroke: #000000; stroke-width: 0.8"/>
      </g>
     </g>
     <g id="text_7">
      <!-- 0.6 -->
      <g transform="translate(461.657849 334.998438)scale(0.1 -0.1)">
       <use xlink:href="#DejaVuSans-30"/>
       <use xlink:href="#DejaVuSans-2e" x="63.623047"/>
       <use xlink:href="#DejaVuSans-36" x="95.410156"/>
      </g>
     </g>
    </g>
    <g id="text_8">
     <!-- Error -->
     <g transform="translate(305.77955 348.676562)scale(0.1 -0.1)">
      <defs>
       <path id="DejaVuSans-45" d="M 628 4666 
L 3578 4666 
L 3578 4134 
L 1259 4134 
L 1259 2753 
L 3481 2753 
L 3481 2222 
L 1259 2222 
L 1259 531 
L 3634 531 
L 3634 0 
L 628 0 
L 628 4666 
z
" transform="scale(0.015625)"/>
       <path id="DejaVuSans-72" d="M 2631 2963 
Q 2534 3019 2420 3045 
Q 2306 3072 2169 3072 
Q 1681 3072 1420 2755 
Q 1159 2438 1159 1844 
L 1159 0 
L 581 0 
L 581 3500 
L 1159 3500 
L 1159 2956 
Q 1341 3275 1631 3429 
Q 1922 3584 2338 3584 
Q 2397 3584 2469 3576 
Q 2541 3569 2628 3553 
L 2631 2963 
z
" transform="scale(0.015625)"/>
       <path id="DejaVuSans-6f" d="M 1959 3097 
Q 1497 3097 1228 2736 
Q 959 2375 959 1747 
Q 959 1119 1226 758 
Q 1494 397 1959 397 
Q 2419 397 2687 759 
Q 2956 1122 2956 1747 
Q 2956 2369 2687 2733 
Q 2419 3097 1959 3097 
z
M 1959 3584 
Q 2709 3584 3137 3096 
Q 3566 2609 3566 1747 
Q 3566 888 3137 398 
Q 2709 -91 1959 -91 
Q 1206 -91 779 398 
Q 353 888 353 1747 
Q 353 2609 779 3096 
Q 1206 3584 1959 3584 
z
" transform="scale(0.015625)"/>
      </defs>
      <use xlink:href="#DejaVuSans-45"/>
      <use xlink:href="#DejaVuSans-72" x="63.183594"/>
      <use xlink:href="#DejaVuSans-72" x="102.546875"/>
      <use xlink:href="#DejaVuSans-6f" x="141.410156"/>
      <use xlink:href="#DejaVuSans-72" x="202.591797"/>
     </g>
    </g>
   </g>
   <g id="matplotlib.axis_2">
    <g id="ytick_1">
     <g id="line2d_8">
      <defs>
       <path id="m97278c0092" d="M 0 0 
L -3.5 0 
" style="stroke: #000000; stroke-width: 0.8"/>
      </defs>
      <g>
       <use xlink:href="#m97278c0092" x="166.32" y="320.4" style="stroke: #000000; stroke-width: 0.8"/>
      </g>
     </g>
     <g id="text_9">
      <!-- 0 -->
      <g transform="translate(152.9575 324.199219)scale(0.1 -0.1)">
       <use xlink:href="#DejaVuSans-30"/>
      </g>
     </g>
    </g>
    <g id="ytick_2">
     <g id="line2d_9">
      <g>
       <use xlink:href="#m97278c0092" x="166.32" y="262.341383" style="stroke: #000000; stroke-width: 0.8"/>
      </g>
     </g>
     <g id="text_10">
      <!-- 2 -->
      <g transform="translate(152.9575 266.140602)scale(0.1 -0.1)">
       <use xlink:href="#DejaVuSans-32"/>
      </g>
     </g>
    </g>
    <g id="ytick_3">
     <g id="line2d_10">
      <g>
       <use xlink:href="#m97278c0092" x="166.32" y="204.282767" style="stroke: #000000; stroke-width: 0.8"/>
      </g>
     </g>
     <g id="text_11">
      <!-- 4 -->
      <g transform="translate(152.9575 208.081986)scale(0.1 -0.1)">
       <use xlink:href="#DejaVuSans-34"/>
      </g>
     </g>
    </g>
    <g id="ytick_4">
     <g id="line2d_11">
      <g>
       <use xlink:href="#m97278c0092" x="166.32" y="146.22415" style="stroke: #000000; stroke-width: 0.8"/>
      </g>
     </g>
     <g id="text_12">
      <!-- 6 -->
      <g transform="translate(152.9575 150.023369)scale(0.1 -0.1)">
       <use xlink:href="#DejaVuSans-36"/>
      </g>
     </g>
    </g>
    <g id="ytick_5">
     <g id="line2d_12">
      <g>
       <use xlink:href="#m97278c0092" x="166.32" y="88.165534" style="stroke: #000000; stroke-width: 0.8"/>
      </g>
     </g>
     <g id="text_13">
      <!-- 8 -->
      <g transform="translate(152.9575 91.964752)scale(0.1 -0.1)">
       <defs>
        <path id="DejaVuSans-38" d="M 2034 2216 
Q 1584 2216 1326 1975 
Q 1069 1734 1069 1313 
Q 1069 891 1326 650 
Q 1584 409 2034 409 
Q 2484 409 2743 651 
Q 3003 894 3003 1313 
Q 3003 1734 2745 1975 
Q 2488 2216 2034 2216 
z
M 1403 2484 
Q 997 2584 770 2862 
Q 544 3141 544 3541 
Q 544 4100 942 4425 
Q 1341 4750 2034 4750 
Q 2731 4750 3128 4425 
Q 3525 4100 3525 3541 
Q 3525 3141 3298 2862 
Q 3072 2584 2669 2484 
Q 3125 2378 3379 2068 
Q 3634 1759 3634 1313 
Q 3634 634 3220 271 
Q 2806 -91 2034 -91 
Q 1263 -91 848 271 
Q 434 634 434 1313 
Q 434 1759 690 2068 
Q 947 2378 1403 2484 
z
M 1172 3481 
Q 1172 3119 1398 2916 
Q 1625 2713 2034 2713 
Q 2441 2713 2670 2916 
Q 2900 3119 2900 3481 
Q 2900 3844 2670 4047 
Q 2441 4250 2034 4250 
Q 1625 4250 1398 4047 
Q 1172 3844 1172 3481 
z
" transform="scale(0.015625)"/>
       </defs>
       <use xlink:href="#DejaVuSans-38"/>
      </g>
     </g>
    </g>
    <g id="text_14">
     <!-- Density -->
     <g transform="translate(146.877812 200.808594)rotate(-90)scale(0.1 -0.1)">
      <defs>
       <path id="DejaVuSans-44" d="M 1259 4147 
L 1259 519 
L 2022 519 
Q 2988 519 3436 956 
Q 3884 1394 3884 2338 
Q 3884 3275 3436 3711 
Q 2988 4147 2022 4147 
L 1259 4147 
z
M 628 4666 
L 1925 4666 
Q 3281 4666 3915 4102 
Q 4550 3538 4550 2338 
Q 4550 1131 3912 565 
Q 3275 0 1925 0 
L 628 0 
L 628 4666 
z
" transform="scale(0.015625)"/>
       <path id="DejaVuSans-65" d="M 3597 1894 
L 3597 1613 
L 953 1613 
Q 991 1019 1311 708 
Q 1631 397 2203 397 
Q 2534 397 2845 478 
Q 3156 559 3463 722 
L 3463 178 
Q 3153 47 2828 -22 
Q 2503 -91 2169 -91 
Q 1331 -91 842 396 
Q 353 884 353 1716 
Q 353 2575 817 3079 
Q 1281 3584 2069 3584 
Q 2775 3584 3186 3129 
Q 3597 2675 3597 1894 
z
M 3022 2063 
Q 3016 2534 2758 2815 
Q 2500 3097 2075 3097 
Q 1594 3097 1305 2825 
Q 1016 2553 972 2059 
L 3022 2063 
z
" transform="scale(0.015625)"/>
       <path id="DejaVuSans-6e" d="M 3513 2113 
L 3513 0 
L 2938 0 
L 2938 2094 
Q 2938 2591 2744 2837 
Q 2550 3084 2163 3084 
Q 1697 3084 1428 2787 
Q 1159 2491 1159 1978 
L 1159 0 
L 581 0 
L 581 3500 
L 1159 3500 
L 1159 2956 
Q 1366 3272 1645 3428 
Q 1925 3584 2291 3584 
Q 2894 3584 3203 3211 
Q 3513 2838 3513 2113 
z
" transform="scale(0.015625)"/>
       <path id="DejaVuSans-73" d="M 2834 3397 
L 2834 2853 
Q 2591 2978 2328 3040 
Q 2066 3103 1784 3103 
Q 1356 3103 1142 2972 
Q 928 2841 928 2578 
Q 928 2378 1081 2264 
Q 1234 2150 1697 2047 
L 1894 2003 
Q 2506 1872 2764 1633 
Q 3022 1394 3022 966 
Q 3022 478 2636 193 
Q 2250 -91 1575 -91 
Q 1294 -91 989 -36 
Q 684 19 347 128 
L 347 722 
Q 666 556 975 473 
Q 1284 391 1588 391 
Q 1994 391 2212 530 
Q 2431 669 2431 922 
Q 2431 1156 2273 1281 
Q 2116 1406 1581 1522 
L 1381 1569 
Q 847 1681 609 1914 
Q 372 2147 372 2553 
Q 372 3047 722 3315 
Q 1072 3584 1716 3584 
Q 2034 3584 2315 3537 
Q 2597 3491 2834 3397 
z
" transform="scale(0.015625)"/>
       <path id="DejaVuSans-69" d="M 603 3500 
L 1178 3500 
L 1178 0 
L 603 0 
L 603 3500 
z
M 603 4863 
L 1178 4863 
L 1178 4134 
L 603 4134 
L 603 4863 
z
" transform="scale(0.015625)"/>
       <path id="DejaVuSans-74" d="M 1172 4494 
L 1172 3500 
L 2356 3500 
L 2356 3053 
L 1172 3053 
L 1172 1153 
Q 1172 725 1289 603 
Q 1406 481 1766 481 
L 2356 481 
L 2356 0 
L 1766 0 
Q 1100 0 847 248 
Q 594 497 594 1153 
L 594 3053 
L 172 3053 
L 172 3500 
L 594 3500 
L 594 4494 
L 1172 4494 
z
" transform="scale(0.015625)"/>
       <path id="DejaVuSans-79" d="M 2059 -325 
Q 1816 -950 1584 -1140 
Q 1353 -1331 966 -1331 
L 506 -1331 
L 506 -850 
L 844 -850 
Q 1081 -850 1212 -737 
Q 1344 -625 1503 -206 
L 1606 56 
L 191 3500 
L 800 3500 
L 1894 763 
L 2988 3500 
L 3597 3500 
L 2059 -325 
z
" transform="scale(0.015625)"/>
      </defs>
      <use xlink:href="#DejaVuSans-44"/>
      <use xlink:href="#DejaVuSans-65" x="77.001953"/>
      <use xlink:href="#DejaVuSans-6e" x="138.525391"/>
      <use xlink:href="#DejaVuSans-73" x="201.904297"/>
      <use xlink:href="#DejaVuSans-69" x="254.003906"/>
      <use xlink:href="#DejaVuSans-74" x="281.787109"/>
      <use xlink:href="#DejaVuSans-79" x="320.996094"/>
     </g>
    </g>
   </g>
   <g id="line2d_13">
    <path d="M 317.964706 320.4 
L 317.964706 43.2 
" clip-path="url(#p246b22c572)" style="fill: none; stroke-dasharray: 5.55,2.4; stroke-dashoffset: 0; stroke: #1f77b4; stroke-width: 1.5"/>
   </g>
   <g id="line2d_14">
    <path d="M 224.898726 320.399995 
L 255.583509 320.311115 
L 262.51233 319.964039 
L 264.491994 319.727129 
L 268.45132 318.909821 
L 270.430984 318.283508 
L 271.420815 317.887662 
L 273.400479 316.728491 
L 275.380142 315.303029 
L 277.359806 313.337012 
L 278.349637 312.228639 
L 279.339469 310.843792 
L 281.319132 307.492412 
L 282.308964 305.574994 
L 284.288627 301.016881 
L 286.268291 295.571363 
L 288.247954 288.589338 
L 290.227618 280.50156 
L 292.207281 271.25832 
L 294.186944 260.608602 
L 295.176776 255.268128 
L 297.156439 242.836898 
L 300.125934 222.812049 
L 302.105598 209.159973 
L 305.075093 188.016214 
L 307.054756 175.124057 
L 308.044588 168.463077 
L 310.024251 157.41742 
L 312.003915 148.079868 
L 312.993746 144.182718 
L 313.983578 141.051505 
L 314.97341 138.562986 
L 315.963241 136.855705 
L 317.942905 135.299884 
L 318.932736 135.420663 
L 319.922568 136.372097 
L 320.9124 138.221108 
L 321.902232 140.47688 
L 322.892063 143.526116 
L 323.881895 147.447487 
L 325.861558 156.726739 
L 326.85139 161.628192 
L 328.831053 173.852843 
L 331.800548 193.853077 
L 335.759875 221.914169 
L 338.72937 242.239561 
L 340.709034 254.714266 
L 342.688697 266.273354 
L 344.66836 276.245618 
L 346.648024 285.028853 
L 348.627687 292.488607 
L 350.60735 298.736179 
L 352.587014 303.769317 
L 353.576845 306.009573 
L 355.556509 309.568879 
L 357.536172 312.342289 
L 358.526004 313.589778 
L 360.505667 315.459905 
L 361.495499 316.255538 
L 364.464994 317.996914 
L 365.454826 318.389865 
L 369.414152 319.395586 
L 371.393816 319.74989 
L 375.353143 320.10792 
L 379.312469 320.265321 
L 387.231123 320.371727 
L 421.875232 320.399992 
L 421.875232 320.399992 
" clip-path="url(#p246b22c572)" style="fill: none; stroke: #1f77b4; stroke-width: 1.5; stroke-linecap: square"/>
   </g>
   <g id="line2d_15">
    <path d="M 256.007525 320.399993 
L 273.222208 320.300306 
L 277.194827 320.039586 
L 279.843239 319.594763 
L 281.167446 319.183158 
L 283.815858 317.893541 
L 285.140065 316.838779 
L 285.802168 316.243346 
L 287.126374 314.522688 
L 288.450581 312.473224 
L 289.774787 309.525902 
L 291.098993 305.757314 
L 292.4232 301.256647 
L 293.747406 295.750744 
L 295.071612 288.85169 
L 297.057922 275.632172 
L 299.044231 258.98298 
L 301.030541 238.559638 
L 303.016851 214.919728 
L 306.327366 169.585081 
L 310.962089 105.073857 
L 313.610501 76.475664 
L 314.272605 70.819902 
L 314.934708 66.548697 
L 316.921017 57.361876 
L 317.58312 56.415403 
L 318.245224 56.4 
L 318.907327 57.174176 
L 319.56943 58.707954 
L 320.231533 60.920769 
L 320.893636 64.228998 
L 321.55574 68.447038 
L 322.217843 73.492711 
L 323.542049 86.945657 
L 324.866255 102.264887 
L 326.852565 127.548959 
L 332.811494 212.036745 
L 335.459906 244.251276 
L 336.784113 258.207767 
L 338.770422 275.188429 
L 340.094628 284.670189 
L 341.418835 292.494852 
L 342.743041 298.987801 
L 344.067248 304.167257 
L 345.391454 308.271429 
L 346.71566 311.507282 
L 348.039867 313.962573 
L 349.364073 315.719908 
L 350.688279 317.146745 
L 352.012486 318.122033 
L 353.336692 318.848283 
L 355.985105 319.714424 
L 357.971414 320.031047 
L 362.606136 320.30639 
L 367.902962 320.384932 
L 387.766057 320.399993 
L 387.766057 320.399993 
" clip-path="url(#p246b22c572)" style="fill: none; stroke: #ff7f0e; stroke-width: 1.5; stroke-linecap: square"/>
   </g>
   <g id="line2d_16">
    <path d="M 201.964827 320.399997 
L 234.665698 320.296558 
L 239.897838 320.148108 
L 243.821942 319.931483 
L 247.746047 319.55316 
L 250.362116 319.175098 
L 252.978186 318.655895 
L 255.594256 317.943912 
L 258.210325 316.995835 
L 260.826395 315.845682 
L 263.442465 314.244655 
L 266.058534 312.337592 
L 267.366569 311.279382 
L 269.982639 308.58749 
L 272.598708 305.620261 
L 275.214778 302.165449 
L 277.830848 297.896957 
L 280.446917 293.200979 
L 283.062987 287.943011 
L 286.987092 279.502318 
L 290.911196 269.575574 
L 301.375475 242.188203 
L 306.607614 230.213882 
L 310.531719 222.527944 
L 313.147788 218.089264 
L 314.455823 216.251273 
L 315.763858 214.64068 
L 317.071893 213.261585 
L 319.687963 210.978466 
L 320.995997 210.255435 
L 323.612067 209.873257 
L 324.920102 209.936853 
L 327.536172 210.812978 
L 328.844206 211.493583 
L 330.152241 212.484646 
L 332.768311 215.313932 
L 334.076346 216.929573 
L 336.692415 221.024536 
L 339.308485 225.95873 
L 341.924555 231.320974 
L 344.540624 236.954794 
L 347.156694 243.420823 
L 351.080799 252.73722 
L 360.237043 275.314959 
L 362.853112 281.184878 
L 366.777217 289.175897 
L 370.701321 296.315772 
L 374.625426 302.406274 
L 377.241495 305.731086 
L 379.857565 308.666138 
L 382.473635 311.084942 
L 383.78167 312.195655 
L 386.397739 313.927968 
L 389.013809 315.429822 
L 391.629879 316.646314 
L 395.553983 317.946986 
L 399.478088 318.878508 
L 402.094157 319.31259 
L 406.018262 319.746509 
L 412.558436 320.119431 
L 420.406645 320.328467 
L 446.567342 320.399401 
L 462.26376 320.399997 
L 462.26376 320.399997 
" clip-path="url(#p246b22c572)" style="fill: none; stroke: #2ca02c; stroke-width: 1.5; stroke-linecap: square"/>
   </g>
   <g id="line2d_17">
    <path d="M 204.788794 320.399997 
L 229.158174 320.310297 
L 235.571168 320.059615 
L 239.418965 319.73031 
L 241.984163 319.398758 
L 247.114559 318.403658 
L 249.679757 317.655706 
L 252.244955 316.756256 
L 256.092752 315.097736 
L 258.65795 313.790093 
L 261.223147 312.297722 
L 265.070944 309.737432 
L 267.636142 307.835745 
L 270.20134 305.661431 
L 272.766538 303.099402 
L 275.331736 300.179278 
L 277.896934 296.916072 
L 280.462132 293.036141 
L 283.02733 288.572489 
L 285.592528 283.726428 
L 290.722923 273.068342 
L 294.57072 264.680593 
L 298.418517 256.803249 
L 303.548913 247.699172 
L 306.114111 243.786198 
L 307.39671 242.225041 
L 309.961908 239.355652 
L 312.527106 236.368416 
L 315.092304 233.788278 
L 318.9401 230.382419 
L 321.505298 228.534899 
L 324.070496 227.219428 
L 325.353095 226.449821 
L 326.635694 226.141614 
L 329.200892 226.471333 
L 331.76609 227.03353 
L 333.048689 227.434364 
L 334.331288 228.156241 
L 338.179085 231.516466 
L 340.744283 234.445378 
L 344.592079 239.27005 
L 345.874678 240.987056 
L 354.852871 254.623897 
L 367.678861 276.755381 
L 370.244059 281.266944 
L 372.809256 285.305581 
L 379.222251 295.112724 
L 384.352647 301.746582 
L 388.200444 305.844385 
L 392.048241 309.208764 
L 394.613439 311.195412 
L 398.461235 313.681776 
L 401.026433 315.002133 
L 404.87423 316.599223 
L 407.439428 317.41962 
L 411.287225 318.420035 
L 415.135022 319.186274 
L 418.982819 319.697794 
L 425.395813 320.134012 
L 431.808808 320.321382 
L 444.634798 320.395767 
L 460.025985 320.399997 
L 460.025985 320.399997 
" clip-path="url(#p246b22c572)" style="fill: none; stroke: #d62728; stroke-width: 1.5; stroke-linecap: square"/>
   </g>
   <g id="patch_3">
    <path d="M 166.32 320.4 
L 166.32 43.2 
" style="fill: none; stroke: #000000; stroke-width: 0.8; stroke-linejoin: miter; stroke-linecap: square"/>
   </g>
   <g id="patch_4">
    <path d="M 469.609412 320.4 
L 469.609412 43.2 
" style="fill: none; stroke: #000000; stroke-width: 0.8; stroke-linejoin: miter; stroke-linecap: square"/>
   </g>
   <g id="patch_5">
    <path d="M 166.32 320.4 
L 469.609412 320.4 
" style="fill: none; stroke: #000000; stroke-width: 0.8; stroke-linejoin: miter; stroke-linecap: square"/>
   </g>
   <g id="patch_6">
    <path d="M 166.32 43.2 
L 469.609412 43.2 
" style="fill: none; stroke: #000000; stroke-width: 0.8; stroke-linejoin: miter; stroke-linecap: square"/>
   </g>
   <g id="text_15">
    <!-- glove-100-angular -->
    <g transform="translate(262.891268 37.2)scale(0.12 -0.12)">
     <defs>
      <path id="DejaVuSans-67" d="M 2906 1791 
Q 2906 2416 2648 2759 
Q 2391 3103 1925 3103 
Q 1463 3103 1205 2759 
Q 947 2416 947 1791 
Q 947 1169 1205 825 
Q 1463 481 1925 481 
Q 2391 481 2648 825 
Q 2906 1169 2906 1791 
z
M 3481 434 
Q 3481 -459 3084 -895 
Q 2688 -1331 1869 -1331 
Q 1566 -1331 1297 -1286 
Q 1028 -1241 775 -1147 
L 775 -588 
Q 1028 -725 1275 -790 
Q 1522 -856 1778 -856 
Q 2344 -856 2625 -561 
Q 2906 -266 2906 331 
L 2906 616 
Q 2728 306 2450 153 
Q 2172 0 1784 0 
Q 1141 0 747 490 
Q 353 981 353 1791 
Q 353 2603 747 3093 
Q 1141 3584 1784 3584 
Q 2172 3584 2450 3431 
Q 2728 3278 2906 2969 
L 2906 3500 
L 3481 3500 
L 3481 434 
z
" transform="scale(0.015625)"/>
      <path id="DejaVuSans-6c" d="M 603 4863 
L 1178 4863 
L 1178 0 
L 603 0 
L 603 4863 
z
" transform="scale(0.015625)"/>
      <path id="DejaVuSans-76" d="M 191 3500 
L 800 3500 
L 1894 563 
L 2988 3500 
L 3597 3500 
L 2284 0 
L 1503 0 
L 191 3500 
z
" transform="scale(0.015625)"/>
      <path id="DejaVuSans-2d" d="M 313 2009 
L 1997 2009 
L 1997 1497 
L 313 1497 
L 313 2009 
z
" transform="scale(0.015625)"/>
      <path id="DejaVuSans-31" d="M 794 531 
L 1825 531 
L 1825 4091 
L 703 3866 
L 703 4441 
L 1819 4666 
L 2450 4666 
L 2450 531 
L 3481 531 
L 3481 0 
L 794 0 
L 794 531 
z
" transform="scale(0.015625)"/>
      <path id="DejaVuSans-61" d="M 2194 1759 
Q 1497 1759 1228 1600 
Q 959 1441 959 1056 
Q 959 750 1161 570 
Q 1363 391 1709 391 
Q 2188 391 2477 730 
Q 2766 1069 2766 1631 
L 2766 1759 
L 2194 1759 
z
M 3341 1997 
L 3341 0 
L 2766 0 
L 2766 531 
Q 2569 213 2275 61 
Q 1981 -91 1556 -91 
Q 1019 -91 701 211 
Q 384 513 384 1019 
Q 384 1609 779 1909 
Q 1175 2209 1959 2209 
L 2766 2209 
L 2766 2266 
Q 2766 2663 2505 2880 
Q 2244 3097 1772 3097 
Q 1472 3097 1187 3025 
Q 903 2953 641 2809 
L 641 3341 
Q 956 3463 1253 3523 
Q 1550 3584 1831 3584 
Q 2591 3584 2966 3190 
Q 3341 2797 3341 1997 
z
" transform="scale(0.015625)"/>
      <path id="DejaVuSans-75" d="M 544 1381 
L 544 3500 
L 1119 3500 
L 1119 1403 
Q 1119 906 1312 657 
Q 1506 409 1894 409 
Q 2359 409 2629 706 
Q 2900 1003 2900 1516 
L 2900 3500 
L 3475 3500 
L 3475 0 
L 2900 0 
L 2900 538 
Q 2691 219 2414 64 
Q 2138 -91 1772 -91 
Q 1169 -91 856 284 
Q 544 659 544 1381 
z
M 1991 3584 
L 1991 3584 
z
" transform="scale(0.015625)"/>
     </defs>
     <use xlink:href="#DejaVuSans-67"/>
     <use xlink:href="#DejaVuSans-6c" x="63.476562"/>
     <use xlink:href="#DejaVuSans-6f" x="91.259766"/>
     <use xlink:href="#DejaVuSans-76" x="152.441406"/>
     <use xlink:href="#DejaVuSans-65" x="211.621094"/>
     <use xlink:href="#DejaVuSans-2d" x="273.144531"/>
     <use xlink:href="#DejaVuSans-31" x="309.228516"/>
     <use xlink:href="#DejaVuSans-30" x="372.851562"/>
     <use xlink:href="#DejaVuSans-30" x="436.474609"/>
     <use xlink:href="#DejaVuSans-2d" x="500.097656"/>
     <use xlink:href="#DejaVuSans-61" x="536.181641"/>
     <use xlink:href="#DejaVuSans-6e" x="597.460938"/>
     <use xlink:href="#DejaVuSans-67" x="660.839844"/>
     <use xlink:href="#DejaVuSans-75" x="724.316406"/>
     <use xlink:href="#DejaVuSans-6c" x="787.695312"/>
     <use xlink:href="#DejaVuSans-61" x="815.478516"/>
     <use xlink:href="#DejaVuSans-72" x="876.757812"/>
    </g>
   </g>
   <g id="legend_1">
    <g id="patch_7">
     <path d="M 395.745349 109.9125 
L 462.609412 109.9125 
Q 464.609412 109.9125 464.609412 107.9125 
L 464.609412 50.2 
Q 464.609412 48.2 462.609412 48.2 
L 395.745349 48.2 
Q 393.745349 48.2 393.745349 50.2 
L 393.745349 107.9125 
Q 393.745349 109.9125 395.745349 109.9125 
z
" style="fill: #ffffff; opacity: 0.8; stroke: #cccccc; stroke-linejoin: miter"/>
    </g>
    <g id="line2d_18">
     <path d="M 397.745349 56.298437 
L 407.745349 56.298437 
L 417.745349 56.298437 
" style="fill: none; stroke: #1f77b4; stroke-width: 1.5; stroke-linecap: square"/>
    </g>
    <g id="text_16">
     <!-- M8P -->
     <g transform="translate(425.745349 59.798437)scale(0.1 -0.1)">
      <defs>
       <path id="DejaVuSans-4d" d="M 628 4666 
L 1569 4666 
L 2759 1491 
L 3956 4666 
L 4897 4666 
L 4897 0 
L 4281 0 
L 4281 4097 
L 3078 897 
L 2444 897 
L 1241 4097 
L 1241 0 
L 628 0 
L 628 4666 
z
" transform="scale(0.015625)"/>
       <path id="DejaVuSans-50" d="M 1259 4147 
L 1259 2394 
L 2053 2394 
Q 2494 2394 2734 2622 
Q 2975 2850 2975 3272 
Q 2975 3691 2734 3919 
Q 2494 4147 2053 4147 
L 1259 4147 
z
M 628 4666 
L 2053 4666 
Q 2838 4666 3239 4311 
Q 3641 3956 3641 3272 
Q 3641 2581 3239 2228 
Q 2838 1875 2053 1875 
L 1259 1875 
L 1259 0 
L 628 0 
L 628 4666 
z
" transform="scale(0.015625)"/>
      </defs>
      <use xlink:href="#DejaVuSans-4d"/>
      <use xlink:href="#DejaVuSans-38" x="86.279297"/>
      <use xlink:href="#DejaVuSans-50" x="149.902344"/>
     </g>
    </g>
    <g id="line2d_19">
     <path d="M 397.745349 70.976562 
L 407.745349 70.976562 
L 417.745349 70.976562 
" style="fill: none; stroke: #ff7f0e; stroke-width: 1.5; stroke-linecap: square"/>
    </g>
    <g id="text_17">
     <!-- M16P -->
     <g transform="translate(425.745349 74.476562)scale(0.1 -0.1)">
      <use xlink:href="#DejaVuSans-4d"/>
      <use xlink:href="#DejaVuSans-31" x="86.279297"/>
      <use xlink:href="#DejaVuSans-36" x="149.902344"/>
      <use xlink:href="#DejaVuSans-50" x="213.525391"/>
     </g>
    </g>
    <g id="line2d_20">
     <path d="M 397.745349 85.654687 
L 407.745349 85.654687 
L 417.745349 85.654687 
" style="fill: none; stroke: #2ca02c; stroke-width: 1.5; stroke-linecap: square"/>
    </g>
    <g id="text_18">
     <!-- M8NP -->
     <g transform="translate(425.745349 89.154687)scale(0.1 -0.1)">
      <defs>
       <path id="DejaVuSans-4e" d="M 628 4666 
L 1478 4666 
L 3547 763 
L 3547 4666 
L 4159 4666 
L 4159 0 
L 3309 0 
L 1241 3903 
L 1241 0 
L 628 0 
L 628 4666 
z
" transform="scale(0.015625)"/>
      </defs>
      <use xlink:href="#DejaVuSans-4d"/>
      <use xlink:href="#DejaVuSans-38" x="86.279297"/>
      <use xlink:href="#DejaVuSans-4e" x="149.902344"/>
      <use xlink:href="#DejaVuSans-50" x="224.707031"/>
     </g>
    </g>
    <g id="line2d_21">
     <path d="M 397.745349 100.332812 
L 407.745349 100.332812 
L 417.745349 100.332812 
" style="fill: none; stroke: #d62728; stroke-width: 1.5; stroke-linecap: square"/>
    </g>
    <g id="text_19">
     <!-- M16NP -->
     <g transform="translate(425.745349 103.832812)scale(0.1 -0.1)">
      <use xlink:href="#DejaVuSans-4d"/>
      <use xlink:href="#DejaVuSans-31" x="86.279297"/>
      <use xlink:href="#DejaVuSans-36" x="149.902344"/>
      <use xlink:href="#DejaVuSans-4e" x="213.525391"/>
      <use xlink:href="#DejaVuSans-50" x="288.330078"/>
     </g>
    </g>
   </g>
  </g>
  <g id="axes_2">
   <g id="patch_8">
    <path d="M 530.267294 320.4 
L 833.556706 320.4 
L 833.556706 43.2 
L 530.267294 43.2 
z
" style="fill: #ffffff"/>
   </g>
   <g id="matplotlib.axis_3">
    <g id="xtick_8">
     <g id="line2d_22">
      <g>
       <use xlink:href="#ma1fd072dc4" x="530.267294" y="320.4" style="stroke: #000000; stroke-width: 0.8"/>
      </g>
     </g>
     <g id="text_20">
      <!-- −0.6 -->
      <g transform="translate(518.125888 334.998438)scale(0.1 -0.1)">
       <use xlink:href="#DejaVuSans-2212"/>
       <use xlink:href="#DejaVuSans-30" x="83.789062"/>
       <use xlink:href="#DejaVuSans-2e" x="147.412109"/>
       <use xlink:href="#DejaVuSans-36" x="179.199219"/>
      </g>
     </g>
    </g>
    <g id="xtick_9">
     <g id="line2d_23">
      <g>
       <use xlink:href="#ma1fd072dc4" x="580.815529" y="320.4" style="stroke: #000000; stroke-width: 0.8"/>
      </g>
     </g>
     <g id="text_21">
      <!-- −0.4 -->
      <g transform="translate(568.674123 334.998438)scale(0.1 -0.1)">
       <use xlink:href="#DejaVuSans-2212"/>
       <use xlink:href="#DejaVuSans-30" x="83.789062"/>
       <use xlink:href="#DejaVuSans-2e" x="147.412109"/>
       <use xlink:href="#DejaVuSans-34" x="179.199219"/>
      </g>
     </g>
    </g>
    <g id="xtick_10">
     <g id="line2d_24">
      <g>
       <use xlink:href="#ma1fd072dc4" x="631.363765" y="320.4" style="stroke: #000000; stroke-width: 0.8"/>
      </g>
     </g>
     <g id="text_22">
      <!-- −0.2 -->
      <g transform="translate(619.222358 334.998438)scale(0.1 -0.1)">
       <use xlink:href="#DejaVuSans-2212"/>
       <use xlink:href="#DejaVuSans-30" x="83.789062"/>
       <use xlink:href="#DejaVuSans-2e" x="147.412109"/>
       <use xlink:href="#DejaVuSans-32" x="179.199219"/>
      </g>
     </g>
    </g>
    <g id="xtick_11">
     <g id="line2d_25">
      <g>
       <use xlink:href="#ma1fd072dc4" x="681.912" y="320.4" style="stroke: #000000; stroke-width: 0.8"/>
      </g>
     </g>
     <g id="text_23">
      <!-- 0.0 -->
      <g transform="translate(673.960438 334.998438)scale(0.1 -0.1)">
       <use xlink:href="#DejaVuSans-30"/>
       <use xlink:href="#DejaVuSans-2e" x="63.623047"/>
       <use xlink:href="#DejaVuSans-30" x="95.410156"/>
      </g>
     </g>
    </g>
    <g id="xtick_12">
     <g id="line2d_26">
      <g>
       <use xlink:href="#ma1fd072dc4" x="732.460235" y="320.4" style="stroke: #000000; stroke-width: 0.8"/>
      </g>
     </g>
     <g id="text_24">
      <!-- 0.2 -->
      <g transform="translate(724.508673 334.998438)scale(0.1 -0.1)">
       <use xlink:href="#DejaVuSans-30"/>
       <use xlink:href="#DejaVuSans-2e" x="63.623047"/>
       <use xlink:href="#DejaVuSans-32" x="95.410156"/>
      </g>
     </g>
    </g>
    <g id="xtick_13">
     <g id="line2d_27">
      <g>
       <use xlink:href="#ma1fd072dc4" x="783.008471" y="320.4" style="stroke: #000000; stroke-width: 0.8"/>
      </g>
     </g>
     <g id="text_25">
      <!-- 0.4 -->
      <g transform="translate(775.056908 334.998438)scale(0.1 -0.1)">
       <use xlink:href="#DejaVuSans-30"/>
       <use xlink:href="#DejaVuSans-2e" x="63.623047"/>
       <use xlink:href="#DejaVuSans-34" x="95.410156"/>
      </g>
     </g>
    </g>
    <g id="xtick_14">
     <g id="line2d_28">
      <g>
       <use xlink:href="#ma1fd072dc4" x="833.556706" y="320.4" style="stroke: #000000; stroke-width: 0.8"/>
      </g>
     </g>
     <g id="text_26">
      <!-- 0.6 -->
      <g transform="translate(825.605143 334.998438)scale(0.1 -0.1)">
       <use xlink:href="#DejaVuSans-30"/>
       <use xlink:href="#DejaVuSans-2e" x="63.623047"/>
       <use xlink:href="#DejaVuSans-36" x="95.410156"/>
      </g>
     </g>
    </g>
    <g id="text_27">
     <!-- Error -->
     <g transform="translate(669.726844 348.676562)scale(0.1 -0.1)">
      <use xlink:href="#DejaVuSans-45"/>
      <use xlink:href="#DejaVuSans-72" x="63.183594"/>
      <use xlink:href="#DejaVuSans-72" x="102.546875"/>
      <use xlink:href="#DejaVuSans-6f" x="141.410156"/>
      <use xlink:href="#DejaVuSans-72" x="202.591797"/>
     </g>
    </g>
   </g>
   <g id="matplotlib.axis_4">
    <g id="ytick_6">
     <g id="line2d_29">
      <g>
       <use xlink:href="#m97278c0092" x="530.267294" y="320.4" style="stroke: #000000; stroke-width: 0.8"/>
      </g>
     </g>
     <g id="text_28">
      <!-- 0 -->
      <g transform="translate(516.904794 324.199219)scale(0.1 -0.1)">
       <use xlink:href="#DejaVuSans-30"/>
      </g>
     </g>
    </g>
    <g id="ytick_7">
     <g id="line2d_30">
      <g>
       <use xlink:href="#m97278c0092" x="530.267294" y="264.627469" style="stroke: #000000; stroke-width: 0.8"/>
      </g>
     </g>
     <g id="text_29">
      <!-- 1 -->
      <g transform="translate(516.904794 268.426687)scale(0.1 -0.1)">
       <use xlink:href="#DejaVuSans-31"/>
      </g>
     </g>
    </g>
    <g id="ytick_8">
     <g id="line2d_31">
      <g>
       <use xlink:href="#m97278c0092" x="530.267294" y="208.854937" style="stroke: #000000; stroke-width: 0.8"/>
      </g>
     </g>
     <g id="text_30">
      <!-- 2 -->
      <g transform="translate(516.904794 212.654156)scale(0.1 -0.1)">
       <use xlink:href="#DejaVuSans-32"/>
      </g>
     </g>
    </g>
    <g id="ytick_9">
     <g id="line2d_32">
      <g>
       <use xlink:href="#m97278c0092" x="530.267294" y="153.082406" style="stroke: #000000; stroke-width: 0.8"/>
      </g>
     </g>
     <g id="text_31">
      <!-- 3 -->
      <g transform="translate(516.904794 156.881625)scale(0.1 -0.1)">
       <defs>
        <path id="DejaVuSans-33" d="M 2597 2516 
Q 3050 2419 3304 2112 
Q 3559 1806 3559 1356 
Q 3559 666 3084 287 
Q 2609 -91 1734 -91 
Q 1441 -91 1130 -33 
Q 819 25 488 141 
L 488 750 
Q 750 597 1062 519 
Q 1375 441 1716 441 
Q 2309 441 2620 675 
Q 2931 909 2931 1356 
Q 2931 1769 2642 2001 
Q 2353 2234 1838 2234 
L 1294 2234 
L 1294 2753 
L 1863 2753 
Q 2328 2753 2575 2939 
Q 2822 3125 2822 3475 
Q 2822 3834 2567 4026 
Q 2313 4219 1838 4219 
Q 1578 4219 1281 4162 
Q 984 4106 628 3988 
L 628 4550 
Q 988 4650 1302 4700 
Q 1616 4750 1894 4750 
Q 2613 4750 3031 4423 
Q 3450 4097 3450 3541 
Q 3450 3153 3228 2886 
Q 3006 2619 2597 2516 
z
" transform="scale(0.015625)"/>
       </defs>
       <use xlink:href="#DejaVuSans-33"/>
      </g>
     </g>
    </g>
    <g id="ytick_10">
     <g id="line2d_33">
      <g>
       <use xlink:href="#m97278c0092" x="530.267294" y="97.309875" style="stroke: #000000; stroke-width: 0.8"/>
      </g>
     </g>
     <g id="text_32">
      <!-- 4 -->
      <g transform="translate(516.904794 101.109093)scale(0.1 -0.1)">
       <use xlink:href="#DejaVuSans-34"/>
      </g>
     </g>
    </g>
    <g id="text_33">
     <!-- Density -->
     <g transform="translate(510.825107 200.808594)rotate(-90)scale(0.1 -0.1)">
      <use xlink:href="#DejaVuSans-44"/>
      <use xlink:href="#DejaVuSans-65" x="77.001953"/>
      <use xlink:href="#DejaVuSans-6e" x="138.525391"/>
      <use xlink:href="#DejaVuSans-73" x="201.904297"/>
      <use xlink:href="#DejaVuSans-69" x="254.003906"/>
      <use xlink:href="#DejaVuSans-74" x="281.787109"/>
      <use xlink:href="#DejaVuSans-79" x="320.996094"/>
     </g>
    </g>
   </g>
   <g id="line2d_34">
    <path d="M 681.912 320.4 
L 681.912 43.2 
" clip-path="url(#p055c177240)" style="fill: none; stroke-dasharray: 5.55,2.4; stroke-dashoffset: 0; stroke: #1f77b4; stroke-width: 1.5"/>
   </g>
   <g id="line2d_35">
    <path d="M 345.367124 320.399993 
L 593.711984 320.291672 
L 601.554454 320.008936 
L 606.782767 319.573278 
L 612.011079 318.603081 
L 614.625236 317.911439 
L 617.239392 316.882875 
L 619.853549 315.478605 
L 622.467705 313.710738 
L 625.081862 311.584658 
L 627.696018 308.55706 
L 630.310174 304.94611 
L 632.924331 300.519791 
L 635.538487 295.131819 
L 638.152644 288.383741 
L 640.7668 280.676673 
L 643.380957 271.865191 
L 645.995113 261.102189 
L 648.609269 249.846044 
L 653.837582 222.761677 
L 659.065895 191.749622 
L 661.680052 175.153908 
L 669.522521 127.317554 
L 672.136677 113.625162 
L 674.750834 101.530875 
L 677.36499 91.557901 
L 679.979147 84.78905 
L 682.593303 80.441682 
L 685.207459 78.204981 
L 687.821616 81.151628 
L 690.435772 84.822218 
L 693.049929 93.083143 
L 695.664085 102.157621 
L 698.278242 114.430198 
L 700.892398 128.794509 
L 706.120711 159.632132 
L 708.734867 176.577036 
L 713.96318 208.510171 
L 719.191493 237.800611 
L 721.805649 250.940442 
L 724.419806 262.451463 
L 727.033962 272.847656 
L 729.648119 281.779861 
L 732.262275 289.089031 
L 734.876432 295.722349 
L 737.490588 301.037794 
L 740.104744 305.429684 
L 742.718901 308.973855 
L 745.333057 311.723851 
L 747.947214 314.007979 
L 750.56137 315.661644 
L 753.175527 316.919225 
L 755.789683 317.883073 
L 758.403839 318.572339 
L 761.017996 319.112611 
L 766.246309 319.793342 
L 771.474622 320.123577 
L 781.931247 320.347561 
L 826.371907 320.397521 
L 865.584253 320.399992 
L 865.584253 320.399992 
" clip-path="url(#p055c177240)" style="fill: none; stroke: #1f77b4; stroke-width: 1.5; stroke-linecap: square"/>
   </g>
   <g id="line2d_36">
    <path d="M 312.769155 320.399994 
L 590.347948 320.279438 
L 598.355028 319.881576 
L 603.693082 319.313903 
L 606.362109 318.761984 
L 609.031136 318.078942 
L 611.700163 317.19481 
L 614.369189 315.965373 
L 617.038216 314.476749 
L 619.707243 312.389498 
L 622.37627 309.778129 
L 625.045297 306.302942 
L 627.714324 302.345033 
L 630.383351 297.405046 
L 633.052377 291.44133 
L 635.721404 284.411347 
L 638.390431 275.897422 
L 641.059458 266.662026 
L 643.728485 256.253296 
L 646.397512 244.611134 
L 649.066539 231.96289 
L 654.404592 204.751738 
L 659.742646 175.456339 
L 662.411673 160.995432 
L 665.0807 147.25667 
L 667.749727 134.42346 
L 670.418753 122.641359 
L 675.756807 105.754883 
L 678.425834 99.946748 
L 681.094861 96.745175 
L 683.763888 96.681287 
L 686.432915 97.67293 
L 689.101941 102.12747 
L 691.770968 108.341075 
L 697.109022 127.618546 
L 702.447076 153.087626 
L 705.116102 166.817289 
L 707.785129 181.537948 
L 710.454156 195.219857 
L 713.123183 209.638197 
L 715.79221 223.222857 
L 718.461237 236.088966 
L 721.130264 248.158944 
L 723.79929 259.126798 
L 726.468317 268.776486 
L 729.137344 277.424685 
L 731.806371 285.199677 
L 734.475398 291.685229 
L 737.144425 297.329416 
L 739.813452 302.113584 
L 742.482478 305.991543 
L 745.151505 309.273283 
L 747.820532 311.721993 
L 750.489559 313.970965 
L 753.158586 315.586136 
L 755.827613 316.754458 
L 758.49664 317.686245 
L 761.165666 318.447171 
L 763.834693 319.011765 
L 766.50372 319.455486 
L 774.510801 320.078101 
L 779.848854 320.266574 
L 793.193989 320.379658 
L 827.891338 320.399812 
L 843.905499 320.399994 
L 843.905499 320.399994 
" clip-path="url(#p055c177240)" style="fill: none; stroke: #ff7f0e; stroke-width: 1.5; stroke-linecap: square"/>
   </g>
   <g id="line2d_37">
    <path d="M 368.151206 320.399993 
L 600.98186 320.258994 
L 606.099017 320.037609 
L 611.216174 319.551916 
L 613.774753 319.135741 
L 616.333332 318.554958 
L 618.89191 317.695481 
L 621.450489 316.553248 
L 624.009067 315.091415 
L 626.567646 312.989542 
L 629.126225 310.185812 
L 631.684803 306.588303 
L 634.243382 302.022498 
L 636.80196 296.110675 
L 639.360539 289.137628 
L 641.919118 280.738036 
L 644.477696 270.587252 
L 647.036275 258.851514 
L 649.594854 245.381079 
L 652.153432 230.290208 
L 654.712011 213.703762 
L 659.829168 176.880765 
L 667.504904 119.576851 
L 670.063482 102.225478 
L 672.622061 87.259717 
L 675.18064 74.554886 
L 677.739218 64.517708 
L 680.297797 58.384917 
L 682.856375 56.4 
L 685.414954 57.73762 
L 687.973533 62.175951 
L 690.532111 70.503548 
L 693.09069 81.308868 
L 695.649269 96.903316 
L 698.207847 113.384848 
L 700.766426 131.207179 
L 705.883583 169.612308 
L 711.00074 207.287598 
L 713.559319 224.737346 
L 716.117897 240.46339 
L 718.676476 254.151473 
L 721.235055 266.488248 
L 723.793633 277.286129 
L 726.352212 286.159255 
L 728.910791 293.853301 
L 731.469369 300.045932 
L 734.027948 305.063409 
L 736.586526 308.795713 
L 739.145105 311.918759 
L 741.703684 314.198031 
L 744.262262 315.934608 
L 746.820841 317.24365 
L 749.379419 318.186257 
L 751.937998 318.857449 
L 754.496577 319.35365 
L 759.613734 319.923437 
L 767.28947 320.256974 
L 780.082363 320.378228 
L 803.10957 320.396687 
L 877.30835 320.399993 
L 877.30835 320.399993 
" clip-path="url(#p055c177240)" style="fill: none; stroke: #2ca02c; stroke-width: 1.5; stroke-linecap: square"/>
   </g>
   <g id="line2d_38">
    <path d="M 291.163266 320.399993 
L 593.635521 320.28469 
L 599.236859 320.089709 
L 604.838197 319.657632 
L 607.638866 319.277754 
L 610.439535 318.679592 
L 613.240204 317.849739 
L 616.040873 316.737539 
L 618.841542 315.322357 
L 621.642211 313.096832 
L 624.44288 310.168136 
L 627.243549 306.696503 
L 630.044218 302.276431 
L 632.844887 296.697498 
L 635.645556 290.058418 
L 638.446225 281.649617 
L 641.246894 272.404922 
L 644.047563 261.434952 
L 646.848232 249.028732 
L 649.648901 235.123521 
L 652.449571 220.081712 
L 660.851578 171.164905 
L 663.652247 154.792872 
L 666.452916 139.591154 
L 669.253585 125.694221 
L 672.054254 113.342937 
L 674.854923 102.973661 
L 677.655592 95.697535 
L 680.456261 90.758892 
L 683.25693 88.271888 
L 686.057599 88.871579 
L 688.858268 92.903626 
L 691.658937 99.385446 
L 694.459606 109.483564 
L 697.260275 121.287555 
L 700.060944 133.986447 
L 705.662282 164.85019 
L 711.26362 197.120253 
L 714.064289 211.853809 
L 716.864958 227.379632 
L 719.665627 241.102549 
L 722.466296 253.83747 
L 725.266965 265.549155 
L 728.067634 275.816902 
L 730.868303 284.541711 
L 733.668972 291.97052 
L 736.469641 298.395578 
L 739.27031 303.40332 
L 742.070979 307.824344 
L 744.871648 311.113139 
L 747.672317 313.56788 
L 750.472986 315.488445 
L 753.273655 316.962014 
L 756.074324 317.994514 
L 758.874993 318.754025 
L 761.675662 319.297717 
L 767.277001 319.943679 
L 775.679008 320.271765 
L 786.881684 320.378535 
L 842.895064 320.399098 
L 848.496402 320.399993 
L 848.496402 320.399993 
" clip-path="url(#p055c177240)" style="fill: none; stroke: #d62728; stroke-width: 1.5; stroke-linecap: square"/>
   </g>
   <g id="patch_9">
    <path d="M 530.267294 320.4 
L 530.267294 43.2 
" style="fill: none; stroke: #000000; stroke-width: 0.8; stroke-linejoin: miter; stroke-linecap: square"/>
   </g>
   <g id="patch_10">
    <path d="M 833.556706 320.4 
L 833.556706 43.2 
" style="fill: none; stroke: #000000; stroke-width: 0.8; stroke-linejoin: miter; stroke-linecap: square"/>
   </g>
   <g id="patch_11">
    <path d="M 530.267294 320.4 
L 833.556706 320.4 
" style="fill: none; stroke: #000000; stroke-width: 0.8; stroke-linejoin: miter; stroke-linecap: square"/>
   </g>
   <g id="patch_12">
    <path d="M 530.267294 43.2 
L 833.556706 43.2 
" style="fill: none; stroke: #000000; stroke-width: 0.8; stroke-linejoin: miter; stroke-linecap: square"/>
   </g>
   <g id="text_34">
    <!-- nytimes-256-angular -->
    <g transform="translate(619.194187 37.2)scale(0.12 -0.12)">
     <defs>
      <path id="DejaVuSans-6d" d="M 3328 2828 
Q 3544 3216 3844 3400 
Q 4144 3584 4550 3584 
Q 5097 3584 5394 3201 
Q 5691 2819 5691 2113 
L 5691 0 
L 5113 0 
L 5113 2094 
Q 5113 2597 4934 2840 
Q 4756 3084 4391 3084 
Q 3944 3084 3684 2787 
Q 3425 2491 3425 1978 
L 3425 0 
L 2847 0 
L 2847 2094 
Q 2847 2600 2669 2842 
Q 2491 3084 2119 3084 
Q 1678 3084 1418 2786 
Q 1159 2488 1159 1978 
L 1159 0 
L 581 0 
L 581 3500 
L 1159 3500 
L 1159 2956 
Q 1356 3278 1631 3431 
Q 1906 3584 2284 3584 
Q 2666 3584 2933 3390 
Q 3200 3197 3328 2828 
z
" transform="scale(0.015625)"/>
      <path id="DejaVuSans-35" d="M 691 4666 
L 3169 4666 
L 3169 4134 
L 1269 4134 
L 1269 2991 
Q 1406 3038 1543 3061 
Q 1681 3084 1819 3084 
Q 2600 3084 3056 2656 
Q 3513 2228 3513 1497 
Q 3513 744 3044 326 
Q 2575 -91 1722 -91 
Q 1428 -91 1123 -41 
Q 819 9 494 109 
L 494 744 
Q 775 591 1075 516 
Q 1375 441 1709 441 
Q 2250 441 2565 725 
Q 2881 1009 2881 1497 
Q 2881 1984 2565 2268 
Q 2250 2553 1709 2553 
Q 1456 2553 1204 2497 
Q 953 2441 691 2322 
L 691 4666 
z
" transform="scale(0.015625)"/>
     </defs>
     <use xlink:href="#DejaVuSans-6e"/>
     <use xlink:href="#DejaVuSans-79" x="63.378906"/>
     <use xlink:href="#DejaVuSans-74" x="122.558594"/>
     <use xlink:href="#DejaVuSans-69" x="161.767578"/>
     <use xlink:href="#DejaVuSans-6d" x="189.550781"/>
     <use xlink:href="#DejaVuSans-65" x="286.962891"/>
     <use xlink:href="#DejaVuSans-73" x="348.486328"/>
     <use xlink:href="#DejaVuSans-2d" x="400.585938"/>
     <use xlink:href="#DejaVuSans-32" x="436.669922"/>
     <use xlink:href="#DejaVuSans-35" x="500.292969"/>
     <use xlink:href="#DejaVuSans-36" x="563.916016"/>
     <use xlink:href="#DejaVuSans-2d" x="627.539062"/>
     <use xlink:href="#DejaVuSans-61" x="663.623047"/>
     <use xlink:href="#DejaVuSans-6e" x="724.902344"/>
     <use xlink:href="#DejaVuSans-67" x="788.28125"/>
     <use xlink:href="#DejaVuSans-75" x="851.757812"/>
     <use xlink:href="#DejaVuSans-6c" x="915.136719"/>
     <use xlink:href="#DejaVuSans-61" x="942.919922"/>
     <use xlink:href="#DejaVuSans-72" x="1004.199219"/>
    </g>
   </g>
   <g id="legend_2">
    <g id="patch_13">
     <path d="M 759.692643 109.9125 
L 826.556706 109.9125 
Q 828.556706 109.9125 828.556706 107.9125 
L 828.556706 50.2 
Q 828.556706 48.2 826.556706 48.2 
L 759.692643 48.2 
Q 757.692643 48.2 757.692643 50.2 
L 757.692643 107.9125 
Q 757.692643 109.9125 759.692643 109.9125 
z
" style="fill: #ffffff; opacity: 0.8; stroke: #cccccc; stroke-linejoin: miter"/>
    </g>
    <g id="line2d_39">
     <path d="M 761.692643 56.298437 
L 771.692643 56.298437 
L 781.692643 56.298437 
" style="fill: none; stroke: #1f77b4; stroke-width: 1.5; stroke-linecap: square"/>
    </g>
    <g id="text_35">
     <!-- M8P -->
     <g transform="translate(789.692643 59.798437)scale(0.1 -0.1)">
      <use xlink:href="#DejaVuSans-4d"/>
      <use xlink:href="#DejaVuSans-38" x="86.279297"/>
      <use xlink:href="#DejaVuSans-50" x="149.902344"/>
     </g>
    </g>
    <g id="line2d_40">
     <path d="M 761.692643 70.976562 
L 771.692643 70.976562 
L 781.692643 70.976562 
" style="fill: none; stroke: #ff7f0e; stroke-width: 1.5; stroke-linecap: square"/>
    </g>
    <g id="text_36">
     <!-- M16P -->
     <g transform="translate(789.692643 74.476562)scale(0.1 -0.1)">
      <use xlink:href="#DejaVuSans-4d"/>
      <use xlink:href="#DejaVuSans-31" x="86.279297"/>
      <use xlink:href="#DejaVuSans-36" x="149.902344"/>
      <use xlink:href="#DejaVuSans-50" x="213.525391"/>
     </g>
    </g>
    <g id="line2d_41">
     <path d="M 761.692643 85.654687 
L 771.692643 85.654687 
L 781.692643 85.654687 
" style="fill: none; stroke: #2ca02c; stroke-width: 1.5; stroke-linecap: square"/>
    </g>
    <g id="text_37">
     <!-- M8NP -->
     <g transform="translate(789.692643 89.154687)scale(0.1 -0.1)">
      <use xlink:href="#DejaVuSans-4d"/>
      <use xlink:href="#DejaVuSans-38" x="86.279297"/>
      <use xlink:href="#DejaVuSans-4e" x="149.902344"/>
      <use xlink:href="#DejaVuSans-50" x="224.707031"/>
     </g>
    </g>
    <g id="line2d_42">
     <path d="M 761.692643 100.332812 
L 771.692643 100.332812 
L 781.692643 100.332812 
" style="fill: none; stroke: #d62728; stroke-width: 1.5; stroke-linecap: square"/>
    </g>
    <g id="text_38">
     <!-- M16NP -->
     <g transform="translate(789.692643 103.832812)scale(0.1 -0.1)">
      <use xlink:href="#DejaVuSans-4d"/>
      <use xlink:href="#DejaVuSans-31" x="86.279297"/>
      <use xlink:href="#DejaVuSans-36" x="149.902344"/>
      <use xlink:href="#DejaVuSans-4e" x="213.525391"/>
      <use xlink:href="#DejaVuSans-50" x="288.330078"/>
     </g>
    </g>
   </g>
  </g>
  <g id="axes_3">
   <g id="patch_14">
    <path d="M 894.214588 320.4 
L 1197.504 320.4 
L 1197.504 43.2 
L 894.214588 43.2 
z
" style="fill: #ffffff"/>
   </g>
   <g id="matplotlib.axis_5">
    <g id="xtick_15">
     <g id="line2d_43">
      <g>
       <use xlink:href="#ma1fd072dc4" x="894.214588" y="320.4" style="stroke: #000000; stroke-width: 0.8"/>
      </g>
     </g>
     <g id="text_39">
      <!-- −0.6 -->
      <g transform="translate(882.073182 334.998438)scale(0.1 -0.1)">
       <use xlink:href="#DejaVuSans-2212"/>
       <use xlink:href="#DejaVuSans-30" x="83.789062"/>
       <use xlink:href="#DejaVuSans-2e" x="147.412109"/>
       <use xlink:href="#DejaVuSans-36" x="179.199219"/>
      </g>
     </g>
    </g>
    <g id="xtick_16">
     <g id="line2d_44">
      <g>
       <use xlink:href="#ma1fd072dc4" x="944.762824" y="320.4" style="stroke: #000000; stroke-width: 0.8"/>
      </g>
     </g>
     <g id="text_40">
      <!-- −0.4 -->
      <g transform="translate(932.621417 334.998438)scale(0.1 -0.1)">
       <use xlink:href="#DejaVuSans-2212"/>
       <use xlink:href="#DejaVuSans-30" x="83.789062"/>
       <use xlink:href="#DejaVuSans-2e" x="147.412109"/>
       <use xlink:href="#DejaVuSans-34" x="179.199219"/>
      </g>
     </g>
    </g>
    <g id="xtick_17">
     <g id="line2d_45">
      <g>
       <use xlink:href="#ma1fd072dc4" x="995.311059" y="320.4" style="stroke: #000000; stroke-width: 0.8"/>
      </g>
     </g>
     <g id="text_41">
      <!-- −0.2 -->
      <g transform="translate(983.169653 334.998438)scale(0.1 -0.1)">
       <use xlink:href="#DejaVuSans-2212"/>
       <use xlink:href="#DejaVuSans-30" x="83.789062"/>
       <use xlink:href="#DejaVuSans-2e" x="147.412109"/>
       <use xlink:href="#DejaVuSans-32" x="179.199219"/>
      </g>
     </g>
    </g>
    <g id="xtick_18">
     <g id="line2d_46">
      <g>
       <use xlink:href="#ma1fd072dc4" x="1045.859294" y="320.4" style="stroke: #000000; stroke-width: 0.8"/>
      </g>
     </g>
     <g id="text_42">
      <!-- 0.0 -->
      <g transform="translate(1037.907732 334.998438)scale(0.1 -0.1)">
       <use xlink:href="#DejaVuSans-30"/>
       <use xlink:href="#DejaVuSans-2e" x="63.623047"/>
       <use xlink:href="#DejaVuSans-30" x="95.410156"/>
      </g>
     </g>
    </g>
    <g id="xtick_19">
     <g id="line2d_47">
      <g>
       <use xlink:href="#ma1fd072dc4" x="1096.407529" y="320.4" style="stroke: #000000; stroke-width: 0.8"/>
      </g>
     </g>
     <g id="text_43">
      <!-- 0.2 -->
      <g transform="translate(1088.455967 334.998438)scale(0.1 -0.1)">
       <use xlink:href="#DejaVuSans-30"/>
       <use xlink:href="#DejaVuSans-2e" x="63.623047"/>
       <use xlink:href="#DejaVuSans-32" x="95.410156"/>
      </g>
     </g>
    </g>
    <g id="xtick_20">
     <g id="line2d_48">
      <g>
       <use xlink:href="#ma1fd072dc4" x="1146.955765" y="320.4" style="stroke: #000000; stroke-width: 0.8"/>
      </g>
     </g>
     <g id="text_44">
      <!-- 0.4 -->
      <g transform="translate(1139.004202 334.998438)scale(0.1 -0.1)">
       <use xlink:href="#DejaVuSans-30"/>
       <use xlink:href="#DejaVuSans-2e" x="63.623047"/>
       <use xlink:href="#DejaVuSans-34" x="95.410156"/>
      </g>
     </g>
    </g>
    <g id="xtick_21">
     <g id="line2d_49">
      <g>
       <use xlink:href="#ma1fd072dc4" x="1197.504" y="320.4" style="stroke: #000000; stroke-width: 0.8"/>
      </g>
     </g>
     <g id="text_45">
      <!-- 0.6 -->
      <g transform="translate(1189.552437 334.998438)scale(0.1 -0.1)">
       <use xlink:href="#DejaVuSans-30"/>
       <use xlink:href="#DejaVuSans-2e" x="63.623047"/>
       <use xlink:href="#DejaVuSans-36" x="95.410156"/>
      </g>
     </g>
    </g>
    <g id="text_46">
     <!-- Error -->
     <g transform="translate(1033.674138 348.676562)scale(0.1 -0.1)">
      <use xlink:href="#DejaVuSans-45"/>
      <use xlink:href="#DejaVuSans-72" x="63.183594"/>
      <use xlink:href="#DejaVuSans-72" x="102.546875"/>
      <use xlink:href="#DejaVuSans-6f" x="141.410156"/>
      <use xlink:href="#DejaVuSans-72" x="202.591797"/>
     </g>
    </g>
   </g>
   <g id="matplotlib.axis_6">
    <g id="ytick_11">
     <g id="line2d_50">
      <g>
       <use xlink:href="#m97278c0092" x="894.214588" y="320.4" style="stroke: #000000; stroke-width: 0.8"/>
      </g>
     </g>
     <g id="text_47">
      <!-- 0.0 -->
      <g transform="translate(871.311463 324.199219)scale(0.1 -0.1)">
       <use xlink:href="#DejaVuSans-30"/>
       <use xlink:href="#DejaVuSans-2e" x="63.623047"/>
       <use xlink:href="#DejaVuSans-30" x="95.410156"/>
      </g>
     </g>
    </g>
    <g id="ytick_12">
     <g id="line2d_51">
      <g>
       <use xlink:href="#m97278c0092" x="894.214588" y="271.63109" style="stroke: #000000; stroke-width: 0.8"/>
      </g>
     </g>
     <g id="text_48">
      <!-- 0.5 -->
      <g transform="translate(871.311463 275.430308)scale(0.1 -0.1)">
       <use xlink:href="#DejaVuSans-30"/>
       <use xlink:href="#DejaVuSans-2e" x="63.623047"/>
       <use xlink:href="#DejaVuSans-35" x="95.410156"/>
      </g>
     </g>
    </g>
    <g id="ytick_13">
     <g id="line2d_52">
      <g>
       <use xlink:href="#m97278c0092" x="894.214588" y="222.862179" style="stroke: #000000; stroke-width: 0.8"/>
      </g>
     </g>
     <g id="text_49">
      <!-- 1.0 -->
      <g transform="translate(871.311463 226.661398)scale(0.1 -0.1)">
       <use xlink:href="#DejaVuSans-31"/>
       <use xlink:href="#DejaVuSans-2e" x="63.623047"/>
       <use xlink:href="#DejaVuSans-30" x="95.410156"/>
      </g>
     </g>
    </g>
    <g id="ytick_14">
     <g id="line2d_53">
      <g>
       <use xlink:href="#m97278c0092" x="894.214588" y="174.093269" style="stroke: #000000; stroke-width: 0.8"/>
      </g>
     </g>
     <g id="text_50">
      <!-- 1.5 -->
      <g transform="translate(871.311463 177.892488)scale(0.1 -0.1)">
       <use xlink:href="#DejaVuSans-31"/>
       <use xlink:href="#DejaVuSans-2e" x="63.623047"/>
       <use xlink:href="#DejaVuSans-35" x="95.410156"/>
      </g>
     </g>
    </g>
    <g id="ytick_15">
     <g id="line2d_54">
      <g>
       <use xlink:href="#m97278c0092" x="894.214588" y="125.324359" style="stroke: #000000; stroke-width: 0.8"/>
      </g>
     </g>
     <g id="text_51">
      <!-- 2.0 -->
      <g transform="translate(871.311463 129.123577)scale(0.1 -0.1)">
       <use xlink:href="#DejaVuSans-32"/>
       <use xlink:href="#DejaVuSans-2e" x="63.623047"/>
       <use xlink:href="#DejaVuSans-30" x="95.410156"/>
      </g>
     </g>
    </g>
    <g id="ytick_16">
     <g id="line2d_55">
      <g>
       <use xlink:href="#m97278c0092" x="894.214588" y="76.555448" style="stroke: #000000; stroke-width: 0.8"/>
      </g>
     </g>
     <g id="text_52">
      <!-- 2.5 -->
      <g transform="translate(871.311463 80.354667)scale(0.1 -0.1)">
       <use xlink:href="#DejaVuSans-32"/>
       <use xlink:href="#DejaVuSans-2e" x="63.623047"/>
       <use xlink:href="#DejaVuSans-35" x="95.410156"/>
      </g>
     </g>
    </g>
    <g id="text_53">
     <!-- Density -->
     <g transform="translate(865.231776 200.808594)rotate(-90)scale(0.1 -0.1)">
      <use xlink:href="#DejaVuSans-44"/>
      <use xlink:href="#DejaVuSans-65" x="77.001953"/>
      <use xlink:href="#DejaVuSans-6e" x="138.525391"/>
      <use xlink:href="#DejaVuSans-73" x="201.904297"/>
      <use xlink:href="#DejaVuSans-69" x="254.003906"/>
      <use xlink:href="#DejaVuSans-74" x="281.787109"/>
      <use xlink:href="#DejaVuSans-79" x="320.996094"/>
     </g>
    </g>
   </g>
   <g id="line2d_56">
    <path d="M 1045.859294 320.4 
L 1045.859294 43.2 
" clip-path="url(#p043bb54044)" style="fill: none; stroke-dasharray: 5.55,2.4; stroke-dashoffset: 0; stroke: #1f77b4; stroke-width: 1.5"/>
   </g>
   <g id="line2d_57">
    <path d="M 604.791144 320.399962 
L 701.188759 320.4 
L 868.277958 320.289993 
L 881.130974 319.978545 
L 887.557481 319.692261 
L 893.983989 319.115495 
L 900.410497 318.289162 
L 903.623751 317.635282 
L 910.050258 315.994481 
L 913.263512 314.928385 
L 916.476766 313.614225 
L 919.69002 311.984892 
L 922.903274 310.028151 
L 926.116527 307.829232 
L 929.329781 305.255525 
L 932.543035 302.116438 
L 935.756289 298.776023 
L 938.969543 294.81952 
L 942.182797 290.206659 
L 945.39605 285.240792 
L 948.609304 279.481236 
L 951.822558 273.234361 
L 955.035812 266.402 
L 958.249066 258.898031 
L 961.46232 250.883321 
L 964.675573 242.455817 
L 967.888827 233.446008 
L 971.102081 223.802862 
L 977.528589 203.473196 
L 990.381604 160.336722 
L 1000.021366 130.684044 
L 1003.234619 121.639969 
L 1006.447873 113.598728 
L 1009.661127 106.377184 
L 1012.874381 100.57063 
L 1016.087635 95.775281 
L 1019.300889 91.720626 
L 1022.514142 89.048016 
L 1025.727396 87.343339 
L 1028.94065 87.162675 
L 1032.153904 88.500097 
L 1035.367158 90.469097 
L 1038.580412 93.860232 
L 1041.793665 99.159436 
L 1045.006919 104.897608 
L 1048.220173 111.559203 
L 1054.646681 129.684699 
L 1057.859935 139.401665 
L 1064.286442 160.360366 
L 1067.499696 170.794428 
L 1070.71295 182.303452 
L 1077.139458 204.138029 
L 1080.352711 214.596603 
L 1083.565965 224.603669 
L 1093.205727 252.610198 
L 1096.418981 260.655017 
L 1099.632234 267.839314 
L 1102.845488 274.579314 
L 1109.271996 286.391074 
L 1112.48525 291.320834 
L 1115.698504 295.66134 
L 1118.911757 299.589436 
L 1122.125011 302.939114 
L 1125.338265 305.846805 
L 1128.551519 308.464699 
L 1131.764773 310.562633 
L 1134.978027 312.346526 
L 1138.19128 313.872003 
L 1141.404534 315.18545 
L 1144.617788 316.250974 
L 1151.044296 317.815522 
L 1160.684057 319.208318 
L 1170.323819 319.872232 
L 1176.750326 320.090275 
L 1186.390088 320.27695 
L 1215.309372 320.395735 
L 1244.228657 320.399993 
L 1244.228657 320.399993 
" clip-path="url(#p043bb54044)" style="fill: none; stroke: #1f77b4; stroke-width: 1.5; stroke-linecap: square"/>
   </g>
   <g id="line2d_58">
    <path d="M 480.431641 320.399995 
L 832.578963 320.277404 
L 845.007692 320.076966 
L 857.436421 319.637089 
L 865.72224 319.107606 
L 874.00806 318.209006 
L 878.150969 317.65727 
L 882.293879 316.910528 
L 886.436789 315.931742 
L 890.579698 314.79603 
L 894.722608 313.374537 
L 898.865518 311.7813 
L 903.008427 309.891044 
L 907.151337 307.717659 
L 911.294247 304.897614 
L 915.437156 301.501589 
L 919.580066 297.913396 
L 923.722976 293.776344 
L 927.865885 289.111527 
L 932.008795 283.840071 
L 936.151705 277.958565 
L 944.437524 264.291548 
L 948.580434 256.600569 
L 956.866253 239.614214 
L 961.009163 230.551319 
L 965.152072 220.684923 
L 969.294982 211.129476 
L 973.437892 202.010837 
L 977.580801 192.407841 
L 981.723711 183.602914 
L 985.866621 175.292949 
L 990.00953 167.261736 
L 998.29535 154.531107 
L 1002.438259 149.328532 
L 1006.581169 144.714985 
L 1010.724079 140.674499 
L 1014.866988 137.914305 
L 1019.009898 136.051377 
L 1027.295717 135.162926 
L 1031.438627 136.460879 
L 1035.581537 139.300746 
L 1039.724446 142.914901 
L 1043.867356 147.352774 
L 1048.010266 152.417383 
L 1052.153175 158.856022 
L 1056.296085 165.710101 
L 1060.438995 173.419701 
L 1072.867724 197.954028 
L 1077.010633 206.61071 
L 1093.582272 239.051004 
L 1097.725182 246.62838 
L 1101.868091 253.793241 
L 1110.153911 267.155591 
L 1114.29682 273.102407 
L 1118.43973 278.742982 
L 1122.58264 284.104825 
L 1126.725549 288.926005 
L 1130.868459 293.151725 
L 1135.011369 297.191394 
L 1139.154278 300.662721 
L 1143.297188 303.623817 
L 1147.440098 306.325864 
L 1151.583008 308.642506 
L 1155.725917 310.699135 
L 1159.868827 312.325303 
L 1164.011737 313.78622 
L 1168.154646 315.073329 
L 1176.440466 316.864558 
L 1180.583375 317.528167 
L 1188.869195 318.527765 
L 1197.155014 319.201207 
L 1209.583743 319.7974 
L 1226.155382 320.191163 
L 1251.01284 320.361795 
L 1304.870665 320.399995 
L 1304.870665 320.399995 
" clip-path="url(#p043bb54044)" style="fill: none; stroke: #ff7f0e; stroke-width: 1.5; stroke-linecap: square"/>
   </g>
   <g id="line2d_59">
    <path d="M 566.078574 320.399968 
L 651.679156 320.399835 
L 882.142264 320.272208 
L 892.019254 319.95012 
L 898.603914 319.467534 
L 901.896244 319.106822 
L 908.480905 318.00417 
L 911.773235 317.094411 
L 915.065565 316.063514 
L 918.357895 314.682735 
L 921.650225 312.946387 
L 924.942555 310.76076 
L 928.234885 308.147412 
L 931.527215 305.115141 
L 934.819545 301.206359 
L 938.111876 296.744913 
L 941.404206 291.498259 
L 944.696536 285.488621 
L 947.988866 278.570161 
L 954.573526 261.98889 
L 957.865856 252.603379 
L 961.158186 242.182564 
L 964.450516 231.322555 
L 967.742847 219.234088 
L 971.035177 206.599374 
L 994.081487 113.815774 
L 997.373817 102.678814 
L 1000.666148 92.473417 
L 1003.958478 83.692122 
L 1007.250808 76.50283 
L 1010.543138 70.768448 
L 1013.835468 66.214684 
L 1017.127798 64.540471 
L 1020.420128 64.382942 
L 1023.712458 66.019352 
L 1027.004788 68.578862 
L 1030.297119 74.090479 
L 1033.589449 80.576323 
L 1036.881779 88.797506 
L 1040.174109 98.558432 
L 1043.466439 108.946112 
L 1046.758769 120.144404 
L 1050.051099 132.000194 
L 1053.343429 144.31623 
L 1056.635759 157.342782 
L 1063.22042 182.032737 
L 1069.80508 207.481563 
L 1076.38974 230.890729 
L 1082.9744 252.04942 
L 1086.26673 261.550345 
L 1089.55906 269.923892 
L 1092.851391 277.073404 
L 1096.143721 283.8281 
L 1099.436051 289.589348 
L 1102.728381 294.748849 
L 1106.020711 299.195817 
L 1109.313041 302.9833 
L 1112.605371 306.15554 
L 1115.897701 308.856842 
L 1119.190031 311.146108 
L 1122.482361 313.149449 
L 1125.774692 314.530508 
L 1129.067022 315.777475 
L 1135.651682 317.546505 
L 1138.944012 318.162387 
L 1145.528672 319.1183 
L 1152.113332 319.695532 
L 1158.697993 319.963792 
L 1171.867313 320.272808 
L 1191.621294 320.386366 
L 1221.252265 320.399991 
L 1221.252265 320.399991 
" clip-path="url(#p043bb54044)" style="fill: none; stroke: #2ca02c; stroke-width: 1.5; stroke-linecap: square"/>
   </g>
   <g id="line2d_60">
    <path d="M 555.219849 320.399992 
L 887.738372 320.232919 
L 894.388742 320.01789 
L 901.039113 319.598444 
L 907.689483 318.811337 
L 911.014669 318.153675 
L 914.339854 317.298037 
L 917.665039 316.247044 
L 920.990224 314.797217 
L 924.315409 312.917619 
L 927.640595 310.686727 
L 930.96578 308.036038 
L 934.290965 304.468082 
L 937.61615 300.466936 
L 940.941336 295.717005 
L 944.266521 289.87571 
L 947.591706 283.185973 
L 950.916891 275.315355 
L 954.242077 266.654781 
L 957.567262 257.24961 
L 960.892447 246.687904 
L 964.217632 235.226859 
L 967.542817 222.716934 
L 970.868003 209.518089 
L 974.193188 195.689866 
L 987.493929 137.338587 
L 990.819114 123.435768 
L 997.469485 97.020602 
L 1004.119855 76.266019 
L 1007.44504 68.875475 
L 1010.770225 62.302267 
L 1014.095411 58.301628 
L 1017.420596 57.018625 
L 1020.745781 56.4 
L 1024.070966 58.725623 
L 1027.396152 63.065982 
L 1030.721337 69.243635 
L 1034.046522 77.050924 
L 1037.371707 85.472724 
L 1040.696892 96.566345 
L 1047.347263 119.989103 
L 1053.997633 146.257292 
L 1060.648004 173.357121 
L 1067.298374 199.959745 
L 1070.62356 212.948748 
L 1077.27393 236.503894 
L 1080.599115 247.623649 
L 1083.9243 257.653437 
L 1087.249486 266.920082 
L 1090.574671 275.472423 
L 1093.899856 282.725772 
L 1097.225041 289.140857 
L 1100.550227 294.521982 
L 1103.875412 299.079222 
L 1107.200597 302.922426 
L 1113.850968 309.129607 
L 1117.176153 311.3258 
L 1120.501338 313.242663 
L 1123.826523 314.70994 
L 1127.151708 315.956924 
L 1130.476894 317.00289 
L 1133.802079 317.836981 
L 1137.127264 318.455477 
L 1143.777635 319.25031 
L 1150.428005 319.755469 
L 1163.728746 320.230834 
L 1173.704302 320.324894 
L 1190.330228 320.391557 
L 1216.93171 320.399993 
L 1216.93171 320.399993 
" clip-path="url(#p043bb54044)" style="fill: none; stroke: #d62728; stroke-width: 1.5; stroke-linecap: square"/>
   </g>
   <g id="patch_15">
    <path d="M 894.214588 320.4 
L 894.214588 43.2 
" style="fill: none; stroke: #000000; stroke-width: 0.8; stroke-linejoin: miter; stroke-linecap: square"/>
   </g>
   <g id="patch_16">
    <path d="M 1197.504 320.4 
L 1197.504 43.2 
" style="fill: none; stroke: #000000; stroke-width: 0.8; stroke-linejoin: miter; stroke-linecap: square"/>
   </g>
   <g id="patch_17">
    <path d="M 894.214588 320.4 
L 1197.504 320.4 
" style="fill: none; stroke: #000000; stroke-width: 0.8; stroke-linejoin: miter; stroke-linecap: square"/>
   </g>
   <g id="patch_18">
    <path d="M 894.214588 43.2 
L 1197.504 43.2 
" style="fill: none; stroke: #000000; stroke-width: 0.8; stroke-linejoin: miter; stroke-linecap: square"/>
   </g>
   <g id="text_54">
    <!-- deep-image-96-angular -->
    <g transform="translate(975.138044 37.2)scale(0.12 -0.12)">
     <defs>
      <path id="DejaVuSans-64" d="M 2906 2969 
L 2906 4863 
L 3481 4863 
L 3481 0 
L 2906 0 
L 2906 525 
Q 2725 213 2448 61 
Q 2172 -91 1784 -91 
Q 1150 -91 751 415 
Q 353 922 353 1747 
Q 353 2572 751 3078 
Q 1150 3584 1784 3584 
Q 2172 3584 2448 3432 
Q 2725 3281 2906 2969 
z
M 947 1747 
Q 947 1113 1208 752 
Q 1469 391 1925 391 
Q 2381 391 2643 752 
Q 2906 1113 2906 1747 
Q 2906 2381 2643 2742 
Q 2381 3103 1925 3103 
Q 1469 3103 1208 2742 
Q 947 2381 947 1747 
z
" transform="scale(0.015625)"/>
      <path id="DejaVuSans-70" d="M 1159 525 
L 1159 -1331 
L 581 -1331 
L 581 3500 
L 1159 3500 
L 1159 2969 
Q 1341 3281 1617 3432 
Q 1894 3584 2278 3584 
Q 2916 3584 3314 3078 
Q 3713 2572 3713 1747 
Q 3713 922 3314 415 
Q 2916 -91 2278 -91 
Q 1894 -91 1617 61 
Q 1341 213 1159 525 
z
M 3116 1747 
Q 3116 2381 2855 2742 
Q 2594 3103 2138 3103 
Q 1681 3103 1420 2742 
Q 1159 2381 1159 1747 
Q 1159 1113 1420 752 
Q 1681 391 2138 391 
Q 2594 391 2855 752 
Q 3116 1113 3116 1747 
z
" transform="scale(0.015625)"/>
      <path id="DejaVuSans-39" d="M 703 97 
L 703 672 
Q 941 559 1184 500 
Q 1428 441 1663 441 
Q 2288 441 2617 861 
Q 2947 1281 2994 2138 
Q 2813 1869 2534 1725 
Q 2256 1581 1919 1581 
Q 1219 1581 811 2004 
Q 403 2428 403 3163 
Q 403 3881 828 4315 
Q 1253 4750 1959 4750 
Q 2769 4750 3195 4129 
Q 3622 3509 3622 2328 
Q 3622 1225 3098 567 
Q 2575 -91 1691 -91 
Q 1453 -91 1209 -44 
Q 966 3 703 97 
z
M 1959 2075 
Q 2384 2075 2632 2365 
Q 2881 2656 2881 3163 
Q 2881 3666 2632 3958 
Q 2384 4250 1959 4250 
Q 1534 4250 1286 3958 
Q 1038 3666 1038 3163 
Q 1038 2656 1286 2365 
Q 1534 2075 1959 2075 
z
" transform="scale(0.015625)"/>
     </defs>
     <use xlink:href="#DejaVuSans-64"/>
     <use xlink:href="#DejaVuSans-65" x="63.476562"/>
     <use xlink:href="#DejaVuSans-65" x="125"/>
     <use xlink:href="#DejaVuSans-70" x="186.523438"/>
     <use xlink:href="#DejaVuSans-2d" x="250"/>
     <use xlink:href="#DejaVuSans-69" x="286.083984"/>
     <use xlink:href="#DejaVuSans-6d" x="313.867188"/>
     <use xlink:href="#DejaVuSans-61" x="411.279297"/>
     <use xlink:href="#DejaVuSans-67" x="472.558594"/>
     <use xlink:href="#DejaVuSans-65" x="536.035156"/>
     <use xlink:href="#DejaVuSans-2d" x="597.558594"/>
     <use xlink:href="#DejaVuSans-39" x="633.642578"/>
     <use xlink:href="#DejaVuSans-36" x="697.265625"/>
     <use xlink:href="#DejaVuSans-2d" x="760.888672"/>
     <use xlink:href="#DejaVuSans-61" x="796.972656"/>
     <use xlink:href="#DejaVuSans-6e" x="858.251953"/>
     <use xlink:href="#DejaVuSans-67" x="921.630859"/>
     <use xlink:href="#DejaVuSans-75" x="985.107422"/>
     <use xlink:href="#DejaVuSans-6c" x="1048.486328"/>
     <use xlink:href="#DejaVuSans-61" x="1076.269531"/>
     <use xlink:href="#DejaVuSans-72" x="1137.548828"/>
    </g>
   </g>
   <g id="legend_3">
    <g id="patch_19">
     <path d="M 1123.639937 109.9125 
L 1190.504 109.9125 
Q 1192.504 109.9125 1192.504 107.9125 
L 1192.504 50.2 
Q 1192.504 48.2 1190.504 48.2 
L 1123.639937 48.2 
Q 1121.639937 48.2 1121.639937 50.2 
L 1121.639937 107.9125 
Q 1121.639937 109.9125 1123.639937 109.9125 
z
" style="fill: #ffffff; opacity: 0.8; stroke: #cccccc; stroke-linejoin: miter"/>
    </g>
    <g id="line2d_61">
     <path d="M 1125.639937 56.298437 
L 1135.639937 56.298437 
L 1145.639937 56.298437 
" style="fill: none; stroke: #1f77b4; stroke-width: 1.5; stroke-linecap: square"/>
    </g>
    <g id="text_55">
     <!-- M8P -->
     <g transform="translate(1153.639937 59.798437)scale(0.1 -0.1)">
      <use xlink:href="#DejaVuSans-4d"/>
      <use xlink:href="#DejaVuSans-38" x="86.279297"/>
      <use xlink:href="#DejaVuSans-50" x="149.902344"/>
     </g>
    </g>
    <g id="line2d_62">
     <path d="M 1125.639937 70.976562 
L 1135.639937 70.976562 
L 1145.639937 70.976562 
" style="fill: none; stroke: #ff7f0e; stroke-width: 1.5; stroke-linecap: square"/>
    </g>
    <g id="text_56">
     <!-- M16P -->
     <g transform="translate(1153.639937 74.476562)scale(0.1 -0.1)">
      <use xlink:href="#DejaVuSans-4d"/>
      <use xlink:href="#DejaVuSans-31" x="86.279297"/>
      <use xlink:href="#DejaVuSans-36" x="149.902344"/>
      <use xlink:href="#DejaVuSans-50" x="213.525391"/>
     </g>
    </g>
    <g id="line2d_63">
     <path d="M 1125.639937 85.654687 
L 1135.639937 85.654687 
L 1145.639937 85.654687 
" style="fill: none; stroke: #2ca02c; stroke-width: 1.5; stroke-linecap: square"/>
    </g>
    <g id="text_57">
     <!-- M8NP -->
     <g transform="translate(1153.639937 89.154687)scale(0.1 -0.1)">
      <use xlink:href="#DejaVuSans-4d"/>
      <use xlink:href="#DejaVuSans-38" x="86.279297"/>
      <use xlink:href="#DejaVuSans-4e" x="149.902344"/>
      <use xlink:href="#DejaVuSans-50" x="224.707031"/>
     </g>
    </g>
    <g id="line2d_64">
     <path d="M 1125.639937 100.332812 
L 1135.639937 100.332812 
L 1145.639937 100.332812 
" style="fill: none; stroke: #d62728; stroke-width: 1.5; stroke-linecap: square"/>
    </g>
    <g id="text_58">
     <!-- M16NP -->
     <g transform="translate(1153.639937 103.832812)scale(0.1 -0.1)">
      <use xlink:href="#DejaVuSans-4d"/>
      <use xlink:href="#DejaVuSans-31" x="86.279297"/>
      <use xlink:href="#DejaVuSans-36" x="149.902344"/>
      <use xlink:href="#DejaVuSans-4e" x="213.525391"/>
      <use xlink:href="#DejaVuSans-50" x="288.330078"/>
     </g>
    </g>
   </g>
  </g>
  <g id="text_59">
   <!-- Estimation errors -->
   <g transform="translate(613.774688 16.318125)scale(0.12 -0.12)">
    <defs>
     <path id="DejaVuSans-20" transform="scale(0.015625)"/>
    </defs>
    <use xlink:href="#DejaVuSans-45"/>
    <use xlink:href="#DejaVuSans-73" x="63.183594"/>
    <use xlink:href="#DejaVuSans-74" x="115.283203"/>
    <use xlink:href="#DejaVuSans-69" x="154.492188"/>
    <use xlink:href="#DejaVuSans-6d" x="182.275391"/>
    <use xlink:href="#DejaVuSans-61" x="279.6875"/>
    <use xlink:href="#DejaVuSans-74" x="340.966797"/>
    <use xlink:href="#DejaVuSans-69" x="380.175781"/>
    <use xlink:href="#DejaVuSans-6f" x="407.958984"/>
    <use xlink:href="#DejaVuSans-6e" x="469.140625"/>
    <use xlink:href="#DejaVuSans-20" x="532.519531"/>
    <use xlink:href="#DejaVuSans-65" x="564.306641"/>
    <use xlink:href="#DejaVuSans-72" x="625.830078"/>
    <use xlink:href="#DejaVuSans-72" x="665.193359"/>
    <use xlink:href="#DejaVuSans-6f" x="704.056641"/>
    <use xlink:href="#DejaVuSans-72" x="765.238281"/>
    <use xlink:href="#DejaVuSans-73" x="806.351562"/>
   </g>
  </g>
 </g>
 <defs>
  <clipPath id="p246b22c572">
   <rect x="166.32" y="43.2" width="303.289412" height="277.2"/>
  </clipPath>
  <clipPath id="p055c177240">
   <rect x="530.267294" y="43.2" width="303.289412" height="277.2"/>
  </clipPath>
  <clipPath id="p043bb54044">
   <rect x="894.214588" y="43.2" width="303.289412" height="277.2"/>
  </clipPath>
 </defs>
</svg>
