<?xml version="1.0" encoding="utf-8" standalone="no"?>
<!DOCTYPE svg PUBLIC "-//W3C//DTD SVG 1.1//EN"
  "http://www.w3.org/Graphics/SVG/1.1/DTD/svg11.dtd">
<svg xmlns:xlink="http://www.w3.org/1999/xlink" width="1330.56pt" height="360pt" viewBox="0 0 1330.56 360" xmlns="http://www.w3.org/2000/svg" version="1.1">
 <metadata>
  <rdf:RDF xmlns:dc="http://purl.org/dc/elements/1.1/" xmlns:cc="http://creativecommons.org/ns#" xmlns:rdf="http://www.w3.org/1999/02/22-rdf-syntax-ns#">
   <cc:Work>
    <dc:type rdf:resource="http://purl.org/dc/dcmitype/StillImage"/>
    <dc:date>2022-05-06T09:12:56.476957</dc:date>
    <dc:format>image/svg+xml</dc:format>
    <dc:creator>
     <cc:Agent>
      <dc:title>Matplotlib v3.5.1, https://matplotlib.org/</dc:title>
     </cc:Agent>
    </dc:creator>
   </cc:Work>
  </rdf:RDF>
 </metadata>
 <defs>
  <style type="text/css">*{stroke-linejoin: round; stroke-linecap: butt}</style>
 </defs>
 <g id="figure_1">
  <g id="patch_1">
   <path d="M 0 360 
L 1330.56 360 
L 1330.56 0 
L 0 0 
z
" style="fill: #ffffff"/>
  </g>
  <g id="axes_1">
   <g id="patch_2">
    <path d="M 166.32 320.4 
L 469.609412 320.4 
L 469.609412 43.2 
L 166.32 43.2 
z
" style="fill: #ffffff"/>
   </g>
   <g id="matplotlib.axis_1">
    <g id="xtick_1">
     <g id="line2d_1">
      <defs>
       <path id="m21d95fe033" d="M 0 0 
L 0 3.5 
" style="stroke: #000000; stroke-width: 0.8"/>
      </defs>
      <g>
       <use xlink:href="#m21d95fe033" x="166.32" y="320.4" style="stroke: #000000; stroke-width: 0.8"/>
      </g>
     </g>
     <g id="text_1">
      <!-- −0.6 -->
      <g transform="translate(154.178594 334.998438)scale(0.1 -0.1)">
       <defs>
        <path id="DejaVuSans-2212" d="M 678 2272 
L 4684 2272 
L 4684 1741 
L 678 1741 
L 678 2272 
z
" transform="scale(0.015625)"/>
        <path id="DejaVuSans-30" d="M 2034 4250 
Q 1547 4250 1301 3770 
Q 1056 3291 1056 2328 
Q 1056 1369 1301 889 
Q 1547 409 2034 409 
Q 2525 409 2770 889 
Q 3016 1369 3016 2328 
Q 3016 3291 2770 3770 
Q 2525 4250 2034 4250 
z
M 2034 4750 
Q 2819 4750 3233 4129 
Q 3647 3509 3647 2328 
Q 3647 1150 3233 529 
Q 2819 -91 2034 -91 
Q 1250 -91 836 529 
Q 422 1150 422 2328 
Q 422 3509 836 4129 
Q 1250 4750 2034 4750 
z
" transform="scale(0.015625)"/>
        <path id="DejaVuSans-2e" d="M 684 794 
L 1344 794 
L 1344 0 
L 684 0 
L 684 794 
z
" transform="scale(0.015625)"/>
        <path id="DejaVuSans-36" d="M 2113 2584 
Q 1688 2584 1439 2293 
Q 1191 2003 1191 1497 
Q 1191 994 1439 701 
Q 1688 409 2113 409 
Q 2538 409 2786 701 
Q 3034 994 3034 1497 
Q 3034 2003 2786 2293 
Q 2538 2584 2113 2584 
z
M 3366 4563 
L 3366 3988 
Q 3128 4100 2886 4159 
Q 2644 4219 2406 4219 
Q 1781 4219 1451 3797 
Q 1122 3375 1075 2522 
Q 1259 2794 1537 2939 
Q 1816 3084 2150 3084 
Q 2853 3084 3261 2657 
Q 3669 2231 3669 1497 
Q 3669 778 3244 343 
Q 2819 -91 2113 -91 
Q 1303 -91 875 529 
Q 447 1150 447 2328 
Q 447 3434 972 4092 
Q 1497 4750 2381 4750 
Q 2619 4750 2861 4703 
Q 3103 4656 3366 4563 
z
" transform="scale(0.015625)"/>
       </defs>
       <use xlink:href="#DejaVuSans-2212"/>
       <use xlink:href="#DejaVuSans-30" x="83.789062"/>
       <use xlink:href="#DejaVuSans-2e" x="147.412109"/>
       <use xlink:href="#DejaVuSans-36" x="179.199219"/>
      </g>
     </g>
    </g>
    <g id="xtick_2">
     <g id="line2d_2">
      <g>
       <use xlink:href="#m21d95fe033" x="216.868235" y="320.4" style="stroke: #000000; stroke-width: 0.8"/>
      </g>
     </g>
     <g id="text_2">
      <!-- −0.4 -->
      <g transform="translate(204.726829 334.998438)scale(0.1 -0.1)">
       <defs>
        <path id="DejaVuSans-34" d="M 2419 4116 
L 825 1625 
L 2419 1625 
L 2419 4116 
z
M 2253 4666 
L 3047 4666 
L 3047 1625 
L 3713 1625 
L 3713 1100 
L 3047 1100 
L 3047 0 
L 2419 0 
L 2419 1100 
L 313 1100 
L 313 1709 
L 2253 4666 
z
" transform="scale(0.015625)"/>
       </defs>
       <use xlink:href="#DejaVuSans-2212"/>
       <use xlink:href="#DejaVuSans-30" x="83.789062"/>
       <use xlink:href="#DejaVuSans-2e" x="147.412109"/>
       <use xlink:href="#DejaVuSans-34" x="179.199219"/>
      </g>
     </g>
    </g>
    <g id="xtick_3">
     <g id="line2d_3">
      <g>
       <use xlink:href="#m21d95fe033" x="267.416471" y="320.4" style="stroke: #000000; stroke-width: 0.8"/>
      </g>
     </g>
     <g id="text_3">
      <!-- −0.2 -->
      <g transform="translate(255.275064 334.998438)scale(0.1 -0.1)">
       <defs>
        <path id="DejaVuSans-32" d="M 1228 531 
L 3431 531 
L 3431 0 
L 469 0 
L 469 531 
Q 828 903 1448 1529 
Q 2069 2156 2228 2338 
Q 2531 2678 2651 2914 
Q 2772 3150 2772 3378 
Q 2772 3750 2511 3984 
Q 2250 4219 1831 4219 
Q 1534 4219 1204 4116 
Q 875 4013 500 3803 
L 500 4441 
Q 881 4594 1212 4672 
Q 1544 4750 1819 4750 
Q 2544 4750 2975 4387 
Q 3406 4025 3406 3419 
Q 3406 3131 3298 2873 
Q 3191 2616 2906 2266 
Q 2828 2175 2409 1742 
Q 1991 1309 1228 531 
z
" transform="scale(0.015625)"/>
       </defs>
       <use xlink:href="#DejaVuSans-2212"/>
       <use xlink:href="#DejaVuSans-30" x="83.789062"/>
       <use xlink:href="#DejaVuSans-2e" x="147.412109"/>
       <use xlink:href="#DejaVuSans-32" x="179.199219"/>
      </g>
     </g>
    </g>
    <g id="xtick_4">
     <g id="line2d_4">
      <g>
       <use xlink:href="#m21d95fe033" x="317.964706" y="320.4" style="stroke: #000000; stroke-width: 0.8"/>
      </g>
     </g>
     <g id="text_4">
      <!-- 0.0 -->
      <g transform="translate(310.013143 334.998438)scale(0.1 -0.1)">
       <use xlink:href="#DejaVuSans-30"/>
       <use xlink:href="#DejaVuSans-2e" x="63.623047"/>
       <use xlink:href="#DejaVuSans-30" x="95.410156"/>
      </g>
     </g>
    </g>
    <g id="xtick_5">
     <g id="line2d_5">
      <g>
       <use xlink:href="#m21d95fe033" x="368.512941" y="320.4" style="stroke: #000000; stroke-width: 0.8"/>
      </g>
     </g>
     <g id="text_5">
      <!-- 0.2 -->
      <g transform="translate(360.561379 334.998438)scale(0.1 -0.1)">
       <use xlink:href="#DejaVuSans-30"/>
       <use xlink:href="#DejaVuSans-2e" x="63.623047"/>
       <use xlink:href="#DejaVuSans-32" x="95.410156"/>
      </g>
     </g>
    </g>
    <g id="xtick_6">
     <g id="line2d_6">
      <g>
       <use xlink:href="#m21d95fe033" x="419.061176" y="320.4" style="stroke: #000000; stroke-width: 0.8"/>
      </g>
     </g>
     <g id="text_6">
      <!-- 0.4 -->
      <g transform="translate(411.109614 334.998438)scale(0.1 -0.1)">
       <use xlink:href="#DejaVuSans-30"/>
       <use xlink:href="#DejaVuSans-2e" x="63.623047"/>
       <use xlink:href="#DejaVuSans-34" x="95.410156"/>
      </g>
     </g>
    </g>
    <g id="xtick_7">
     <g id="line2d_7">
      <g>
       <use xlink:href="#m21d95fe033" x="469.609412" y="320.4" style="stroke: #000000; stroke-width: 0.8"/>
      </g>
     </g>
     <g id="text_7">
      <!-- 0.6 -->
      <g transform="translate(461.657849 334.998438)scale(0.1 -0.1)">
       <use xlink:href="#DejaVuSans-30"/>
       <use xlink:href="#DejaVuSans-2e" x="63.623047"/>
       <use xlink:href="#DejaVuSans-36" x="95.410156"/>
      </g>
     </g>
    </g>
    <g id="text_8">
     <!-- Error -->
     <g transform="translate(305.77955 348.676562)scale(0.1 -0.1)">
      <defs>
       <path id="DejaVuSans-45" d="M 628 4666 
L 3578 4666 
L 3578 4134 
L 1259 4134 
L 1259 2753 
L 3481 2753 
L 3481 2222 
L 1259 2222 
L 1259 531 
L 3634 531 
L 3634 0 
L 628 0 
L 628 4666 
z
" transform="scale(0.015625)"/>
       <path id="DejaVuSans-72" d="M 2631 2963 
Q 2534 3019 2420 3045 
Q 2306 3072 2169 3072 
Q 1681 3072 1420 2755 
Q 1159 2438 1159 1844 
L 1159 0 
L 581 0 
L 581 3500 
L 1159 3500 
L 1159 2956 
Q 1341 3275 1631 3429 
Q 1922 3584 2338 3584 
Q 2397 3584 2469 3576 
Q 2541 3569 2628 3553 
L 2631 2963 
z
" transform="scale(0.015625)"/>
       <path id="DejaVuSans-6f" d="M 1959 3097 
Q 1497 3097 1228 2736 
Q 959 2375 959 1747 
Q 959 1119 1226 758 
Q 1494 397 1959 397 
Q 2419 397 2687 759 
Q 2956 1122 2956 1747 
Q 2956 2369 2687 2733 
Q 2419 3097 1959 3097 
z
M 1959 3584 
Q 2709 3584 3137 3096 
Q 3566 2609 3566 1747 
Q 3566 888 3137 398 
Q 2709 -91 1959 -91 
Q 1206 -91 779 398 
Q 353 888 353 1747 
Q 353 2609 779 3096 
Q 1206 3584 1959 3584 
z
" transform="scale(0.015625)"/>
      </defs>
      <use xlink:href="#DejaVuSans-45"/>
      <use xlink:href="#DejaVuSans-72" x="63.183594"/>
      <use xlink:href="#DejaVuSans-72" x="102.546875"/>
      <use xlink:href="#DejaVuSans-6f" x="141.410156"/>
      <use xlink:href="#DejaVuSans-72" x="202.591797"/>
     </g>
    </g>
   </g>
   <g id="matplotlib.axis_2">
    <g id="ytick_1">
     <g id="line2d_8">
      <defs>
       <path id="ma541b9285a" d="M 0 0 
L -3.5 0 
" style="stroke: #000000; stroke-width: 0.8"/>
      </defs>
      <g>
       <use xlink:href="#ma541b9285a" x="166.32" y="320.4" style="stroke: #000000; stroke-width: 0.8"/>
      </g>
     </g>
     <g id="text_9">
      <!-- 0 -->
      <g transform="translate(152.9575 324.199219)scale(0.1 -0.1)">
       <use xlink:href="#DejaVuSans-30"/>
      </g>
     </g>
    </g>
    <g id="ytick_2">
     <g id="line2d_9">
      <g>
       <use xlink:href="#ma541b9285a" x="166.32" y="260.203379" style="stroke: #000000; stroke-width: 0.8"/>
      </g>
     </g>
     <g id="text_10">
      <!-- 2 -->
      <g transform="translate(152.9575 264.002598)scale(0.1 -0.1)">
       <use xlink:href="#DejaVuSans-32"/>
      </g>
     </g>
    </g>
    <g id="ytick_3">
     <g id="line2d_10">
      <g>
       <use xlink:href="#ma541b9285a" x="166.32" y="200.006758" style="stroke: #000000; stroke-width: 0.8"/>
      </g>
     </g>
     <g id="text_11">
      <!-- 4 -->
      <g transform="translate(152.9575 203.805977)scale(0.1 -0.1)">
       <use xlink:href="#DejaVuSans-34"/>
      </g>
     </g>
    </g>
    <g id="ytick_4">
     <g id="line2d_11">
      <g>
       <use xlink:href="#ma541b9285a" x="166.32" y="139.810138" style="stroke: #000000; stroke-width: 0.8"/>
      </g>
     </g>
     <g id="text_12">
      <!-- 6 -->
      <g transform="translate(152.9575 143.609356)scale(0.1 -0.1)">
       <use xlink:href="#DejaVuSans-36"/>
      </g>
     </g>
    </g>
    <g id="ytick_5">
     <g id="line2d_12">
      <g>
       <use xlink:href="#ma541b9285a" x="166.32" y="79.613517" style="stroke: #000000; stroke-width: 0.8"/>
      </g>
     </g>
     <g id="text_13">
      <!-- 8 -->
      <g transform="translate(152.9575 83.412736)scale(0.1 -0.1)">
       <defs>
        <path id="DejaVuSans-38" d="M 2034 2216 
Q 1584 2216 1326 1975 
Q 1069 1734 1069 1313 
Q 1069 891 1326 650 
Q 1584 409 2034 409 
Q 2484 409 2743 651 
Q 3003 894 3003 1313 
Q 3003 1734 2745 1975 
Q 2488 2216 2034 2216 
z
M 1403 2484 
Q 997 2584 770 2862 
Q 544 3141 544 3541 
Q 544 4100 942 4425 
Q 1341 4750 2034 4750 
Q 2731 4750 3128 4425 
Q 3525 4100 3525 3541 
Q 3525 3141 3298 2862 
Q 3072 2584 2669 2484 
Q 3125 2378 3379 2068 
Q 3634 1759 3634 1313 
Q 3634 634 3220 271 
Q 2806 -91 2034 -91 
Q 1263 -91 848 271 
Q 434 634 434 1313 
Q 434 1759 690 2068 
Q 947 2378 1403 2484 
z
M 1172 3481 
Q 1172 3119 1398 2916 
Q 1625 2713 2034 2713 
Q 2441 2713 2670 2916 
Q 2900 3119 2900 3481 
Q 2900 3844 2670 4047 
Q 2441 4250 2034 4250 
Q 1625 4250 1398 4047 
Q 1172 3844 1172 3481 
z
" transform="scale(0.015625)"/>
       </defs>
       <use xlink:href="#DejaVuSans-38"/>
      </g>
     </g>
    </g>
    <g id="text_14">
     <!-- Density -->
     <g transform="translate(146.877812 200.808594)rotate(-90)scale(0.1 -0.1)">
      <defs>
       <path id="DejaVuSans-44" d="M 1259 4147 
L 1259 519 
L 2022 519 
Q 2988 519 3436 956 
Q 3884 1394 3884 2338 
Q 3884 3275 3436 3711 
Q 2988 4147 2022 4147 
L 1259 4147 
z
M 628 4666 
L 1925 4666 
Q 3281 4666 3915 4102 
Q 4550 3538 4550 2338 
Q 4550 1131 3912 565 
Q 3275 0 1925 0 
L 628 0 
L 628 4666 
z
" transform="scale(0.015625)"/>
       <path id="DejaVuSans-65" d="M 3597 1894 
L 3597 1613 
L 953 1613 
Q 991 1019 1311 708 
Q 1631 397 2203 397 
Q 2534 397 2845 478 
Q 3156 559 3463 722 
L 3463 178 
Q 3153 47 2828 -22 
Q 2503 -91 2169 -91 
Q 1331 -91 842 396 
Q 353 884 353 1716 
Q 353 2575 817 3079 
Q 1281 3584 2069 3584 
Q 2775 3584 3186 3129 
Q 3597 2675 3597 1894 
z
M 3022 2063 
Q 3016 2534 2758 2815 
Q 2500 3097 2075 3097 
Q 1594 3097 1305 2825 
Q 1016 2553 972 2059 
L 3022 2063 
z
" transform="scale(0.015625)"/>
       <path id="DejaVuSans-6e" d="M 3513 2113 
L 3513 0 
L 2938 0 
L 2938 2094 
Q 2938 2591 2744 2837 
Q 2550 3084 2163 3084 
Q 1697 3084 1428 2787 
Q 1159 2491 1159 1978 
L 1159 0 
L 581 0 
L 581 3500 
L 1159 3500 
L 1159 2956 
Q 1366 3272 1645 3428 
Q 1925 3584 2291 3584 
Q 2894 3584 3203 3211 
Q 3513 2838 3513 2113 
z
" transform="scale(0.015625)"/>
       <path id="DejaVuSans-73" d="M 2834 3397 
L 2834 2853 
Q 2591 2978 2328 3040 
Q 2066 3103 1784 3103 
Q 1356 3103 1142 2972 
Q 928 2841 928 2578 
Q 928 2378 1081 2264 
Q 1234 2150 1697 2047 
L 1894 2003 
Q 2506 1872 2764 1633 
Q 3022 1394 3022 966 
Q 3022 478 2636 193 
Q 2250 -91 1575 -91 
Q 1294 -91 989 -36 
Q 684 19 347 128 
L 347 722 
Q 666 556 975 473 
Q 1284 391 1588 391 
Q 1994 391 2212 530 
Q 2431 669 2431 922 
Q 2431 1156 2273 1281 
Q 2116 1406 1581 1522 
L 1381 1569 
Q 847 1681 609 1914 
Q 372 2147 372 2553 
Q 372 3047 722 3315 
Q 1072 3584 1716 3584 
Q 2034 3584 2315 3537 
Q 2597 3491 2834 3397 
z
" transform="scale(0.015625)"/>
       <path id="DejaVuSans-69" d="M 603 3500 
L 1178 3500 
L 1178 0 
L 603 0 
L 603 3500 
z
M 603 4863 
L 1178 4863 
L 1178 4134 
L 603 4134 
L 603 4863 
z
" transform="scale(0.015625)"/>
       <path id="DejaVuSans-74" d="M 1172 4494 
L 1172 3500 
L 2356 3500 
L 2356 3053 
L 1172 3053 
L 1172 1153 
Q 1172 725 1289 603 
Q 1406 481 1766 481 
L 2356 481 
L 2356 0 
L 1766 0 
Q 1100 0 847 248 
Q 594 497 594 1153 
L 594 3053 
L 172 3053 
L 172 3500 
L 594 3500 
L 594 4494 
L 1172 4494 
z
" transform="scale(0.015625)"/>
       <path id="DejaVuSans-79" d="M 2059 -325 
Q 1816 -950 1584 -1140 
Q 1353 -1331 966 -1331 
L 506 -1331 
L 506 -850 
L 844 -850 
Q 1081 -850 1212 -737 
Q 1344 -625 1503 -206 
L 1606 56 
L 191 3500 
L 800 3500 
L 1894 763 
L 2988 3500 
L 3597 3500 
L 2059 -325 
z
" transform="scale(0.015625)"/>
      </defs>
      <use xlink:href="#DejaVuSans-44"/>
      <use xlink:href="#DejaVuSans-65" x="77.001953"/>
      <use xlink:href="#DejaVuSans-6e" x="138.525391"/>
      <use xlink:href="#DejaVuSans-73" x="201.904297"/>
      <use xlink:href="#DejaVuSans-69" x="254.003906"/>
      <use xlink:href="#DejaVuSans-74" x="281.787109"/>
      <use xlink:href="#DejaVuSans-79" x="320.996094"/>
     </g>
    </g>
   </g>
   <g id="line2d_13">
    <path d="M 317.964706 320.4 
L 317.964706 43.2 
" clip-path="url(#p590b72a63a)" style="fill: none; stroke-dasharray: 5.55,2.4; stroke-dashoffset: 0; stroke: #1f77b4; stroke-width: 1.5"/>
   </g>
   <g id="line2d_14">
    <path d="M 224.316404 320.399995 
L 250.570934 320.302505 
L 256.405274 320.07857 
L 261.267224 319.581844 
L 264.184394 319.010196 
L 266.129174 318.470941 
L 268.073954 317.769488 
L 270.018734 316.779924 
L 271.963514 315.476156 
L 273.908294 313.850466 
L 275.853073 311.761228 
L 277.797853 309.272355 
L 279.742633 306.102525 
L 280.715023 304.330513 
L 282.659803 299.819022 
L 284.604583 294.703249 
L 286.549363 288.633729 
L 288.494143 281.692328 
L 291.411313 269.332927 
L 293.356093 259.738862 
L 296.273263 243.427154 
L 299.190433 226.212054 
L 305.997163 183.1301 
L 309.886723 162.013778 
L 311.831503 153.684769 
L 312.803893 149.928357 
L 313.776283 146.814153 
L 314.748673 144.093795 
L 315.721063 141.760353 
L 316.693453 140.153295 
L 317.665843 139.438068 
L 318.638233 139.329581 
L 319.610623 139.550156 
L 320.583013 140.403788 
L 321.555403 141.867002 
L 322.527793 143.703052 
L 323.500183 146.464232 
L 326.417353 157.884339 
L 328.362133 167.839983 
L 331.279303 185.164996 
L 334.196473 203.848123 
L 339.058423 236.658327 
L 341.975593 254.639761 
L 343.920373 265.508612 
L 345.865153 275.117752 
L 347.809933 283.619541 
L 349.754713 291.10105 
L 350.727103 294.432538 
L 352.671883 300.031632 
L 354.616663 304.690253 
L 356.561443 308.608068 
L 358.506222 311.597148 
L 360.451002 314.006888 
L 361.423392 314.963747 
L 363.368172 316.459315 
L 365.312952 317.621159 
L 367.257732 318.456356 
L 369.202512 319.051423 
L 371.147292 319.512262 
L 374.064462 319.913897 
L 377.954022 320.189223 
L 384.760752 320.349727 
L 395.457042 320.395483 
L 417.822012 320.399995 
L 417.822012 320.399995 
" clip-path="url(#p590b72a63a)" style="fill: none; stroke: #1f77b4; stroke-width: 1.5; stroke-linecap: square"/>
   </g>
   <g id="line2d_15">
    <path d="M 250.564414 320.399993 
L 270.1188 320.296689 
L 274.164534 320.07233 
L 276.861691 319.706174 
L 278.884558 319.270917 
L 280.233137 318.747584 
L 281.581715 318.129086 
L 284.278871 316.148177 
L 285.62745 314.565956 
L 286.301739 313.659163 
L 287.650317 311.195821 
L 288.998895 308.366124 
L 290.347474 304.497324 
L 291.696052 299.862775 
L 292.370341 297.223693 
L 294.393209 287.395507 
L 295.067498 283.602516 
L 296.416076 274.33578 
L 298.438943 257.887791 
L 299.787522 245.353961 
L 301.810389 223.840143 
L 303.158967 207.417528 
L 305.181835 181.032686 
L 309.22757 126.513746 
L 311.924726 94.630382 
L 313.947594 75.197447 
L 314.621883 69.711056 
L 315.296172 65.606155 
L 316.64475 59.539319 
L 317.319039 57.635053 
L 317.993329 56.614874 
L 318.667618 56.4 
L 319.341907 57.481152 
L 320.690485 61.975299 
L 321.364774 66.087871 
L 323.387642 81.749918 
L 325.410509 101.945068 
L 326.759087 118.964725 
L 333.501979 212.368209 
L 336.199135 244.39627 
L 338.222003 264.21083 
L 339.570581 275.683353 
L 341.593448 289.111872 
L 342.942027 296.194693 
L 344.290605 302.018738 
L 345.639183 306.709139 
L 346.987762 310.095334 
L 348.33634 313.009538 
L 349.684918 315.129979 
L 351.033496 316.624089 
L 352.382075 317.803645 
L 353.730653 318.606047 
L 355.079231 319.240918 
L 356.42781 319.622852 
L 357.776388 319.885729 
L 361.822123 320.273859 
L 368.565014 320.387794 
L 384.747953 320.399993 
L 384.747953 320.399993 
" clip-path="url(#p590b72a63a)" style="fill: none; stroke: #ff7f0e; stroke-width: 1.5; stroke-linecap: square"/>
   </g>
   <g id="line2d_16">
    <path d="M 221.002694 320.399995 
L 250.97932 320.299306 
L 257.973866 319.966214 
L 260.971528 319.629033 
L 264.968411 318.854339 
L 266.966853 318.208654 
L 268.965295 317.369145 
L 270.963737 316.212798 
L 272.962178 314.792061 
L 274.96062 312.933336 
L 276.959062 310.563179 
L 278.957503 307.467144 
L 280.955945 303.718669 
L 282.954387 299.187194 
L 284.952828 293.906686 
L 286.95127 287.49103 
L 288.949712 280.080251 
L 291.947374 266.796874 
L 292.946595 262.030776 
L 296.943479 239.693511 
L 302.938804 202.23241 
L 305.936466 183.421037 
L 308.934129 166.52323 
L 310.93257 157.035231 
L 311.931791 152.813798 
L 312.931012 149.112145 
L 314.929454 143.360318 
L 315.928675 140.858221 
L 316.927895 139.997371 
L 317.927116 139.369926 
L 318.926337 139.34078 
L 319.925558 139.596028 
L 320.924779 140.600682 
L 321.924 142.353805 
L 322.92322 144.792436 
L 323.922441 147.734045 
L 326.920104 160.276801 
L 329.917766 176.841242 
L 330.916987 182.558027 
L 336.912312 222.282276 
L 338.910754 235.910509 
L 341.908417 254.058083 
L 344.906079 270.684061 
L 346.904521 279.927296 
L 349.902183 291.717473 
L 351.900625 298.001578 
L 352.899846 300.782944 
L 354.898288 305.395173 
L 356.896729 309.208929 
L 357.89595 310.882691 
L 359.894392 313.458114 
L 361.892833 315.347658 
L 363.891275 316.85001 
L 365.889717 317.976244 
L 367.888159 318.70946 
L 369.8866 319.261089 
L 371.885042 319.63599 
L 375.881925 320.075781 
L 383.875692 320.353673 
L 419.847642 320.399995 
L 419.847642 320.399995 
" clip-path="url(#p590b72a63a)" style="fill: none; stroke: #2ca02c; stroke-width: 1.5; stroke-linecap: square"/>
   </g>
   <g id="line2d_17">
    <path d="M 174.444735 320.399997 
L 201.96533 320.304472 
L 209.60994 320.0412 
L 215.725628 319.597077 
L 220.312393 319.029264 
L 226.428081 317.986086 
L 231.014847 316.905878 
L 235.601613 315.721572 
L 240.188379 314.379503 
L 244.775144 312.655294 
L 249.36191 310.62481 
L 252.419754 309.065882 
L 257.00652 306.330314 
L 261.593286 303.106371 
L 264.65113 300.701636 
L 267.708974 297.973429 
L 272.295739 293.586262 
L 276.882505 288.584953 
L 281.469271 283.215547 
L 287.584959 276.02262 
L 290.642803 272.800608 
L 293.700646 269.754951 
L 296.75849 267.046281 
L 299.816334 264.681377 
L 305.932022 260.67479 
L 313.576632 256.271541 
L 322.750163 250.561591 
L 328.865851 247.239812 
L 330.394773 246.497338 
L 333.452617 245.600287 
L 334.981539 245.265153 
L 336.510461 245.064274 
L 338.039383 245.081737 
L 339.568305 245.335837 
L 341.097227 245.716635 
L 342.626148 246.255286 
L 345.683992 247.676844 
L 347.212914 248.55839 
L 348.741836 249.583456 
L 350.270758 250.811073 
L 357.915368 258.008376 
L 360.973212 261.345234 
L 371.675665 271.84508 
L 376.262431 276.684943 
L 380.849197 281.35016 
L 383.907041 284.58111 
L 388.493807 289.859178 
L 391.55165 293.376451 
L 396.138416 298.520874 
L 399.19626 301.971713 
L 402.254104 305.177431 
L 405.311948 308.041885 
L 408.369792 310.446655 
L 411.427636 312.436664 
L 414.48548 314.114131 
L 417.543323 315.422709 
L 420.601167 316.426356 
L 423.659011 317.264403 
L 428.245777 318.243895 
L 431.303621 318.820211 
L 435.890387 319.408022 
L 440.477152 319.877856 
L 446.59284 320.208099 
L 455.766372 320.36989 
L 478.700201 320.399998 
L 478.700201 320.399998 
" clip-path="url(#p590b72a63a)" style="fill: none; stroke: #d62728; stroke-width: 1.5; stroke-linecap: square"/>
   </g>
   <g id="patch_3">
    <path d="M 166.32 320.4 
L 166.32 43.2 
" style="fill: none; stroke: #000000; stroke-width: 0.8; stroke-linejoin: miter; stroke-linecap: square"/>
   </g>
   <g id="patch_4">
    <path d="M 469.609412 320.4 
L 469.609412 43.2 
" style="fill: none; stroke: #000000; stroke-width: 0.8; stroke-linejoin: miter; stroke-linecap: square"/>
   </g>
   <g id="patch_5">
    <path d="M 166.32 320.4 
L 469.609412 320.4 
" style="fill: none; stroke: #000000; stroke-width: 0.8; stroke-linejoin: miter; stroke-linecap: square"/>
   </g>
   <g id="patch_6">
    <path d="M 166.32 43.2 
L 469.609412 43.2 
" style="fill: none; stroke: #000000; stroke-width: 0.8; stroke-linejoin: miter; stroke-linecap: square"/>
   </g>
   <g id="text_15">
    <!-- glove-100-angular -->
    <g transform="translate(262.891268 37.2)scale(0.12 -0.12)">
     <defs>
      <path id="DejaVuSans-67" d="M 2906 1791 
Q 2906 2416 2648 2759 
Q 2391 3103 1925 3103 
Q 1463 3103 1205 2759 
Q 947 2416 947 1791 
Q 947 1169 1205 825 
Q 1463 481 1925 481 
Q 2391 481 2648 825 
Q 2906 1169 2906 1791 
z
M 3481 434 
Q 3481 -459 3084 -895 
Q 2688 -1331 1869 -1331 
Q 1566 -1331 1297 -1286 
Q 1028 -1241 775 -1147 
L 775 -588 
Q 1028 -725 1275 -790 
Q 1522 -856 1778 -856 
Q 2344 -856 2625 -561 
Q 2906 -266 2906 331 
L 2906 616 
Q 2728 306 2450 153 
Q 2172 0 1784 0 
Q 1141 0 747 490 
Q 353 981 353 1791 
Q 353 2603 747 3093 
Q 1141 3584 1784 3584 
Q 2172 3584 2450 3431 
Q 2728 3278 2906 2969 
L 2906 3500 
L 3481 3500 
L 3481 434 
z
" transform="scale(0.015625)"/>
      <path id="DejaVuSans-6c" d="M 603 4863 
L 1178 4863 
L 1178 0 
L 603 0 
L 603 4863 
z
" transform="scale(0.015625)"/>
      <path id="DejaVuSans-76" d="M 191 3500 
L 800 3500 
L 1894 563 
L 2988 3500 
L 3597 3500 
L 2284 0 
L 1503 0 
L 191 3500 
z
" transform="scale(0.015625)"/>
      <path id="DejaVuSans-2d" d="M 313 2009 
L 1997 2009 
L 1997 1497 
L 313 1497 
L 313 2009 
z
" transform="scale(0.015625)"/>
      <path id="DejaVuSans-31" d="M 794 531 
L 1825 531 
L 1825 4091 
L 703 3866 
L 703 4441 
L 1819 4666 
L 2450 4666 
L 2450 531 
L 3481 531 
L 3481 0 
L 794 0 
L 794 531 
z
" transform="scale(0.015625)"/>
      <path id="DejaVuSans-61" d="M 2194 1759 
Q 1497 1759 1228 1600 
Q 959 1441 959 1056 
Q 959 750 1161 570 
Q 1363 391 1709 391 
Q 2188 391 2477 730 
Q 2766 1069 2766 1631 
L 2766 1759 
L 2194 1759 
z
M 3341 1997 
L 3341 0 
L 2766 0 
L 2766 531 
Q 2569 213 2275 61 
Q 1981 -91 1556 -91 
Q 1019 -91 701 211 
Q 384 513 384 1019 
Q 384 1609 779 1909 
Q 1175 2209 1959 2209 
L 2766 2209 
L 2766 2266 
Q 2766 2663 2505 2880 
Q 2244 3097 1772 3097 
Q 1472 3097 1187 3025 
Q 903 2953 641 2809 
L 641 3341 
Q 956 3463 1253 3523 
Q 1550 3584 1831 3584 
Q 2591 3584 2966 3190 
Q 3341 2797 3341 1997 
z
" transform="scale(0.015625)"/>
      <path id="DejaVuSans-75" d="M 544 1381 
L 544 3500 
L 1119 3500 
L 1119 1403 
Q 1119 906 1312 657 
Q 1506 409 1894 409 
Q 2359 409 2629 706 
Q 2900 1003 2900 1516 
L 2900 3500 
L 3475 3500 
L 3475 0 
L 2900 0 
L 2900 538 
Q 2691 219 2414 64 
Q 2138 -91 1772 -91 
Q 1169 -91 856 284 
Q 544 659 544 1381 
z
M 1991 3584 
L 1991 3584 
z
" transform="scale(0.015625)"/>
     </defs>
     <use xlink:href="#DejaVuSans-67"/>
     <use xlink:href="#DejaVuSans-6c" x="63.476562"/>
     <use xlink:href="#DejaVuSans-6f" x="91.259766"/>
     <use xlink:href="#DejaVuSans-76" x="152.441406"/>
     <use xlink:href="#DejaVuSans-65" x="211.621094"/>
     <use xlink:href="#DejaVuSans-2d" x="273.144531"/>
     <use xlink:href="#DejaVuSans-31" x="309.228516"/>
     <use xlink:href="#DejaVuSans-30" x="372.851562"/>
     <use xlink:href="#DejaVuSans-30" x="436.474609"/>
     <use xlink:href="#DejaVuSans-2d" x="500.097656"/>
     <use xlink:href="#DejaVuSans-61" x="536.181641"/>
     <use xlink:href="#DejaVuSans-6e" x="597.460938"/>
     <use xlink:href="#DejaVuSans-67" x="660.839844"/>
     <use xlink:href="#DejaVuSans-75" x="724.316406"/>
     <use xlink:href="#DejaVuSans-6c" x="787.695312"/>
     <use xlink:href="#DejaVuSans-61" x="815.478516"/>
     <use xlink:href="#DejaVuSans-72" x="876.757812"/>
    </g>
   </g>
   <g id="legend_1">
    <g id="patch_7">
     <path d="M 398.054724 109.9125 
L 462.609412 109.9125 
Q 464.609412 109.9125 464.609412 107.9125 
L 464.609412 50.2 
Q 464.609412 48.2 462.609412 48.2 
L 398.054724 48.2 
Q 396.054724 48.2 396.054724 50.2 
L 396.054724 107.9125 
Q 396.054724 109.9125 398.054724 109.9125 
z
" style="fill: #ffffff; opacity: 0.8; stroke: #cccccc; stroke-linejoin: miter"/>
    </g>
    <g id="line2d_18">
     <path d="M 400.054724 56.298437 
L 410.054724 56.298437 
L 420.054724 56.298437 
" style="fill: none; stroke: #1f77b4; stroke-width: 1.5; stroke-linecap: square"/>
    </g>
    <g id="text_16">
     <!-- E8NP -->
     <g transform="translate(428.054724 59.798437)scale(0.1 -0.1)">
      <defs>
       <path id="DejaVuSans-4e" d="M 628 4666 
L 1478 4666 
L 3547 763 
L 3547 4666 
L 4159 4666 
L 4159 0 
L 3309 0 
L 1241 3903 
L 1241 0 
L 628 0 
L 628 4666 
z
" transform="scale(0.015625)"/>
       <path id="DejaVuSans-50" d="M 1259 4147 
L 1259 2394 
L 2053 2394 
Q 2494 2394 2734 2622 
Q 2975 2850 2975 3272 
Q 2975 3691 2734 3919 
Q 2494 4147 2053 4147 
L 1259 4147 
z
M 628 4666 
L 2053 4666 
Q 2838 4666 3239 4311 
Q 3641 3956 3641 3272 
Q 3641 2581 3239 2228 
Q 2838 1875 2053 1875 
L 1259 1875 
L 1259 0 
L 628 0 
L 628 4666 
z
" transform="scale(0.015625)"/>
      </defs>
      <use xlink:href="#DejaVuSans-45"/>
      <use xlink:href="#DejaVuSans-38" x="63.183594"/>
      <use xlink:href="#DejaVuSans-4e" x="126.806641"/>
      <use xlink:href="#DejaVuSans-50" x="201.611328"/>
     </g>
    </g>
    <g id="line2d_19">
     <path d="M 400.054724 70.976562 
L 410.054724 70.976562 
L 420.054724 70.976562 
" style="fill: none; stroke: #ff7f0e; stroke-width: 1.5; stroke-linecap: square"/>
    </g>
    <g id="text_17">
     <!-- E16NP -->
     <g transform="translate(428.054724 74.476562)scale(0.1 -0.1)">
      <use xlink:href="#DejaVuSans-45"/>
      <use xlink:href="#DejaVuSans-31" x="63.183594"/>
      <use xlink:href="#DejaVuSans-36" x="126.806641"/>
      <use xlink:href="#DejaVuSans-4e" x="190.429688"/>
      <use xlink:href="#DejaVuSans-50" x="265.234375"/>
     </g>
    </g>
    <g id="line2d_20">
     <path d="M 400.054724 85.654687 
L 410.054724 85.654687 
L 420.054724 85.654687 
" style="fill: none; stroke: #2ca02c; stroke-width: 1.5; stroke-linecap: square"/>
    </g>
    <g id="text_18">
     <!-- E8P -->
     <g transform="translate(428.054724 89.154687)scale(0.1 -0.1)">
      <use xlink:href="#DejaVuSans-45"/>
      <use xlink:href="#DejaVuSans-38" x="63.183594"/>
      <use xlink:href="#DejaVuSans-50" x="126.806641"/>
     </g>
    </g>
    <g id="line2d_21">
     <path d="M 400.054724 100.332812 
L 410.054724 100.332812 
L 420.054724 100.332812 
" style="fill: none; stroke: #d62728; stroke-width: 1.5; stroke-linecap: square"/>
    </g>
    <g id="text_19">
     <!-- E16P -->
     <g transform="translate(428.054724 103.832812)scale(0.1 -0.1)">
      <use xlink:href="#DejaVuSans-45"/>
      <use xlink:href="#DejaVuSans-31" x="63.183594"/>
      <use xlink:href="#DejaVuSans-36" x="126.806641"/>
      <use xlink:href="#DejaVuSans-50" x="190.429688"/>
     </g>
    </g>
   </g>
  </g>
  <g id="axes_2">
   <g id="patch_8">
    <path d="M 530.267294 320.4 
L 833.556706 320.4 
L 833.556706 43.2 
L 530.267294 43.2 
z
" style="fill: #ffffff"/>
   </g>
   <g id="matplotlib.axis_3">
    <g id="xtick_8">
     <g id="line2d_22">
      <g>
       <use xlink:href="#m21d95fe033" x="530.267294" y="320.4" style="stroke: #000000; stroke-width: 0.8"/>
      </g>
     </g>
     <g id="text_20">
      <!-- −0.6 -->
      <g transform="translate(518.125888 334.998438)scale(0.1 -0.1)">
       <use xlink:href="#DejaVuSans-2212"/>
       <use xlink:href="#DejaVuSans-30" x="83.789062"/>
       <use xlink:href="#DejaVuSans-2e" x="147.412109"/>
       <use xlink:href="#DejaVuSans-36" x="179.199219"/>
      </g>
     </g>
    </g>
    <g id="xtick_9">
     <g id="line2d_23">
      <g>
       <use xlink:href="#m21d95fe033" x="580.815529" y="320.4" style="stroke: #000000; stroke-width: 0.8"/>
      </g>
     </g>
     <g id="text_21">
      <!-- −0.4 -->
      <g transform="translate(568.674123 334.998438)scale(0.1 -0.1)">
       <use xlink:href="#DejaVuSans-2212"/>
       <use xlink:href="#DejaVuSans-30" x="83.789062"/>
       <use xlink:href="#DejaVuSans-2e" x="147.412109"/>
       <use xlink:href="#DejaVuSans-34" x="179.199219"/>
      </g>
     </g>
    </g>
    <g id="xtick_10">
     <g id="line2d_24">
      <g>
       <use xlink:href="#m21d95fe033" x="631.363765" y="320.4" style="stroke: #000000; stroke-width: 0.8"/>
      </g>
     </g>
     <g id="text_22">
      <!-- −0.2 -->
      <g transform="translate(619.222358 334.998438)scale(0.1 -0.1)">
       <use xlink:href="#DejaVuSans-2212"/>
       <use xlink:href="#DejaVuSans-30" x="83.789062"/>
       <use xlink:href="#DejaVuSans-2e" x="147.412109"/>
       <use xlink:href="#DejaVuSans-32" x="179.199219"/>
      </g>
     </g>
    </g>
    <g id="xtick_11">
     <g id="line2d_25">
      <g>
       <use xlink:href="#m21d95fe033" x="681.912" y="320.4" style="stroke: #000000; stroke-width: 0.8"/>
      </g>
     </g>
     <g id="text_23">
      <!-- 0.0 -->
      <g transform="translate(673.960438 334.998438)scale(0.1 -0.1)">
       <use xlink:href="#DejaVuSans-30"/>
       <use xlink:href="#DejaVuSans-2e" x="63.623047"/>
       <use xlink:href="#DejaVuSans-30" x="95.410156"/>
      </g>
     </g>
    </g>
    <g id="xtick_12">
     <g id="line2d_26">
      <g>
       <use xlink:href="#m21d95fe033" x="732.460235" y="320.4" style="stroke: #000000; stroke-width: 0.8"/>
      </g>
     </g>
     <g id="text_24">
      <!-- 0.2 -->
      <g transform="translate(724.508673 334.998438)scale(0.1 -0.1)">
       <use xlink:href="#DejaVuSans-30"/>
       <use xlink:href="#DejaVuSans-2e" x="63.623047"/>
       <use xlink:href="#DejaVuSans-32" x="95.410156"/>
      </g>
     </g>
    </g>
    <g id="xtick_13">
     <g id="line2d_27">
      <g>
       <use xlink:href="#m21d95fe033" x="783.008471" y="320.4" style="stroke: #000000; stroke-width: 0.8"/>
      </g>
     </g>
     <g id="text_25">
      <!-- 0.4 -->
      <g transform="translate(775.056908 334.998438)scale(0.1 -0.1)">
       <use xlink:href="#DejaVuSans-30"/>
       <use xlink:href="#DejaVuSans-2e" x="63.623047"/>
       <use xlink:href="#DejaVuSans-34" x="95.410156"/>
      </g>
     </g>
    </g>
    <g id="xtick_14">
     <g id="line2d_28">
      <g>
       <use xlink:href="#m21d95fe033" x="833.556706" y="320.4" style="stroke: #000000; stroke-width: 0.8"/>
      </g>
     </g>
     <g id="text_26">
      <!-- 0.6 -->
      <g transform="translate(825.605143 334.998438)scale(0.1 -0.1)">
       <use xlink:href="#DejaVuSans-30"/>
       <use xlink:href="#DejaVuSans-2e" x="63.623047"/>
       <use xlink:href="#DejaVuSans-36" x="95.410156"/>
      </g>
     </g>
    </g>
    <g id="text_27">
     <!-- Error -->
     <g transform="translate(669.726844 348.676562)scale(0.1 -0.1)">
      <use xlink:href="#DejaVuSans-45"/>
      <use xlink:href="#DejaVuSans-72" x="63.183594"/>
      <use xlink:href="#DejaVuSans-72" x="102.546875"/>
      <use xlink:href="#DejaVuSans-6f" x="141.410156"/>
      <use xlink:href="#DejaVuSans-72" x="202.591797"/>
     </g>
    </g>
   </g>
   <g id="matplotlib.axis_4">
    <g id="ytick_6">
     <g id="line2d_29">
      <g>
       <use xlink:href="#ma541b9285a" x="530.267294" y="320.4" style="stroke: #000000; stroke-width: 0.8"/>
      </g>
     </g>
     <g id="text_28">
      <!-- 0 -->
      <g transform="translate(516.904794 324.199219)scale(0.1 -0.1)">
       <use xlink:href="#DejaVuSans-30"/>
      </g>
     </g>
    </g>
    <g id="ytick_7">
     <g id="line2d_30">
      <g>
       <use xlink:href="#ma541b9285a" x="530.267294" y="268.787085" style="stroke: #000000; stroke-width: 0.8"/>
      </g>
     </g>
     <g id="text_29">
      <!-- 1 -->
      <g transform="translate(516.904794 272.586304)scale(0.1 -0.1)">
       <use xlink:href="#DejaVuSans-31"/>
      </g>
     </g>
    </g>
    <g id="ytick_8">
     <g id="line2d_31">
      <g>
       <use xlink:href="#ma541b9285a" x="530.267294" y="217.17417" style="stroke: #000000; stroke-width: 0.8"/>
      </g>
     </g>
     <g id="text_30">
      <!-- 2 -->
      <g transform="translate(516.904794 220.973389)scale(0.1 -0.1)">
       <use xlink:href="#DejaVuSans-32"/>
      </g>
     </g>
    </g>
    <g id="ytick_9">
     <g id="line2d_32">
      <g>
       <use xlink:href="#ma541b9285a" x="530.267294" y="165.561255" style="stroke: #000000; stroke-width: 0.8"/>
      </g>
     </g>
     <g id="text_31">
      <!-- 3 -->
      <g transform="translate(516.904794 169.360474)scale(0.1 -0.1)">
       <defs>
        <path id="DejaVuSans-33" d="M 2597 2516 
Q 3050 2419 3304 2112 
Q 3559 1806 3559 1356 
Q 3559 666 3084 287 
Q 2609 -91 1734 -91 
Q 1441 -91 1130 -33 
Q 819 25 488 141 
L 488 750 
Q 750 597 1062 519 
Q 1375 441 1716 441 
Q 2309 441 2620 675 
Q 2931 909 2931 1356 
Q 2931 1769 2642 2001 
Q 2353 2234 1838 2234 
L 1294 2234 
L 1294 2753 
L 1863 2753 
Q 2328 2753 2575 2939 
Q 2822 3125 2822 3475 
Q 2822 3834 2567 4026 
Q 2313 4219 1838 4219 
Q 1578 4219 1281 4162 
Q 984 4106 628 3988 
L 628 4550 
Q 988 4650 1302 4700 
Q 1616 4750 1894 4750 
Q 2613 4750 3031 4423 
Q 3450 4097 3450 3541 
Q 3450 3153 3228 2886 
Q 3006 2619 2597 2516 
z
" transform="scale(0.015625)"/>
       </defs>
       <use xlink:href="#DejaVuSans-33"/>
      </g>
     </g>
    </g>
    <g id="ytick_10">
     <g id="line2d_33">
      <g>
       <use xlink:href="#ma541b9285a" x="530.267294" y="113.94834" style="stroke: #000000; stroke-width: 0.8"/>
      </g>
     </g>
     <g id="text_32">
      <!-- 4 -->
      <g transform="translate(516.904794 117.747559)scale(0.1 -0.1)">
       <use xlink:href="#DejaVuSans-34"/>
      </g>
     </g>
    </g>
    <g id="ytick_11">
     <g id="line2d_34">
      <g>
       <use xlink:href="#ma541b9285a" x="530.267294" y="62.335425" style="stroke: #000000; stroke-width: 0.8"/>
      </g>
     </g>
     <g id="text_33">
      <!-- 5 -->
      <g transform="translate(516.904794 66.134644)scale(0.1 -0.1)">
       <defs>
        <path id="DejaVuSans-35" d="M 691 4666 
L 3169 4666 
L 3169 4134 
L 1269 4134 
L 1269 2991 
Q 1406 3038 1543 3061 
Q 1681 3084 1819 3084 
Q 2600 3084 3056 2656 
Q 3513 2228 3513 1497 
Q 3513 744 3044 326 
Q 2575 -91 1722 -91 
Q 1428 -91 1123 -41 
Q 819 9 494 109 
L 494 744 
Q 775 591 1075 516 
Q 1375 441 1709 441 
Q 2250 441 2565 725 
Q 2881 1009 2881 1497 
Q 2881 1984 2565 2268 
Q 2250 2553 1709 2553 
Q 1456 2553 1204 2497 
Q 953 2441 691 2322 
L 691 4666 
z
" transform="scale(0.015625)"/>
       </defs>
       <use xlink:href="#DejaVuSans-35"/>
      </g>
     </g>
    </g>
    <g id="text_34">
     <!-- Density -->
     <g transform="translate(510.825107 200.808594)rotate(-90)scale(0.1 -0.1)">
      <use xlink:href="#DejaVuSans-44"/>
      <use xlink:href="#DejaVuSans-65" x="77.001953"/>
      <use xlink:href="#DejaVuSans-6e" x="138.525391"/>
      <use xlink:href="#DejaVuSans-73" x="201.904297"/>
      <use xlink:href="#DejaVuSans-69" x="254.003906"/>
      <use xlink:href="#DejaVuSans-74" x="281.787109"/>
      <use xlink:href="#DejaVuSans-79" x="320.996094"/>
     </g>
    </g>
   </g>
   <g id="line2d_35">
    <path d="M 681.912 320.4 
L 681.912 43.2 
" clip-path="url(#pda02b44294)" style="fill: none; stroke-dasharray: 5.55,2.4; stroke-dashoffset: 0; stroke: #1f77b4; stroke-width: 1.5"/>
   </g>
   <g id="line2d_36">
    <path d="M 353.329289 320.399985 
L 607.693502 320.177514 
L 612.938125 319.816052 
L 615.560437 319.472515 
L 618.182748 318.993649 
L 620.80506 318.188088 
L 623.427371 317.116344 
L 626.049683 315.543307 
L 628.671994 313.422418 
L 631.294306 310.436819 
L 633.916617 306.603456 
L 636.538929 301.398757 
L 639.16124 294.881508 
L 641.783552 286.876161 
L 644.405863 276.74556 
L 647.028175 265.17899 
L 649.650486 251.139064 
L 652.272798 234.829515 
L 654.895109 217.09749 
L 657.517421 197.936462 
L 662.762044 155.837688 
L 665.384355 134.59557 
L 668.006667 114.928117 
L 670.628978 96.640877 
L 673.251289 81.131262 
L 675.873601 68.619206 
L 678.495912 60.586075 
L 681.118224 56.4 
L 683.740535 58.132511 
L 686.362847 62.94231 
L 688.985158 73.125639 
L 691.60747 86.875484 
L 694.229781 103.578859 
L 696.852093 122.658271 
L 699.474404 143.124826 
L 704.719027 185.745354 
L 707.341339 205.682074 
L 709.96365 224.304044 
L 712.585962 241.838667 
L 715.208273 256.685846 
L 717.830585 269.618103 
L 720.452896 280.827018 
L 723.075208 290.154461 
L 725.697519 297.902885 
L 728.319831 303.717258 
L 730.942142 308.185205 
L 733.564454 311.864789 
L 736.186765 314.390845 
L 738.809076 316.234777 
L 741.431388 317.61667 
L 744.053699 318.446479 
L 746.676011 319.118433 
L 749.298322 319.586949 
L 754.542945 320.082174 
L 762.40988 320.314581 
L 775.521437 320.388748 
L 875.169273 320.399993 
L 875.169273 320.399993 
" clip-path="url(#pda02b44294)" style="fill: none; stroke: #1f77b4; stroke-width: 1.5; stroke-linecap: square"/>
   </g>
   <g id="line2d_37">
    <path d="M 296.30417 320.399995 
L 573.842326 320.268504 
L 581.925961 319.940317 
L 587.315052 319.367323 
L 590.009597 318.957445 
L 592.704142 318.384937 
L 595.398688 317.673514 
L 598.093233 316.746306 
L 600.787778 315.512684 
L 603.482323 314.066017 
L 606.176868 312.156922 
L 608.871414 309.857714 
L 611.565959 306.966477 
L 614.260504 303.564742 
L 616.955049 299.619752 
L 619.649594 295.104113 
L 622.34414 289.854976 
L 625.038685 283.607081 
L 630.427775 269.105807 
L 633.12232 261.01821 
L 638.511411 242.813598 
L 649.289592 203.099405 
L 651.984137 192.836035 
L 654.678682 183.155521 
L 657.373227 174.332226 
L 662.762318 159.066065 
L 665.456863 153.192155 
L 668.151408 148.091953 
L 673.540499 141.883107 
L 676.235044 140.707771 
L 678.929589 141.761347 
L 681.624134 143.740455 
L 684.318679 147.240055 
L 687.013225 151.260614 
L 692.402315 162.945305 
L 695.09686 170.98476 
L 697.791405 180.038069 
L 700.485951 189.596695 
L 703.180496 199.612126 
L 705.875041 210.087238 
L 708.569586 221.248414 
L 713.958677 241.703115 
L 716.653222 251.632136 
L 719.347767 261.012326 
L 724.736857 277.127986 
L 727.431403 284.024372 
L 730.125948 290.233908 
L 732.820493 295.480519 
L 735.515038 300.079593 
L 738.209583 303.949638 
L 740.904129 307.163021 
L 743.598674 309.846136 
L 746.293219 312.039383 
L 748.987764 313.94541 
L 751.682309 315.416321 
L 754.376855 316.599692 
L 759.765945 318.291549 
L 762.46049 318.842212 
L 765.155036 319.271619 
L 770.544126 319.814034 
L 778.627762 320.212606 
L 789.405942 320.364852 
L 827.129575 320.399424 
L 832.518666 320.399995 
L 832.518666 320.399995 
" clip-path="url(#pda02b44294)" style="fill: none; stroke: #ff7f0e; stroke-width: 1.5; stroke-linecap: square"/>
   </g>
   <g id="line2d_38">
    <path d="M 355.800573 320.399976 
L 461.439057 320.4 
L 588.205237 320.290675 
L 593.487162 320.115761 
L 598.769086 319.747927 
L 601.410048 319.413489 
L 604.05101 318.895163 
L 606.691972 318.251607 
L 609.332934 317.438178 
L 611.973896 316.100176 
L 614.614858 314.367655 
L 617.25582 312.306019 
L 619.896782 309.501499 
L 622.537745 306.046417 
L 625.178707 301.509732 
L 627.819669 296.027681 
L 630.460631 289.652213 
L 633.101593 281.35972 
L 635.742555 272.307895 
L 638.383517 261.820781 
L 641.024479 250.093067 
L 643.665441 237.192128 
L 648.947366 207.887778 
L 656.870252 160.040189 
L 662.152176 131.626669 
L 664.793138 118.913269 
L 667.4341 108.065645 
L 670.075062 100.504194 
L 672.716024 94.998676 
L 675.356986 92.372667 
L 677.997949 93.041778 
L 680.638911 97.731241 
L 683.279873 103.742018 
L 685.920835 113.750937 
L 688.561797 124.773634 
L 691.202759 138.047845 
L 693.843721 152.235468 
L 704.40757 214.676782 
L 707.048532 229.220408 
L 709.689494 242.868534 
L 712.330456 255.257155 
L 714.971418 266.634796 
L 717.61238 276.303334 
L 720.253342 284.908229 
L 722.894304 292.213126 
L 725.535266 298.265524 
L 728.176228 303.170779 
L 730.81719 307.401849 
L 733.458153 310.620765 
L 736.099115 313.056567 
L 738.740077 315.069132 
L 741.381039 316.579956 
L 744.022001 317.644567 
L 746.662963 318.501605 
L 749.303925 319.044215 
L 751.944887 319.469786 
L 754.585849 319.775369 
L 759.867774 320.121077 
L 765.149698 320.283107 
L 778.354508 320.384844 
L 847.019523 320.399969 
L 881.35203 320.399994 
L 881.35203 320.399994 
" clip-path="url(#pda02b44294)" style="fill: none; stroke: #2ca02c; stroke-width: 1.5; stroke-linecap: square"/>
   </g>
   <g id="line2d_39">
    <path d="M 314.456383 320.399987 
L 560.677334 320.399597 
L 591.778928 320.308118 
L 596.962527 320.172345 
L 602.146126 319.869623 
L 607.329725 319.317153 
L 609.921524 318.85916 
L 612.513324 318.147876 
L 615.105123 317.213042 
L 617.696923 315.980385 
L 620.288722 314.42229 
L 622.880522 312.137002 
L 625.472321 309.189987 
L 628.064121 305.60595 
L 630.65592 301.31245 
L 633.247719 295.644655 
L 635.839519 288.826168 
L 638.431318 281.05671 
L 641.023118 271.593814 
L 643.614917 261.007007 
L 646.206717 248.640187 
L 648.798516 235.002722 
L 651.390316 220.412015 
L 656.573915 188.774675 
L 664.349313 139.703325 
L 666.941113 125.680047 
L 669.532912 113.198633 
L 672.124712 102.021717 
L 674.716511 93.792674 
L 677.308311 88.53884 
L 679.90011 86.195368 
L 682.49191 86.756943 
L 685.083709 90.273433 
L 687.675509 97.914828 
L 690.267308 107.489026 
L 692.859108 119.949146 
L 695.450907 134.346637 
L 698.042707 149.546938 
L 708.409905 214.938919 
L 711.001704 229.80741 
L 713.593503 243.793926 
L 716.185303 256.629027 
L 718.777102 267.486334 
L 721.368902 277.774524 
L 723.960701 286.282184 
L 726.552501 293.580913 
L 729.1443 299.537803 
L 731.7361 304.327752 
L 734.327899 308.200413 
L 736.919699 311.302377 
L 739.511498 313.813791 
L 742.103298 315.544519 
L 744.695097 316.91011 
L 747.286897 317.879997 
L 749.878696 318.648109 
L 752.470496 319.268703 
L 757.654095 319.847947 
L 762.837694 320.166976 
L 775.796691 320.374039 
L 830.22448 320.399993 
L 830.22448 320.399993 
" clip-path="url(#pda02b44294)" style="fill: none; stroke: #d62728; stroke-width: 1.5; stroke-linecap: square"/>
   </g>
   <g id="patch_9">
    <path d="M 530.267294 320.4 
L 530.267294 43.2 
" style="fill: none; stroke: #000000; stroke-width: 0.8; stroke-linejoin: miter; stroke-linecap: square"/>
   </g>
   <g id="patch_10">
    <path d="M 833.556706 320.4 
L 833.556706 43.2 
" style="fill: none; stroke: #000000; stroke-width: 0.8; stroke-linejoin: miter; stroke-linecap: square"/>
   </g>
   <g id="patch_11">
    <path d="M 530.267294 320.4 
L 833.556706 320.4 
" style="fill: none; stroke: #000000; stroke-width: 0.8; stroke-linejoin: miter; stroke-linecap: square"/>
   </g>
   <g id="patch_12">
    <path d="M 530.267294 43.2 
L 833.556706 43.2 
" style="fill: none; stroke: #000000; stroke-width: 0.8; stroke-linejoin: miter; stroke-linecap: square"/>
   </g>
   <g id="text_35">
    <!-- nytimes-256-angular -->
    <g transform="translate(619.194187 37.2)scale(0.12 -0.12)">
     <defs>
      <path id="DejaVuSans-6d" d="M 3328 2828 
Q 3544 3216 3844 3400 
Q 4144 3584 4550 3584 
Q 5097 3584 5394 3201 
Q 5691 2819 5691 2113 
L 5691 0 
L 5113 0 
L 5113 2094 
Q 5113 2597 4934 2840 
Q 4756 3084 4391 3084 
Q 3944 3084 3684 2787 
Q 3425 2491 3425 1978 
L 3425 0 
L 2847 0 
L 2847 2094 
Q 2847 2600 2669 2842 
Q 2491 3084 2119 3084 
Q 1678 3084 1418 2786 
Q 1159 2488 1159 1978 
L 1159 0 
L 581 0 
L 581 3500 
L 1159 3500 
L 1159 2956 
Q 1356 3278 1631 3431 
Q 1906 3584 2284 3584 
Q 2666 3584 2933 3390 
Q 3200 3197 3328 2828 
z
" transform="scale(0.015625)"/>
     </defs>
     <use xlink:href="#DejaVuSans-6e"/>
     <use xlink:href="#DejaVuSans-79" x="63.378906"/>
     <use xlink:href="#DejaVuSans-74" x="122.558594"/>
     <use xlink:href="#DejaVuSans-69" x="161.767578"/>
     <use xlink:href="#DejaVuSans-6d" x="189.550781"/>
     <use xlink:href="#DejaVuSans-65" x="286.962891"/>
     <use xlink:href="#DejaVuSans-73" x="348.486328"/>
     <use xlink:href="#DejaVuSans-2d" x="400.585938"/>
     <use xlink:href="#DejaVuSans-32" x="436.669922"/>
     <use xlink:href="#DejaVuSans-35" x="500.292969"/>
     <use xlink:href="#DejaVuSans-36" x="563.916016"/>
     <use xlink:href="#DejaVuSans-2d" x="627.539062"/>
     <use xlink:href="#DejaVuSans-61" x="663.623047"/>
     <use xlink:href="#DejaVuSans-6e" x="724.902344"/>
     <use xlink:href="#DejaVuSans-67" x="788.28125"/>
     <use xlink:href="#DejaVuSans-75" x="851.757812"/>
     <use xlink:href="#DejaVuSans-6c" x="915.136719"/>
     <use xlink:href="#DejaVuSans-61" x="942.919922"/>
     <use xlink:href="#DejaVuSans-72" x="1004.199219"/>
    </g>
   </g>
   <g id="legend_2">
    <g id="patch_13">
     <path d="M 762.002018 109.9125 
L 826.556706 109.9125 
Q 828.556706 109.9125 828.556706 107.9125 
L 828.556706 50.2 
Q 828.556706 48.2 826.556706 48.2 
L 762.002018 48.2 
Q 760.002018 48.2 760.002018 50.2 
L 760.002018 107.9125 
Q 760.002018 109.9125 762.002018 109.9125 
z
" style="fill: #ffffff; opacity: 0.8; stroke: #cccccc; stroke-linejoin: miter"/>
    </g>
    <g id="line2d_40">
     <path d="M 764.002018 56.298437 
L 774.002018 56.298437 
L 784.002018 56.298437 
" style="fill: none; stroke: #1f77b4; stroke-width: 1.5; stroke-linecap: square"/>
    </g>
    <g id="text_36">
     <!-- E8NP -->
     <g transform="translate(792.002018 59.798437)scale(0.1 -0.1)">
      <use xlink:href="#DejaVuSans-45"/>
      <use xlink:href="#DejaVuSans-38" x="63.183594"/>
      <use xlink:href="#DejaVuSans-4e" x="126.806641"/>
      <use xlink:href="#DejaVuSans-50" x="201.611328"/>
     </g>
    </g>
    <g id="line2d_41">
     <path d="M 764.002018 70.976562 
L 774.002018 70.976562 
L 784.002018 70.976562 
" style="fill: none; stroke: #ff7f0e; stroke-width: 1.5; stroke-linecap: square"/>
    </g>
    <g id="text_37">
     <!-- E16NP -->
     <g transform="translate(792.002018 74.476562)scale(0.1 -0.1)">
      <use xlink:href="#DejaVuSans-45"/>
      <use xlink:href="#DejaVuSans-31" x="63.183594"/>
      <use xlink:href="#DejaVuSans-36" x="126.806641"/>
      <use xlink:href="#DejaVuSans-4e" x="190.429688"/>
      <use xlink:href="#DejaVuSans-50" x="265.234375"/>
     </g>
    </g>
    <g id="line2d_42">
     <path d="M 764.002018 85.654687 
L 774.002018 85.654687 
L 784.002018 85.654687 
" style="fill: none; stroke: #2ca02c; stroke-width: 1.5; stroke-linecap: square"/>
    </g>
    <g id="text_38">
     <!-- E8P -->
     <g transform="translate(792.002018 89.154687)scale(0.1 -0.1)">
      <use xlink:href="#DejaVuSans-45"/>
      <use xlink:href="#DejaVuSans-38" x="63.183594"/>
      <use xlink:href="#DejaVuSans-50" x="126.806641"/>
     </g>
    </g>
    <g id="line2d_43">
     <path d="M 764.002018 100.332812 
L 774.002018 100.332812 
L 784.002018 100.332812 
" style="fill: none; stroke: #d62728; stroke-width: 1.5; stroke-linecap: square"/>
    </g>
    <g id="text_39">
     <!-- E16P -->
     <g transform="translate(792.002018 103.832812)scale(0.1 -0.1)">
      <use xlink:href="#DejaVuSans-45"/>
      <use xlink:href="#DejaVuSans-31" x="63.183594"/>
      <use xlink:href="#DejaVuSans-36" x="126.806641"/>
      <use xlink:href="#DejaVuSans-50" x="190.429688"/>
     </g>
    </g>
   </g>
  </g>
  <g id="axes_3">
   <g id="patch_14">
    <path d="M 894.214588 320.4 
L 1197.504 320.4 
L 1197.504 43.2 
L 894.214588 43.2 
z
" style="fill: #ffffff"/>
   </g>
   <g id="matplotlib.axis_5">
    <g id="xtick_15">
     <g id="line2d_44">
      <g>
       <use xlink:href="#m21d95fe033" x="894.214588" y="320.4" style="stroke: #000000; stroke-width: 0.8"/>
      </g>
     </g>
     <g id="text_40">
      <!-- −0.6 -->
      <g transform="translate(882.073182 334.998438)scale(0.1 -0.1)">
       <use xlink:href="#DejaVuSans-2212"/>
       <use xlink:href="#DejaVuSans-30" x="83.789062"/>
       <use xlink:href="#DejaVuSans-2e" x="147.412109"/>
       <use xlink:href="#DejaVuSans-36" x="179.199219"/>
      </g>
     </g>
    </g>
    <g id="xtick_16">
     <g id="line2d_45">
      <g>
       <use xlink:href="#m21d95fe033" x="944.762824" y="320.4" style="stroke: #000000; stroke-width: 0.8"/>
      </g>
     </g>
     <g id="text_41">
      <!-- −0.4 -->
      <g transform="translate(932.621417 334.998438)scale(0.1 -0.1)">
       <use xlink:href="#DejaVuSans-2212"/>
       <use xlink:href="#DejaVuSans-30" x="83.789062"/>
       <use xlink:href="#DejaVuSans-2e" x="147.412109"/>
       <use xlink:href="#DejaVuSans-34" x="179.199219"/>
      </g>
     </g>
    </g>
    <g id="xtick_17">
     <g id="line2d_46">
      <g>
       <use xlink:href="#m21d95fe033" x="995.311059" y="320.4" style="stroke: #000000; stroke-width: 0.8"/>
      </g>
     </g>
     <g id="text_42">
      <!-- −0.2 -->
      <g transform="translate(983.169653 334.998438)scale(0.1 -0.1)">
       <use xlink:href="#DejaVuSans-2212"/>
       <use xlink:href="#DejaVuSans-30" x="83.789062"/>
       <use xlink:href="#DejaVuSans-2e" x="147.412109"/>
       <use xlink:href="#DejaVuSans-32" x="179.199219"/>
      </g>
     </g>
    </g>
    <g id="xtick_18">
     <g id="line2d_47">
      <g>
       <use xlink:href="#m21d95fe033" x="1045.859294" y="320.4" style="stroke: #000000; stroke-width: 0.8"/>
      </g>
     </g>
     <g id="text_43">
      <!-- 0.0 -->
      <g transform="translate(1037.907732 334.998438)scale(0.1 -0.1)">
       <use xlink:href="#DejaVuSans-30"/>
       <use xlink:href="#DejaVuSans-2e" x="63.623047"/>
       <use xlink:href="#DejaVuSans-30" x="95.410156"/>
      </g>
     </g>
    </g>
    <g id="xtick_19">
     <g id="line2d_48">
      <g>
       <use xlink:href="#m21d95fe033" x="1096.407529" y="320.4" style="stroke: #000000; stroke-width: 0.8"/>
      </g>
     </g>
     <g id="text_44">
      <!-- 0.2 -->
      <g transform="translate(1088.455967 334.998438)scale(0.1 -0.1)">
       <use xlink:href="#DejaVuSans-30"/>
       <use xlink:href="#DejaVuSans-2e" x="63.623047"/>
       <use xlink:href="#DejaVuSans-32" x="95.410156"/>
      </g>
     </g>
    </g>
    <g id="xtick_20">
     <g id="line2d_49">
      <g>
       <use xlink:href="#m21d95fe033" x="1146.955765" y="320.4" style="stroke: #000000; stroke-width: 0.8"/>
      </g>
     </g>
     <g id="text_45">
      <!-- 0.4 -->
      <g transform="translate(1139.004202 334.998438)scale(0.1 -0.1)">
       <use xlink:href="#DejaVuSans-30"/>
       <use xlink:href="#DejaVuSans-2e" x="63.623047"/>
       <use xlink:href="#DejaVuSans-34" x="95.410156"/>
      </g>
     </g>
    </g>
    <g id="xtick_21">
     <g id="line2d_50">
      <g>
       <use xlink:href="#m21d95fe033" x="1197.504" y="320.4" style="stroke: #000000; stroke-width: 0.8"/>
      </g>
     </g>
     <g id="text_46">
      <!-- 0.6 -->
      <g transform="translate(1189.552437 334.998438)scale(0.1 -0.1)">
       <use xlink:href="#DejaVuSans-30"/>
       <use xlink:href="#DejaVuSans-2e" x="63.623047"/>
       <use xlink:href="#DejaVuSans-36" x="95.410156"/>
      </g>
     </g>
    </g>
    <g id="text_47">
     <!-- Error -->
     <g transform="translate(1033.674138 348.676562)scale(0.1 -0.1)">
      <use xlink:href="#DejaVuSans-45"/>
      <use xlink:href="#DejaVuSans-72" x="63.183594"/>
      <use xlink:href="#DejaVuSans-72" x="102.546875"/>
      <use xlink:href="#DejaVuSans-6f" x="141.410156"/>
      <use xlink:href="#DejaVuSans-72" x="202.591797"/>
     </g>
    </g>
   </g>
   <g id="matplotlib.axis_6">
    <g id="ytick_12">
     <g id="line2d_51">
      <g>
       <use xlink:href="#ma541b9285a" x="894.214588" y="320.4" style="stroke: #000000; stroke-width: 0.8"/>
      </g>
     </g>
     <g id="text_48">
      <!-- 0 -->
      <g transform="translate(880.852088 324.199219)scale(0.1 -0.1)">
       <use xlink:href="#DejaVuSans-30"/>
      </g>
     </g>
    </g>
    <g id="ytick_13">
     <g id="line2d_52">
      <g>
       <use xlink:href="#ma541b9285a" x="894.214588" y="260.442351" style="stroke: #000000; stroke-width: 0.8"/>
      </g>
     </g>
     <g id="text_49">
      <!-- 2 -->
      <g transform="translate(880.852088 264.241569)scale(0.1 -0.1)">
       <use xlink:href="#DejaVuSans-32"/>
      </g>
     </g>
    </g>
    <g id="ytick_14">
     <g id="line2d_53">
      <g>
       <use xlink:href="#ma541b9285a" x="894.214588" y="200.484701" style="stroke: #000000; stroke-width: 0.8"/>
      </g>
     </g>
     <g id="text_50">
      <!-- 4 -->
      <g transform="translate(880.852088 204.28392)scale(0.1 -0.1)">
       <use xlink:href="#DejaVuSans-34"/>
      </g>
     </g>
    </g>
    <g id="ytick_15">
     <g id="line2d_54">
      <g>
       <use xlink:href="#ma541b9285a" x="894.214588" y="140.527052" style="stroke: #000000; stroke-width: 0.8"/>
      </g>
     </g>
     <g id="text_51">
      <!-- 6 -->
      <g transform="translate(880.852088 144.32627)scale(0.1 -0.1)">
       <use xlink:href="#DejaVuSans-36"/>
      </g>
     </g>
    </g>
    <g id="ytick_16">
     <g id="line2d_55">
      <g>
       <use xlink:href="#ma541b9285a" x="894.214588" y="80.569402" style="stroke: #000000; stroke-width: 0.8"/>
      </g>
     </g>
     <g id="text_52">
      <!-- 8 -->
      <g transform="translate(880.852088 84.368621)scale(0.1 -0.1)">
       <use xlink:href="#DejaVuSans-38"/>
      </g>
     </g>
    </g>
    <g id="text_53">
     <!-- Density -->
     <g transform="translate(874.772401 200.808594)rotate(-90)scale(0.1 -0.1)">
      <use xlink:href="#DejaVuSans-44"/>
      <use xlink:href="#DejaVuSans-65" x="77.001953"/>
      <use xlink:href="#DejaVuSans-6e" x="138.525391"/>
      <use xlink:href="#DejaVuSans-73" x="201.904297"/>
      <use xlink:href="#DejaVuSans-69" x="254.003906"/>
      <use xlink:href="#DejaVuSans-74" x="281.787109"/>
      <use xlink:href="#DejaVuSans-79" x="320.996094"/>
     </g>
    </g>
   </g>
   <g id="line2d_56">
    <path d="M 1045.859294 320.4 
L 1045.859294 43.2 
" clip-path="url(#p0d53f0c3d0)" style="fill: none; stroke-dasharray: 5.55,2.4; stroke-dashoffset: 0; stroke: #1f77b4; stroke-width: 1.5"/>
   </g>
   <g id="line2d_57">
    <path d="M 959.065573 320.399993 
L 982.816509 320.287103 
L 988.754242 319.970059 
L 991.723109 319.584513 
L 994.691976 319.023691 
L 996.671221 318.355824 
L 998.650466 317.480534 
L 1000.62971 316.332693 
L 1001.619333 315.599519 
L 1004.588199 312.635597 
L 1005.577822 311.40483 
L 1008.546689 306.645049 
L 1010.525933 302.374566 
L 1012.505178 297.363383 
L 1013.4948 294.485509 
L 1015.474045 287.599782 
L 1016.463667 283.907555 
L 1019.432534 270.406843 
L 1021.411779 259.764403 
L 1025.370268 236.013555 
L 1028.339135 215.407068 
L 1033.287247 181.012531 
L 1035.266491 168.103554 
L 1037.245736 156.614993 
L 1039.22498 146.710471 
L 1041.204225 139.036841 
L 1042.193847 136.427859 
L 1043.18347 134.40304 
L 1044.173092 133.353061 
L 1045.162714 132.983396 
L 1046.152337 133.378181 
L 1047.141959 134.831618 
L 1048.131581 136.663893 
L 1049.121204 139.39076 
L 1051.100448 146.274287 
L 1052.09007 150.595003 
L 1053.079693 155.41356 
L 1055.058937 166.911232 
L 1060.007049 199.485142 
L 1063.965538 225.572046 
L 1066.934405 243.84243 
L 1068.91365 254.653838 
L 1071.882517 269.67222 
L 1073.861761 278.199664 
L 1075.841006 285.662258 
L 1077.820251 291.995758 
L 1079.799495 297.493564 
L 1081.77874 301.941413 
L 1083.757984 305.843696 
L 1084.747607 307.490051 
L 1086.726851 310.260664 
L 1088.706096 312.626529 
L 1090.685341 314.527772 
L 1092.664585 315.904902 
L 1094.64383 317.046238 
L 1096.623074 317.91412 
L 1098.602319 318.589983 
L 1101.571186 319.276609 
L 1106.519298 319.935618 
L 1111.467409 320.194675 
L 1120.37401 320.364731 
L 1145.114568 320.399723 
L 1156.000413 320.399995 
L 1156.000413 320.399995 
" clip-path="url(#p0d53f0c3d0)" style="fill: none; stroke: #1f77b4; stroke-width: 1.5; stroke-linecap: square"/>
   </g>
   <g id="line2d_58">
    <path d="M 981.826157 320.399993 
L 999.685464 320.304623 
L 1002.992742 320.124123 
L 1005.638566 319.8081 
L 1007.622933 319.332424 
L 1009.6073 318.54273 
L 1010.930212 317.741339 
L 1012.253124 316.597803 
L 1013.576035 315.190862 
L 1016.221858 310.970688 
L 1017.54477 307.759045 
L 1018.867681 303.612056 
L 1020.852049 295.814742 
L 1022.836416 284.960954 
L 1024.159328 276.244711 
L 1025.482239 265.730487 
L 1026.805151 253.872785 
L 1028.789518 232.965291 
L 1031.435341 200.981113 
L 1038.049899 110.293065 
L 1039.372811 94.312744 
L 1040.695723 80.602945 
L 1042.018634 69.725328 
L 1043.341546 61.287904 
L 1044.003001 58.425513 
L 1044.664457 57.22763 
L 1045.325913 56.507384 
L 1045.987369 56.4 
L 1046.648825 57.131125 
L 1047.31028 59.302284 
L 1047.971736 62.203379 
L 1049.294648 69.959882 
L 1049.956104 74.650707 
L 1051.940471 93.968281 
L 1053.263383 108.897575 
L 1061.200852 214.60407 
L 1063.846675 243.941305 
L 1065.169587 256.595948 
L 1066.492498 267.773644 
L 1067.81541 277.35905 
L 1069.799777 289.51819 
L 1071.122689 295.970632 
L 1072.4456 301.32682 
L 1073.768512 305.486446 
L 1075.091424 308.931918 
L 1075.752879 310.458412 
L 1077.075791 312.80795 
L 1078.398703 314.840819 
L 1079.721614 316.38788 
L 1081.044526 317.447067 
L 1083.028893 318.565105 
L 1085.013261 319.32388 
L 1086.997628 319.760243 
L 1088.981995 320.027266 
L 1094.273642 320.333946 
L 1105.51839 320.396943 
L 1113.45586 320.399993 
L 1113.45586 320.399993 
" clip-path="url(#p0d53f0c3d0)" style="fill: none; stroke: #ff7f0e; stroke-width: 1.5; stroke-linecap: square"/>
   </g>
   <g id="line2d_59">
    <path d="M 877.031115 320.399997 
L 916.361885 320.292177 
L 926.194578 320.012174 
L 932.749706 319.629847 
L 940.943617 318.759381 
L 945.859963 317.992597 
L 952.415092 316.594595 
L 958.97022 314.843123 
L 967.16413 311.867472 
L 972.080477 309.735772 
L 975.358041 308.050635 
L 983.551951 303.427483 
L 991.745862 298.054254 
L 995.023426 295.563373 
L 1001.578554 289.876619 
L 1004.856119 286.635857 
L 1013.050029 277.834462 
L 1021.24394 268.339977 
L 1024.521504 264.53798 
L 1027.799068 260.402096 
L 1032.715414 254.077045 
L 1035.992979 249.974132 
L 1042.548107 241.557666 
L 1045.825671 237.932267 
L 1049.103235 234.563442 
L 1050.742017 233.133437 
L 1052.380799 232.058845 
L 1054.019582 231.227587 
L 1055.658364 230.579811 
L 1057.297146 230.100125 
L 1058.935928 229.877562 
L 1060.57471 229.958792 
L 1062.213492 230.390766 
L 1063.852274 231.127426 
L 1065.491056 232.208761 
L 1067.129838 233.548269 
L 1070.407403 237.012973 
L 1072.046185 238.812778 
L 1073.684967 240.986237 
L 1076.962531 246.234454 
L 1080.240095 251.791655 
L 1098.266698 285.604079 
L 1101.544262 291.049101 
L 1104.821827 295.957168 
L 1108.099391 300.370379 
L 1111.376955 304.256153 
L 1114.654519 307.642563 
L 1117.932083 310.407108 
L 1121.209648 312.767398 
L 1124.487212 314.653483 
L 1127.764776 316.15051 
L 1131.04234 317.278435 
L 1135.958686 318.522723 
L 1139.236251 319.100223 
L 1144.152597 319.669369 
L 1150.707725 320.06736 
L 1158.901636 320.292196 
L 1173.650675 320.390681 
L 1203.148752 320.399998 
L 1203.148752 320.399998 
" clip-path="url(#p0d53f0c3d0)" style="fill: none; stroke: #2ca02c; stroke-width: 1.5; stroke-linecap: square"/>
   </g>
   <g id="line2d_60">
    <path d="M 853.470828 320.399998 
L 892.958917 320.313792 
L 902.830939 320.026648 
L 908.754153 319.621575 
L 916.651771 318.73325 
L 922.574984 317.805041 
L 932.447006 316.156734 
L 938.370219 315.362074 
L 944.293433 314.830957 
L 958.114264 313.93375 
L 962.063073 313.459798 
L 967.986286 312.476362 
L 971.935095 311.51844 
L 975.883904 310.447458 
L 979.832713 309.078445 
L 983.781522 307.516514 
L 989.704735 304.704803 
L 993.653544 302.512675 
L 999.576757 298.847763 
L 1005.499971 294.649682 
L 1013.397588 288.624623 
L 1019.320802 283.782021 
L 1035.116037 270.470197 
L 1043.013655 265.145139 
L 1046.962464 262.847972 
L 1050.911273 260.883952 
L 1054.860082 259.333083 
L 1064.732104 255.841329 
L 1068.680913 254.780119 
L 1070.655317 254.390798 
L 1074.604126 253.983419 
L 1076.578531 253.973892 
L 1080.52734 254.427927 
L 1082.501744 254.828448 
L 1084.476149 255.486075 
L 1086.450553 256.443676 
L 1092.373766 260.152895 
L 1094.348171 261.641123 
L 1102.245789 268.381249 
L 1108.169002 273.839936 
L 1116.06662 281.454724 
L 1120.015429 285.230693 
L 1125.938642 291.134787 
L 1131.861855 296.756088 
L 1135.810664 300.452002 
L 1141.733878 305.321078 
L 1145.682686 308.216262 
L 1149.631495 310.729025 
L 1153.580304 312.821078 
L 1157.529113 314.622129 
L 1161.477922 316.016726 
L 1165.426731 317.160062 
L 1169.37554 318.005801 
L 1173.324349 318.682831 
L 1177.273158 319.196646 
L 1183.196371 319.676462 
L 1189.119584 320.002749 
L 1198.991606 320.259697 
L 1212.812438 320.379076 
L 1246.377313 320.399997 
L 1246.377313 320.399997 
" clip-path="url(#p0d53f0c3d0)" style="fill: none; stroke: #d62728; stroke-width: 1.5; stroke-linecap: square"/>
   </g>
   <g id="patch_15">
    <path d="M 894.214588 320.4 
L 894.214588 43.2 
" style="fill: none; stroke: #000000; stroke-width: 0.8; stroke-linejoin: miter; stroke-linecap: square"/>
   </g>
   <g id="patch_16">
    <path d="M 1197.504 320.4 
L 1197.504 43.2 
" style="fill: none; stroke: #000000; stroke-width: 0.8; stroke-linejoin: miter; stroke-linecap: square"/>
   </g>
   <g id="patch_17">
    <path d="M 894.214588 320.4 
L 1197.504 320.4 
" style="fill: none; stroke: #000000; stroke-width: 0.8; stroke-linejoin: miter; stroke-linecap: square"/>
   </g>
   <g id="patch_18">
    <path d="M 894.214588 43.2 
L 1197.504 43.2 
" style="fill: none; stroke: #000000; stroke-width: 0.8; stroke-linejoin: miter; stroke-linecap: square"/>
   </g>
   <g id="text_54">
    <!-- deep-image-96-angular -->
    <g transform="translate(975.138044 37.2)scale(0.12 -0.12)">
     <defs>
      <path id="DejaVuSans-64" d="M 2906 2969 
L 2906 4863 
L 3481 4863 
L 3481 0 
L 2906 0 
L 2906 525 
Q 2725 213 2448 61 
Q 2172 -91 1784 -91 
Q 1150 -91 751 415 
Q 353 922 353 1747 
Q 353 2572 751 3078 
Q 1150 3584 1784 3584 
Q 2172 3584 2448 3432 
Q 2725 3281 2906 2969 
z
M 947 1747 
Q 947 1113 1208 752 
Q 1469 391 1925 391 
Q 2381 391 2643 752 
Q 2906 1113 2906 1747 
Q 2906 2381 2643 2742 
Q 2381 3103 1925 3103 
Q 1469 3103 1208 2742 
Q 947 2381 947 1747 
z
" transform="scale(0.015625)"/>
      <path id="DejaVuSans-70" d="M 1159 525 
L 1159 -1331 
L 581 -1331 
L 581 3500 
L 1159 3500 
L 1159 2969 
Q 1341 3281 1617 3432 
Q 1894 3584 2278 3584 
Q 2916 3584 3314 3078 
Q 3713 2572 3713 1747 
Q 3713 922 3314 415 
Q 2916 -91 2278 -91 
Q 1894 -91 1617 61 
Q 1341 213 1159 525 
z
M 3116 1747 
Q 3116 2381 2855 2742 
Q 2594 3103 2138 3103 
Q 1681 3103 1420 2742 
Q 1159 2381 1159 1747 
Q 1159 1113 1420 752 
Q 1681 391 2138 391 
Q 2594 391 2855 752 
Q 3116 1113 3116 1747 
z
" transform="scale(0.015625)"/>
      <path id="DejaVuSans-39" d="M 703 97 
L 703 672 
Q 941 559 1184 500 
Q 1428 441 1663 441 
Q 2288 441 2617 861 
Q 2947 1281 2994 2138 
Q 2813 1869 2534 1725 
Q 2256 1581 1919 1581 
Q 1219 1581 811 2004 
Q 403 2428 403 3163 
Q 403 3881 828 4315 
Q 1253 4750 1959 4750 
Q 2769 4750 3195 4129 
Q 3622 3509 3622 2328 
Q 3622 1225 3098 567 
Q 2575 -91 1691 -91 
Q 1453 -91 1209 -44 
Q 966 3 703 97 
z
M 1959 2075 
Q 2384 2075 2632 2365 
Q 2881 2656 2881 3163 
Q 2881 3666 2632 3958 
Q 2384 4250 1959 4250 
Q 1534 4250 1286 3958 
Q 1038 3666 1038 3163 
Q 1038 2656 1286 2365 
Q 1534 2075 1959 2075 
z
" transform="scale(0.015625)"/>
     </defs>
     <use xlink:href="#DejaVuSans-64"/>
     <use xlink:href="#DejaVuSans-65" x="63.476562"/>
     <use xlink:href="#DejaVuSans-65" x="125"/>
     <use xlink:href="#DejaVuSans-70" x="186.523438"/>
     <use xlink:href="#DejaVuSans-2d" x="250"/>
     <use xlink:href="#DejaVuSans-69" x="286.083984"/>
     <use xlink:href="#DejaVuSans-6d" x="313.867188"/>
     <use xlink:href="#DejaVuSans-61" x="411.279297"/>
     <use xlink:href="#DejaVuSans-67" x="472.558594"/>
     <use xlink:href="#DejaVuSans-65" x="536.035156"/>
     <use xlink:href="#DejaVuSans-2d" x="597.558594"/>
     <use xlink:href="#DejaVuSans-39" x="633.642578"/>
     <use xlink:href="#DejaVuSans-36" x="697.265625"/>
     <use xlink:href="#DejaVuSans-2d" x="760.888672"/>
     <use xlink:href="#DejaVuSans-61" x="796.972656"/>
     <use xlink:href="#DejaVuSans-6e" x="858.251953"/>
     <use xlink:href="#DejaVuSans-67" x="921.630859"/>
     <use xlink:href="#DejaVuSans-75" x="985.107422"/>
     <use xlink:href="#DejaVuSans-6c" x="1048.486328"/>
     <use xlink:href="#DejaVuSans-61" x="1076.269531"/>
     <use xlink:href="#DejaVuSans-72" x="1137.548828"/>
    </g>
   </g>
   <g id="legend_3">
    <g id="patch_19">
     <path d="M 1125.949312 109.9125 
L 1190.504 109.9125 
Q 1192.504 109.9125 1192.504 107.9125 
L 1192.504 50.2 
Q 1192.504 48.2 1190.504 48.2 
L 1125.949312 48.2 
Q 1123.949312 48.2 1123.949312 50.2 
L 1123.949312 107.9125 
Q 1123.949312 109.9125 1125.949312 109.9125 
z
" style="fill: #ffffff; opacity: 0.8; stroke: #cccccc; stroke-linejoin: miter"/>
    </g>
    <g id="line2d_61">
     <path d="M 1127.949312 56.298437 
L 1137.949312 56.298437 
L 1147.949312 56.298437 
" style="fill: none; stroke: #1f77b4; stroke-width: 1.5; stroke-linecap: square"/>
    </g>
    <g id="text_55">
     <!-- E8NP -->
     <g transform="translate(1155.949312 59.798437)scale(0.1 -0.1)">
      <use xlink:href="#DejaVuSans-45"/>
      <use xlink:href="#DejaVuSans-38" x="63.183594"/>
      <use xlink:href="#DejaVuSans-4e" x="126.806641"/>
      <use xlink:href="#DejaVuSans-50" x="201.611328"/>
     </g>
    </g>
    <g id="line2d_62">
     <path d="M 1127.949312 70.976562 
L 1137.949312 70.976562 
L 1147.949312 70.976562 
" style="fill: none; stroke: #ff7f0e; stroke-width: 1.5; stroke-linecap: square"/>
    </g>
    <g id="text_56">
     <!-- E16NP -->
     <g transform="translate(1155.949312 74.476562)scale(0.1 -0.1)">
      <use xlink:href="#DejaVuSans-45"/>
      <use xlink:href="#DejaVuSans-31" x="63.183594"/>
      <use xlink:href="#DejaVuSans-36" x="126.806641"/>
      <use xlink:href="#DejaVuSans-4e" x="190.429688"/>
      <use xlink:href="#DejaVuSans-50" x="265.234375"/>
     </g>
    </g>
    <g id="line2d_63">
     <path d="M 1127.949312 85.654687 
L 1137.949312 85.654687 
L 1147.949312 85.654687 
" style="fill: none; stroke: #2ca02c; stroke-width: 1.5; stroke-linecap: square"/>
    </g>
    <g id="text_57">
     <!-- E8P -->
     <g transform="translate(1155.949312 89.154687)scale(0.1 -0.1)">
      <use xlink:href="#DejaVuSans-45"/>
      <use xlink:href="#DejaVuSans-38" x="63.183594"/>
      <use xlink:href="#DejaVuSans-50" x="126.806641"/>
     </g>
    </g>
    <g id="line2d_64">
     <path d="M 1127.949312 100.332812 
L 1137.949312 100.332812 
L 1147.949312 100.332812 
" style="fill: none; stroke: #d62728; stroke-width: 1.5; stroke-linecap: square"/>
    </g>
    <g id="text_58">
     <!-- E16P -->
     <g transform="translate(1155.949312 103.832812)scale(0.1 -0.1)">
      <use xlink:href="#DejaVuSans-45"/>
      <use xlink:href="#DejaVuSans-31" x="63.183594"/>
      <use xlink:href="#DejaVuSans-36" x="126.806641"/>
      <use xlink:href="#DejaVuSans-50" x="190.429688"/>
     </g>
    </g>
   </g>
  </g>
  <g id="text_59">
   <!-- Estimation errors -->
   <g transform="translate(613.774688 16.318125)scale(0.12 -0.12)">
    <defs>
     <path id="DejaVuSans-20" transform="scale(0.015625)"/>
    </defs>
    <use xlink:href="#DejaVuSans-45"/>
    <use xlink:href="#DejaVuSans-73" x="63.183594"/>
    <use xlink:href="#DejaVuSans-74" x="115.283203"/>
    <use xlink:href="#DejaVuSans-69" x="154.492188"/>
    <use xlink:href="#DejaVuSans-6d" x="182.275391"/>
    <use xlink:href="#DejaVuSans-61" x="279.6875"/>
    <use xlink:href="#DejaVuSans-74" x="340.966797"/>
    <use xlink:href="#DejaVuSans-69" x="380.175781"/>
    <use xlink:href="#DejaVuSans-6f" x="407.958984"/>
    <use xlink:href="#DejaVuSans-6e" x="469.140625"/>
    <use xlink:href="#DejaVuSans-20" x="532.519531"/>
    <use xlink:href="#DejaVuSans-65" x="564.306641"/>
    <use xlink:href="#DejaVuSans-72" x="625.830078"/>
    <use xlink:href="#DejaVuSans-72" x="665.193359"/>
    <use xlink:href="#DejaVuSans-6f" x="704.056641"/>
    <use xlink:href="#DejaVuSans-72" x="765.238281"/>
    <use xlink:href="#DejaVuSans-73" x="806.351562"/>
   </g>
  </g>
 </g>
 <defs>
  <clipPath id="p590b72a63a">
   <rect x="166.32" y="43.2" width="303.289412" height="277.2"/>
  </clipPath>
  <clipPath id="pda02b44294">
   <rect x="530.267294" y="43.2" width="303.289412" height="277.2"/>
  </clipPath>
  <clipPath id="p0d53f0c3d0">
   <rect x="894.214588" y="43.2" width="303.289412" height="277.2"/>
  </clipPath>
 </defs>
</svg>
