<?xml version="1.0" encoding="utf-8" standalone="no"?>
<!DOCTYPE svg PUBLIC "-//W3C//DTD SVG 1.1//EN"
  "http://www.w3.org/Graphics/SVG/1.1/DTD/svg11.dtd">
<svg xmlns:xlink="http://www.w3.org/1999/xlink" width="720pt" height="707.04pt" viewBox="0 0 720 707.04" xmlns="http://www.w3.org/2000/svg" version="1.1">
 <metadata>
  <rdf:RDF xmlns:dc="http://purl.org/dc/elements/1.1/" xmlns:cc="http://creativecommons.org/ns#" xmlns:rdf="http://www.w3.org/1999/02/22-rdf-syntax-ns#">
   <cc:Work>
    <dc:type rdf:resource="http://purl.org/dc/dcmitype/StillImage"/>
    <dc:date>2022-05-09T14:19:38.771240</dc:date>
    <dc:format>image/svg+xml</dc:format>
    <dc:creator>
     <cc:Agent>
      <dc:title>Matplotlib v3.5.1, https://matplotlib.org/</dc:title>
     </cc:Agent>
    </dc:creator>
   </cc:Work>
  </rdf:RDF>
 </metadata>
 <defs>
  <style type="text/css">*{stroke-linejoin: round; stroke-linecap: butt}</style>
 </defs>
 <g id="figure_1">
  <g id="patch_1">
   <path d="M 0 707.04 
L 720 707.04 
L 720 0 
L 0 0 
z
" style="fill: #ffffff"/>
  </g>
  <g id="axes_1">
   <g id="patch_2">
    <path d="M 57.6 218.172343 
L 369.6 218.172343 
L 369.6 56.5632 
L 57.6 56.5632 
z
" style="fill: #ffffff"/>
   </g>
   <g id="matplotlib.axis_1">
    <g id="xtick_1">
     <g id="line2d_1">
      <defs>
       <path id="mf4fa1417d7" d="M 0 0 
L 0 3.5 
" style="stroke: #000000; stroke-width: 0.8"/>
      </defs>
      <g>
       <use xlink:href="#mf4fa1417d7" x="88.8" y="218.172343" style="stroke: #000000; stroke-width: 0.8"/>
      </g>
     </g>
     <g id="text_1">
      <!-- −0.4 -->
      <g transform="translate(76.658594 232.77078)scale(0.1 -0.1)">
       <defs>
        <path id="DejaVuSans-2212" d="M 678 2272 
L 4684 2272 
L 4684 1741 
L 678 1741 
L 678 2272 
z
" transform="scale(0.015625)"/>
        <path id="DejaVuSans-30" d="M 2034 4250 
Q 1547 4250 1301 3770 
Q 1056 3291 1056 2328 
Q 1056 1369 1301 889 
Q 1547 409 2034 409 
Q 2525 409 2770 889 
Q 3016 1369 3016 2328 
Q 3016 3291 2770 3770 
Q 2525 4250 2034 4250 
z
M 2034 4750 
Q 2819 4750 3233 4129 
Q 3647 3509 3647 2328 
Q 3647 1150 3233 529 
Q 2819 -91 2034 -91 
Q 1250 -91 836 529 
Q 422 1150 422 2328 
Q 422 3509 836 4129 
Q 1250 4750 2034 4750 
z
" transform="scale(0.015625)"/>
        <path id="DejaVuSans-2e" d="M 684 794 
L 1344 794 
L 1344 0 
L 684 0 
L 684 794 
z
" transform="scale(0.015625)"/>
        <path id="DejaVuSans-34" d="M 2419 4116 
L 825 1625 
L 2419 1625 
L 2419 4116 
z
M 2253 4666 
L 3047 4666 
L 3047 1625 
L 3713 1625 
L 3713 1100 
L 3047 1100 
L 3047 0 
L 2419 0 
L 2419 1100 
L 313 1100 
L 313 1709 
L 2253 4666 
z
" transform="scale(0.015625)"/>
       </defs>
       <use xlink:href="#DejaVuSans-2212"/>
       <use xlink:href="#DejaVuSans-30" x="83.789062"/>
       <use xlink:href="#DejaVuSans-2e" x="147.412109"/>
       <use xlink:href="#DejaVuSans-34" x="179.199219"/>
      </g>
     </g>
    </g>
    <g id="xtick_2">
     <g id="line2d_2">
      <g>
       <use xlink:href="#mf4fa1417d7" x="151.2" y="218.172343" style="stroke: #000000; stroke-width: 0.8"/>
      </g>
     </g>
     <g id="text_2">
      <!-- −0.2 -->
      <g transform="translate(139.058594 232.77078)scale(0.1 -0.1)">
       <defs>
        <path id="DejaVuSans-32" d="M 1228 531 
L 3431 531 
L 3431 0 
L 469 0 
L 469 531 
Q 828 903 1448 1529 
Q 2069 2156 2228 2338 
Q 2531 2678 2651 2914 
Q 2772 3150 2772 3378 
Q 2772 3750 2511 3984 
Q 2250 4219 1831 4219 
Q 1534 4219 1204 4116 
Q 875 4013 500 3803 
L 500 4441 
Q 881 4594 1212 4672 
Q 1544 4750 1819 4750 
Q 2544 4750 2975 4387 
Q 3406 4025 3406 3419 
Q 3406 3131 3298 2873 
Q 3191 2616 2906 2266 
Q 2828 2175 2409 1742 
Q 1991 1309 1228 531 
z
" transform="scale(0.015625)"/>
       </defs>
       <use xlink:href="#DejaVuSans-2212"/>
       <use xlink:href="#DejaVuSans-30" x="83.789062"/>
       <use xlink:href="#DejaVuSans-2e" x="147.412109"/>
       <use xlink:href="#DejaVuSans-32" x="179.199219"/>
      </g>
     </g>
    </g>
    <g id="xtick_3">
     <g id="line2d_3">
      <g>
       <use xlink:href="#mf4fa1417d7" x="213.6" y="218.172343" style="stroke: #000000; stroke-width: 0.8"/>
      </g>
     </g>
     <g id="text_3">
      <!-- 0.0 -->
      <g transform="translate(205.648437 232.77078)scale(0.1 -0.1)">
       <use xlink:href="#DejaVuSans-30"/>
       <use xlink:href="#DejaVuSans-2e" x="63.623047"/>
       <use xlink:href="#DejaVuSans-30" x="95.410156"/>
      </g>
     </g>
    </g>
    <g id="xtick_4">
     <g id="line2d_4">
      <g>
       <use xlink:href="#mf4fa1417d7" x="276" y="218.172343" style="stroke: #000000; stroke-width: 0.8"/>
      </g>
     </g>
     <g id="text_4">
      <!-- 0.2 -->
      <g transform="translate(268.048437 232.77078)scale(0.1 -0.1)">
       <use xlink:href="#DejaVuSans-30"/>
       <use xlink:href="#DejaVuSans-2e" x="63.623047"/>
       <use xlink:href="#DejaVuSans-32" x="95.410156"/>
      </g>
     </g>
    </g>
    <g id="xtick_5">
     <g id="line2d_5">
      <g>
       <use xlink:href="#mf4fa1417d7" x="338.4" y="218.172343" style="stroke: #000000; stroke-width: 0.8"/>
      </g>
     </g>
     <g id="text_5">
      <!-- 0.4 -->
      <g transform="translate(330.448437 232.77078)scale(0.1 -0.1)">
       <use xlink:href="#DejaVuSans-30"/>
       <use xlink:href="#DejaVuSans-2e" x="63.623047"/>
       <use xlink:href="#DejaVuSans-34" x="95.410156"/>
      </g>
     </g>
    </g>
   </g>
   <g id="matplotlib.axis_2">
    <g id="ytick_1">
     <g id="line2d_6">
      <defs>
       <path id="m50c3aec21c" d="M 0 0 
L -3.5 0 
" style="stroke: #000000; stroke-width: 0.8"/>
      </defs>
      <g>
       <use xlink:href="#m50c3aec21c" x="57.6" y="218.172343" style="stroke: #000000; stroke-width: 0.8"/>
      </g>
     </g>
     <g id="text_6">
      <!-- 0 -->
      <g transform="translate(44.2375 221.971562)scale(0.1 -0.1)">
       <use xlink:href="#DejaVuSans-30"/>
      </g>
     </g>
    </g>
    <g id="ytick_2">
     <g id="line2d_7">
      <g>
       <use xlink:href="#m50c3aec21c" x="57.6" y="185.850514" style="stroke: #000000; stroke-width: 0.8"/>
      </g>
     </g>
     <g id="text_7">
      <!-- 2 -->
      <g transform="translate(44.2375 189.649733)scale(0.1 -0.1)">
       <use xlink:href="#DejaVuSans-32"/>
      </g>
     </g>
    </g>
    <g id="ytick_3">
     <g id="line2d_8">
      <g>
       <use xlink:href="#m50c3aec21c" x="57.6" y="153.528686" style="stroke: #000000; stroke-width: 0.8"/>
      </g>
     </g>
     <g id="text_8">
      <!-- 4 -->
      <g transform="translate(44.2375 157.327904)scale(0.1 -0.1)">
       <use xlink:href="#DejaVuSans-34"/>
      </g>
     </g>
    </g>
    <g id="ytick_4">
     <g id="line2d_9">
      <g>
       <use xlink:href="#m50c3aec21c" x="57.6" y="121.206857" style="stroke: #000000; stroke-width: 0.8"/>
      </g>
     </g>
     <g id="text_9">
      <!-- 6 -->
      <g transform="translate(44.2375 125.006076)scale(0.1 -0.1)">
       <defs>
        <path id="DejaVuSans-36" d="M 2113 2584 
Q 1688 2584 1439 2293 
Q 1191 2003 1191 1497 
Q 1191 994 1439 701 
Q 1688 409 2113 409 
Q 2538 409 2786 701 
Q 3034 994 3034 1497 
Q 3034 2003 2786 2293 
Q 2538 2584 2113 2584 
z
M 3366 4563 
L 3366 3988 
Q 3128 4100 2886 4159 
Q 2644 4219 2406 4219 
Q 1781 4219 1451 3797 
Q 1122 3375 1075 2522 
Q 1259 2794 1537 2939 
Q 1816 3084 2150 3084 
Q 2853 3084 3261 2657 
Q 3669 2231 3669 1497 
Q 3669 778 3244 343 
Q 2819 -91 2113 -91 
Q 1303 -91 875 529 
Q 447 1150 447 2328 
Q 447 3434 972 4092 
Q 1497 4750 2381 4750 
Q 2619 4750 2861 4703 
Q 3103 4656 3366 4563 
z
" transform="scale(0.015625)"/>
       </defs>
       <use xlink:href="#DejaVuSans-36"/>
      </g>
     </g>
    </g>
    <g id="ytick_5">
     <g id="line2d_10">
      <g>
       <use xlink:href="#m50c3aec21c" x="57.6" y="88.885029" style="stroke: #000000; stroke-width: 0.8"/>
      </g>
     </g>
     <g id="text_10">
      <!-- 8 -->
      <g transform="translate(44.2375 92.684247)scale(0.1 -0.1)">
       <defs>
        <path id="DejaVuSans-38" d="M 2034 2216 
Q 1584 2216 1326 1975 
Q 1069 1734 1069 1313 
Q 1069 891 1326 650 
Q 1584 409 2034 409 
Q 2484 409 2743 651 
Q 3003 894 3003 1313 
Q 3003 1734 2745 1975 
Q 2488 2216 2034 2216 
z
M 1403 2484 
Q 997 2584 770 2862 
Q 544 3141 544 3541 
Q 544 4100 942 4425 
Q 1341 4750 2034 4750 
Q 2731 4750 3128 4425 
Q 3525 4100 3525 3541 
Q 3525 3141 3298 2862 
Q 3072 2584 2669 2484 
Q 3125 2378 3379 2068 
Q 3634 1759 3634 1313 
Q 3634 634 3220 271 
Q 2806 -91 2034 -91 
Q 1263 -91 848 271 
Q 434 634 434 1313 
Q 434 1759 690 2068 
Q 947 2378 1403 2484 
z
M 1172 3481 
Q 1172 3119 1398 2916 
Q 1625 2713 2034 2713 
Q 2441 2713 2670 2916 
Q 2900 3119 2900 3481 
Q 2900 3844 2670 4047 
Q 2441 4250 2034 4250 
Q 1625 4250 1398 4047 
Q 1172 3844 1172 3481 
z
" transform="scale(0.015625)"/>
       </defs>
       <use xlink:href="#DejaVuSans-38"/>
      </g>
     </g>
    </g>
    <g id="ytick_6">
     <g id="line2d_11">
      <g>
       <use xlink:href="#m50c3aec21c" x="57.6" y="56.5632" style="stroke: #000000; stroke-width: 0.8"/>
      </g>
     </g>
     <g id="text_11">
      <!-- 10 -->
      <g transform="translate(37.875 60.362419)scale(0.1 -0.1)">
       <defs>
        <path id="DejaVuSans-31" d="M 794 531 
L 1825 531 
L 1825 4091 
L 703 3866 
L 703 4441 
L 1819 4666 
L 2450 4666 
L 2450 531 
L 3481 531 
L 3481 0 
L 794 0 
L 794 531 
z
" transform="scale(0.015625)"/>
       </defs>
       <use xlink:href="#DejaVuSans-31"/>
       <use xlink:href="#DejaVuSans-30" x="63.623047"/>
      </g>
     </g>
    </g>
   </g>
   <g id="line2d_12">
    <path d="M 213.6 218.172343 
L 213.6 56.5632 
" clip-path="url(#p6b806c9c21)" style="fill: none; stroke-dasharray: 5.55,2.4; stroke-dashoffset: 0; stroke: #1f77b4; stroke-width: 1.5"/>
   </g>
   <g id="line2d_13">
    <path d="M -1 218.172119 
L 59.700812 218.060287 
L 75.055367 217.837461 
L 86.571282 217.437132 
L 94.24856 216.990212 
L 101.925837 216.308085 
L 109.603114 215.348214 
L 117.280392 213.946547 
L 124.957669 212.111675 
L 128.796307 210.999636 
L 136.473585 208.281822 
L 140.312223 206.721481 
L 144.150862 204.965226 
L 151.828139 201.00243 
L 163.344055 194.236094 
L 174.859971 187.19116 
L 182.537248 182.585928 
L 190.214525 178.569696 
L 197.891803 175.457696 
L 201.730441 174.414353 
L 205.56908 173.583125 
L 209.407719 173.015162 
L 213.246357 172.886241 
L 217.084996 173.102139 
L 220.923634 173.536912 
L 224.762273 174.261992 
L 228.600912 175.385822 
L 232.43955 176.827698 
L 240.116828 180.247391 
L 247.794105 184.486497 
L 270.825937 198.496546 
L 278.503214 202.57427 
L 282.341853 204.498338 
L 286.180491 206.229476 
L 290.01913 207.82204 
L 293.857768 209.270842 
L 297.696407 210.593203 
L 301.535046 211.742897 
L 305.373684 212.764563 
L 313.050962 214.447517 
L 320.728239 215.649122 
L 328.405516 216.531857 
L 336.082793 217.123881 
L 347.598709 217.665827 
L 359.114625 217.938495 
L 378.307818 218.1184 
L 428.21012 218.171541 
L 721 218.172336 
L 721 218.172336 
" clip-path="url(#p6b806c9c21)" style="fill: none; stroke: #1f77b4; stroke-width: 1.5; stroke-linecap: square"/>
   </g>
   <g id="line2d_14">
    <path d="M 60.855551 218.172341 
L 111.042922 218.071103 
L 122.375554 217.848866 
L 128.851343 217.543796 
L 135.327133 216.995536 
L 138.565028 216.581586 
L 143.42187 215.637719 
L 146.659765 214.786151 
L 149.89766 213.639207 
L 153.135555 212.169861 
L 156.37345 210.353254 
L 159.611344 208.158727 
L 162.849239 205.503577 
L 166.087134 202.308157 
L 169.325029 198.554985 
L 172.562924 194.371819 
L 174.181871 192.153282 
L 179.038714 184.818395 
L 182.276608 179.621779 
L 188.752398 168.785833 
L 195.228188 158.55653 
L 198.466083 154.340268 
L 200.08503 152.398799 
L 204.941872 147.642696 
L 206.56082 146.457669 
L 208.179767 145.595505 
L 209.798715 144.969873 
L 213.036609 144.461974 
L 214.655557 144.316228 
L 216.274504 144.605969 
L 217.893452 145.296952 
L 221.131347 147.184258 
L 222.750294 148.499929 
L 225.988189 151.602201 
L 227.607136 153.475291 
L 230.845031 157.720393 
L 232.463979 160.071453 
L 235.701873 165.286873 
L 238.939768 170.177161 
L 248.653453 186.083466 
L 253.510295 193.182312 
L 256.74819 197.52144 
L 259.986085 201.276626 
L 263.22398 204.532589 
L 266.461875 207.344181 
L 269.699769 209.674016 
L 272.937664 211.569006 
L 276.175559 213.090729 
L 279.413454 214.343033 
L 282.651349 215.292428 
L 285.889244 216.010901 
L 290.746086 216.787998 
L 293.983981 217.143732 
L 300.45977 217.6152 
L 306.93556 217.871354 
L 316.649245 218.05818 
L 336.076614 218.16231 
L 383.026089 218.172341 
L 383.026089 218.172341 
" clip-path="url(#p6b806c9c21)" style="fill: none; stroke: #ff7f0e; stroke-width: 1.5; stroke-linecap: square"/>
   </g>
   <g id="line2d_15">
    <path d="M 34.984688 218.172341 
L 93.896618 218.084077 
L 104.292841 217.921653 
L 111.223656 217.679605 
L 118.154472 217.232984 
L 125.085287 216.512591 
L 128.550695 215.949138 
L 132.016102 215.244416 
L 138.946918 213.33463 
L 142.412325 212.046352 
L 145.877733 210.541899 
L 149.343141 208.727109 
L 152.808548 206.647303 
L 156.273956 204.357777 
L 159.739363 201.593205 
L 163.204771 198.594574 
L 166.670179 195.414219 
L 173.600994 188.271735 
L 177.066402 184.616394 
L 183.997217 176.925889 
L 187.462625 173.217418 
L 194.39344 166.710254 
L 197.858848 163.861191 
L 201.324255 161.632047 
L 204.789663 159.995224 
L 208.255071 158.775593 
L 211.720478 158.210913 
L 215.185886 158.290312 
L 218.651293 158.880059 
L 222.116701 160.289614 
L 225.582109 162.197133 
L 229.047516 164.63876 
L 232.512924 167.541745 
L 235.978332 170.661212 
L 242.909147 177.78601 
L 249.839962 185.244163 
L 256.770778 192.379214 
L 260.236185 195.684603 
L 263.701593 198.751372 
L 267.167001 201.562742 
L 270.632408 204.106463 
L 274.097816 206.41398 
L 277.563223 208.414688 
L 281.028631 210.124735 
L 284.494039 211.670987 
L 287.959446 212.890657 
L 291.424854 213.948738 
L 294.890262 214.852147 
L 298.355669 215.564339 
L 301.821077 216.157911 
L 308.751892 216.991569 
L 315.682708 217.482612 
L 326.078931 217.907093 
L 339.940561 218.102095 
L 364.198415 218.167739 
L 620.63858 218.172343 
L 721 218.172205 
L 721 218.172205 
" clip-path="url(#p6b806c9c21)" style="fill: none; stroke: #2ca02c; stroke-width: 1.5; stroke-linecap: square"/>
   </g>
   <g id="line2d_16">
    <path d="M 49.182702 218.172341 
L 108.978691 218.065986 
L 120.605689 217.842662 
L 128.910688 217.450401 
L 135.554687 216.799292 
L 140.537686 215.996567 
L 143.859685 215.221652 
L 147.181685 214.153376 
L 148.842684 213.564239 
L 152.164684 212.054119 
L 153.825683 211.21228 
L 155.486683 210.226257 
L 158.808683 207.890613 
L 162.130682 205.237449 
L 163.791682 203.692447 
L 167.113681 200.129046 
L 170.435681 196.274863 
L 173.75768 191.754087 
L 178.740679 184.461518 
L 183.723678 176.83535 
L 187.045678 171.495874 
L 193.689676 161.731053 
L 195.350676 159.39705 
L 200.333675 153.389672 
L 201.994675 151.746082 
L 203.655675 150.352838 
L 205.316674 149.27557 
L 208.638674 147.63063 
L 210.299674 146.998174 
L 211.960673 146.699574 
L 215.282673 146.745627 
L 216.943672 147.236813 
L 220.265672 148.655019 
L 221.926672 149.870868 
L 226.909671 154.23489 
L 228.57067 155.957498 
L 231.89267 160.475637 
L 235.214669 164.995258 
L 240.197668 172.550589 
L 251.824666 189.950417 
L 255.146666 194.34257 
L 258.468665 198.45102 
L 260.129665 200.328291 
L 263.451664 203.611346 
L 266.773664 206.516072 
L 270.095663 209.01962 
L 273.417663 211.016608 
L 276.739662 212.67701 
L 280.061661 213.905664 
L 283.383661 214.996461 
L 286.70566 215.800112 
L 293.349659 216.873205 
L 298.332658 217.335807 
L 304.976657 217.741395 
L 313.281656 217.987795 
L 334.874652 218.154236 
L 379.721644 218.172341 
L 379.721644 218.172341 
" clip-path="url(#p6b806c9c21)" style="fill: none; stroke: #d62728; stroke-width: 1.5; stroke-linecap: square"/>
   </g>
   <g id="patch_3">
    <path d="M 57.6 218.172343 
L 57.6 56.5632 
" style="fill: none; stroke: #000000; stroke-width: 0.8; stroke-linejoin: miter; stroke-linecap: square"/>
   </g>
   <g id="patch_4">
    <path d="M 369.6 218.172343 
L 369.6 56.5632 
" style="fill: none; stroke: #000000; stroke-width: 0.8; stroke-linejoin: miter; stroke-linecap: square"/>
   </g>
   <g id="patch_5">
    <path d="M 57.6 218.172343 
L 369.6 218.172343 
" style="fill: none; stroke: #000000; stroke-width: 0.8; stroke-linejoin: miter; stroke-linecap: square"/>
   </g>
   <g id="patch_6">
    <path d="M 57.6 56.5632 
L 369.6 56.5632 
" style="fill: none; stroke: #000000; stroke-width: 0.8; stroke-linejoin: miter; stroke-linecap: square"/>
   </g>
   <g id="text_12">
    <!-- No Permutation -->
    <g transform="translate(160.183125 50.5632)scale(0.12 -0.12)">
     <defs>
      <path id="DejaVuSans-Bold-4e" d="M 588 4666 
L 1931 4666 
L 3628 1466 
L 3628 4666 
L 4769 4666 
L 4769 0 
L 3425 0 
L 1728 3200 
L 1728 0 
L 588 0 
L 588 4666 
z
" transform="scale(0.015625)"/>
      <path id="DejaVuSans-Bold-6f" d="M 2203 2784 
Q 1831 2784 1636 2517 
Q 1441 2250 1441 1747 
Q 1441 1244 1636 976 
Q 1831 709 2203 709 
Q 2569 709 2762 976 
Q 2956 1244 2956 1747 
Q 2956 2250 2762 2517 
Q 2569 2784 2203 2784 
z
M 2203 3584 
Q 3106 3584 3614 3096 
Q 4122 2609 4122 1747 
Q 4122 884 3614 396 
Q 3106 -91 2203 -91 
Q 1297 -91 786 396 
Q 275 884 275 1747 
Q 275 2609 786 3096 
Q 1297 3584 2203 3584 
z
" transform="scale(0.015625)"/>
      <path id="DejaVuSans-Bold-20" transform="scale(0.015625)"/>
      <path id="DejaVuSans-Bold-50" d="M 588 4666 
L 2584 4666 
Q 3475 4666 3951 4270 
Q 4428 3875 4428 3144 
Q 4428 2409 3951 2014 
Q 3475 1619 2584 1619 
L 1791 1619 
L 1791 0 
L 588 0 
L 588 4666 
z
M 1791 3794 
L 1791 2491 
L 2456 2491 
Q 2806 2491 2997 2661 
Q 3188 2831 3188 3144 
Q 3188 3456 2997 3625 
Q 2806 3794 2456 3794 
L 1791 3794 
z
" transform="scale(0.015625)"/>
      <path id="DejaVuSans-Bold-65" d="M 4031 1759 
L 4031 1441 
L 1416 1441 
Q 1456 1047 1700 850 
Q 1944 653 2381 653 
Q 2734 653 3104 758 
Q 3475 863 3866 1075 
L 3866 213 
Q 3469 63 3072 -14 
Q 2675 -91 2278 -91 
Q 1328 -91 801 392 
Q 275 875 275 1747 
Q 275 2603 792 3093 
Q 1309 3584 2216 3584 
Q 3041 3584 3536 3087 
Q 4031 2591 4031 1759 
z
M 2881 2131 
Q 2881 2450 2695 2645 
Q 2509 2841 2209 2841 
Q 1884 2841 1681 2658 
Q 1478 2475 1428 2131 
L 2881 2131 
z
" transform="scale(0.015625)"/>
      <path id="DejaVuSans-Bold-72" d="M 3138 2547 
Q 2991 2616 2845 2648 
Q 2700 2681 2553 2681 
Q 2122 2681 1889 2404 
Q 1656 2128 1656 1613 
L 1656 0 
L 538 0 
L 538 3500 
L 1656 3500 
L 1656 2925 
Q 1872 3269 2151 3426 
Q 2431 3584 2822 3584 
Q 2878 3584 2943 3579 
Q 3009 3575 3134 3559 
L 3138 2547 
z
" transform="scale(0.015625)"/>
      <path id="DejaVuSans-Bold-6d" d="M 3781 2919 
Q 3994 3244 4286 3414 
Q 4578 3584 4928 3584 
Q 5531 3584 5847 3212 
Q 6163 2841 6163 2131 
L 6163 0 
L 5038 0 
L 5038 1825 
Q 5041 1866 5042 1909 
Q 5044 1953 5044 2034 
Q 5044 2406 4934 2573 
Q 4825 2741 4581 2741 
Q 4263 2741 4089 2478 
Q 3916 2216 3909 1719 
L 3909 0 
L 2784 0 
L 2784 1825 
Q 2784 2406 2684 2573 
Q 2584 2741 2328 2741 
Q 2006 2741 1831 2477 
Q 1656 2213 1656 1722 
L 1656 0 
L 531 0 
L 531 3500 
L 1656 3500 
L 1656 2988 
Q 1863 3284 2130 3434 
Q 2397 3584 2719 3584 
Q 3081 3584 3359 3409 
Q 3638 3234 3781 2919 
z
" transform="scale(0.015625)"/>
      <path id="DejaVuSans-Bold-75" d="M 500 1363 
L 500 3500 
L 1625 3500 
L 1625 3150 
Q 1625 2866 1622 2436 
Q 1619 2006 1619 1863 
Q 1619 1441 1641 1255 
Q 1663 1069 1716 984 
Q 1784 875 1895 815 
Q 2006 756 2150 756 
Q 2500 756 2700 1025 
Q 2900 1294 2900 1772 
L 2900 3500 
L 4019 3500 
L 4019 0 
L 2900 0 
L 2900 506 
Q 2647 200 2364 54 
Q 2081 -91 1741 -91 
Q 1134 -91 817 281 
Q 500 653 500 1363 
z
" transform="scale(0.015625)"/>
      <path id="DejaVuSans-Bold-74" d="M 1759 4494 
L 1759 3500 
L 2913 3500 
L 2913 2700 
L 1759 2700 
L 1759 1216 
Q 1759 972 1856 886 
Q 1953 800 2241 800 
L 2816 800 
L 2816 0 
L 1856 0 
Q 1194 0 917 276 
Q 641 553 641 1216 
L 641 2700 
L 84 2700 
L 84 3500 
L 641 3500 
L 641 4494 
L 1759 4494 
z
" transform="scale(0.015625)"/>
      <path id="DejaVuSans-Bold-61" d="M 2106 1575 
Q 1756 1575 1579 1456 
Q 1403 1338 1403 1106 
Q 1403 894 1545 773 
Q 1688 653 1941 653 
Q 2256 653 2472 879 
Q 2688 1106 2688 1447 
L 2688 1575 
L 2106 1575 
z
M 3816 1997 
L 3816 0 
L 2688 0 
L 2688 519 
Q 2463 200 2181 54 
Q 1900 -91 1497 -91 
Q 953 -91 614 226 
Q 275 544 275 1050 
Q 275 1666 698 1953 
Q 1122 2241 2028 2241 
L 2688 2241 
L 2688 2328 
Q 2688 2594 2478 2717 
Q 2269 2841 1825 2841 
Q 1466 2841 1156 2769 
Q 847 2697 581 2553 
L 581 3406 
Q 941 3494 1303 3539 
Q 1666 3584 2028 3584 
Q 2975 3584 3395 3211 
Q 3816 2838 3816 1997 
z
" transform="scale(0.015625)"/>
      <path id="DejaVuSans-Bold-69" d="M 538 3500 
L 1656 3500 
L 1656 0 
L 538 0 
L 538 3500 
z
M 538 4863 
L 1656 4863 
L 1656 3950 
L 538 3950 
L 538 4863 
z
" transform="scale(0.015625)"/>
      <path id="DejaVuSans-Bold-6e" d="M 4056 2131 
L 4056 0 
L 2931 0 
L 2931 347 
L 2931 1631 
Q 2931 2084 2911 2256 
Q 2891 2428 2841 2509 
Q 2775 2619 2662 2680 
Q 2550 2741 2406 2741 
Q 2056 2741 1856 2470 
Q 1656 2200 1656 1722 
L 1656 0 
L 538 0 
L 538 3500 
L 1656 3500 
L 1656 2988 
Q 1909 3294 2193 3439 
Q 2478 3584 2822 3584 
Q 3428 3584 3742 3212 
Q 4056 2841 4056 2131 
z
" transform="scale(0.015625)"/>
     </defs>
     <use xlink:href="#DejaVuSans-Bold-4e"/>
     <use xlink:href="#DejaVuSans-Bold-6f" x="83.691406"/>
     <use xlink:href="#DejaVuSans-Bold-20" x="152.392578"/>
     <use xlink:href="#DejaVuSans-Bold-50" x="187.207031"/>
     <use xlink:href="#DejaVuSans-Bold-65" x="260.498047"/>
     <use xlink:href="#DejaVuSans-Bold-72" x="328.320312"/>
     <use xlink:href="#DejaVuSans-Bold-6d" x="377.636719"/>
     <use xlink:href="#DejaVuSans-Bold-75" x="481.835938"/>
     <use xlink:href="#DejaVuSans-Bold-74" x="553.027344"/>
     <use xlink:href="#DejaVuSans-Bold-61" x="600.830078"/>
     <use xlink:href="#DejaVuSans-Bold-74" x="668.310547"/>
     <use xlink:href="#DejaVuSans-Bold-69" x="716.113281"/>
     <use xlink:href="#DejaVuSans-Bold-6f" x="750.390625"/>
     <use xlink:href="#DejaVuSans-Bold-6e" x="819.091797"/>
    </g>
   </g>
  </g>
  <g id="axes_2">
   <g id="patch_7">
    <path d="M 400.8 218.172343 
L 712.8 218.172343 
L 712.8 56.5632 
L 400.8 56.5632 
z
" style="fill: #ffffff"/>
   </g>
   <g id="matplotlib.axis_3">
    <g id="xtick_6">
     <g id="line2d_17">
      <g>
       <use xlink:href="#mf4fa1417d7" x="432" y="218.172343" style="stroke: #000000; stroke-width: 0.8"/>
      </g>
     </g>
     <g id="text_13">
      <!-- −0.4 -->
      <g transform="translate(419.858594 232.77078)scale(0.1 -0.1)">
       <use xlink:href="#DejaVuSans-2212"/>
       <use xlink:href="#DejaVuSans-30" x="83.789062"/>
       <use xlink:href="#DejaVuSans-2e" x="147.412109"/>
       <use xlink:href="#DejaVuSans-34" x="179.199219"/>
      </g>
     </g>
    </g>
    <g id="xtick_7">
     <g id="line2d_18">
      <g>
       <use xlink:href="#mf4fa1417d7" x="494.4" y="218.172343" style="stroke: #000000; stroke-width: 0.8"/>
      </g>
     </g>
     <g id="text_14">
      <!-- −0.2 -->
      <g transform="translate(482.258594 232.77078)scale(0.1 -0.1)">
       <use xlink:href="#DejaVuSans-2212"/>
       <use xlink:href="#DejaVuSans-30" x="83.789062"/>
       <use xlink:href="#DejaVuSans-2e" x="147.412109"/>
       <use xlink:href="#DejaVuSans-32" x="179.199219"/>
      </g>
     </g>
    </g>
    <g id="xtick_8">
     <g id="line2d_19">
      <g>
       <use xlink:href="#mf4fa1417d7" x="556.8" y="218.172343" style="stroke: #000000; stroke-width: 0.8"/>
      </g>
     </g>
     <g id="text_15">
      <!-- 0.0 -->
      <g transform="translate(548.848437 232.77078)scale(0.1 -0.1)">
       <use xlink:href="#DejaVuSans-30"/>
       <use xlink:href="#DejaVuSans-2e" x="63.623047"/>
       <use xlink:href="#DejaVuSans-30" x="95.410156"/>
      </g>
     </g>
    </g>
    <g id="xtick_9">
     <g id="line2d_20">
      <g>
       <use xlink:href="#mf4fa1417d7" x="619.2" y="218.172343" style="stroke: #000000; stroke-width: 0.8"/>
      </g>
     </g>
     <g id="text_16">
      <!-- 0.2 -->
      <g transform="translate(611.248437 232.77078)scale(0.1 -0.1)">
       <use xlink:href="#DejaVuSans-30"/>
       <use xlink:href="#DejaVuSans-2e" x="63.623047"/>
       <use xlink:href="#DejaVuSans-32" x="95.410156"/>
      </g>
     </g>
    </g>
    <g id="xtick_10">
     <g id="line2d_21">
      <g>
       <use xlink:href="#mf4fa1417d7" x="681.6" y="218.172343" style="stroke: #000000; stroke-width: 0.8"/>
      </g>
     </g>
     <g id="text_17">
      <!-- 0.4 -->
      <g transform="translate(673.648437 232.77078)scale(0.1 -0.1)">
       <use xlink:href="#DejaVuSans-30"/>
       <use xlink:href="#DejaVuSans-2e" x="63.623047"/>
       <use xlink:href="#DejaVuSans-34" x="95.410156"/>
      </g>
     </g>
    </g>
   </g>
   <g id="matplotlib.axis_4">
    <g id="ytick_7">
     <g id="line2d_22">
      <g>
       <use xlink:href="#m50c3aec21c" x="400.8" y="218.172343" style="stroke: #000000; stroke-width: 0.8"/>
      </g>
     </g>
    </g>
    <g id="ytick_8">
     <g id="line2d_23">
      <g>
       <use xlink:href="#m50c3aec21c" x="400.8" y="185.850514" style="stroke: #000000; stroke-width: 0.8"/>
      </g>
     </g>
    </g>
    <g id="ytick_9">
     <g id="line2d_24">
      <g>
       <use xlink:href="#m50c3aec21c" x="400.8" y="153.528686" style="stroke: #000000; stroke-width: 0.8"/>
      </g>
     </g>
    </g>
    <g id="ytick_10">
     <g id="line2d_25">
      <g>
       <use xlink:href="#m50c3aec21c" x="400.8" y="121.206857" style="stroke: #000000; stroke-width: 0.8"/>
      </g>
     </g>
    </g>
    <g id="ytick_11">
     <g id="line2d_26">
      <g>
       <use xlink:href="#m50c3aec21c" x="400.8" y="88.885029" style="stroke: #000000; stroke-width: 0.8"/>
      </g>
     </g>
    </g>
    <g id="ytick_12">
     <g id="line2d_27">
      <g>
       <use xlink:href="#m50c3aec21c" x="400.8" y="56.5632" style="stroke: #000000; stroke-width: 0.8"/>
      </g>
     </g>
    </g>
   </g>
   <g id="line2d_28">
    <path d="M 556.8 218.172343 
L 556.8 56.5632 
" clip-path="url(#pafaacfe4c7)" style="fill: none; stroke-dasharray: 5.55,2.4; stroke-dashoffset: 0; stroke: #1f77b4; stroke-width: 1.5"/>
   </g>
   <g id="line2d_29">
    <path d="M 333.860641 218.172342 
L 402.564924 218.078731 
L 417.832543 217.892274 
L 429.283257 217.541042 
L 436.917066 217.131528 
L 444.550875 216.504498 
L 452.184685 215.590026 
L 459.818494 214.323512 
L 463.635398 213.551079 
L 467.452303 212.563987 
L 475.086112 210.271759 
L 478.903017 208.914254 
L 482.719922 207.38685 
L 486.536826 205.647236 
L 494.170635 201.778832 
L 501.804445 197.391994 
L 505.621349 195.098073 
L 524.705872 183.032249 
L 528.522777 180.844479 
L 532.339682 178.790989 
L 536.156586 176.951754 
L 543.790396 174.048726 
L 547.6073 173.052186 
L 551.424205 172.465198 
L 555.241109 172.055654 
L 559.058014 172.142966 
L 562.874919 172.423442 
L 566.691823 173.113225 
L 570.508728 174.264252 
L 574.325633 175.570092 
L 578.142537 177.148003 
L 581.959442 179.008404 
L 589.593251 183.247628 
L 612.494679 197.680795 
L 620.128488 202.061676 
L 623.945393 204.07801 
L 627.762297 205.93822 
L 631.579202 207.592869 
L 635.396107 209.106846 
L 639.213011 210.456273 
L 643.029916 211.683584 
L 646.84682 212.729993 
L 654.48063 214.433624 
L 658.297534 215.102789 
L 665.931344 216.15017 
L 673.565153 216.859083 
L 681.198962 217.368774 
L 692.649676 217.80569 
L 707.917294 218.056423 
L 721 218.135764 
L 721 218.135764 
" clip-path="url(#pafaacfe4c7)" style="fill: none; stroke: #1f77b4; stroke-width: 1.5; stroke-linecap: square"/>
   </g>
   <g id="line2d_30">
    <path d="M 478.918229 218.172339 
L 504.299411 218.075257 
L 508.265221 217.894297 
L 511.437868 217.592079 
L 514.610516 216.942544 
L 516.19684 216.410326 
L 517.783164 215.745938 
L 519.369488 214.840632 
L 520.955812 213.590913 
L 522.542135 211.951426 
L 523.335297 211.009204 
L 525.714783 207.347904 
L 527.301107 204.061428 
L 528.887431 200.114125 
L 531.266917 192.794569 
L 532.853241 186.654607 
L 535.232727 175.885689 
L 536.81905 167.543287 
L 539.198536 153.697457 
L 541.578022 138.781763 
L 546.336994 107.868682 
L 547.923318 98.362012 
L 550.302803 85.817298 
L 551.889127 79.501233 
L 553.475451 74.73843 
L 554.268613 73.001261 
L 555.854937 70.995783 
L 556.648099 70.604231 
L 557.441261 71.032705 
L 558.234423 71.895696 
L 559.820747 75.135002 
L 560.613909 77.072427 
L 561.407071 79.595378 
L 562.993394 86.117994 
L 563.786556 89.482511 
L 565.37288 98.055883 
L 568.545528 116.984436 
L 575.683985 162.062649 
L 578.063471 174.565274 
L 579.649795 181.90473 
L 581.236119 188.407543 
L 582.822443 193.870549 
L 584.408767 198.802951 
L 585.995091 202.976667 
L 587.581415 206.282569 
L 589.167738 208.991203 
L 590.754062 211.116181 
L 592.340386 212.853259 
L 593.92671 214.262149 
L 595.513034 215.310112 
L 597.099358 216.090002 
L 599.478844 216.912044 
L 601.858329 217.414373 
L 605.030977 217.814283 
L 611.376273 218.108203 
L 624.066864 218.171901 
L 636.757455 218.172339 
L 636.757455 218.172339 
" clip-path="url(#pafaacfe4c7)" style="fill: none; stroke: #ff7f0e; stroke-width: 1.5; stroke-linecap: square"/>
   </g>
   <g id="line2d_31">
    <path d="M 377.502296 218.172341 
L 436.505601 218.088937 
L 450.388731 217.830814 
L 457.330296 217.481877 
L 460.801079 217.252988 
L 467.742644 216.481435 
L 474.684209 215.234998 
L 478.154992 214.352532 
L 481.625774 213.289446 
L 485.096557 211.991238 
L 488.56734 210.454135 
L 492.038122 208.6422 
L 495.508905 206.56499 
L 498.979688 204.224816 
L 502.45047 201.604878 
L 505.921253 198.725887 
L 509.392035 195.55742 
L 516.333601 188.529458 
L 526.745948 177.361209 
L 533.687514 170.46732 
L 537.158296 167.341262 
L 540.629079 164.580465 
L 544.099862 162.331388 
L 547.570644 160.731416 
L 551.041427 159.586448 
L 554.512209 159.189781 
L 557.982992 159.167524 
L 561.453775 159.929125 
L 564.924557 160.997369 
L 568.39534 162.908408 
L 571.866122 165.067398 
L 575.336905 167.774254 
L 578.807688 170.818671 
L 585.749253 177.726637 
L 599.632383 191.864247 
L 606.573949 198.063825 
L 610.044731 200.930922 
L 613.515514 203.500599 
L 616.986296 205.83295 
L 620.457079 207.861204 
L 623.927862 209.598043 
L 627.398644 211.190607 
L 630.869427 212.503022 
L 634.340209 213.589705 
L 637.810992 214.508169 
L 644.752557 215.92201 
L 651.694122 216.826941 
L 658.635688 217.389529 
L 669.048036 217.855026 
L 679.460383 218.051041 
L 700.285079 218.15892 
L 721 218.171316 
L 721 218.171316 
" clip-path="url(#pafaacfe4c7)" style="fill: none; stroke: #2ca02c; stroke-width: 1.5; stroke-linecap: square"/>
   </g>
   <g id="line2d_32">
    <path d="M 419.349592 218.172341 
L 467.206405 218.075034 
L 476.179558 217.854584 
L 482.161659 217.52744 
L 486.648235 217.006096 
L 489.639286 216.579376 
L 492.630337 215.963824 
L 495.621388 215.111927 
L 498.612439 213.968407 
L 501.60349 212.488603 
L 503.099015 211.577128 
L 506.090066 209.418627 
L 507.585591 208.17206 
L 510.576642 205.224385 
L 513.567693 201.627119 
L 516.558744 197.586036 
L 518.054269 195.331657 
L 521.04532 190.244642 
L 524.036371 184.831348 
L 528.522947 175.835383 
L 534.505048 163.089058 
L 540.48715 151.270593 
L 541.982676 148.547043 
L 543.478201 146.059867 
L 546.469252 141.787964 
L 549.460303 138.080462 
L 550.955828 137.03169 
L 553.946879 135.566984 
L 555.442404 134.973702 
L 556.93793 134.872664 
L 558.433455 135.286598 
L 562.920031 137.881668 
L 564.415557 139.265768 
L 565.911082 140.956198 
L 570.397658 147.252817 
L 573.388709 152.544357 
L 579.370811 164.456754 
L 588.343963 182.842798 
L 591.335014 188.405164 
L 594.326065 193.363076 
L 597.317116 197.915299 
L 600.308166 201.779413 
L 601.803692 203.562552 
L 604.794743 206.654143 
L 606.290268 208.031555 
L 609.281319 210.227128 
L 610.776844 211.27306 
L 613.767895 212.962105 
L 615.26342 213.674757 
L 618.254471 214.756166 
L 621.245522 215.692021 
L 625.732098 216.595907 
L 630.218674 217.221404 
L 636.200776 217.672081 
L 643.678403 217.968682 
L 655.642606 218.12772 
L 682.562064 218.171059 
L 716.959148 218.172341 
L 716.959148 218.172341 
" clip-path="url(#pafaacfe4c7)" style="fill: none; stroke: #d62728; stroke-width: 1.5; stroke-linecap: square"/>
   </g>
   <g id="patch_8">
    <path d="M 400.8 218.172343 
L 400.8 56.5632 
" style="fill: none; stroke: #000000; stroke-width: 0.8; stroke-linejoin: miter; stroke-linecap: square"/>
   </g>
   <g id="patch_9">
    <path d="M 712.8 218.172343 
L 712.8 56.5632 
" style="fill: none; stroke: #000000; stroke-width: 0.8; stroke-linejoin: miter; stroke-linecap: square"/>
   </g>
   <g id="patch_10">
    <path d="M 400.8 218.172343 
L 712.8 218.172343 
" style="fill: none; stroke: #000000; stroke-width: 0.8; stroke-linejoin: miter; stroke-linecap: square"/>
   </g>
   <g id="patch_11">
    <path d="M 400.8 56.5632 
L 712.8 56.5632 
" style="fill: none; stroke: #000000; stroke-width: 0.8; stroke-linejoin: miter; stroke-linecap: square"/>
   </g>
   <g id="text_18">
    <!-- Permuted Vectors -->
    <g transform="translate(496.069687 50.5632)scale(0.12 -0.12)">
     <defs>
      <path id="DejaVuSans-Bold-64" d="M 2919 2988 
L 2919 4863 
L 4044 4863 
L 4044 0 
L 2919 0 
L 2919 506 
Q 2688 197 2409 53 
Q 2131 -91 1766 -91 
Q 1119 -91 703 423 
Q 288 938 288 1747 
Q 288 2556 703 3070 
Q 1119 3584 1766 3584 
Q 2128 3584 2408 3439 
Q 2688 3294 2919 2988 
z
M 2181 722 
Q 2541 722 2730 984 
Q 2919 1247 2919 1747 
Q 2919 2247 2730 2509 
Q 2541 2772 2181 2772 
Q 1825 2772 1636 2509 
Q 1447 2247 1447 1747 
Q 1447 1247 1636 984 
Q 1825 722 2181 722 
z
" transform="scale(0.015625)"/>
      <path id="DejaVuSans-Bold-56" d="M 31 4666 
L 1241 4666 
L 2478 1222 
L 3713 4666 
L 4922 4666 
L 3194 0 
L 1759 0 
L 31 4666 
z
" transform="scale(0.015625)"/>
      <path id="DejaVuSans-Bold-63" d="M 3366 3391 
L 3366 2478 
Q 3138 2634 2908 2709 
Q 2678 2784 2431 2784 
Q 1963 2784 1702 2511 
Q 1441 2238 1441 1747 
Q 1441 1256 1702 982 
Q 1963 709 2431 709 
Q 2694 709 2930 787 
Q 3166 866 3366 1019 
L 3366 103 
Q 3103 6 2833 -42 
Q 2563 -91 2291 -91 
Q 1344 -91 809 395 
Q 275 881 275 1747 
Q 275 2613 809 3098 
Q 1344 3584 2291 3584 
Q 2566 3584 2833 3536 
Q 3100 3488 3366 3391 
z
" transform="scale(0.015625)"/>
      <path id="DejaVuSans-Bold-73" d="M 3272 3391 
L 3272 2541 
Q 2913 2691 2578 2766 
Q 2244 2841 1947 2841 
Q 1628 2841 1473 2761 
Q 1319 2681 1319 2516 
Q 1319 2381 1436 2309 
Q 1553 2238 1856 2203 
L 2053 2175 
Q 2913 2066 3209 1816 
Q 3506 1566 3506 1031 
Q 3506 472 3093 190 
Q 2681 -91 1863 -91 
Q 1516 -91 1145 -36 
Q 775 19 384 128 
L 384 978 
Q 719 816 1070 734 
Q 1422 653 1784 653 
Q 2113 653 2278 743 
Q 2444 834 2444 1013 
Q 2444 1163 2330 1236 
Q 2216 1309 1875 1350 
L 1678 1375 
Q 931 1469 631 1722 
Q 331 1975 331 2491 
Q 331 3047 712 3315 
Q 1094 3584 1881 3584 
Q 2191 3584 2531 3537 
Q 2872 3491 3272 3391 
z
" transform="scale(0.015625)"/>
     </defs>
     <use xlink:href="#DejaVuSans-Bold-50"/>
     <use xlink:href="#DejaVuSans-Bold-65" x="73.291016"/>
     <use xlink:href="#DejaVuSans-Bold-72" x="141.113281"/>
     <use xlink:href="#DejaVuSans-Bold-6d" x="190.429688"/>
     <use xlink:href="#DejaVuSans-Bold-75" x="294.628906"/>
     <use xlink:href="#DejaVuSans-Bold-74" x="365.820312"/>
     <use xlink:href="#DejaVuSans-Bold-65" x="413.623047"/>
     <use xlink:href="#DejaVuSans-Bold-64" x="481.445312"/>
     <use xlink:href="#DejaVuSans-Bold-20" x="553.027344"/>
     <use xlink:href="#DejaVuSans-Bold-56" x="587.841797"/>
     <use xlink:href="#DejaVuSans-Bold-65" x="659.734375"/>
     <use xlink:href="#DejaVuSans-Bold-63" x="727.556641"/>
     <use xlink:href="#DejaVuSans-Bold-74" x="786.833984"/>
     <use xlink:href="#DejaVuSans-Bold-6f" x="834.636719"/>
     <use xlink:href="#DejaVuSans-Bold-72" x="903.337891"/>
     <use xlink:href="#DejaVuSans-Bold-73" x="952.654297"/>
    </g>
   </g>
  </g>
  <g id="axes_3">
   <g id="patch_12">
    <path d="M 57.6 420.183771 
L 369.6 420.183771 
L 369.6 258.574629 
L 57.6 258.574629 
z
" style="fill: #ffffff"/>
   </g>
   <g id="matplotlib.axis_5">
    <g id="xtick_11">
     <g id="line2d_33">
      <g>
       <use xlink:href="#mf4fa1417d7" x="88.8" y="420.183771" style="stroke: #000000; stroke-width: 0.8"/>
      </g>
     </g>
     <g id="text_19">
      <!-- −0.4 -->
      <g transform="translate(76.658594 434.782209)scale(0.1 -0.1)">
       <use xlink:href="#DejaVuSans-2212"/>
       <use xlink:href="#DejaVuSans-30" x="83.789062"/>
       <use xlink:href="#DejaVuSans-2e" x="147.412109"/>
       <use xlink:href="#DejaVuSans-34" x="179.199219"/>
      </g>
     </g>
    </g>
    <g id="xtick_12">
     <g id="line2d_34">
      <g>
       <use xlink:href="#mf4fa1417d7" x="151.2" y="420.183771" style="stroke: #000000; stroke-width: 0.8"/>
      </g>
     </g>
     <g id="text_20">
      <!-- −0.2 -->
      <g transform="translate(139.058594 434.782209)scale(0.1 -0.1)">
       <use xlink:href="#DejaVuSans-2212"/>
       <use xlink:href="#DejaVuSans-30" x="83.789062"/>
       <use xlink:href="#DejaVuSans-2e" x="147.412109"/>
       <use xlink:href="#DejaVuSans-32" x="179.199219"/>
      </g>
     </g>
    </g>
    <g id="xtick_13">
     <g id="line2d_35">
      <g>
       <use xlink:href="#mf4fa1417d7" x="213.6" y="420.183771" style="stroke: #000000; stroke-width: 0.8"/>
      </g>
     </g>
     <g id="text_21">
      <!-- 0.0 -->
      <g transform="translate(205.648437 434.782209)scale(0.1 -0.1)">
       <use xlink:href="#DejaVuSans-30"/>
       <use xlink:href="#DejaVuSans-2e" x="63.623047"/>
       <use xlink:href="#DejaVuSans-30" x="95.410156"/>
      </g>
     </g>
    </g>
    <g id="xtick_14">
     <g id="line2d_36">
      <g>
       <use xlink:href="#mf4fa1417d7" x="276" y="420.183771" style="stroke: #000000; stroke-width: 0.8"/>
      </g>
     </g>
     <g id="text_22">
      <!-- 0.2 -->
      <g transform="translate(268.048437 434.782209)scale(0.1 -0.1)">
       <use xlink:href="#DejaVuSans-30"/>
       <use xlink:href="#DejaVuSans-2e" x="63.623047"/>
       <use xlink:href="#DejaVuSans-32" x="95.410156"/>
      </g>
     </g>
    </g>
    <g id="xtick_15">
     <g id="line2d_37">
      <g>
       <use xlink:href="#mf4fa1417d7" x="338.4" y="420.183771" style="stroke: #000000; stroke-width: 0.8"/>
      </g>
     </g>
     <g id="text_23">
      <!-- 0.4 -->
      <g transform="translate(330.448437 434.782209)scale(0.1 -0.1)">
       <use xlink:href="#DejaVuSans-30"/>
       <use xlink:href="#DejaVuSans-2e" x="63.623047"/>
       <use xlink:href="#DejaVuSans-34" x="95.410156"/>
      </g>
     </g>
    </g>
   </g>
   <g id="matplotlib.axis_6">
    <g id="ytick_13">
     <g id="line2d_38">
      <g>
       <use xlink:href="#m50c3aec21c" x="57.6" y="420.183771" style="stroke: #000000; stroke-width: 0.8"/>
      </g>
     </g>
     <g id="text_24">
      <!-- 0 -->
      <g transform="translate(44.2375 423.98299)scale(0.1 -0.1)">
       <use xlink:href="#DejaVuSans-30"/>
      </g>
     </g>
    </g>
    <g id="ytick_14">
     <g id="line2d_39">
      <g>
       <use xlink:href="#m50c3aec21c" x="57.6" y="387.861943" style="stroke: #000000; stroke-width: 0.8"/>
      </g>
     </g>
     <g id="text_25">
      <!-- 2 -->
      <g transform="translate(44.2375 391.661162)scale(0.1 -0.1)">
       <use xlink:href="#DejaVuSans-32"/>
      </g>
     </g>
    </g>
    <g id="ytick_15">
     <g id="line2d_40">
      <g>
       <use xlink:href="#m50c3aec21c" x="57.6" y="355.540114" style="stroke: #000000; stroke-width: 0.8"/>
      </g>
     </g>
     <g id="text_26">
      <!-- 4 -->
      <g transform="translate(44.2375 359.339333)scale(0.1 -0.1)">
       <use xlink:href="#DejaVuSans-34"/>
      </g>
     </g>
    </g>
    <g id="ytick_16">
     <g id="line2d_41">
      <g>
       <use xlink:href="#m50c3aec21c" x="57.6" y="323.218286" style="stroke: #000000; stroke-width: 0.8"/>
      </g>
     </g>
     <g id="text_27">
      <!-- 6 -->
      <g transform="translate(44.2375 327.017504)scale(0.1 -0.1)">
       <use xlink:href="#DejaVuSans-36"/>
      </g>
     </g>
    </g>
    <g id="ytick_17">
     <g id="line2d_42">
      <g>
       <use xlink:href="#m50c3aec21c" x="57.6" y="290.896457" style="stroke: #000000; stroke-width: 0.8"/>
      </g>
     </g>
     <g id="text_28">
      <!-- 8 -->
      <g transform="translate(44.2375 294.695676)scale(0.1 -0.1)">
       <use xlink:href="#DejaVuSans-38"/>
      </g>
     </g>
    </g>
    <g id="ytick_18">
     <g id="line2d_43">
      <g>
       <use xlink:href="#m50c3aec21c" x="57.6" y="258.574629" style="stroke: #000000; stroke-width: 0.8"/>
      </g>
     </g>
     <g id="text_29">
      <!-- 10 -->
      <g transform="translate(37.875 262.373847)scale(0.1 -0.1)">
       <use xlink:href="#DejaVuSans-31"/>
       <use xlink:href="#DejaVuSans-30" x="63.623047"/>
      </g>
     </g>
    </g>
   </g>
   <g id="line2d_44">
    <path d="M 213.6 420.183771 
L 213.6 258.574629 
" clip-path="url(#p9a1a2d9f28)" style="fill: none; stroke-dasharray: 5.55,2.4; stroke-dashoffset: 0; stroke: #1f77b4; stroke-width: 1.5"/>
   </g>
   <g id="line2d_45">
    <path d="M -1 420.183771 
L 131.751724 420.092636 
L 138.459988 419.940862 
L 145.168252 419.551301 
L 148.522383 419.183242 
L 151.876515 418.639539 
L 155.230647 417.785211 
L 158.584779 416.602208 
L 161.938911 415.016524 
L 165.293043 412.728498 
L 168.647175 409.741562 
L 172.001307 405.792481 
L 175.355439 401.170992 
L 178.709571 395.420464 
L 182.063703 388.786503 
L 185.417835 381.135046 
L 188.771967 372.874353 
L 192.126099 363.784015 
L 198.834363 346.781438 
L 202.188495 339.138906 
L 205.542627 332.790906 
L 208.896759 328.661487 
L 212.250891 326.775179 
L 215.605023 326.848436 
L 218.959155 329.187002 
L 222.313287 333.635197 
L 225.667419 340.080462 
L 229.021551 347.506711 
L 242.438079 381.785188 
L 245.792211 389.458375 
L 249.146343 396.200205 
L 252.500475 401.850987 
L 255.854607 406.491887 
L 259.208739 410.240931 
L 262.562871 413.157382 
L 265.917003 415.352931 
L 269.271135 416.907828 
L 272.625267 418.035412 
L 275.979399 418.811905 
L 279.333531 419.332622 
L 286.041795 419.866653 
L 292.750058 420.079273 
L 306.166586 420.176273 
L 467.164921 420.183771 
L 641.579784 420.183769 
L 641.579784 420.183769 
" clip-path="url(#p9a1a2d9f28)" style="fill: none; stroke: #1f77b4; stroke-width: 1.5; stroke-linecap: square"/>
   </g>
   <g id="line2d_46">
    <path d="M 36.975396 420.183762 
L 142.229444 420.104293 
L 148.608477 419.975066 
L 154.987511 419.548242 
L 158.177027 419.079402 
L 161.366544 418.356463 
L 164.556061 417.297516 
L 167.745577 415.60797 
L 170.935094 413.14373 
L 174.12461 409.770027 
L 177.314127 405.179105 
L 180.503644 399.104484 
L 183.69316 391.702767 
L 186.882677 382.904999 
L 190.072194 372.682819 
L 196.451227 349.504023 
L 199.640743 337.844762 
L 202.83026 327.491437 
L 206.019777 318.525123 
L 209.209293 312.653034 
L 212.39881 309.67896 
L 215.588327 310.141728 
L 218.777843 313.92667 
L 221.96736 320.365952 
L 225.156876 329.838423 
L 228.346393 340.609028 
L 231.53591 351.995267 
L 234.725426 363.844435 
L 237.914943 374.757381 
L 241.10446 384.741755 
L 244.293976 393.421264 
L 247.483493 400.521056 
L 250.673009 406.354252 
L 253.862526 410.683379 
L 257.052043 413.787165 
L 260.241559 416.124343 
L 263.431076 417.624056 
L 266.620593 418.656814 
L 269.810109 419.274369 
L 276.189142 419.902139 
L 282.568176 420.104137 
L 295.326242 420.179494 
L 438.85449 420.183771 
L 671.689204 420.183765 
L 671.689204 420.183765 
" clip-path="url(#p9a1a2d9f28)" style="fill: none; stroke: #ff7f0e; stroke-width: 1.5; stroke-linecap: square"/>
   </g>
   <g id="line2d_47">
    <path d="M -1 420.183771 
L 136.868984 420.073956 
L 142.064305 419.945142 
L 147.259626 419.637162 
L 152.454947 419.030852 
L 154.186721 418.718239 
L 157.650268 417.784666 
L 159.382042 417.206314 
L 162.845589 415.657537 
L 164.577363 414.598296 
L 166.309137 413.353863 
L 168.04091 411.933747 
L 169.772684 410.271128 
L 171.504458 408.301247 
L 173.236231 406.149535 
L 176.699779 400.989882 
L 178.431553 397.906138 
L 181.8951 390.783218 
L 185.358647 382.423572 
L 188.822195 373.232908 
L 199.212837 343.401157 
L 202.676384 334.843412 
L 204.408158 331.17183 
L 206.139932 328.070838 
L 207.871706 325.57167 
L 209.603479 323.526123 
L 211.335253 322.12977 
L 214.7988 321.334525 
L 216.530574 322.571208 
L 218.262348 324.347599 
L 219.994122 326.574704 
L 221.725895 329.146319 
L 223.457669 332.532551 
L 225.189443 336.431689 
L 228.65299 345.037741 
L 237.311859 369.885313 
L 240.775406 379.441859 
L 244.238953 388.115646 
L 245.970727 392.138907 
L 249.434275 399.036259 
L 251.166048 401.996969 
L 252.897822 404.635007 
L 254.629596 406.982245 
L 256.361369 409.130828 
L 258.093143 410.962133 
L 259.824917 412.547089 
L 261.556691 413.881589 
L 263.288464 415.055599 
L 265.020238 416.022731 
L 266.752012 416.856241 
L 270.215559 418.065038 
L 273.679107 418.897531 
L 278.874428 419.576357 
L 282.337975 419.850129 
L 289.26507 420.081603 
L 299.655712 420.173288 
L 320.436997 420.183769 
L 320.436997 420.183769 
" clip-path="url(#p9a1a2d9f28)" style="fill: none; stroke: #2ca02c; stroke-width: 1.5; stroke-linecap: square"/>
   </g>
   <g id="line2d_48">
    <path d="M 37.941666 420.183769 
L 139.912853 420.069317 
L 146.286052 419.861449 
L 149.472651 419.652965 
L 152.659251 419.302393 
L 155.845851 418.767501 
L 159.03245 417.965201 
L 162.21905 416.808215 
L 165.405649 415.078198 
L 168.592249 412.719947 
L 171.778849 409.486968 
L 174.965448 405.162004 
L 178.152048 399.926574 
L 181.338647 393.509601 
L 184.525247 385.846011 
L 187.711847 377.319454 
L 190.898446 367.834699 
L 197.271645 347.664456 
L 200.458245 338.441524 
L 203.644845 330.111847 
L 206.831444 323.418148 
L 210.018044 319.469707 
L 213.204643 318.000582 
L 216.391243 318.759944 
L 219.577842 322.356014 
L 222.764442 328.644135 
L 225.951042 336.279749 
L 229.137641 345.230811 
L 235.51084 365.397154 
L 238.69744 375.072009 
L 241.88404 384.000641 
L 245.070639 391.738534 
L 248.257239 398.597479 
L 251.443838 404.18587 
L 254.630438 408.7623 
L 257.817038 412.135789 
L 261.003637 414.679732 
L 264.190237 416.480994 
L 267.376836 417.773943 
L 270.563436 418.659295 
L 273.750036 419.262271 
L 276.936635 419.630033 
L 283.309834 420.006659 
L 292.869633 420.152949 
L 318.36243 420.183771 
L 672.074985 420.183769 
L 672.074985 420.183769 
" clip-path="url(#p9a1a2d9f28)" style="fill: none; stroke: #d62728; stroke-width: 1.5; stroke-linecap: square"/>
   </g>
   <g id="patch_13">
    <path d="M 57.6 420.183771 
L 57.6 258.574629 
" style="fill: none; stroke: #000000; stroke-width: 0.8; stroke-linejoin: miter; stroke-linecap: square"/>
   </g>
   <g id="patch_14">
    <path d="M 369.6 420.183771 
L 369.6 258.574629 
" style="fill: none; stroke: #000000; stroke-width: 0.8; stroke-linejoin: miter; stroke-linecap: square"/>
   </g>
   <g id="patch_15">
    <path d="M 57.6 420.183771 
L 369.6 420.183771 
" style="fill: none; stroke: #000000; stroke-width: 0.8; stroke-linejoin: miter; stroke-linecap: square"/>
   </g>
   <g id="patch_16">
    <path d="M 57.6 258.574629 
L 369.6 258.574629 
" style="fill: none; stroke: #000000; stroke-width: 0.8; stroke-linejoin: miter; stroke-linecap: square"/>
   </g>
  </g>
  <g id="axes_4">
   <g id="patch_17">
    <path d="M 400.8 420.183771 
L 712.8 420.183771 
L 712.8 258.574629 
L 400.8 258.574629 
z
" style="fill: #ffffff"/>
   </g>
   <g id="matplotlib.axis_7">
    <g id="xtick_16">
     <g id="line2d_49">
      <g>
       <use xlink:href="#mf4fa1417d7" x="432" y="420.183771" style="stroke: #000000; stroke-width: 0.8"/>
      </g>
     </g>
     <g id="text_30">
      <!-- −0.4 -->
      <g transform="translate(419.858594 434.782209)scale(0.1 -0.1)">
       <use xlink:href="#DejaVuSans-2212"/>
       <use xlink:href="#DejaVuSans-30" x="83.789062"/>
       <use xlink:href="#DejaVuSans-2e" x="147.412109"/>
       <use xlink:href="#DejaVuSans-34" x="179.199219"/>
      </g>
     </g>
    </g>
    <g id="xtick_17">
     <g id="line2d_50">
      <g>
       <use xlink:href="#mf4fa1417d7" x="494.4" y="420.183771" style="stroke: #000000; stroke-width: 0.8"/>
      </g>
     </g>
     <g id="text_31">
      <!-- −0.2 -->
      <g transform="translate(482.258594 434.782209)scale(0.1 -0.1)">
       <use xlink:href="#DejaVuSans-2212"/>
       <use xlink:href="#DejaVuSans-30" x="83.789062"/>
       <use xlink:href="#DejaVuSans-2e" x="147.412109"/>
       <use xlink:href="#DejaVuSans-32" x="179.199219"/>
      </g>
     </g>
    </g>
    <g id="xtick_18">
     <g id="line2d_51">
      <g>
       <use xlink:href="#mf4fa1417d7" x="556.8" y="420.183771" style="stroke: #000000; stroke-width: 0.8"/>
      </g>
     </g>
     <g id="text_32">
      <!-- 0.0 -->
      <g transform="translate(548.848437 434.782209)scale(0.1 -0.1)">
       <use xlink:href="#DejaVuSans-30"/>
       <use xlink:href="#DejaVuSans-2e" x="63.623047"/>
       <use xlink:href="#DejaVuSans-30" x="95.410156"/>
      </g>
     </g>
    </g>
    <g id="xtick_19">
     <g id="line2d_52">
      <g>
       <use xlink:href="#mf4fa1417d7" x="619.2" y="420.183771" style="stroke: #000000; stroke-width: 0.8"/>
      </g>
     </g>
     <g id="text_33">
      <!-- 0.2 -->
      <g transform="translate(611.248437 434.782209)scale(0.1 -0.1)">
       <use xlink:href="#DejaVuSans-30"/>
       <use xlink:href="#DejaVuSans-2e" x="63.623047"/>
       <use xlink:href="#DejaVuSans-32" x="95.410156"/>
      </g>
     </g>
    </g>
    <g id="xtick_20">
     <g id="line2d_53">
      <g>
       <use xlink:href="#mf4fa1417d7" x="681.6" y="420.183771" style="stroke: #000000; stroke-width: 0.8"/>
      </g>
     </g>
     <g id="text_34">
      <!-- 0.4 -->
      <g transform="translate(673.648437 434.782209)scale(0.1 -0.1)">
       <use xlink:href="#DejaVuSans-30"/>
       <use xlink:href="#DejaVuSans-2e" x="63.623047"/>
       <use xlink:href="#DejaVuSans-34" x="95.410156"/>
      </g>
     </g>
    </g>
   </g>
   <g id="matplotlib.axis_8">
    <g id="ytick_19">
     <g id="line2d_54">
      <g>
       <use xlink:href="#m50c3aec21c" x="400.8" y="420.183771" style="stroke: #000000; stroke-width: 0.8"/>
      </g>
     </g>
    </g>
    <g id="ytick_20">
     <g id="line2d_55">
      <g>
       <use xlink:href="#m50c3aec21c" x="400.8" y="387.861943" style="stroke: #000000; stroke-width: 0.8"/>
      </g>
     </g>
    </g>
    <g id="ytick_21">
     <g id="line2d_56">
      <g>
       <use xlink:href="#m50c3aec21c" x="400.8" y="355.540114" style="stroke: #000000; stroke-width: 0.8"/>
      </g>
     </g>
    </g>
    <g id="ytick_22">
     <g id="line2d_57">
      <g>
       <use xlink:href="#m50c3aec21c" x="400.8" y="323.218286" style="stroke: #000000; stroke-width: 0.8"/>
      </g>
     </g>
    </g>
    <g id="ytick_23">
     <g id="line2d_58">
      <g>
       <use xlink:href="#m50c3aec21c" x="400.8" y="290.896457" style="stroke: #000000; stroke-width: 0.8"/>
      </g>
     </g>
    </g>
    <g id="ytick_24">
     <g id="line2d_59">
      <g>
       <use xlink:href="#m50c3aec21c" x="400.8" y="258.574629" style="stroke: #000000; stroke-width: 0.8"/>
      </g>
     </g>
    </g>
   </g>
   <g id="line2d_60">
    <path d="M 556.8 420.183771 
L 556.8 258.574629 
" clip-path="url(#pa9ec3caf3d)" style="fill: none; stroke-dasharray: 5.55,2.4; stroke-dashoffset: 0; stroke: #1f77b4; stroke-width: 1.5"/>
   </g>
   <g id="line2d_61">
    <path d="M 335.625345 420.183768 
L 458.670232 420.065199 
L 465.146278 419.931527 
L 471.622325 419.643025 
L 478.098372 419.095341 
L 484.574418 418.138931 
L 487.812442 417.338837 
L 491.050465 416.27643 
L 494.288488 415.076018 
L 497.526512 413.506788 
L 500.764535 411.589757 
L 504.002558 409.267967 
L 507.240582 406.433131 
L 510.478605 403.100504 
L 513.716628 399.37099 
L 516.954652 395.227576 
L 520.192675 390.545384 
L 523.430698 385.573271 
L 536.382792 363.765493 
L 539.620815 359.01331 
L 542.858838 354.632603 
L 546.096862 351.333141 
L 549.334885 348.3881 
L 552.572908 346.511901 
L 555.810932 345.706952 
L 559.048955 346.038877 
L 562.286978 347.441189 
L 565.525002 349.548681 
L 568.763025 352.793184 
L 572.001048 356.796758 
L 575.239072 361.403133 
L 578.477095 366.285453 
L 584.953142 377.001198 
L 588.191165 382.437309 
L 591.429189 387.62518 
L 594.667212 392.433575 
L 597.905235 396.905528 
L 601.143259 400.80405 
L 604.381282 404.468129 
L 607.619305 407.466264 
L 610.857329 410.033262 
L 614.095352 412.265438 
L 617.333375 414.024409 
L 620.571399 415.512873 
L 623.809422 416.666982 
L 627.047445 417.608835 
L 630.285469 418.31054 
L 636.761515 419.253632 
L 643.237562 419.728172 
L 649.713609 419.974095 
L 659.427679 420.123036 
L 685.331865 420.18158 
L 721 420.183771 
L 721 420.183771 
" clip-path="url(#pa9ec3caf3d)" style="fill: none; stroke: #1f77b4; stroke-width: 1.5; stroke-linecap: square"/>
   </g>
   <g id="line2d_62">
    <path d="M 362.601829 420.183769 
L 474.36482 420.074706 
L 481.138334 419.882839 
L 487.911849 419.397763 
L 491.298606 418.956307 
L 494.685363 418.331481 
L 498.072121 417.36081 
L 501.458878 416.070309 
L 504.845635 414.225949 
L 508.232393 411.880389 
L 511.61915 408.656379 
L 515.005907 404.801133 
L 518.392664 399.801197 
L 521.779422 394.078321 
L 525.166179 387.454628 
L 528.552936 380.018623 
L 538.713208 355.383593 
L 542.099965 347.845115 
L 545.486723 341.097997 
L 548.87348 335.683418 
L 552.260237 332.077345 
L 555.646995 330.214191 
L 559.033752 330.21644 
L 562.420509 332.585628 
L 565.807267 336.809489 
L 569.194024 342.673548 
L 572.580781 349.796164 
L 575.967538 357.582239 
L 579.354296 366.006835 
L 586.12781 381.954367 
L 589.514568 389.244917 
L 592.901325 395.759173 
L 596.288082 401.327125 
L 599.674839 405.929357 
L 603.061597 409.609011 
L 606.448354 412.566743 
L 609.835111 414.785032 
L 613.221869 416.481546 
L 616.608626 417.684451 
L 619.995383 418.49321 
L 623.382141 419.112364 
L 626.768898 419.538646 
L 633.542412 419.936428 
L 643.702684 420.136719 
L 664.023228 420.183523 
L 721 420.183771 
L 721 420.183771 
" clip-path="url(#pa9ec3caf3d)" style="fill: none; stroke: #ff7f0e; stroke-width: 1.5; stroke-linecap: square"/>
   </g>
   <g id="line2d_63">
    <path d="M 317.538334 420.183769 
L 471.277547 420.068151 
L 481.090689 419.706526 
L 484.361736 419.450965 
L 490.90383 418.549748 
L 494.174877 417.800121 
L 497.445924 416.722444 
L 500.716971 415.24391 
L 503.988018 413.357287 
L 507.259065 411.01877 
L 510.530112 408.025985 
L 513.80116 404.257676 
L 517.072207 399.759995 
L 520.343254 394.556971 
L 523.614301 388.774183 
L 526.885348 382.564252 
L 536.698489 361.066808 
L 539.969536 354.079237 
L 543.240583 347.747368 
L 546.51163 342.133178 
L 549.782678 337.913897 
L 553.053725 335.045521 
L 556.324772 333.79185 
L 559.595819 334.635224 
L 562.866866 336.907213 
L 566.137913 340.587007 
L 569.40896 345.582141 
L 572.680007 351.984512 
L 575.951054 358.753023 
L 585.764195 380.39272 
L 589.035243 386.979601 
L 592.30629 393.28934 
L 595.577337 398.40983 
L 598.848384 403.124852 
L 602.119431 407.004291 
L 605.390478 410.233648 
L 608.661525 412.804264 
L 611.932572 414.805293 
L 615.203619 416.372111 
L 618.474666 417.516625 
L 621.745713 418.345066 
L 625.016761 418.948018 
L 631.558855 419.654966 
L 638.100949 419.978625 
L 647.91409 420.13976 
L 674.082467 420.18322 
L 721 420.183771 
L 721 420.183771 
" clip-path="url(#pa9ec3caf3d)" style="fill: none; stroke: #2ca02c; stroke-width: 1.5; stroke-linecap: square"/>
   </g>
   <g id="line2d_64">
    <path d="M 363.421155 420.183768 
L 485.517855 420.099892 
L 492.117676 419.925127 
L 495.417587 419.744996 
L 498.717498 419.423643 
L 502.017409 418.887523 
L 505.31732 418.028976 
L 508.61723 416.74737 
L 511.917141 414.805146 
L 515.217052 411.847654 
L 518.516963 407.934336 
L 521.816874 402.642869 
L 525.116784 395.777959 
L 528.416695 387.421467 
L 531.716606 377.479004 
L 535.016517 366.37244 
L 541.616338 342.329902 
L 544.916249 331.156903 
L 548.21616 321.366006 
L 551.516071 314.294275 
L 554.815982 310.193078 
L 558.115893 309.957032 
L 561.415803 313.231295 
L 564.715714 320.187499 
L 568.015625 328.57329 
L 571.315536 339.818649 
L 574.615447 351.538346 
L 577.915357 363.822154 
L 581.215268 375.069217 
L 584.515179 385.442845 
L 587.81509 394.252723 
L 591.115001 401.531966 
L 594.414911 407.253165 
L 597.714822 411.433097 
L 601.014733 414.531496 
L 604.314644 416.568734 
L 607.614555 418.01655 
L 610.914465 418.89714 
L 614.214376 419.448094 
L 617.514287 419.795081 
L 624.114109 420.074337 
L 637.313752 420.180371 
L 721 420.183771 
L 721 420.183771 
" clip-path="url(#pa9ec3caf3d)" style="fill: none; stroke: #d62728; stroke-width: 1.5; stroke-linecap: square"/>
   </g>
   <g id="patch_18">
    <path d="M 400.8 420.183771 
L 400.8 258.574629 
" style="fill: none; stroke: #000000; stroke-width: 0.8; stroke-linejoin: miter; stroke-linecap: square"/>
   </g>
   <g id="patch_19">
    <path d="M 712.8 420.183771 
L 712.8 258.574629 
" style="fill: none; stroke: #000000; stroke-width: 0.8; stroke-linejoin: miter; stroke-linecap: square"/>
   </g>
   <g id="patch_20">
    <path d="M 400.8 420.183771 
L 712.8 420.183771 
" style="fill: none; stroke: #000000; stroke-width: 0.8; stroke-linejoin: miter; stroke-linecap: square"/>
   </g>
   <g id="patch_21">
    <path d="M 400.8 258.574629 
L 712.8 258.574629 
" style="fill: none; stroke: #000000; stroke-width: 0.8; stroke-linejoin: miter; stroke-linecap: square"/>
   </g>
  </g>
  <g id="axes_5">
   <g id="patch_22">
    <path d="M 57.6 622.1952 
L 369.6 622.1952 
L 369.6 460.586057 
L 57.6 460.586057 
z
" style="fill: #ffffff"/>
   </g>
   <g id="matplotlib.axis_9">
    <g id="xtick_21">
     <g id="line2d_65">
      <g>
       <use xlink:href="#mf4fa1417d7" x="88.8" y="622.1952" style="stroke: #000000; stroke-width: 0.8"/>
      </g>
     </g>
     <g id="text_35">
      <!-- −0.4 -->
      <g transform="translate(76.658594 636.793637)scale(0.1 -0.1)">
       <use xlink:href="#DejaVuSans-2212"/>
       <use xlink:href="#DejaVuSans-30" x="83.789062"/>
       <use xlink:href="#DejaVuSans-2e" x="147.412109"/>
       <use xlink:href="#DejaVuSans-34" x="179.199219"/>
      </g>
     </g>
    </g>
    <g id="xtick_22">
     <g id="line2d_66">
      <g>
       <use xlink:href="#mf4fa1417d7" x="151.2" y="622.1952" style="stroke: #000000; stroke-width: 0.8"/>
      </g>
     </g>
     <g id="text_36">
      <!-- −0.2 -->
      <g transform="translate(139.058594 636.793637)scale(0.1 -0.1)">
       <use xlink:href="#DejaVuSans-2212"/>
       <use xlink:href="#DejaVuSans-30" x="83.789062"/>
       <use xlink:href="#DejaVuSans-2e" x="147.412109"/>
       <use xlink:href="#DejaVuSans-32" x="179.199219"/>
      </g>
     </g>
    </g>
    <g id="xtick_23">
     <g id="line2d_67">
      <g>
       <use xlink:href="#mf4fa1417d7" x="213.6" y="622.1952" style="stroke: #000000; stroke-width: 0.8"/>
      </g>
     </g>
     <g id="text_37">
      <!-- 0.0 -->
      <g transform="translate(205.648437 636.793637)scale(0.1 -0.1)">
       <use xlink:href="#DejaVuSans-30"/>
       <use xlink:href="#DejaVuSans-2e" x="63.623047"/>
       <use xlink:href="#DejaVuSans-30" x="95.410156"/>
      </g>
     </g>
    </g>
    <g id="xtick_24">
     <g id="line2d_68">
      <g>
       <use xlink:href="#mf4fa1417d7" x="276" y="622.1952" style="stroke: #000000; stroke-width: 0.8"/>
      </g>
     </g>
     <g id="text_38">
      <!-- 0.2 -->
      <g transform="translate(268.048437 636.793637)scale(0.1 -0.1)">
       <use xlink:href="#DejaVuSans-30"/>
       <use xlink:href="#DejaVuSans-2e" x="63.623047"/>
       <use xlink:href="#DejaVuSans-32" x="95.410156"/>
      </g>
     </g>
    </g>
    <g id="xtick_25">
     <g id="line2d_69">
      <g>
       <use xlink:href="#mf4fa1417d7" x="338.4" y="622.1952" style="stroke: #000000; stroke-width: 0.8"/>
      </g>
     </g>
     <g id="text_39">
      <!-- 0.4 -->
      <g transform="translate(330.448437 636.793637)scale(0.1 -0.1)">
       <use xlink:href="#DejaVuSans-30"/>
       <use xlink:href="#DejaVuSans-2e" x="63.623047"/>
       <use xlink:href="#DejaVuSans-34" x="95.410156"/>
      </g>
     </g>
    </g>
   </g>
   <g id="matplotlib.axis_10">
    <g id="ytick_25">
     <g id="line2d_70">
      <g>
       <use xlink:href="#m50c3aec21c" x="57.6" y="622.1952" style="stroke: #000000; stroke-width: 0.8"/>
      </g>
     </g>
     <g id="text_40">
      <!-- 0 -->
      <g transform="translate(44.2375 625.994419)scale(0.1 -0.1)">
       <use xlink:href="#DejaVuSans-30"/>
      </g>
     </g>
    </g>
    <g id="ytick_26">
     <g id="line2d_71">
      <g>
       <use xlink:href="#m50c3aec21c" x="57.6" y="589.873371" style="stroke: #000000; stroke-width: 0.8"/>
      </g>
     </g>
     <g id="text_41">
      <!-- 2 -->
      <g transform="translate(44.2375 593.67259)scale(0.1 -0.1)">
       <use xlink:href="#DejaVuSans-32"/>
      </g>
     </g>
    </g>
    <g id="ytick_27">
     <g id="line2d_72">
      <g>
       <use xlink:href="#m50c3aec21c" x="57.6" y="557.551543" style="stroke: #000000; stroke-width: 0.8"/>
      </g>
     </g>
     <g id="text_42">
      <!-- 4 -->
      <g transform="translate(44.2375 561.350762)scale(0.1 -0.1)">
       <use xlink:href="#DejaVuSans-34"/>
      </g>
     </g>
    </g>
    <g id="ytick_28">
     <g id="line2d_73">
      <g>
       <use xlink:href="#m50c3aec21c" x="57.6" y="525.229714" style="stroke: #000000; stroke-width: 0.8"/>
      </g>
     </g>
     <g id="text_43">
      <!-- 6 -->
      <g transform="translate(44.2375 529.028933)scale(0.1 -0.1)">
       <use xlink:href="#DejaVuSans-36"/>
      </g>
     </g>
    </g>
    <g id="ytick_29">
     <g id="line2d_74">
      <g>
       <use xlink:href="#m50c3aec21c" x="57.6" y="492.907886" style="stroke: #000000; stroke-width: 0.8"/>
      </g>
     </g>
     <g id="text_44">
      <!-- 8 -->
      <g transform="translate(44.2375 496.707104)scale(0.1 -0.1)">
       <use xlink:href="#DejaVuSans-38"/>
      </g>
     </g>
    </g>
    <g id="ytick_30">
     <g id="line2d_75">
      <g>
       <use xlink:href="#m50c3aec21c" x="57.6" y="460.586057" style="stroke: #000000; stroke-width: 0.8"/>
      </g>
     </g>
     <g id="text_45">
      <!-- 10 -->
      <g transform="translate(37.875 464.385276)scale(0.1 -0.1)">
       <use xlink:href="#DejaVuSans-31"/>
       <use xlink:href="#DejaVuSans-30" x="63.623047"/>
      </g>
     </g>
    </g>
   </g>
   <g id="line2d_76">
    <path d="M 213.6 622.1952 
L 213.6 460.586057 
" clip-path="url(#pdd52687149)" style="fill: none; stroke-dasharray: 5.55,2.4; stroke-dashoffset: 0; stroke: #1f77b4; stroke-width: 1.5"/>
   </g>
   <g id="line2d_77">
    <path d="M 82.832225 622.195197 
L 131.433541 622.091522 
L 139.731327 621.878669 
L 145.658316 621.538065 
L 151.585306 620.858074 
L 155.1415 620.192149 
L 157.512296 619.60412 
L 159.883092 618.788582 
L 162.253888 617.85022 
L 164.624684 616.703336 
L 166.99548 615.152938 
L 168.180878 614.32894 
L 170.551673 612.35758 
L 172.922469 609.904784 
L 174.107867 608.599975 
L 175.293265 607.104669 
L 177.664061 603.550292 
L 180.034857 599.587217 
L 181.220255 597.39622 
L 183.591051 592.438563 
L 185.961847 586.924468 
L 188.332643 580.682559 
L 190.703439 574.321331 
L 196.630428 555.766453 
L 200.186622 544.36646 
L 203.742816 533.719208 
L 204.928214 530.431052 
L 206.113612 527.518413 
L 208.484408 522.693383 
L 209.669806 520.680469 
L 210.855204 519.009638 
L 212.040602 517.658519 
L 213.226 517.024384 
L 214.411398 516.605275 
L 215.596796 516.484337 
L 216.782194 517.007104 
L 217.967592 517.923298 
L 219.15299 519.551957 
L 220.338388 521.443888 
L 221.523785 523.672591 
L 222.709183 526.264475 
L 225.079979 532.60933 
L 228.636173 543.093732 
L 236.933959 571.296544 
L 240.490153 582.290786 
L 241.675551 585.738525 
L 245.231745 594.933372 
L 247.60254 600.200282 
L 249.973336 604.719379 
L 251.158734 606.726441 
L 253.52953 610.06992 
L 255.900326 612.927167 
L 258.271122 615.098805 
L 260.641918 616.950977 
L 263.012714 618.337026 
L 266.568908 619.854658 
L 268.939704 620.509685 
L 271.310499 621.043985 
L 274.866693 621.53915 
L 278.422887 621.848586 
L 283.164479 622.039645 
L 291.462265 622.166344 
L 309.243234 622.194714 
L 318.726418 622.195197 
L 318.726418 622.195197 
" clip-path="url(#pdd52687149)" style="fill: none; stroke: #1f77b4; stroke-width: 1.5; stroke-linecap: square"/>
   </g>
   <g id="line2d_78">
    <path d="M 119.218601 622.195196 
L 158.340043 622.097193 
L 162.889048 621.917228 
L 168.347854 621.298596 
L 170.167456 620.935382 
L 171.987058 620.365287 
L 174.716461 619.157621 
L 176.536063 617.89264 
L 178.355665 616.420776 
L 179.265466 615.480201 
L 181.085068 613.105081 
L 182.90467 610.07319 
L 183.814471 608.339342 
L 185.634073 604.081952 
L 187.453675 598.938243 
L 188.363476 596.134059 
L 190.183078 589.259861 
L 192.912481 576.709795 
L 194.732083 567.20424 
L 198.371287 545.467435 
L 200.190889 533.365967 
L 205.649694 499.088008 
L 206.559495 494.065819 
L 208.379097 485.643808 
L 209.288898 481.917445 
L 210.198699 478.881821 
L 211.1085 476.520795 
L 212.018301 474.598858 
L 212.928102 473.538236 
L 213.837903 473.36491 
L 214.747704 473.462997 
L 215.657505 474.361107 
L 216.567306 476.196609 
L 217.477107 478.507874 
L 218.386908 481.164611 
L 220.20651 489.027548 
L 221.116311 493.644308 
L 223.845714 509.777719 
L 225.665316 521.500664 
L 229.30452 546.146624 
L 233.853525 573.489941 
L 235.673127 582.65769 
L 237.492729 590.602265 
L 239.312331 597.568424 
L 241.131933 603.201005 
L 242.041734 605.72422 
L 243.861336 609.880281 
L 244.771137 611.607907 
L 246.590739 614.505051 
L 248.41034 616.662573 
L 250.229942 618.290532 
L 252.049544 619.527261 
L 253.869146 620.331347 
L 254.778947 620.714096 
L 257.50835 621.388491 
L 261.147554 621.86004 
L 263.876957 622.036324 
L 273.884768 622.184162 
L 300.268996 622.195196 
L 300.268996 622.195196 
" clip-path="url(#pdd52687149)" style="fill: none; stroke: #ff7f0e; stroke-width: 1.5; stroke-linecap: square"/>
   </g>
   <g id="line2d_79">
    <path d="M 97.171592 622.195197 
L 132.34884 622.102957 
L 141.729439 621.795857 
L 146.419739 621.43808 
L 151.110039 620.848369 
L 154.627763 620.100695 
L 156.972913 619.486176 
L 159.318063 618.60701 
L 161.663213 617.538432 
L 164.008363 616.284622 
L 166.353513 614.680114 
L 168.698663 612.813786 
L 171.043813 610.439092 
L 173.388962 607.830079 
L 175.734112 604.566052 
L 178.079262 601.038112 
L 179.251837 598.99688 
L 182.769562 591.997149 
L 185.114712 586.815667 
L 187.459862 580.943585 
L 193.322736 564.827924 
L 195.667886 558.040247 
L 201.530761 541.355346 
L 203.875911 535.61384 
L 206.221061 530.289228 
L 207.393636 527.998774 
L 209.738786 524.270887 
L 210.911361 522.885199 
L 212.083935 521.876924 
L 213.25651 521.396558 
L 214.429085 521.309001 
L 215.60166 521.603062 
L 216.774235 522.189722 
L 217.94681 523.257656 
L 219.119385 524.548652 
L 220.29196 526.258095 
L 222.63711 530.506225 
L 223.809685 532.925901 
L 224.98226 535.725628 
L 228.499985 545.35351 
L 232.017709 555.924994 
L 237.880584 573.690074 
L 241.398309 583.534502 
L 243.743459 589.502454 
L 246.088609 594.861913 
L 248.433759 599.691287 
L 251.951483 605.90275 
L 254.296633 609.201906 
L 255.469208 610.665621 
L 257.814358 613.106875 
L 260.159508 615.147579 
L 261.332083 616.074676 
L 263.677233 617.534153 
L 266.022383 618.707018 
L 268.367532 619.613645 
L 271.885257 620.615694 
L 275.402982 621.235177 
L 278.920707 621.643215 
L 284.783582 621.988733 
L 292.991606 622.151482 
L 309.407655 622.194441 
L 330.514004 622.195197 
L 330.514004 622.195197 
" clip-path="url(#pdd52687149)" style="fill: none; stroke: #2ca02c; stroke-width: 1.5; stroke-linecap: square"/>
   </g>
   <g id="line2d_80">
    <path d="M 131.794449 622.195196 
L 157.197 622.083157 
L 161.815645 621.903319 
L 165.664516 621.535757 
L 167.973839 621.145117 
L 171.052936 620.274639 
L 173.362259 619.17 
L 174.901807 618.301826 
L 176.441356 617.119128 
L 177.980904 615.637228 
L 180.290227 612.800734 
L 181.829776 610.356252 
L 184.139098 605.663356 
L 185.678647 601.844718 
L 187.218195 597.332688 
L 188.757744 592.271837 
L 191.067067 583.171401 
L 193.376389 572.285486 
L 196.455486 555.588906 
L 197.995035 546.558143 
L 203.383455 514.325213 
L 206.462552 498.085516 
L 208.0021 490.734929 
L 209.541649 485.40864 
L 210.311423 483.170939 
L 211.081197 481.434316 
L 211.850971 480.125594 
L 212.620746 479.210876 
L 213.39052 478.612901 
L 214.160294 478.416839 
L 214.930068 478.972083 
L 216.469617 481.155168 
L 217.239391 482.720815 
L 218.009165 484.683373 
L 218.77894 487.349818 
L 221.088262 497.111126 
L 222.627811 504.653521 
L 226.476682 527.571742 
L 229.555779 546.445505 
L 231.865102 560.524505 
L 234.944199 577.058324 
L 236.483747 584.161188 
L 238.79307 593.38334 
L 240.332619 598.867759 
L 241.872167 603.281724 
L 243.411716 607.070429 
L 244.951264 610.263604 
L 246.490813 612.897425 
L 248.030361 615.091992 
L 249.56991 616.774953 
L 251.109458 618.128028 
L 252.649007 619.134863 
L 254.188555 619.942904 
L 256.497878 620.800158 
L 258.807201 621.380159 
L 262.656072 621.863264 
L 266.504943 622.068485 
L 277.281783 622.191724 
L 284.979525 622.195195 
L 284.979525 622.195195 
" clip-path="url(#pdd52687149)" style="fill: none; stroke: #d62728; stroke-width: 1.5; stroke-linecap: square"/>
   </g>
   <g id="patch_23">
    <path d="M 57.6 622.1952 
L 57.6 460.586057 
" style="fill: none; stroke: #000000; stroke-width: 0.8; stroke-linejoin: miter; stroke-linecap: square"/>
   </g>
   <g id="patch_24">
    <path d="M 369.6 622.1952 
L 369.6 460.586057 
" style="fill: none; stroke: #000000; stroke-width: 0.8; stroke-linejoin: miter; stroke-linecap: square"/>
   </g>
   <g id="patch_25">
    <path d="M 57.6 622.1952 
L 369.6 622.1952 
" style="fill: none; stroke: #000000; stroke-width: 0.8; stroke-linejoin: miter; stroke-linecap: square"/>
   </g>
   <g id="patch_26">
    <path d="M 57.6 460.586057 
L 369.6 460.586057 
" style="fill: none; stroke: #000000; stroke-width: 0.8; stroke-linejoin: miter; stroke-linecap: square"/>
   </g>
  </g>
  <g id="axes_6">
   <g id="patch_27">
    <path d="M 400.8 622.1952 
L 712.8 622.1952 
L 712.8 460.586057 
L 400.8 460.586057 
z
" style="fill: #ffffff"/>
   </g>
   <g id="matplotlib.axis_11">
    <g id="xtick_26">
     <g id="line2d_81">
      <g>
       <use xlink:href="#mf4fa1417d7" x="432" y="622.1952" style="stroke: #000000; stroke-width: 0.8"/>
      </g>
     </g>
     <g id="text_46">
      <!-- −0.4 -->
      <g transform="translate(419.858594 636.793637)scale(0.1 -0.1)">
       <use xlink:href="#DejaVuSans-2212"/>
       <use xlink:href="#DejaVuSans-30" x="83.789062"/>
       <use xlink:href="#DejaVuSans-2e" x="147.412109"/>
       <use xlink:href="#DejaVuSans-34" x="179.199219"/>
      </g>
     </g>
    </g>
    <g id="xtick_27">
     <g id="line2d_82">
      <g>
       <use xlink:href="#mf4fa1417d7" x="494.4" y="622.1952" style="stroke: #000000; stroke-width: 0.8"/>
      </g>
     </g>
     <g id="text_47">
      <!-- −0.2 -->
      <g transform="translate(482.258594 636.793637)scale(0.1 -0.1)">
       <use xlink:href="#DejaVuSans-2212"/>
       <use xlink:href="#DejaVuSans-30" x="83.789062"/>
       <use xlink:href="#DejaVuSans-2e" x="147.412109"/>
       <use xlink:href="#DejaVuSans-32" x="179.199219"/>
      </g>
     </g>
    </g>
    <g id="xtick_28">
     <g id="line2d_83">
      <g>
       <use xlink:href="#mf4fa1417d7" x="556.8" y="622.1952" style="stroke: #000000; stroke-width: 0.8"/>
      </g>
     </g>
     <g id="text_48">
      <!-- 0.0 -->
      <g transform="translate(548.848437 636.793637)scale(0.1 -0.1)">
       <use xlink:href="#DejaVuSans-30"/>
       <use xlink:href="#DejaVuSans-2e" x="63.623047"/>
       <use xlink:href="#DejaVuSans-30" x="95.410156"/>
      </g>
     </g>
    </g>
    <g id="xtick_29">
     <g id="line2d_84">
      <g>
       <use xlink:href="#mf4fa1417d7" x="619.2" y="622.1952" style="stroke: #000000; stroke-width: 0.8"/>
      </g>
     </g>
     <g id="text_49">
      <!-- 0.2 -->
      <g transform="translate(611.248437 636.793637)scale(0.1 -0.1)">
       <use xlink:href="#DejaVuSans-30"/>
       <use xlink:href="#DejaVuSans-2e" x="63.623047"/>
       <use xlink:href="#DejaVuSans-32" x="95.410156"/>
      </g>
     </g>
    </g>
    <g id="xtick_30">
     <g id="line2d_85">
      <g>
       <use xlink:href="#mf4fa1417d7" x="681.6" y="622.1952" style="stroke: #000000; stroke-width: 0.8"/>
      </g>
     </g>
     <g id="text_50">
      <!-- 0.4 -->
      <g transform="translate(673.648437 636.793637)scale(0.1 -0.1)">
       <use xlink:href="#DejaVuSans-30"/>
       <use xlink:href="#DejaVuSans-2e" x="63.623047"/>
       <use xlink:href="#DejaVuSans-34" x="95.410156"/>
      </g>
     </g>
    </g>
   </g>
   <g id="matplotlib.axis_12">
    <g id="ytick_31">
     <g id="line2d_86">
      <g>
       <use xlink:href="#m50c3aec21c" x="400.8" y="622.1952" style="stroke: #000000; stroke-width: 0.8"/>
      </g>
     </g>
    </g>
    <g id="ytick_32">
     <g id="line2d_87">
      <g>
       <use xlink:href="#m50c3aec21c" x="400.8" y="589.873371" style="stroke: #000000; stroke-width: 0.8"/>
      </g>
     </g>
    </g>
    <g id="ytick_33">
     <g id="line2d_88">
      <g>
       <use xlink:href="#m50c3aec21c" x="400.8" y="557.551543" style="stroke: #000000; stroke-width: 0.8"/>
      </g>
     </g>
    </g>
    <g id="ytick_34">
     <g id="line2d_89">
      <g>
       <use xlink:href="#m50c3aec21c" x="400.8" y="525.229714" style="stroke: #000000; stroke-width: 0.8"/>
      </g>
     </g>
    </g>
    <g id="ytick_35">
     <g id="line2d_90">
      <g>
       <use xlink:href="#m50c3aec21c" x="400.8" y="492.907886" style="stroke: #000000; stroke-width: 0.8"/>
      </g>
     </g>
    </g>
    <g id="ytick_36">
     <g id="line2d_91">
      <g>
       <use xlink:href="#m50c3aec21c" x="400.8" y="460.586057" style="stroke: #000000; stroke-width: 0.8"/>
      </g>
     </g>
    </g>
   </g>
   <g id="line2d_92">
    <path d="M 556.8 622.1952 
L 556.8 460.586057 
" clip-path="url(#p100521b426)" style="fill: none; stroke-dasharray: 5.55,2.4; stroke-dashoffset: 0; stroke: #1f77b4; stroke-width: 1.5"/>
   </g>
   <g id="line2d_93">
    <path d="M 358.005215 622.195198 
L 428.429687 622.110262 
L 440.857535 621.936251 
L 449.142767 621.659509 
L 457.427999 621.169031 
L 465.713231 620.268923 
L 469.855847 619.617367 
L 473.998463 618.779696 
L 478.141079 617.707258 
L 482.283695 616.435214 
L 486.426311 614.839111 
L 490.568927 612.940909 
L 494.711543 610.69082 
L 498.854159 608.078533 
L 502.996775 605.154936 
L 507.139391 601.891257 
L 515.424623 594.319215 
L 523.709855 585.944384 
L 531.995087 577.454188 
L 536.137703 573.717777 
L 540.280319 570.301838 
L 544.422935 567.3266 
L 548.565551 565.070261 
L 552.708167 563.84178 
L 556.850783 563.430895 
L 560.993399 563.900696 
L 565.136015 565.324777 
L 569.278631 567.645747 
L 573.421247 570.402634 
L 577.563863 573.972364 
L 581.706479 577.758831 
L 602.419559 598.038385 
L 606.562175 601.653797 
L 610.704791 604.970326 
L 614.847407 607.990955 
L 618.990023 610.548875 
L 623.132639 612.834154 
L 627.275255 614.662276 
L 631.417871 616.240663 
L 635.560487 617.599791 
L 639.703103 618.653586 
L 643.845719 619.529894 
L 647.988335 620.222043 
L 656.273567 621.120855 
L 664.5588 621.655528 
L 676.986648 622.011031 
L 693.557112 622.161157 
L 721 622.193535 
L 721 622.193535 
" clip-path="url(#p100521b426)" style="fill: none; stroke: #1f77b4; stroke-width: 1.5; stroke-linecap: square"/>
   </g>
   <g id="line2d_94">
    <path d="M 432.92164 622.195197 
L 470.658205 622.128514 
L 478.205518 621.987091 
L 485.752831 621.600049 
L 489.526488 621.244582 
L 493.300144 620.634686 
L 497.073801 619.750557 
L 500.847457 618.454404 
L 504.621114 616.550001 
L 508.39477 613.985231 
L 512.168427 610.511863 
L 515.942083 605.946421 
L 519.71574 600.197923 
L 523.489396 593.406859 
L 527.263053 585.171066 
L 531.036709 576.348685 
L 538.584022 557.461294 
L 542.357679 548.695389 
L 546.131335 540.849351 
L 549.904992 535.237527 
L 553.678648 531.685951 
L 557.452305 530.73683 
L 561.225962 532.43876 
L 564.999618 536.574883 
L 568.773275 543.150611 
L 572.546931 551.523807 
L 576.320588 560.701789 
L 583.867901 579.52838 
L 587.641557 588.228531 
L 591.415214 595.899348 
L 595.18887 602.441672 
L 598.962527 607.716157 
L 602.736183 611.860055 
L 606.50984 615.032471 
L 610.283496 617.332871 
L 614.057153 619.030835 
L 617.830809 620.151551 
L 621.604466 620.882769 
L 625.378122 621.36776 
L 629.151779 621.687255 
L 636.699092 622.011014 
L 648.020062 622.156315 
L 678.209314 622.194087 
L 721 622.1952 
L 721 622.1952 
" clip-path="url(#p100521b426)" style="fill: none; stroke: #ff7f0e; stroke-width: 1.5; stroke-linecap: square"/>
   </g>
   <g id="line2d_95">
    <path d="M 365.993099 622.195198 
L 430.933056 622.112865 
L 443.109297 621.945813 
L 455.285539 621.473564 
L 463.403034 620.81255 
L 467.461781 620.352695 
L 471.520528 619.704388 
L 475.579275 618.884219 
L 479.638023 617.876971 
L 483.69677 616.585646 
L 487.755517 615.098098 
L 491.814265 613.205388 
L 495.873012 610.97857 
L 499.931759 608.347981 
L 503.990506 605.411799 
L 508.049254 602.052861 
L 512.108001 598.348537 
L 516.166748 594.199316 
L 536.460484 572.166749 
L 540.519232 568.575627 
L 544.577979 565.396611 
L 548.636726 562.885596 
L 552.695473 561.433241 
L 556.754221 560.794266 
L 560.812968 561.191654 
L 564.871715 562.686342 
L 568.930463 565.182327 
L 572.98921 568.434135 
L 577.047957 572.002634 
L 589.224199 585.153108 
L 593.282946 589.626847 
L 597.341693 593.897523 
L 601.400441 597.964624 
L 605.459188 601.764765 
L 609.517935 605.101297 
L 613.576682 608.187995 
L 617.63543 610.861789 
L 621.694177 613.145475 
L 625.752924 615.003643 
L 629.811672 616.589964 
L 633.870419 617.896731 
L 637.929166 618.949618 
L 641.987913 619.756114 
L 646.046661 620.394903 
L 650.105408 620.887192 
L 658.222902 621.515549 
L 666.340397 621.846639 
L 678.516639 622.083811 
L 702.869122 622.186534 
L 721 622.194185 
L 721 622.194185 
" clip-path="url(#p100521b426)" style="fill: none; stroke: #2ca02c; stroke-width: 1.5; stroke-linecap: square"/>
   </g>
   <g id="line2d_96">
    <path d="M 3.893644 622.195198 
L 455.051301 622.096314 
L 467.411784 621.793988 
L 473.592026 621.388789 
L 479.772268 620.664816 
L 485.95251 619.417787 
L 492.132752 617.364124 
L 498.312994 614.093992 
L 504.493235 609.584451 
L 510.673477 603.308693 
L 516.853719 595.65207 
L 523.033961 586.552194 
L 529.214203 576.964691 
L 535.394445 567.606118 
L 541.574687 559.548247 
L 547.754929 553.989308 
L 553.93517 551.261692 
L 560.115412 551.933529 
L 566.295654 555.743948 
L 572.475896 562.133886 
L 578.656138 570.250148 
L 591.016622 588.476939 
L 597.196863 597.000621 
L 603.377105 604.215917 
L 609.557347 609.878037 
L 615.737589 614.162735 
L 621.917831 617.076624 
L 628.098073 619.082054 
L 634.278315 620.338823 
L 640.458556 621.089546 
L 646.638798 621.566344 
L 658.999282 621.977947 
L 671.359766 622.123083 
L 702.260975 622.191263 
L 721 622.195 
L 721 622.195 
" clip-path="url(#p100521b426)" style="fill: none; stroke: #d62728; stroke-width: 1.5; stroke-linecap: square"/>
   </g>
   <g id="patch_28">
    <path d="M 400.8 622.1952 
L 400.8 460.586057 
" style="fill: none; stroke: #000000; stroke-width: 0.8; stroke-linejoin: miter; stroke-linecap: square"/>
   </g>
   <g id="patch_29">
    <path d="M 712.8 622.1952 
L 712.8 460.586057 
" style="fill: none; stroke: #000000; stroke-width: 0.8; stroke-linejoin: miter; stroke-linecap: square"/>
   </g>
   <g id="patch_30">
    <path d="M 400.8 622.1952 
L 712.8 622.1952 
" style="fill: none; stroke: #000000; stroke-width: 0.8; stroke-linejoin: miter; stroke-linecap: square"/>
   </g>
   <g id="patch_31">
    <path d="M 400.8 460.586057 
L 712.8 460.586057 
" style="fill: none; stroke: #000000; stroke-width: 0.8; stroke-linejoin: miter; stroke-linecap: square"/>
   </g>
  </g>
  <g id="text_51">
   <!-- Density -->
   <g transform="translate(25.797656 382.032891)rotate(-90)scale(0.15 -0.15)">
    <defs>
     <path id="DejaVuSans-44" d="M 1259 4147 
L 1259 519 
L 2022 519 
Q 2988 519 3436 956 
Q 3884 1394 3884 2338 
Q 3884 3275 3436 3711 
Q 2988 4147 2022 4147 
L 1259 4147 
z
M 628 4666 
L 1925 4666 
Q 3281 4666 3915 4102 
Q 4550 3538 4550 2338 
Q 4550 1131 3912 565 
Q 3275 0 1925 0 
L 628 0 
L 628 4666 
z
" transform="scale(0.015625)"/>
     <path id="DejaVuSans-65" d="M 3597 1894 
L 3597 1613 
L 953 1613 
Q 991 1019 1311 708 
Q 1631 397 2203 397 
Q 2534 397 2845 478 
Q 3156 559 3463 722 
L 3463 178 
Q 3153 47 2828 -22 
Q 2503 -91 2169 -91 
Q 1331 -91 842 396 
Q 353 884 353 1716 
Q 353 2575 817 3079 
Q 1281 3584 2069 3584 
Q 2775 3584 3186 3129 
Q 3597 2675 3597 1894 
z
M 3022 2063 
Q 3016 2534 2758 2815 
Q 2500 3097 2075 3097 
Q 1594 3097 1305 2825 
Q 1016 2553 972 2059 
L 3022 2063 
z
" transform="scale(0.015625)"/>
     <path id="DejaVuSans-6e" d="M 3513 2113 
L 3513 0 
L 2938 0 
L 2938 2094 
Q 2938 2591 2744 2837 
Q 2550 3084 2163 3084 
Q 1697 3084 1428 2787 
Q 1159 2491 1159 1978 
L 1159 0 
L 581 0 
L 581 3500 
L 1159 3500 
L 1159 2956 
Q 1366 3272 1645 3428 
Q 1925 3584 2291 3584 
Q 2894 3584 3203 3211 
Q 3513 2838 3513 2113 
z
" transform="scale(0.015625)"/>
     <path id="DejaVuSans-73" d="M 2834 3397 
L 2834 2853 
Q 2591 2978 2328 3040 
Q 2066 3103 1784 3103 
Q 1356 3103 1142 2972 
Q 928 2841 928 2578 
Q 928 2378 1081 2264 
Q 1234 2150 1697 2047 
L 1894 2003 
Q 2506 1872 2764 1633 
Q 3022 1394 3022 966 
Q 3022 478 2636 193 
Q 2250 -91 1575 -91 
Q 1294 -91 989 -36 
Q 684 19 347 128 
L 347 722 
Q 666 556 975 473 
Q 1284 391 1588 391 
Q 1994 391 2212 530 
Q 2431 669 2431 922 
Q 2431 1156 2273 1281 
Q 2116 1406 1581 1522 
L 1381 1569 
Q 847 1681 609 1914 
Q 372 2147 372 2553 
Q 372 3047 722 3315 
Q 1072 3584 1716 3584 
Q 2034 3584 2315 3537 
Q 2597 3491 2834 3397 
z
" transform="scale(0.015625)"/>
     <path id="DejaVuSans-69" d="M 603 3500 
L 1178 3500 
L 1178 0 
L 603 0 
L 603 3500 
z
M 603 4863 
L 1178 4863 
L 1178 4134 
L 603 4134 
L 603 4863 
z
" transform="scale(0.015625)"/>
     <path id="DejaVuSans-74" d="M 1172 4494 
L 1172 3500 
L 2356 3500 
L 2356 3053 
L 1172 3053 
L 1172 1153 
Q 1172 725 1289 603 
Q 1406 481 1766 481 
L 2356 481 
L 2356 0 
L 1766 0 
Q 1100 0 847 248 
Q 594 497 594 1153 
L 594 3053 
L 172 3053 
L 172 3500 
L 594 3500 
L 594 4494 
L 1172 4494 
z
" transform="scale(0.015625)"/>
     <path id="DejaVuSans-79" d="M 2059 -325 
Q 1816 -950 1584 -1140 
Q 1353 -1331 966 -1331 
L 506 -1331 
L 506 -850 
L 844 -850 
Q 1081 -850 1212 -737 
Q 1344 -625 1503 -206 
L 1606 56 
L 191 3500 
L 800 3500 
L 1894 763 
L 2988 3500 
L 3597 3500 
L 2059 -325 
z
" transform="scale(0.015625)"/>
    </defs>
    <use xlink:href="#DejaVuSans-44"/>
    <use xlink:href="#DejaVuSans-65" x="77.001953"/>
    <use xlink:href="#DejaVuSans-6e" x="138.525391"/>
    <use xlink:href="#DejaVuSans-73" x="201.904297"/>
    <use xlink:href="#DejaVuSans-69" x="254.003906"/>
    <use xlink:href="#DejaVuSans-74" x="281.787109"/>
    <use xlink:href="#DejaVuSans-79" x="320.996094"/>
   </g>
  </g>
  <g id="text_52">
   <!-- Estimation Error -->
   <g transform="translate(313.801172 692.8992)scale(0.15 -0.15)">
    <defs>
     <path id="DejaVuSans-45" d="M 628 4666 
L 3578 4666 
L 3578 4134 
L 1259 4134 
L 1259 2753 
L 3481 2753 
L 3481 2222 
L 1259 2222 
L 1259 531 
L 3634 531 
L 3634 0 
L 628 0 
L 628 4666 
z
" transform="scale(0.015625)"/>
     <path id="DejaVuSans-6d" d="M 3328 2828 
Q 3544 3216 3844 3400 
Q 4144 3584 4550 3584 
Q 5097 3584 5394 3201 
Q 5691 2819 5691 2113 
L 5691 0 
L 5113 0 
L 5113 2094 
Q 5113 2597 4934 2840 
Q 4756 3084 4391 3084 
Q 3944 3084 3684 2787 
Q 3425 2491 3425 1978 
L 3425 0 
L 2847 0 
L 2847 2094 
Q 2847 2600 2669 2842 
Q 2491 3084 2119 3084 
Q 1678 3084 1418 2786 
Q 1159 2488 1159 1978 
L 1159 0 
L 581 0 
L 581 3500 
L 1159 3500 
L 1159 2956 
Q 1356 3278 1631 3431 
Q 1906 3584 2284 3584 
Q 2666 3584 2933 3390 
Q 3200 3197 3328 2828 
z
" transform="scale(0.015625)"/>
     <path id="DejaVuSans-61" d="M 2194 1759 
Q 1497 1759 1228 1600 
Q 959 1441 959 1056 
Q 959 750 1161 570 
Q 1363 391 1709 391 
Q 2188 391 2477 730 
Q 2766 1069 2766 1631 
L 2766 1759 
L 2194 1759 
z
M 3341 1997 
L 3341 0 
L 2766 0 
L 2766 531 
Q 2569 213 2275 61 
Q 1981 -91 1556 -91 
Q 1019 -91 701 211 
Q 384 513 384 1019 
Q 384 1609 779 1909 
Q 1175 2209 1959 2209 
L 2766 2209 
L 2766 2266 
Q 2766 2663 2505 2880 
Q 2244 3097 1772 3097 
Q 1472 3097 1187 3025 
Q 903 2953 641 2809 
L 641 3341 
Q 956 3463 1253 3523 
Q 1550 3584 1831 3584 
Q 2591 3584 2966 3190 
Q 3341 2797 3341 1997 
z
" transform="scale(0.015625)"/>
     <path id="DejaVuSans-6f" d="M 1959 3097 
Q 1497 3097 1228 2736 
Q 959 2375 959 1747 
Q 959 1119 1226 758 
Q 1494 397 1959 397 
Q 2419 397 2687 759 
Q 2956 1122 2956 1747 
Q 2956 2369 2687 2733 
Q 2419 3097 1959 3097 
z
M 1959 3584 
Q 2709 3584 3137 3096 
Q 3566 2609 3566 1747 
Q 3566 888 3137 398 
Q 2709 -91 1959 -91 
Q 1206 -91 779 398 
Q 353 888 353 1747 
Q 353 2609 779 3096 
Q 1206 3584 1959 3584 
z
" transform="scale(0.015625)"/>
     <path id="DejaVuSans-20" transform="scale(0.015625)"/>
     <path id="DejaVuSans-72" d="M 2631 2963 
Q 2534 3019 2420 3045 
Q 2306 3072 2169 3072 
Q 1681 3072 1420 2755 
Q 1159 2438 1159 1844 
L 1159 0 
L 581 0 
L 581 3500 
L 1159 3500 
L 1159 2956 
Q 1341 3275 1631 3429 
Q 1922 3584 2338 3584 
Q 2397 3584 2469 3576 
Q 2541 3569 2628 3553 
L 2631 2963 
z
" transform="scale(0.015625)"/>
    </defs>
    <use xlink:href="#DejaVuSans-45"/>
    <use xlink:href="#DejaVuSans-73" x="63.183594"/>
    <use xlink:href="#DejaVuSans-74" x="115.283203"/>
    <use xlink:href="#DejaVuSans-69" x="154.492188"/>
    <use xlink:href="#DejaVuSans-6d" x="182.275391"/>
    <use xlink:href="#DejaVuSans-61" x="279.6875"/>
    <use xlink:href="#DejaVuSans-74" x="340.966797"/>
    <use xlink:href="#DejaVuSans-69" x="380.175781"/>
    <use xlink:href="#DejaVuSans-6f" x="407.958984"/>
    <use xlink:href="#DejaVuSans-6e" x="469.140625"/>
    <use xlink:href="#DejaVuSans-20" x="532.519531"/>
    <use xlink:href="#DejaVuSans-45" x="564.306641"/>
    <use xlink:href="#DejaVuSans-72" x="627.490234"/>
    <use xlink:href="#DejaVuSans-72" x="666.853516"/>
    <use xlink:href="#DejaVuSans-6f" x="705.716797"/>
    <use xlink:href="#DejaVuSans-72" x="766.898438"/>
   </g>
  </g>
  <g id="legend_1">
   <g id="patch_32">
    <path d="M 9.1 88.1725 
L 120.3475 88.1725 
Q 122.9475 88.1725 122.9475 85.5725 
L 122.9475 9.1 
Q 122.9475 6.5 120.3475 6.5 
L 9.1 6.5 
Q 6.5 6.5 6.5 9.1 
L 6.5 85.5725 
Q 6.5 88.1725 9.1 88.1725 
z
" style="fill: #ffffff; opacity: 0.8; stroke: #cccccc; stroke-linejoin: miter"/>
   </g>
   <g id="line2d_97">
    <path d="M 11.7 17.027969 
L 24.7 17.027969 
L 37.7 17.027969 
" style="fill: none; stroke: #1f77b4; stroke-width: 1.5; stroke-linecap: square"/>
   </g>
   <g id="text_53">
    <!-- Maha_M8 -->
    <g transform="translate(48.1 21.577969)scale(0.13 -0.13)">
     <defs>
      <path id="DejaVuSans-4d" d="M 628 4666 
L 1569 4666 
L 2759 1491 
L 3956 4666 
L 4897 4666 
L 4897 0 
L 4281 0 
L 4281 4097 
L 3078 897 
L 2444 897 
L 1241 4097 
L 1241 0 
L 628 0 
L 628 4666 
z
" transform="scale(0.015625)"/>
      <path id="DejaVuSans-68" d="M 3513 2113 
L 3513 0 
L 2938 0 
L 2938 2094 
Q 2938 2591 2744 2837 
Q 2550 3084 2163 3084 
Q 1697 3084 1428 2787 
Q 1159 2491 1159 1978 
L 1159 0 
L 581 0 
L 581 4863 
L 1159 4863 
L 1159 2956 
Q 1366 3272 1645 3428 
Q 1925 3584 2291 3584 
Q 2894 3584 3203 3211 
Q 3513 2838 3513 2113 
z
" transform="scale(0.015625)"/>
      <path id="DejaVuSans-5f" d="M 3263 -1063 
L 3263 -1509 
L -63 -1509 
L -63 -1063 
L 3263 -1063 
z
" transform="scale(0.015625)"/>
     </defs>
     <use xlink:href="#DejaVuSans-4d"/>
     <use xlink:href="#DejaVuSans-61" x="86.279297"/>
     <use xlink:href="#DejaVuSans-68" x="147.558594"/>
     <use xlink:href="#DejaVuSans-61" x="210.9375"/>
     <use xlink:href="#DejaVuSans-5f" x="272.216797"/>
     <use xlink:href="#DejaVuSans-4d" x="322.216797"/>
     <use xlink:href="#DejaVuSans-38" x="408.496094"/>
    </g>
   </g>
   <g id="line2d_98">
    <path d="M 11.7 36.471094 
L 24.7 36.471094 
L 37.7 36.471094 
" style="fill: none; stroke: #ff7f0e; stroke-width: 1.5; stroke-linecap: square"/>
   </g>
   <g id="text_54">
    <!-- Maha_M16 -->
    <g transform="translate(48.1 41.021094)scale(0.13 -0.13)">
     <use xlink:href="#DejaVuSans-4d"/>
     <use xlink:href="#DejaVuSans-61" x="86.279297"/>
     <use xlink:href="#DejaVuSans-68" x="147.558594"/>
     <use xlink:href="#DejaVuSans-61" x="210.9375"/>
     <use xlink:href="#DejaVuSans-5f" x="272.216797"/>
     <use xlink:href="#DejaVuSans-4d" x="322.216797"/>
     <use xlink:href="#DejaVuSans-31" x="408.496094"/>
     <use xlink:href="#DejaVuSans-36" x="472.119141"/>
    </g>
   </g>
   <g id="line2d_99">
    <path d="M 11.7 55.914219 
L 24.7 55.914219 
L 37.7 55.914219 
" style="fill: none; stroke: #2ca02c; stroke-width: 1.5; stroke-linecap: square"/>
   </g>
   <g id="text_55">
    <!-- Euc_M8 -->
    <g transform="translate(48.1 60.464219)scale(0.13 -0.13)">
     <defs>
      <path id="DejaVuSans-75" d="M 544 1381 
L 544 3500 
L 1119 3500 
L 1119 1403 
Q 1119 906 1312 657 
Q 1506 409 1894 409 
Q 2359 409 2629 706 
Q 2900 1003 2900 1516 
L 2900 3500 
L 3475 3500 
L 3475 0 
L 2900 0 
L 2900 538 
Q 2691 219 2414 64 
Q 2138 -91 1772 -91 
Q 1169 -91 856 284 
Q 544 659 544 1381 
z
M 1991 3584 
L 1991 3584 
z
" transform="scale(0.015625)"/>
      <path id="DejaVuSans-63" d="M 3122 3366 
L 3122 2828 
Q 2878 2963 2633 3030 
Q 2388 3097 2138 3097 
Q 1578 3097 1268 2742 
Q 959 2388 959 1747 
Q 959 1106 1268 751 
Q 1578 397 2138 397 
Q 2388 397 2633 464 
Q 2878 531 3122 666 
L 3122 134 
Q 2881 22 2623 -34 
Q 2366 -91 2075 -91 
Q 1284 -91 818 406 
Q 353 903 353 1747 
Q 353 2603 823 3093 
Q 1294 3584 2113 3584 
Q 2378 3584 2631 3529 
Q 2884 3475 3122 3366 
z
" transform="scale(0.015625)"/>
     </defs>
     <use xlink:href="#DejaVuSans-45"/>
     <use xlink:href="#DejaVuSans-75" x="63.183594"/>
     <use xlink:href="#DejaVuSans-63" x="126.5625"/>
     <use xlink:href="#DejaVuSans-5f" x="181.542969"/>
     <use xlink:href="#DejaVuSans-4d" x="231.542969"/>
     <use xlink:href="#DejaVuSans-38" x="317.822266"/>
    </g>
   </g>
   <g id="line2d_100">
    <path d="M 11.7 75.357344 
L 24.7 75.357344 
L 37.7 75.357344 
" style="fill: none; stroke: #d62728; stroke-width: 1.5; stroke-linecap: square"/>
   </g>
   <g id="text_56">
    <!-- Euc_M16 -->
    <g transform="translate(48.1 79.907344)scale(0.13 -0.13)">
     <use xlink:href="#DejaVuSans-45"/>
     <use xlink:href="#DejaVuSans-75" x="63.183594"/>
     <use xlink:href="#DejaVuSans-63" x="126.5625"/>
     <use xlink:href="#DejaVuSans-5f" x="181.542969"/>
     <use xlink:href="#DejaVuSans-4d" x="231.542969"/>
     <use xlink:href="#DejaVuSans-31" x="317.822266"/>
     <use xlink:href="#DejaVuSans-36" x="381.445312"/>
    </g>
   </g>
  </g>
 </g>
 <defs>
  <clipPath id="p6b806c9c21">
   <rect x="57.6" y="56.5632" width="312" height="161.609143"/>
  </clipPath>
  <clipPath id="pafaacfe4c7">
   <rect x="400.8" y="56.5632" width="312" height="161.609143"/>
  </clipPath>
  <clipPath id="p9a1a2d9f28">
   <rect x="57.6" y="258.574629" width="312" height="161.609143"/>
  </clipPath>
  <clipPath id="pa9ec3caf3d">
   <rect x="400.8" y="258.574629" width="312" height="161.609143"/>
  </clipPath>
  <clipPath id="pdd52687149">
   <rect x="57.6" y="460.586057" width="312" height="161.609143"/>
  </clipPath>
  <clipPath id="p100521b426">
   <rect x="400.8" y="460.586057" width="312" height="161.609143"/>
  </clipPath>
 </defs>
</svg>
