<?xml version="1.0" encoding="utf-8" standalone="no"?>
<!DOCTYPE svg PUBLIC "-//W3C//DTD SVG 1.1//EN"
  "http://www.w3.org/Graphics/SVG/1.1/DTD/svg11.dtd">
<svg xmlns:xlink="http://www.w3.org/1999/xlink" width="720pt" height="360pt" viewBox="0 0 720 360" xmlns="http://www.w3.org/2000/svg" version="1.1">
 <metadata>
  <rdf:RDF xmlns:dc="http://purl.org/dc/elements/1.1/" xmlns:cc="http://creativecommons.org/ns#" xmlns:rdf="http://www.w3.org/1999/02/22-rdf-syntax-ns#">
   <cc:Work>
    <dc:type rdf:resource="http://purl.org/dc/dcmitype/StillImage"/>
    <dc:date>2022-05-09T12:59:19.310486</dc:date>
    <dc:format>image/svg+xml</dc:format>
    <dc:creator>
     <cc:Agent>
      <dc:title>Matplotlib v3.5.1, https://matplotlib.org/</dc:title>
     </cc:Agent>
    </dc:creator>
   </cc:Work>
  </rdf:RDF>
 </metadata>
 <defs>
  <style type="text/css">*{stroke-linejoin: round; stroke-linecap: butt}</style>
 </defs>
 <g id="figure_1">
  <g id="patch_1">
   <path d="M 0 360 
L 720 360 
L 720 0 
L 0 0 
z
" style="fill: #ffffff"/>
  </g>
  <g id="axes_1">
   <g id="patch_2">
    <path d="M 57.6 316.8 
L 369.6 316.8 
L 369.6 28.8 
L 57.6 28.8 
z
" style="fill: #ffffff"/>
   </g>
   <g id="matplotlib.axis_1">
    <g id="xtick_1">
     <g id="line2d_1">
      <defs>
       <path id="m3b946b66a3" d="M 0 0 
L 0 3.5 
" style="stroke: #000000; stroke-width: 0.8"/>
      </defs>
      <g>
       <use xlink:href="#m3b946b66a3" x="88.8" y="316.8" style="stroke: #000000; stroke-width: 0.8"/>
      </g>
     </g>
     <g id="text_1">
      <!-- −0.4 -->
      <g transform="translate(76.658594 331.398438)scale(0.1 -0.1)">
       <defs>
        <path id="DejaVuSans-2212" d="M 678 2272 
L 4684 2272 
L 4684 1741 
L 678 1741 
L 678 2272 
z
" transform="scale(0.015625)"/>
        <path id="DejaVuSans-30" d="M 2034 4250 
Q 1547 4250 1301 3770 
Q 1056 3291 1056 2328 
Q 1056 1369 1301 889 
Q 1547 409 2034 409 
Q 2525 409 2770 889 
Q 3016 1369 3016 2328 
Q 3016 3291 2770 3770 
Q 2525 4250 2034 4250 
z
M 2034 4750 
Q 2819 4750 3233 4129 
Q 3647 3509 3647 2328 
Q 3647 1150 3233 529 
Q 2819 -91 2034 -91 
Q 1250 -91 836 529 
Q 422 1150 422 2328 
Q 422 3509 836 4129 
Q 1250 4750 2034 4750 
z
" transform="scale(0.015625)"/>
        <path id="DejaVuSans-2e" d="M 684 794 
L 1344 794 
L 1344 0 
L 684 0 
L 684 794 
z
" transform="scale(0.015625)"/>
        <path id="DejaVuSans-34" d="M 2419 4116 
L 825 1625 
L 2419 1625 
L 2419 4116 
z
M 2253 4666 
L 3047 4666 
L 3047 1625 
L 3713 1625 
L 3713 1100 
L 3047 1100 
L 3047 0 
L 2419 0 
L 2419 1100 
L 313 1100 
L 313 1709 
L 2253 4666 
z
" transform="scale(0.015625)"/>
       </defs>
       <use xlink:href="#DejaVuSans-2212"/>
       <use xlink:href="#DejaVuSans-30" x="83.789062"/>
       <use xlink:href="#DejaVuSans-2e" x="147.412109"/>
       <use xlink:href="#DejaVuSans-34" x="179.199219"/>
      </g>
     </g>
    </g>
    <g id="xtick_2">
     <g id="line2d_2">
      <g>
       <use xlink:href="#m3b946b66a3" x="151.2" y="316.8" style="stroke: #000000; stroke-width: 0.8"/>
      </g>
     </g>
     <g id="text_2">
      <!-- −0.2 -->
      <g transform="translate(139.058594 331.398438)scale(0.1 -0.1)">
       <defs>
        <path id="DejaVuSans-32" d="M 1228 531 
L 3431 531 
L 3431 0 
L 469 0 
L 469 531 
Q 828 903 1448 1529 
Q 2069 2156 2228 2338 
Q 2531 2678 2651 2914 
Q 2772 3150 2772 3378 
Q 2772 3750 2511 3984 
Q 2250 4219 1831 4219 
Q 1534 4219 1204 4116 
Q 875 4013 500 3803 
L 500 4441 
Q 881 4594 1212 4672 
Q 1544 4750 1819 4750 
Q 2544 4750 2975 4387 
Q 3406 4025 3406 3419 
Q 3406 3131 3298 2873 
Q 3191 2616 2906 2266 
Q 2828 2175 2409 1742 
Q 1991 1309 1228 531 
z
" transform="scale(0.015625)"/>
       </defs>
       <use xlink:href="#DejaVuSans-2212"/>
       <use xlink:href="#DejaVuSans-30" x="83.789062"/>
       <use xlink:href="#DejaVuSans-2e" x="147.412109"/>
       <use xlink:href="#DejaVuSans-32" x="179.199219"/>
      </g>
     </g>
    </g>
    <g id="xtick_3">
     <g id="line2d_3">
      <g>
       <use xlink:href="#m3b946b66a3" x="213.6" y="316.8" style="stroke: #000000; stroke-width: 0.8"/>
      </g>
     </g>
     <g id="text_3">
      <!-- 0.0 -->
      <g transform="translate(205.648437 331.398438)scale(0.1 -0.1)">
       <use xlink:href="#DejaVuSans-30"/>
       <use xlink:href="#DejaVuSans-2e" x="63.623047"/>
       <use xlink:href="#DejaVuSans-30" x="95.410156"/>
      </g>
     </g>
    </g>
    <g id="xtick_4">
     <g id="line2d_4">
      <g>
       <use xlink:href="#m3b946b66a3" x="276" y="316.8" style="stroke: #000000; stroke-width: 0.8"/>
      </g>
     </g>
     <g id="text_4">
      <!-- 0.2 -->
      <g transform="translate(268.048437 331.398438)scale(0.1 -0.1)">
       <use xlink:href="#DejaVuSans-30"/>
       <use xlink:href="#DejaVuSans-2e" x="63.623047"/>
       <use xlink:href="#DejaVuSans-32" x="95.410156"/>
      </g>
     </g>
    </g>
    <g id="xtick_5">
     <g id="line2d_5">
      <g>
       <use xlink:href="#m3b946b66a3" x="338.4" y="316.8" style="stroke: #000000; stroke-width: 0.8"/>
      </g>
     </g>
     <g id="text_5">
      <!-- 0.4 -->
      <g transform="translate(330.448437 331.398438)scale(0.1 -0.1)">
       <use xlink:href="#DejaVuSans-30"/>
       <use xlink:href="#DejaVuSans-2e" x="63.623047"/>
       <use xlink:href="#DejaVuSans-34" x="95.410156"/>
      </g>
     </g>
    </g>
   </g>
   <g id="matplotlib.axis_2">
    <g id="ytick_1">
     <g id="line2d_6">
      <defs>
       <path id="m492207a4ac" d="M 0 0 
L -3.5 0 
" style="stroke: #000000; stroke-width: 0.8"/>
      </defs>
      <g>
       <use xlink:href="#m492207a4ac" x="57.6" y="316.8" style="stroke: #000000; stroke-width: 0.8"/>
      </g>
     </g>
     <g id="text_6">
      <!-- 0 -->
      <g transform="translate(44.2375 320.599219)scale(0.1 -0.1)">
       <use xlink:href="#DejaVuSans-30"/>
      </g>
     </g>
    </g>
    <g id="ytick_2">
     <g id="line2d_7">
      <g>
       <use xlink:href="#m492207a4ac" x="57.6" y="259.2" style="stroke: #000000; stroke-width: 0.8"/>
      </g>
     </g>
     <g id="text_7">
      <!-- 2 -->
      <g transform="translate(44.2375 262.999219)scale(0.1 -0.1)">
       <use xlink:href="#DejaVuSans-32"/>
      </g>
     </g>
    </g>
    <g id="ytick_3">
     <g id="line2d_8">
      <g>
       <use xlink:href="#m492207a4ac" x="57.6" y="201.6" style="stroke: #000000; stroke-width: 0.8"/>
      </g>
     </g>
     <g id="text_8">
      <!-- 4 -->
      <g transform="translate(44.2375 205.399219)scale(0.1 -0.1)">
       <use xlink:href="#DejaVuSans-34"/>
      </g>
     </g>
    </g>
    <g id="ytick_4">
     <g id="line2d_9">
      <g>
       <use xlink:href="#m492207a4ac" x="57.6" y="144" style="stroke: #000000; stroke-width: 0.8"/>
      </g>
     </g>
     <g id="text_9">
      <!-- 6 -->
      <g transform="translate(44.2375 147.799219)scale(0.1 -0.1)">
       <defs>
        <path id="DejaVuSans-36" d="M 2113 2584 
Q 1688 2584 1439 2293 
Q 1191 2003 1191 1497 
Q 1191 994 1439 701 
Q 1688 409 2113 409 
Q 2538 409 2786 701 
Q 3034 994 3034 1497 
Q 3034 2003 2786 2293 
Q 2538 2584 2113 2584 
z
M 3366 4563 
L 3366 3988 
Q 3128 4100 2886 4159 
Q 2644 4219 2406 4219 
Q 1781 4219 1451 3797 
Q 1122 3375 1075 2522 
Q 1259 2794 1537 2939 
Q 1816 3084 2150 3084 
Q 2853 3084 3261 2657 
Q 3669 2231 3669 1497 
Q 3669 778 3244 343 
Q 2819 -91 2113 -91 
Q 1303 -91 875 529 
Q 447 1150 447 2328 
Q 447 3434 972 4092 
Q 1497 4750 2381 4750 
Q 2619 4750 2861 4703 
Q 3103 4656 3366 4563 
z
" transform="scale(0.015625)"/>
       </defs>
       <use xlink:href="#DejaVuSans-36"/>
      </g>
     </g>
    </g>
    <g id="ytick_5">
     <g id="line2d_10">
      <g>
       <use xlink:href="#m492207a4ac" x="57.6" y="86.4" style="stroke: #000000; stroke-width: 0.8"/>
      </g>
     </g>
     <g id="text_10">
      <!-- 8 -->
      <g transform="translate(44.2375 90.199219)scale(0.1 -0.1)">
       <defs>
        <path id="DejaVuSans-38" d="M 2034 2216 
Q 1584 2216 1326 1975 
Q 1069 1734 1069 1313 
Q 1069 891 1326 650 
Q 1584 409 2034 409 
Q 2484 409 2743 651 
Q 3003 894 3003 1313 
Q 3003 1734 2745 1975 
Q 2488 2216 2034 2216 
z
M 1403 2484 
Q 997 2584 770 2862 
Q 544 3141 544 3541 
Q 544 4100 942 4425 
Q 1341 4750 2034 4750 
Q 2731 4750 3128 4425 
Q 3525 4100 3525 3541 
Q 3525 3141 3298 2862 
Q 3072 2584 2669 2484 
Q 3125 2378 3379 2068 
Q 3634 1759 3634 1313 
Q 3634 634 3220 271 
Q 2806 -91 2034 -91 
Q 1263 -91 848 271 
Q 434 634 434 1313 
Q 434 1759 690 2068 
Q 947 2378 1403 2484 
z
M 1172 3481 
Q 1172 3119 1398 2916 
Q 1625 2713 2034 2713 
Q 2441 2713 2670 2916 
Q 2900 3119 2900 3481 
Q 2900 3844 2670 4047 
Q 2441 4250 2034 4250 
Q 1625 4250 1398 4047 
Q 1172 3844 1172 3481 
z
" transform="scale(0.015625)"/>
       </defs>
       <use xlink:href="#DejaVuSans-38"/>
      </g>
     </g>
    </g>
    <g id="ytick_6">
     <g id="line2d_11">
      <g>
       <use xlink:href="#m492207a4ac" x="57.6" y="28.8" style="stroke: #000000; stroke-width: 0.8"/>
      </g>
     </g>
     <g id="text_11">
      <!-- 10 -->
      <g transform="translate(37.875 32.599219)scale(0.1 -0.1)">
       <defs>
        <path id="DejaVuSans-31" d="M 794 531 
L 1825 531 
L 1825 4091 
L 703 3866 
L 703 4441 
L 1819 4666 
L 2450 4666 
L 2450 531 
L 3481 531 
L 3481 0 
L 794 0 
L 794 531 
z
" transform="scale(0.015625)"/>
       </defs>
       <use xlink:href="#DejaVuSans-31"/>
       <use xlink:href="#DejaVuSans-30" x="63.623047"/>
      </g>
     </g>
    </g>
   </g>
   <g id="line2d_12">
    <path d="M 213.6 316.8 
L 213.6 28.8 
" clip-path="url(#pf5b4e001b5)" style="fill: none; stroke-dasharray: 5.55,2.4; stroke-dashoffset: 0; stroke: #1f77b4; stroke-width: 1.5"/>
   </g>
   <g id="line2d_13">
    <path d="M -1 316.798925 
L 47.284592 316.71059 
L 66.393971 316.450609 
L 77.859598 315.986629 
L 85.503349 315.477451 
L 93.147101 314.682518 
L 100.790852 313.537945 
L 104.612728 312.791508 
L 108.434604 311.848044 
L 112.256479 310.764628 
L 116.078355 309.519253 
L 119.900231 308.031505 
L 123.722106 306.334126 
L 127.543982 304.389876 
L 131.365858 302.246006 
L 135.187734 299.767544 
L 139.009609 297.117163 
L 142.831485 294.140738 
L 146.653361 290.861216 
L 154.297112 283.791118 
L 161.940864 275.74362 
L 165.762739 271.680396 
L 177.228366 259.088846 
L 184.872118 251.25432 
L 188.693994 247.735635 
L 192.515869 244.627561 
L 196.337745 241.984409 
L 200.159621 239.819335 
L 203.981496 238.101212 
L 207.803372 236.88111 
L 211.625248 236.121457 
L 215.447123 236.053943 
L 219.268999 236.60179 
L 223.090875 237.766151 
L 226.912751 239.455017 
L 230.734626 241.80055 
L 234.556502 244.405084 
L 238.378378 247.601004 
L 242.200253 251.068061 
L 249.844005 258.741102 
L 257.487756 267.063977 
L 261.309632 271.388706 
L 272.775259 283.562604 
L 276.597135 287.378721 
L 280.419011 290.869339 
L 284.240886 294.148711 
L 288.062762 297.242448 
L 291.884638 299.957654 
L 295.706513 302.39264 
L 299.528389 304.568731 
L 303.350265 306.538057 
L 307.172141 308.193522 
L 310.994016 309.660913 
L 314.815892 310.989102 
L 318.637768 312.060979 
L 322.459643 312.94987 
L 326.281519 313.696407 
L 333.92527 314.799639 
L 341.569022 315.591073 
L 349.212773 316.079936 
L 360.6784 316.478737 
L 375.965903 316.705992 
L 410.362785 316.79618 
L 440.93779 316.799996 
L 440.93779 316.799996 
" clip-path="url(#pf5b4e001b5)" style="fill: none; stroke: #1f77b4; stroke-width: 1.5; stroke-linecap: square"/>
   </g>
   <g id="line2d_14">
    <path d="M 55.467058 316.799996 
L 104.331165 316.705313 
L 116.941257 316.437355 
L 124.822565 315.973772 
L 131.127611 315.270084 
L 134.280134 314.798099 
L 139.008918 313.697618 
L 142.161441 312.602541 
L 145.313964 311.282447 
L 146.890226 310.491979 
L 150.042749 308.573613 
L 151.61901 307.416337 
L 153.195272 306.065076 
L 157.924056 301.192415 
L 159.500318 299.266769 
L 162.652841 294.649988 
L 165.805364 289.227842 
L 167.381625 286.307405 
L 170.534148 279.753722 
L 173.686671 272.544646 
L 175.262933 268.632283 
L 179.991717 255.64436 
L 183.14424 246.446761 
L 187.873025 232.604455 
L 192.601809 218.815593 
L 198.906855 203.255573 
L 202.059378 196.811162 
L 203.63564 193.812812 
L 205.211901 191.346722 
L 206.788163 189.373516 
L 208.364424 187.68328 
L 209.940686 186.458917 
L 211.516947 185.584493 
L 213.093209 185.047818 
L 214.66947 185.088025 
L 216.245732 185.562441 
L 217.821993 186.559505 
L 219.398255 187.87966 
L 220.974516 189.574211 
L 222.550778 191.617728 
L 225.703301 196.717757 
L 227.279562 199.869903 
L 230.432085 206.906142 
L 232.008347 210.803959 
L 236.737131 224.002585 
L 244.618439 247.091668 
L 247.770962 256.24107 
L 250.923485 264.818088 
L 254.076008 272.987428 
L 257.228531 280.498755 
L 260.381054 287.06478 
L 263.533577 292.839347 
L 266.6861 297.747097 
L 268.262362 299.871605 
L 271.414885 303.590672 
L 274.567408 306.581436 
L 277.719931 308.985742 
L 279.296192 310.058856 
L 280.872454 310.953018 
L 284.024977 312.327887 
L 287.1775 313.557573 
L 290.330023 314.375118 
L 293.482546 314.998829 
L 296.635069 315.492405 
L 302.940115 316.110648 
L 307.668899 316.370416 
L 320.278991 316.683237 
L 334.465345 316.780785 
L 369.143098 316.799996 
L 369.143098 316.799996 
" clip-path="url(#pf5b4e001b5)" style="fill: none; stroke: #ff7f0e; stroke-width: 1.5; stroke-linecap: square"/>
   </g>
   <g id="line2d_15">
    <path d="M -1 316.8 
L 84.499194 316.702192 
L 94.678061 316.537569 
L 104.856928 316.141771 
L 111.64284 315.58923 
L 115.035796 315.207891 
L 118.428751 314.697764 
L 125.214663 313.257073 
L 128.607618 312.21799 
L 132.000574 311.009506 
L 135.39353 309.547679 
L 138.786486 307.710033 
L 142.179441 305.510486 
L 145.572397 303.051579 
L 148.965353 300.08221 
L 152.358308 296.720531 
L 155.751264 292.801596 
L 159.14422 288.489361 
L 162.537175 283.639757 
L 165.930131 278.447648 
L 169.323087 272.735786 
L 176.108998 260.447193 
L 182.89491 247.470243 
L 189.680821 234.983437 
L 193.073777 229.171537 
L 196.466733 223.708073 
L 199.859688 219.232533 
L 203.252644 215.445707 
L 206.6456 212.722617 
L 210.038555 210.472048 
L 213.431511 209.573133 
L 216.824467 210.255593 
L 220.217423 211.561754 
L 223.610378 213.743778 
L 227.003334 217.133079 
L 230.39629 221.399509 
L 233.789245 226.51985 
L 237.182201 232.281441 
L 243.968113 244.681751 
L 247.361068 251.655433 
L 257.539935 270.855579 
L 260.932891 276.84279 
L 264.325847 282.55299 
L 267.718802 287.654017 
L 271.111758 292.271861 
L 274.504714 296.443956 
L 277.89767 300.011813 
L 281.290625 303.070463 
L 284.683581 305.821926 
L 288.076537 308.039622 
L 291.469492 309.897515 
L 294.862448 311.469425 
L 298.255404 312.704842 
L 301.64836 313.670597 
L 305.041315 314.417114 
L 311.827227 315.519625 
L 318.613138 316.136006 
L 325.39905 316.460245 
L 338.970872 316.727878 
L 369.507474 316.798996 
L 396.651119 316.799997 
L 396.651119 316.799997 
" clip-path="url(#pf5b4e001b5)" style="fill: none; stroke: #2ca02c; stroke-width: 1.5; stroke-linecap: square"/>
   </g>
   <g id="line2d_16">
    <path d="M 40.158453 316.799996 
L 102.124001 316.704114 
L 114.172857 316.460282 
L 119.336653 316.23164 
L 127.942979 315.466214 
L 131.385509 314.934109 
L 134.828039 314.274399 
L 138.27057 313.343857 
L 141.7131 312.081849 
L 143.434365 311.345045 
L 145.155631 310.469384 
L 146.876896 309.455508 
L 150.319426 307.034669 
L 152.040691 305.622056 
L 153.761957 304.055291 
L 157.204487 300.369526 
L 158.925752 298.144998 
L 162.368283 293.154254 
L 164.089548 290.50634 
L 167.532078 284.16112 
L 169.253343 280.778675 
L 174.417139 269.007483 
L 177.859669 260.289194 
L 184.74473 241.54538 
L 188.187261 231.992865 
L 191.629791 222.817725 
L 196.793587 210.398361 
L 200.236117 203.212008 
L 203.678647 197.288424 
L 205.399913 194.675506 
L 207.121178 192.754423 
L 210.563708 189.852494 
L 212.284973 189.218871 
L 215.727504 189.403958 
L 217.448769 189.907997 
L 219.170034 191.229968 
L 220.891299 192.735898 
L 222.612565 194.733588 
L 224.33383 197.279332 
L 226.055095 200.156076 
L 229.497625 206.995181 
L 231.218891 210.603082 
L 234.661421 218.993774 
L 239.825217 232.785955 
L 248.431543 256.867861 
L 251.874073 265.869719 
L 255.316603 274.32589 
L 258.759134 282.035972 
L 262.201664 288.897001 
L 263.922929 291.876244 
L 265.644195 294.600625 
L 269.086725 299.397361 
L 270.80799 301.658976 
L 272.529255 303.54114 
L 274.250521 305.193568 
L 277.693051 308.036236 
L 279.414316 309.346156 
L 281.135581 310.39705 
L 284.578112 312.071856 
L 288.020642 313.336325 
L 291.463173 314.282073 
L 294.905703 315.020829 
L 298.348233 315.52736 
L 305.233294 316.143392 
L 312.118355 316.449834 
L 319.003416 316.617816 
L 332.773538 316.754406 
L 355.149985 316.794468 
L 382.690228 316.799996 
L 382.690228 316.799996 
" clip-path="url(#pf5b4e001b5)" style="fill: none; stroke: #d62728; stroke-width: 1.5; stroke-linecap: square"/>
   </g>
   <g id="patch_3">
    <path d="M 57.6 316.8 
L 57.6 28.8 
" style="fill: none; stroke: #000000; stroke-width: 0.8; stroke-linejoin: miter; stroke-linecap: square"/>
   </g>
   <g id="patch_4">
    <path d="M 369.6 316.8 
L 369.6 28.8 
" style="fill: none; stroke: #000000; stroke-width: 0.8; stroke-linejoin: miter; stroke-linecap: square"/>
   </g>
   <g id="patch_5">
    <path d="M 57.6 316.8 
L 369.6 316.8 
" style="fill: none; stroke: #000000; stroke-width: 0.8; stroke-linejoin: miter; stroke-linecap: square"/>
   </g>
   <g id="patch_6">
    <path d="M 57.6 28.8 
L 369.6 28.8 
" style="fill: none; stroke: #000000; stroke-width: 0.8; stroke-linejoin: miter; stroke-linecap: square"/>
   </g>
   <g id="text_12">
    <!-- No Permutation -->
    <g transform="translate(160.183125 22.8)scale(0.12 -0.12)">
     <defs>
      <path id="DejaVuSans-Bold-4e" d="M 588 4666 
L 1931 4666 
L 3628 1466 
L 3628 4666 
L 4769 4666 
L 4769 0 
L 3425 0 
L 1728 3200 
L 1728 0 
L 588 0 
L 588 4666 
z
" transform="scale(0.015625)"/>
      <path id="DejaVuSans-Bold-6f" d="M 2203 2784 
Q 1831 2784 1636 2517 
Q 1441 2250 1441 1747 
Q 1441 1244 1636 976 
Q 1831 709 2203 709 
Q 2569 709 2762 976 
Q 2956 1244 2956 1747 
Q 2956 2250 2762 2517 
Q 2569 2784 2203 2784 
z
M 2203 3584 
Q 3106 3584 3614 3096 
Q 4122 2609 4122 1747 
Q 4122 884 3614 396 
Q 3106 -91 2203 -91 
Q 1297 -91 786 396 
Q 275 884 275 1747 
Q 275 2609 786 3096 
Q 1297 3584 2203 3584 
z
" transform="scale(0.015625)"/>
      <path id="DejaVuSans-Bold-20" transform="scale(0.015625)"/>
      <path id="DejaVuSans-Bold-50" d="M 588 4666 
L 2584 4666 
Q 3475 4666 3951 4270 
Q 4428 3875 4428 3144 
Q 4428 2409 3951 2014 
Q 3475 1619 2584 1619 
L 1791 1619 
L 1791 0 
L 588 0 
L 588 4666 
z
M 1791 3794 
L 1791 2491 
L 2456 2491 
Q 2806 2491 2997 2661 
Q 3188 2831 3188 3144 
Q 3188 3456 2997 3625 
Q 2806 3794 2456 3794 
L 1791 3794 
z
" transform="scale(0.015625)"/>
      <path id="DejaVuSans-Bold-65" d="M 4031 1759 
L 4031 1441 
L 1416 1441 
Q 1456 1047 1700 850 
Q 1944 653 2381 653 
Q 2734 653 3104 758 
Q 3475 863 3866 1075 
L 3866 213 
Q 3469 63 3072 -14 
Q 2675 -91 2278 -91 
Q 1328 -91 801 392 
Q 275 875 275 1747 
Q 275 2603 792 3093 
Q 1309 3584 2216 3584 
Q 3041 3584 3536 3087 
Q 4031 2591 4031 1759 
z
M 2881 2131 
Q 2881 2450 2695 2645 
Q 2509 2841 2209 2841 
Q 1884 2841 1681 2658 
Q 1478 2475 1428 2131 
L 2881 2131 
z
" transform="scale(0.015625)"/>
      <path id="DejaVuSans-Bold-72" d="M 3138 2547 
Q 2991 2616 2845 2648 
Q 2700 2681 2553 2681 
Q 2122 2681 1889 2404 
Q 1656 2128 1656 1613 
L 1656 0 
L 538 0 
L 538 3500 
L 1656 3500 
L 1656 2925 
Q 1872 3269 2151 3426 
Q 2431 3584 2822 3584 
Q 2878 3584 2943 3579 
Q 3009 3575 3134 3559 
L 3138 2547 
z
" transform="scale(0.015625)"/>
      <path id="DejaVuSans-Bold-6d" d="M 3781 2919 
Q 3994 3244 4286 3414 
Q 4578 3584 4928 3584 
Q 5531 3584 5847 3212 
Q 6163 2841 6163 2131 
L 6163 0 
L 5038 0 
L 5038 1825 
Q 5041 1866 5042 1909 
Q 5044 1953 5044 2034 
Q 5044 2406 4934 2573 
Q 4825 2741 4581 2741 
Q 4263 2741 4089 2478 
Q 3916 2216 3909 1719 
L 3909 0 
L 2784 0 
L 2784 1825 
Q 2784 2406 2684 2573 
Q 2584 2741 2328 2741 
Q 2006 2741 1831 2477 
Q 1656 2213 1656 1722 
L 1656 0 
L 531 0 
L 531 3500 
L 1656 3500 
L 1656 2988 
Q 1863 3284 2130 3434 
Q 2397 3584 2719 3584 
Q 3081 3584 3359 3409 
Q 3638 3234 3781 2919 
z
" transform="scale(0.015625)"/>
      <path id="DejaVuSans-Bold-75" d="M 500 1363 
L 500 3500 
L 1625 3500 
L 1625 3150 
Q 1625 2866 1622 2436 
Q 1619 2006 1619 1863 
Q 1619 1441 1641 1255 
Q 1663 1069 1716 984 
Q 1784 875 1895 815 
Q 2006 756 2150 756 
Q 2500 756 2700 1025 
Q 2900 1294 2900 1772 
L 2900 3500 
L 4019 3500 
L 4019 0 
L 2900 0 
L 2900 506 
Q 2647 200 2364 54 
Q 2081 -91 1741 -91 
Q 1134 -91 817 281 
Q 500 653 500 1363 
z
" transform="scale(0.015625)"/>
      <path id="DejaVuSans-Bold-74" d="M 1759 4494 
L 1759 3500 
L 2913 3500 
L 2913 2700 
L 1759 2700 
L 1759 1216 
Q 1759 972 1856 886 
Q 1953 800 2241 800 
L 2816 800 
L 2816 0 
L 1856 0 
Q 1194 0 917 276 
Q 641 553 641 1216 
L 641 2700 
L 84 2700 
L 84 3500 
L 641 3500 
L 641 4494 
L 1759 4494 
z
" transform="scale(0.015625)"/>
      <path id="DejaVuSans-Bold-61" d="M 2106 1575 
Q 1756 1575 1579 1456 
Q 1403 1338 1403 1106 
Q 1403 894 1545 773 
Q 1688 653 1941 653 
Q 2256 653 2472 879 
Q 2688 1106 2688 1447 
L 2688 1575 
L 2106 1575 
z
M 3816 1997 
L 3816 0 
L 2688 0 
L 2688 519 
Q 2463 200 2181 54 
Q 1900 -91 1497 -91 
Q 953 -91 614 226 
Q 275 544 275 1050 
Q 275 1666 698 1953 
Q 1122 2241 2028 2241 
L 2688 2241 
L 2688 2328 
Q 2688 2594 2478 2717 
Q 2269 2841 1825 2841 
Q 1466 2841 1156 2769 
Q 847 2697 581 2553 
L 581 3406 
Q 941 3494 1303 3539 
Q 1666 3584 2028 3584 
Q 2975 3584 3395 3211 
Q 3816 2838 3816 1997 
z
" transform="scale(0.015625)"/>
      <path id="DejaVuSans-Bold-69" d="M 538 3500 
L 1656 3500 
L 1656 0 
L 538 0 
L 538 3500 
z
M 538 4863 
L 1656 4863 
L 1656 3950 
L 538 3950 
L 538 4863 
z
" transform="scale(0.015625)"/>
      <path id="DejaVuSans-Bold-6e" d="M 4056 2131 
L 4056 0 
L 2931 0 
L 2931 347 
L 2931 1631 
Q 2931 2084 2911 2256 
Q 2891 2428 2841 2509 
Q 2775 2619 2662 2680 
Q 2550 2741 2406 2741 
Q 2056 2741 1856 2470 
Q 1656 2200 1656 1722 
L 1656 0 
L 538 0 
L 538 3500 
L 1656 3500 
L 1656 2988 
Q 1909 3294 2193 3439 
Q 2478 3584 2822 3584 
Q 3428 3584 3742 3212 
Q 4056 2841 4056 2131 
z
" transform="scale(0.015625)"/>
     </defs>
     <use xlink:href="#DejaVuSans-Bold-4e"/>
     <use xlink:href="#DejaVuSans-Bold-6f" x="83.691406"/>
     <use xlink:href="#DejaVuSans-Bold-20" x="152.392578"/>
     <use xlink:href="#DejaVuSans-Bold-50" x="187.207031"/>
     <use xlink:href="#DejaVuSans-Bold-65" x="260.498047"/>
     <use xlink:href="#DejaVuSans-Bold-72" x="328.320312"/>
     <use xlink:href="#DejaVuSans-Bold-6d" x="377.636719"/>
     <use xlink:href="#DejaVuSans-Bold-75" x="481.835938"/>
     <use xlink:href="#DejaVuSans-Bold-74" x="553.027344"/>
     <use xlink:href="#DejaVuSans-Bold-61" x="600.830078"/>
     <use xlink:href="#DejaVuSans-Bold-74" x="668.310547"/>
     <use xlink:href="#DejaVuSans-Bold-69" x="716.113281"/>
     <use xlink:href="#DejaVuSans-Bold-6f" x="750.390625"/>
     <use xlink:href="#DejaVuSans-Bold-6e" x="819.091797"/>
    </g>
   </g>
  </g>
  <g id="axes_2">
   <g id="patch_7">
    <path d="M 400.8 316.8 
L 712.8 316.8 
L 712.8 28.8 
L 400.8 28.8 
z
" style="fill: #ffffff"/>
   </g>
   <g id="matplotlib.axis_3">
    <g id="xtick_6">
     <g id="line2d_17">
      <g>
       <use xlink:href="#m3b946b66a3" x="432" y="316.8" style="stroke: #000000; stroke-width: 0.8"/>
      </g>
     </g>
     <g id="text_13">
      <!-- −0.4 -->
      <g transform="translate(419.858594 331.398438)scale(0.1 -0.1)">
       <use xlink:href="#DejaVuSans-2212"/>
       <use xlink:href="#DejaVuSans-30" x="83.789062"/>
       <use xlink:href="#DejaVuSans-2e" x="147.412109"/>
       <use xlink:href="#DejaVuSans-34" x="179.199219"/>
      </g>
     </g>
    </g>
    <g id="xtick_7">
     <g id="line2d_18">
      <g>
       <use xlink:href="#m3b946b66a3" x="494.4" y="316.8" style="stroke: #000000; stroke-width: 0.8"/>
      </g>
     </g>
     <g id="text_14">
      <!-- −0.2 -->
      <g transform="translate(482.258594 331.398438)scale(0.1 -0.1)">
       <use xlink:href="#DejaVuSans-2212"/>
       <use xlink:href="#DejaVuSans-30" x="83.789062"/>
       <use xlink:href="#DejaVuSans-2e" x="147.412109"/>
       <use xlink:href="#DejaVuSans-32" x="179.199219"/>
      </g>
     </g>
    </g>
    <g id="xtick_8">
     <g id="line2d_19">
      <g>
       <use xlink:href="#m3b946b66a3" x="556.8" y="316.8" style="stroke: #000000; stroke-width: 0.8"/>
      </g>
     </g>
     <g id="text_15">
      <!-- 0.0 -->
      <g transform="translate(548.848437 331.398438)scale(0.1 -0.1)">
       <use xlink:href="#DejaVuSans-30"/>
       <use xlink:href="#DejaVuSans-2e" x="63.623047"/>
       <use xlink:href="#DejaVuSans-30" x="95.410156"/>
      </g>
     </g>
    </g>
    <g id="xtick_9">
     <g id="line2d_20">
      <g>
       <use xlink:href="#m3b946b66a3" x="619.2" y="316.8" style="stroke: #000000; stroke-width: 0.8"/>
      </g>
     </g>
     <g id="text_16">
      <!-- 0.2 -->
      <g transform="translate(611.248437 331.398438)scale(0.1 -0.1)">
       <use xlink:href="#DejaVuSans-30"/>
       <use xlink:href="#DejaVuSans-2e" x="63.623047"/>
       <use xlink:href="#DejaVuSans-32" x="95.410156"/>
      </g>
     </g>
    </g>
    <g id="xtick_10">
     <g id="line2d_21">
      <g>
       <use xlink:href="#m3b946b66a3" x="681.6" y="316.8" style="stroke: #000000; stroke-width: 0.8"/>
      </g>
     </g>
     <g id="text_17">
      <!-- 0.4 -->
      <g transform="translate(673.648437 331.398438)scale(0.1 -0.1)">
       <use xlink:href="#DejaVuSans-30"/>
       <use xlink:href="#DejaVuSans-2e" x="63.623047"/>
       <use xlink:href="#DejaVuSans-34" x="95.410156"/>
      </g>
     </g>
    </g>
   </g>
   <g id="matplotlib.axis_4">
    <g id="ytick_7">
     <g id="line2d_22">
      <g>
       <use xlink:href="#m492207a4ac" x="400.8" y="316.8" style="stroke: #000000; stroke-width: 0.8"/>
      </g>
     </g>
    </g>
    <g id="ytick_8">
     <g id="line2d_23">
      <g>
       <use xlink:href="#m492207a4ac" x="400.8" y="259.2" style="stroke: #000000; stroke-width: 0.8"/>
      </g>
     </g>
    </g>
    <g id="ytick_9">
     <g id="line2d_24">
      <g>
       <use xlink:href="#m492207a4ac" x="400.8" y="201.6" style="stroke: #000000; stroke-width: 0.8"/>
      </g>
     </g>
    </g>
    <g id="ytick_10">
     <g id="line2d_25">
      <g>
       <use xlink:href="#m492207a4ac" x="400.8" y="144" style="stroke: #000000; stroke-width: 0.8"/>
      </g>
     </g>
    </g>
    <g id="ytick_11">
     <g id="line2d_26">
      <g>
       <use xlink:href="#m492207a4ac" x="400.8" y="86.4" style="stroke: #000000; stroke-width: 0.8"/>
      </g>
     </g>
    </g>
    <g id="ytick_12">
     <g id="line2d_27">
      <g>
       <use xlink:href="#m492207a4ac" x="400.8" y="28.8" style="stroke: #000000; stroke-width: 0.8"/>
      </g>
     </g>
    </g>
   </g>
   <g id="line2d_28">
    <path d="M 556.8 316.8 
L 556.8 28.8 
" clip-path="url(#pf2470ce6bd)" style="fill: none; stroke-dasharray: 5.55,2.4; stroke-dashoffset: 0; stroke: #1f77b4; stroke-width: 1.5"/>
   </g>
   <g id="line2d_29">
    <path d="M 23.440894 316.799998 
L 397.565258 316.685626 
L 413.317863 316.430926 
L 421.194165 316.114133 
L 429.070468 315.649421 
L 436.94677 314.878963 
L 444.823073 313.719004 
L 448.761224 312.96464 
L 452.699375 312.031492 
L 456.637526 310.929904 
L 460.575677 309.590792 
L 464.513829 308.035963 
L 468.45198 306.230131 
L 472.390131 304.255733 
L 476.328282 301.896676 
L 480.266433 299.132823 
L 484.204585 296.206765 
L 488.142736 293.008925 
L 492.080887 289.385391 
L 496.019038 285.594529 
L 503.895341 277.278158 
L 507.833492 272.97514 
L 515.709794 264.011633 
L 527.524248 250.795813 
L 531.462399 247.078867 
L 535.40055 243.751151 
L 539.338701 240.648161 
L 547.215004 236.530935 
L 551.153155 235.236291 
L 555.091306 234.761281 
L 559.029457 234.631462 
L 562.967609 235.479981 
L 566.90576 237.009173 
L 570.843911 238.84688 
L 574.782062 241.422771 
L 578.720213 244.351957 
L 582.658365 247.901958 
L 586.596516 251.707902 
L 594.472818 260.247123 
L 610.225423 278.034654 
L 614.163574 282.245948 
L 618.101725 286.260904 
L 622.039877 290.026828 
L 625.978028 293.531112 
L 629.916179 296.808006 
L 633.85433 299.755374 
L 637.792481 302.260145 
L 641.730633 304.519307 
L 645.668784 306.5668 
L 649.606935 308.347208 
L 653.545086 309.896084 
L 661.421389 312.231556 
L 665.35954 313.137123 
L 669.297691 313.897326 
L 677.173994 315.024794 
L 685.050296 315.722862 
L 692.926598 316.165692 
L 700.802901 316.443743 
L 712.617354 316.656734 
L 721 316.729979 
L 721 316.729979 
" clip-path="url(#pf2470ce6bd)" style="fill: none; stroke: #1f77b4; stroke-width: 1.5; stroke-linecap: square"/>
   </g>
   <g id="line2d_30">
    <path d="M 479.013385 316.799993 
L 502.008343 316.69556 
L 506.114586 316.467604 
L 509.39958 316.048687 
L 511.042077 315.674884 
L 512.684574 315.140513 
L 514.327071 314.4787 
L 515.14832 314.054549 
L 516.790817 312.875392 
L 518.433314 311.301045 
L 520.075811 309.279675 
L 520.897059 308.078306 
L 522.539556 304.936048 
L 523.360805 303.206177 
L 525.003302 298.855141 
L 526.645799 293.415895 
L 527.467047 290.267517 
L 529.109544 282.640114 
L 530.752041 273.702599 
L 532.394538 263.38832 
L 534.037035 251.60344 
L 535.679532 237.639764 
L 537.32203 222.364931 
L 538.964527 205.886395 
L 542.249521 169.079041 
L 547.99826 104.885034 
L 549.640757 89.160189 
L 551.283254 75.580251 
L 552.104503 69.91581 
L 552.925751 65.659997 
L 554.568248 58.680868 
L 555.389497 56.051163 
L 556.210745 54.677287 
L 557.031994 53.925959 
L 557.853242 55.005188 
L 559.49574 58.798112 
L 560.316988 62.026484 
L 561.138237 66.126281 
L 561.959485 71.285188 
L 563.601982 84.07492 
L 564.423231 90.986222 
L 567.708225 125.428431 
L 573.456964 191.721026 
L 575.92071 218.046229 
L 578.384455 241.500273 
L 580.026952 255.246845 
L 581.66945 266.928742 
L 583.311947 277.046707 
L 584.133195 281.640287 
L 586.596941 292.828836 
L 587.418189 295.891932 
L 589.060686 300.825322 
L 590.703183 304.899977 
L 591.524432 306.631948 
L 593.166929 309.261011 
L 593.988177 310.454696 
L 595.630674 312.358886 
L 597.273171 313.601645 
L 598.915668 314.601508 
L 600.558165 315.289907 
L 603.84316 316.118284 
L 607.128154 316.4872 
L 611.234396 316.692372 
L 619.446881 316.788238 
L 642.44184 316.799993 
L 642.44184 316.799993 
" clip-path="url(#pf2470ce6bd)" style="fill: none; stroke: #ff7f0e; stroke-width: 1.5; stroke-linecap: square"/>
   </g>
   <g id="line2d_31">
    <path d="M -1 316.799991 
L 426.678817 316.698847 
L 437.857212 316.493913 
L 445.309476 316.202575 
L 452.76174 315.661099 
L 460.214004 314.702645 
L 463.940136 313.985656 
L 467.666267 313.147998 
L 471.392399 312.050567 
L 475.118531 310.653045 
L 478.844663 308.856194 
L 482.570795 306.804241 
L 486.296927 304.297289 
L 490.023059 301.344322 
L 493.749191 297.791319 
L 497.475323 293.724225 
L 501.201454 289.176905 
L 504.927586 284.106896 
L 508.653718 278.617397 
L 516.105982 266.141396 
L 523.558246 252.721139 
L 527.284378 245.554692 
L 531.01051 238.940287 
L 534.736641 232.595246 
L 538.462773 226.677561 
L 542.188905 221.744356 
L 545.915037 217.607856 
L 549.641169 214.084957 
L 553.367301 212.06556 
L 557.093433 211.208667 
L 560.819565 212.025393 
L 564.545696 213.279829 
L 568.271828 216.361364 
L 571.99796 220.441445 
L 575.724092 225.207811 
L 579.450224 230.874347 
L 583.176356 237.455275 
L 601.807015 272.254712 
L 605.533147 278.651294 
L 609.259279 284.498896 
L 612.985411 289.764043 
L 616.711543 294.443905 
L 620.437675 298.686764 
L 624.163807 302.306945 
L 627.889939 305.353562 
L 631.61607 307.836341 
L 635.342202 309.892147 
L 639.068334 311.596787 
L 642.794466 312.881005 
L 646.520598 313.919465 
L 650.24673 314.70641 
L 653.972862 315.285875 
L 661.425125 316.066346 
L 668.877389 316.444483 
L 680.055785 316.693788 
L 698.686444 316.791976 
L 721 316.799592 
L 721 316.799592 
" clip-path="url(#pf2470ce6bd)" style="fill: none; stroke: #2ca02c; stroke-width: 1.5; stroke-linecap: square"/>
   </g>
   <g id="line2d_32">
    <path d="M -1 316.8 
L 457.38706 316.715504 
L 467.992902 316.517493 
L 475.063464 316.122126 
L 478.598745 315.784744 
L 482.134026 315.288779 
L 485.669307 314.5744 
L 489.204588 313.576175 
L 492.739869 312.144027 
L 496.27515 310.220748 
L 499.810431 307.510645 
L 503.345712 303.953238 
L 506.880993 299.236158 
L 510.416273 293.407503 
L 513.951554 286.132196 
L 517.486835 277.393497 
L 521.022116 267.653948 
L 524.557397 256.253336 
L 531.627959 231.14385 
L 535.16324 217.849804 
L 542.233802 193.368828 
L 545.769083 183.563733 
L 549.304364 176.011267 
L 552.839645 170.753584 
L 556.374925 168.536048 
L 559.910206 169.680935 
L 563.445487 173.650251 
L 566.980768 180.424746 
L 570.516049 189.65362 
L 574.05133 200.556807 
L 581.121892 226.20406 
L 588.192454 252.322498 
L 591.727735 264.475826 
L 595.263016 275.208718 
L 598.798297 284.558424 
L 602.333577 292.412828 
L 605.868858 298.92009 
L 609.404139 303.627025 
L 612.93942 307.525961 
L 616.474701 310.354193 
L 620.009982 312.386949 
L 623.545263 313.80895 
L 627.080544 314.821217 
L 630.615825 315.507894 
L 637.686387 316.264862 
L 644.756948 316.582676 
L 658.898072 316.765347 
L 687.18032 316.799929 
L 694.250881 316.799996 
L 694.250881 316.799996 
" clip-path="url(#pf2470ce6bd)" style="fill: none; stroke: #d62728; stroke-width: 1.5; stroke-linecap: square"/>
   </g>
   <g id="patch_8">
    <path d="M 400.8 316.8 
L 400.8 28.8 
" style="fill: none; stroke: #000000; stroke-width: 0.8; stroke-linejoin: miter; stroke-linecap: square"/>
   </g>
   <g id="patch_9">
    <path d="M 712.8 316.8 
L 712.8 28.8 
" style="fill: none; stroke: #000000; stroke-width: 0.8; stroke-linejoin: miter; stroke-linecap: square"/>
   </g>
   <g id="patch_10">
    <path d="M 400.8 316.8 
L 712.8 316.8 
" style="fill: none; stroke: #000000; stroke-width: 0.8; stroke-linejoin: miter; stroke-linecap: square"/>
   </g>
   <g id="patch_11">
    <path d="M 400.8 28.8 
L 712.8 28.8 
" style="fill: none; stroke: #000000; stroke-width: 0.8; stroke-linejoin: miter; stroke-linecap: square"/>
   </g>
   <g id="text_18">
    <!-- Permuted Vectors -->
    <g transform="translate(496.069687 22.8)scale(0.12 -0.12)">
     <defs>
      <path id="DejaVuSans-Bold-64" d="M 2919 2988 
L 2919 4863 
L 4044 4863 
L 4044 0 
L 2919 0 
L 2919 506 
Q 2688 197 2409 53 
Q 2131 -91 1766 -91 
Q 1119 -91 703 423 
Q 288 938 288 1747 
Q 288 2556 703 3070 
Q 1119 3584 1766 3584 
Q 2128 3584 2408 3439 
Q 2688 3294 2919 2988 
z
M 2181 722 
Q 2541 722 2730 984 
Q 2919 1247 2919 1747 
Q 2919 2247 2730 2509 
Q 2541 2772 2181 2772 
Q 1825 2772 1636 2509 
Q 1447 2247 1447 1747 
Q 1447 1247 1636 984 
Q 1825 722 2181 722 
z
" transform="scale(0.015625)"/>
      <path id="DejaVuSans-Bold-56" d="M 31 4666 
L 1241 4666 
L 2478 1222 
L 3713 4666 
L 4922 4666 
L 3194 0 
L 1759 0 
L 31 4666 
z
" transform="scale(0.015625)"/>
      <path id="DejaVuSans-Bold-63" d="M 3366 3391 
L 3366 2478 
Q 3138 2634 2908 2709 
Q 2678 2784 2431 2784 
Q 1963 2784 1702 2511 
Q 1441 2238 1441 1747 
Q 1441 1256 1702 982 
Q 1963 709 2431 709 
Q 2694 709 2930 787 
Q 3166 866 3366 1019 
L 3366 103 
Q 3103 6 2833 -42 
Q 2563 -91 2291 -91 
Q 1344 -91 809 395 
Q 275 881 275 1747 
Q 275 2613 809 3098 
Q 1344 3584 2291 3584 
Q 2566 3584 2833 3536 
Q 3100 3488 3366 3391 
z
" transform="scale(0.015625)"/>
      <path id="DejaVuSans-Bold-73" d="M 3272 3391 
L 3272 2541 
Q 2913 2691 2578 2766 
Q 2244 2841 1947 2841 
Q 1628 2841 1473 2761 
Q 1319 2681 1319 2516 
Q 1319 2381 1436 2309 
Q 1553 2238 1856 2203 
L 2053 2175 
Q 2913 2066 3209 1816 
Q 3506 1566 3506 1031 
Q 3506 472 3093 190 
Q 2681 -91 1863 -91 
Q 1516 -91 1145 -36 
Q 775 19 384 128 
L 384 978 
Q 719 816 1070 734 
Q 1422 653 1784 653 
Q 2113 653 2278 743 
Q 2444 834 2444 1013 
Q 2444 1163 2330 1236 
Q 2216 1309 1875 1350 
L 1678 1375 
Q 931 1469 631 1722 
Q 331 1975 331 2491 
Q 331 3047 712 3315 
Q 1094 3584 1881 3584 
Q 2191 3584 2531 3537 
Q 2872 3491 3272 3391 
z
" transform="scale(0.015625)"/>
     </defs>
     <use xlink:href="#DejaVuSans-Bold-50"/>
     <use xlink:href="#DejaVuSans-Bold-65" x="73.291016"/>
     <use xlink:href="#DejaVuSans-Bold-72" x="141.113281"/>
     <use xlink:href="#DejaVuSans-Bold-6d" x="190.429688"/>
     <use xlink:href="#DejaVuSans-Bold-75" x="294.628906"/>
     <use xlink:href="#DejaVuSans-Bold-74" x="365.820312"/>
     <use xlink:href="#DejaVuSans-Bold-65" x="413.623047"/>
     <use xlink:href="#DejaVuSans-Bold-64" x="481.445312"/>
     <use xlink:href="#DejaVuSans-Bold-20" x="553.027344"/>
     <use xlink:href="#DejaVuSans-Bold-56" x="587.841797"/>
     <use xlink:href="#DejaVuSans-Bold-65" x="659.734375"/>
     <use xlink:href="#DejaVuSans-Bold-63" x="727.556641"/>
     <use xlink:href="#DejaVuSans-Bold-74" x="786.833984"/>
     <use xlink:href="#DejaVuSans-Bold-6f" x="834.636719"/>
     <use xlink:href="#DejaVuSans-Bold-72" x="903.337891"/>
     <use xlink:href="#DejaVuSans-Bold-73" x="952.654297"/>
    </g>
   </g>
  </g>
  <g id="text_19">
   <!-- Density -->
   <g transform="translate(25.797656 208.512891)rotate(-90)scale(0.15 -0.15)">
    <defs>
     <path id="DejaVuSans-44" d="M 1259 4147 
L 1259 519 
L 2022 519 
Q 2988 519 3436 956 
Q 3884 1394 3884 2338 
Q 3884 3275 3436 3711 
Q 2988 4147 2022 4147 
L 1259 4147 
z
M 628 4666 
L 1925 4666 
Q 3281 4666 3915 4102 
Q 4550 3538 4550 2338 
Q 4550 1131 3912 565 
Q 3275 0 1925 0 
L 628 0 
L 628 4666 
z
" transform="scale(0.015625)"/>
     <path id="DejaVuSans-65" d="M 3597 1894 
L 3597 1613 
L 953 1613 
Q 991 1019 1311 708 
Q 1631 397 2203 397 
Q 2534 397 2845 478 
Q 3156 559 3463 722 
L 3463 178 
Q 3153 47 2828 -22 
Q 2503 -91 2169 -91 
Q 1331 -91 842 396 
Q 353 884 353 1716 
Q 353 2575 817 3079 
Q 1281 3584 2069 3584 
Q 2775 3584 3186 3129 
Q 3597 2675 3597 1894 
z
M 3022 2063 
Q 3016 2534 2758 2815 
Q 2500 3097 2075 3097 
Q 1594 3097 1305 2825 
Q 1016 2553 972 2059 
L 3022 2063 
z
" transform="scale(0.015625)"/>
     <path id="DejaVuSans-6e" d="M 3513 2113 
L 3513 0 
L 2938 0 
L 2938 2094 
Q 2938 2591 2744 2837 
Q 2550 3084 2163 3084 
Q 1697 3084 1428 2787 
Q 1159 2491 1159 1978 
L 1159 0 
L 581 0 
L 581 3500 
L 1159 3500 
L 1159 2956 
Q 1366 3272 1645 3428 
Q 1925 3584 2291 3584 
Q 2894 3584 3203 3211 
Q 3513 2838 3513 2113 
z
" transform="scale(0.015625)"/>
     <path id="DejaVuSans-73" d="M 2834 3397 
L 2834 2853 
Q 2591 2978 2328 3040 
Q 2066 3103 1784 3103 
Q 1356 3103 1142 2972 
Q 928 2841 928 2578 
Q 928 2378 1081 2264 
Q 1234 2150 1697 2047 
L 1894 2003 
Q 2506 1872 2764 1633 
Q 3022 1394 3022 966 
Q 3022 478 2636 193 
Q 2250 -91 1575 -91 
Q 1294 -91 989 -36 
Q 684 19 347 128 
L 347 722 
Q 666 556 975 473 
Q 1284 391 1588 391 
Q 1994 391 2212 530 
Q 2431 669 2431 922 
Q 2431 1156 2273 1281 
Q 2116 1406 1581 1522 
L 1381 1569 
Q 847 1681 609 1914 
Q 372 2147 372 2553 
Q 372 3047 722 3315 
Q 1072 3584 1716 3584 
Q 2034 3584 2315 3537 
Q 2597 3491 2834 3397 
z
" transform="scale(0.015625)"/>
     <path id="DejaVuSans-69" d="M 603 3500 
L 1178 3500 
L 1178 0 
L 603 0 
L 603 3500 
z
M 603 4863 
L 1178 4863 
L 1178 4134 
L 603 4134 
L 603 4863 
z
" transform="scale(0.015625)"/>
     <path id="DejaVuSans-74" d="M 1172 4494 
L 1172 3500 
L 2356 3500 
L 2356 3053 
L 1172 3053 
L 1172 1153 
Q 1172 725 1289 603 
Q 1406 481 1766 481 
L 2356 481 
L 2356 0 
L 1766 0 
Q 1100 0 847 248 
Q 594 497 594 1153 
L 594 3053 
L 172 3053 
L 172 3500 
L 594 3500 
L 594 4494 
L 1172 4494 
z
" transform="scale(0.015625)"/>
     <path id="DejaVuSans-79" d="M 2059 -325 
Q 1816 -950 1584 -1140 
Q 1353 -1331 966 -1331 
L 506 -1331 
L 506 -850 
L 844 -850 
Q 1081 -850 1212 -737 
Q 1344 -625 1503 -206 
L 1606 56 
L 191 3500 
L 800 3500 
L 1894 763 
L 2988 3500 
L 3597 3500 
L 2059 -325 
z
" transform="scale(0.015625)"/>
    </defs>
    <use xlink:href="#DejaVuSans-44"/>
    <use xlink:href="#DejaVuSans-65" x="77.001953"/>
    <use xlink:href="#DejaVuSans-6e" x="138.525391"/>
    <use xlink:href="#DejaVuSans-73" x="201.904297"/>
    <use xlink:href="#DejaVuSans-69" x="254.003906"/>
    <use xlink:href="#DejaVuSans-74" x="281.787109"/>
    <use xlink:href="#DejaVuSans-79" x="320.996094"/>
   </g>
  </g>
  <g id="text_20">
   <!-- GloVe1M -->
   <g transform="translate(345.6 18)scale(0.2 -0.2)">
    <defs>
     <path id="DejaVuSans-Bold-47" d="M 4781 347 
Q 4331 128 3847 18 
Q 3363 -91 2847 -91 
Q 1681 -91 1000 561 
Q 319 1213 319 2328 
Q 319 3456 1012 4103 
Q 1706 4750 2913 4750 
Q 3378 4750 3804 4662 
Q 4231 4575 4609 4403 
L 4609 3438 
Q 4219 3659 3833 3768 
Q 3447 3878 3059 3878 
Q 2341 3878 1952 3476 
Q 1563 3075 1563 2328 
Q 1563 1588 1938 1184 
Q 2313 781 3003 781 
Q 3191 781 3352 804 
Q 3513 828 3641 878 
L 3641 1784 
L 2906 1784 
L 2906 2591 
L 4781 2591 
L 4781 347 
z
" transform="scale(0.015625)"/>
     <path id="DejaVuSans-Bold-6c" d="M 538 4863 
L 1656 4863 
L 1656 0 
L 538 0 
L 538 4863 
z
" transform="scale(0.015625)"/>
     <path id="DejaVuSans-Bold-31" d="M 750 831 
L 1813 831 
L 1813 3847 
L 722 3622 
L 722 4441 
L 1806 4666 
L 2950 4666 
L 2950 831 
L 4013 831 
L 4013 0 
L 750 0 
L 750 831 
z
" transform="scale(0.015625)"/>
     <path id="DejaVuSans-Bold-4d" d="M 588 4666 
L 2119 4666 
L 3181 2169 
L 4250 4666 
L 5778 4666 
L 5778 0 
L 4641 0 
L 4641 3413 
L 3566 897 
L 2803 897 
L 1728 3413 
L 1728 0 
L 588 0 
L 588 4666 
z
" transform="scale(0.015625)"/>
    </defs>
    <use xlink:href="#DejaVuSans-Bold-47"/>
    <use xlink:href="#DejaVuSans-Bold-6c" x="82.080078"/>
    <use xlink:href="#DejaVuSans-Bold-6f" x="116.357422"/>
    <use xlink:href="#DejaVuSans-Bold-56" x="185.058594"/>
    <use xlink:href="#DejaVuSans-Bold-65" x="256.951172"/>
    <use xlink:href="#DejaVuSans-Bold-31" x="324.773438"/>
    <use xlink:href="#DejaVuSans-Bold-4d" x="394.353516"/>
   </g>
  </g>
  <g id="text_21">
   <!-- Estimation Error -->
   <g transform="translate(313.801172 352.8)scale(0.15 -0.15)">
    <defs>
     <path id="DejaVuSans-45" d="M 628 4666 
L 3578 4666 
L 3578 4134 
L 1259 4134 
L 1259 2753 
L 3481 2753 
L 3481 2222 
L 1259 2222 
L 1259 531 
L 3634 531 
L 3634 0 
L 628 0 
L 628 4666 
z
" transform="scale(0.015625)"/>
     <path id="DejaVuSans-6d" d="M 3328 2828 
Q 3544 3216 3844 3400 
Q 4144 3584 4550 3584 
Q 5097 3584 5394 3201 
Q 5691 2819 5691 2113 
L 5691 0 
L 5113 0 
L 5113 2094 
Q 5113 2597 4934 2840 
Q 4756 3084 4391 3084 
Q 3944 3084 3684 2787 
Q 3425 2491 3425 1978 
L 3425 0 
L 2847 0 
L 2847 2094 
Q 2847 2600 2669 2842 
Q 2491 3084 2119 3084 
Q 1678 3084 1418 2786 
Q 1159 2488 1159 1978 
L 1159 0 
L 581 0 
L 581 3500 
L 1159 3500 
L 1159 2956 
Q 1356 3278 1631 3431 
Q 1906 3584 2284 3584 
Q 2666 3584 2933 3390 
Q 3200 3197 3328 2828 
z
" transform="scale(0.015625)"/>
     <path id="DejaVuSans-61" d="M 2194 1759 
Q 1497 1759 1228 1600 
Q 959 1441 959 1056 
Q 959 750 1161 570 
Q 1363 391 1709 391 
Q 2188 391 2477 730 
Q 2766 1069 2766 1631 
L 2766 1759 
L 2194 1759 
z
M 3341 1997 
L 3341 0 
L 2766 0 
L 2766 531 
Q 2569 213 2275 61 
Q 1981 -91 1556 -91 
Q 1019 -91 701 211 
Q 384 513 384 1019 
Q 384 1609 779 1909 
Q 1175 2209 1959 2209 
L 2766 2209 
L 2766 2266 
Q 2766 2663 2505 2880 
Q 2244 3097 1772 3097 
Q 1472 3097 1187 3025 
Q 903 2953 641 2809 
L 641 3341 
Q 956 3463 1253 3523 
Q 1550 3584 1831 3584 
Q 2591 3584 2966 3190 
Q 3341 2797 3341 1997 
z
" transform="scale(0.015625)"/>
     <path id="DejaVuSans-6f" d="M 1959 3097 
Q 1497 3097 1228 2736 
Q 959 2375 959 1747 
Q 959 1119 1226 758 
Q 1494 397 1959 397 
Q 2419 397 2687 759 
Q 2956 1122 2956 1747 
Q 2956 2369 2687 2733 
Q 2419 3097 1959 3097 
z
M 1959 3584 
Q 2709 3584 3137 3096 
Q 3566 2609 3566 1747 
Q 3566 888 3137 398 
Q 2709 -91 1959 -91 
Q 1206 -91 779 398 
Q 353 888 353 1747 
Q 353 2609 779 3096 
Q 1206 3584 1959 3584 
z
" transform="scale(0.015625)"/>
     <path id="DejaVuSans-20" transform="scale(0.015625)"/>
     <path id="DejaVuSans-72" d="M 2631 2963 
Q 2534 3019 2420 3045 
Q 2306 3072 2169 3072 
Q 1681 3072 1420 2755 
Q 1159 2438 1159 1844 
L 1159 0 
L 581 0 
L 581 3500 
L 1159 3500 
L 1159 2956 
Q 1341 3275 1631 3429 
Q 1922 3584 2338 3584 
Q 2397 3584 2469 3576 
Q 2541 3569 2628 3553 
L 2631 2963 
z
" transform="scale(0.015625)"/>
    </defs>
    <use xlink:href="#DejaVuSans-45"/>
    <use xlink:href="#DejaVuSans-73" x="63.183594"/>
    <use xlink:href="#DejaVuSans-74" x="115.283203"/>
    <use xlink:href="#DejaVuSans-69" x="154.492188"/>
    <use xlink:href="#DejaVuSans-6d" x="182.275391"/>
    <use xlink:href="#DejaVuSans-61" x="279.6875"/>
    <use xlink:href="#DejaVuSans-74" x="340.966797"/>
    <use xlink:href="#DejaVuSans-69" x="380.175781"/>
    <use xlink:href="#DejaVuSans-6f" x="407.958984"/>
    <use xlink:href="#DejaVuSans-6e" x="469.140625"/>
    <use xlink:href="#DejaVuSans-20" x="532.519531"/>
    <use xlink:href="#DejaVuSans-45" x="564.306641"/>
    <use xlink:href="#DejaVuSans-72" x="627.490234"/>
    <use xlink:href="#DejaVuSans-72" x="666.853516"/>
    <use xlink:href="#DejaVuSans-6f" x="705.716797"/>
    <use xlink:href="#DejaVuSans-72" x="766.898438"/>
   </g>
  </g>
  <g id="legend_1">
   <g id="patch_12">
    <path d="M 9.1 88.1725 
L 120.3475 88.1725 
Q 122.9475 88.1725 122.9475 85.5725 
L 122.9475 9.1 
Q 122.9475 6.5 120.3475 6.5 
L 9.1 6.5 
Q 6.5 6.5 6.5 9.1 
L 6.5 85.5725 
Q 6.5 88.1725 9.1 88.1725 
z
" style="fill: #ffffff; opacity: 0.8; stroke: #cccccc; stroke-linejoin: miter"/>
   </g>
   <g id="line2d_33">
    <path d="M 11.7 17.027969 
L 24.7 17.027969 
L 37.7 17.027969 
" style="fill: none; stroke: #1f77b4; stroke-width: 1.5; stroke-linecap: square"/>
   </g>
   <g id="text_22">
    <!-- Maha_M8 -->
    <g transform="translate(48.1 21.577969)scale(0.13 -0.13)">
     <defs>
      <path id="DejaVuSans-4d" d="M 628 4666 
L 1569 4666 
L 2759 1491 
L 3956 4666 
L 4897 4666 
L 4897 0 
L 4281 0 
L 4281 4097 
L 3078 897 
L 2444 897 
L 1241 4097 
L 1241 0 
L 628 0 
L 628 4666 
z
" transform="scale(0.015625)"/>
      <path id="DejaVuSans-68" d="M 3513 2113 
L 3513 0 
L 2938 0 
L 2938 2094 
Q 2938 2591 2744 2837 
Q 2550 3084 2163 3084 
Q 1697 3084 1428 2787 
Q 1159 2491 1159 1978 
L 1159 0 
L 581 0 
L 581 4863 
L 1159 4863 
L 1159 2956 
Q 1366 3272 1645 3428 
Q 1925 3584 2291 3584 
Q 2894 3584 3203 3211 
Q 3513 2838 3513 2113 
z
" transform="scale(0.015625)"/>
      <path id="DejaVuSans-5f" d="M 3263 -1063 
L 3263 -1509 
L -63 -1509 
L -63 -1063 
L 3263 -1063 
z
" transform="scale(0.015625)"/>
     </defs>
     <use xlink:href="#DejaVuSans-4d"/>
     <use xlink:href="#DejaVuSans-61" x="86.279297"/>
     <use xlink:href="#DejaVuSans-68" x="147.558594"/>
     <use xlink:href="#DejaVuSans-61" x="210.9375"/>
     <use xlink:href="#DejaVuSans-5f" x="272.216797"/>
     <use xlink:href="#DejaVuSans-4d" x="322.216797"/>
     <use xlink:href="#DejaVuSans-38" x="408.496094"/>
    </g>
   </g>
   <g id="line2d_34">
    <path d="M 11.7 36.471094 
L 24.7 36.471094 
L 37.7 36.471094 
" style="fill: none; stroke: #ff7f0e; stroke-width: 1.5; stroke-linecap: square"/>
   </g>
   <g id="text_23">
    <!-- Maha_M16 -->
    <g transform="translate(48.1 41.021094)scale(0.13 -0.13)">
     <use xlink:href="#DejaVuSans-4d"/>
     <use xlink:href="#DejaVuSans-61" x="86.279297"/>
     <use xlink:href="#DejaVuSans-68" x="147.558594"/>
     <use xlink:href="#DejaVuSans-61" x="210.9375"/>
     <use xlink:href="#DejaVuSans-5f" x="272.216797"/>
     <use xlink:href="#DejaVuSans-4d" x="322.216797"/>
     <use xlink:href="#DejaVuSans-31" x="408.496094"/>
     <use xlink:href="#DejaVuSans-36" x="472.119141"/>
    </g>
   </g>
   <g id="line2d_35">
    <path d="M 11.7 55.914219 
L 24.7 55.914219 
L 37.7 55.914219 
" style="fill: none; stroke: #2ca02c; stroke-width: 1.5; stroke-linecap: square"/>
   </g>
   <g id="text_24">
    <!-- Euc_M8 -->
    <g transform="translate(48.1 60.464219)scale(0.13 -0.13)">
     <defs>
      <path id="DejaVuSans-75" d="M 544 1381 
L 544 3500 
L 1119 3500 
L 1119 1403 
Q 1119 906 1312 657 
Q 1506 409 1894 409 
Q 2359 409 2629 706 
Q 2900 1003 2900 1516 
L 2900 3500 
L 3475 3500 
L 3475 0 
L 2900 0 
L 2900 538 
Q 2691 219 2414 64 
Q 2138 -91 1772 -91 
Q 1169 -91 856 284 
Q 544 659 544 1381 
z
M 1991 3584 
L 1991 3584 
z
" transform="scale(0.015625)"/>
      <path id="DejaVuSans-63" d="M 3122 3366 
L 3122 2828 
Q 2878 2963 2633 3030 
Q 2388 3097 2138 3097 
Q 1578 3097 1268 2742 
Q 959 2388 959 1747 
Q 959 1106 1268 751 
Q 1578 397 2138 397 
Q 2388 397 2633 464 
Q 2878 531 3122 666 
L 3122 134 
Q 2881 22 2623 -34 
Q 2366 -91 2075 -91 
Q 1284 -91 818 406 
Q 353 903 353 1747 
Q 353 2603 823 3093 
Q 1294 3584 2113 3584 
Q 2378 3584 2631 3529 
Q 2884 3475 3122 3366 
z
" transform="scale(0.015625)"/>
     </defs>
     <use xlink:href="#DejaVuSans-45"/>
     <use xlink:href="#DejaVuSans-75" x="63.183594"/>
     <use xlink:href="#DejaVuSans-63" x="126.5625"/>
     <use xlink:href="#DejaVuSans-5f" x="181.542969"/>
     <use xlink:href="#DejaVuSans-4d" x="231.542969"/>
     <use xlink:href="#DejaVuSans-38" x="317.822266"/>
    </g>
   </g>
   <g id="line2d_36">
    <path d="M 11.7 75.357344 
L 24.7 75.357344 
L 37.7 75.357344 
" style="fill: none; stroke: #d62728; stroke-width: 1.5; stroke-linecap: square"/>
   </g>
   <g id="text_25">
    <!-- Euc_M16 -->
    <g transform="translate(48.1 79.907344)scale(0.13 -0.13)">
     <use xlink:href="#DejaVuSans-45"/>
     <use xlink:href="#DejaVuSans-75" x="63.183594"/>
     <use xlink:href="#DejaVuSans-63" x="126.5625"/>
     <use xlink:href="#DejaVuSans-5f" x="181.542969"/>
     <use xlink:href="#DejaVuSans-4d" x="231.542969"/>
     <use xlink:href="#DejaVuSans-31" x="317.822266"/>
     <use xlink:href="#DejaVuSans-36" x="381.445312"/>
    </g>
   </g>
  </g>
 </g>
 <defs>
  <clipPath id="pf5b4e001b5">
   <rect x="57.6" y="28.8" width="312" height="288"/>
  </clipPath>
  <clipPath id="pf2470ce6bd">
   <rect x="400.8" y="28.8" width="312" height="288"/>
  </clipPath>
 </defs>
</svg>
